G04 #@! TF.GenerationSoftware,KiCad,Pcbnew,(5.0.1)-3*
G04 #@! TF.CreationDate,2019-12-29T13:00:18-05:00*
G04 #@! TF.ProjectId,ml-ph-board,6D6C2D70682D626F6172642E6B696361,rev?*
G04 #@! TF.SameCoordinates,Original*
G04 #@! TF.FileFunction,Legend,Bot*
G04 #@! TF.FilePolarity,Positive*
%FSLAX46Y46*%
G04 Gerber Fmt 4.6, Leading zero omitted, Abs format (unit mm)*
G04 Created by KiCad (PCBNEW (5.0.1)-3) date 12/29/2019 1:00:18 PM*
%MOMM*%
%LPD*%
G01*
G04 APERTURE LIST*
%ADD10C,0.150000*%
%ADD11C,0.200000*%
%ADD12C,0.010000*%
G04 APERTURE END LIST*
D10*
X146304000Y-105664000D02*
X146304000Y-115570000D01*
X144526000Y-105664000D02*
X144526000Y-115570000D01*
X143002000Y-105664000D02*
X143002000Y-115570000D01*
X141224000Y-105664000D02*
X141224000Y-115570000D01*
D11*
X139192000Y-115570000D02*
X139192000Y-105664000D01*
X148082000Y-115570000D02*
X139192000Y-115570000D01*
X148082000Y-105664000D02*
X148082000Y-115570000D01*
X139192000Y-105664000D02*
X148082000Y-105664000D01*
D10*
X140630666Y-111799904D02*
X140630666Y-112276095D01*
X140916380Y-111704666D02*
X139916380Y-112038000D01*
X140916380Y-112371333D01*
X140916380Y-112704666D02*
X139916380Y-112704666D01*
X139916380Y-112942761D01*
X139964000Y-113085619D01*
X140059238Y-113180857D01*
X140154476Y-113228476D01*
X140344952Y-113276095D01*
X140487809Y-113276095D01*
X140678285Y-113228476D01*
X140773523Y-113180857D01*
X140868761Y-113085619D01*
X140916380Y-112942761D01*
X140916380Y-112704666D01*
X140916380Y-113704666D02*
X139916380Y-113704666D01*
X139916380Y-113942761D01*
X139964000Y-114085619D01*
X140059238Y-114180857D01*
X140154476Y-114228476D01*
X140344952Y-114276095D01*
X140487809Y-114276095D01*
X140678285Y-114228476D01*
X140773523Y-114180857D01*
X140868761Y-114085619D01*
X140916380Y-113942761D01*
X140916380Y-113704666D01*
X140916380Y-115276095D02*
X140440190Y-114942761D01*
X140916380Y-114704666D02*
X139916380Y-114704666D01*
X139916380Y-115085619D01*
X139964000Y-115180857D01*
X140011619Y-115228476D01*
X140106857Y-115276095D01*
X140249714Y-115276095D01*
X140344952Y-115228476D01*
X140392571Y-115180857D01*
X140440190Y-115085619D01*
X140440190Y-114704666D01*
X141566380Y-112133238D02*
X141566380Y-112228476D01*
X141614000Y-112323714D01*
X141661619Y-112371333D01*
X141756857Y-112418952D01*
X141947333Y-112466571D01*
X142185428Y-112466571D01*
X142375904Y-112418952D01*
X142471142Y-112371333D01*
X142518761Y-112323714D01*
X142566380Y-112228476D01*
X142566380Y-112133238D01*
X142518761Y-112038000D01*
X142471142Y-111990380D01*
X142375904Y-111942761D01*
X142185428Y-111895142D01*
X141947333Y-111895142D01*
X141756857Y-111942761D01*
X141661619Y-111990380D01*
X141614000Y-112038000D01*
X141566380Y-112133238D01*
X142566380Y-112799904D02*
X141899714Y-113323714D01*
X141899714Y-112799904D02*
X142566380Y-113323714D01*
X141899714Y-114133238D02*
X142566380Y-114133238D01*
X141518761Y-113895142D02*
X142233047Y-113657047D01*
X142233047Y-114276095D01*
X141566380Y-115133238D02*
X141566380Y-114657047D01*
X142042571Y-114609428D01*
X141994952Y-114657047D01*
X141947333Y-114752285D01*
X141947333Y-114990380D01*
X141994952Y-115085619D01*
X142042571Y-115133238D01*
X142137809Y-115180857D01*
X142375904Y-115180857D01*
X142471142Y-115133238D01*
X142518761Y-115085619D01*
X142566380Y-114990380D01*
X142566380Y-114752285D01*
X142518761Y-114657047D01*
X142471142Y-114609428D01*
X143216380Y-112133238D02*
X143216380Y-112228476D01*
X143264000Y-112323714D01*
X143311619Y-112371333D01*
X143406857Y-112418952D01*
X143597333Y-112466571D01*
X143835428Y-112466571D01*
X144025904Y-112418952D01*
X144121142Y-112371333D01*
X144168761Y-112323714D01*
X144216380Y-112228476D01*
X144216380Y-112133238D01*
X144168761Y-112038000D01*
X144121142Y-111990380D01*
X144025904Y-111942761D01*
X143835428Y-111895142D01*
X143597333Y-111895142D01*
X143406857Y-111942761D01*
X143311619Y-111990380D01*
X143264000Y-112038000D01*
X143216380Y-112133238D01*
X144216380Y-112799904D02*
X143549714Y-113323714D01*
X143549714Y-112799904D02*
X144216380Y-113323714D01*
X143549714Y-114133238D02*
X144216380Y-114133238D01*
X143168761Y-113895142D02*
X143883047Y-113657047D01*
X143883047Y-114276095D01*
X143549714Y-115085619D02*
X144216380Y-115085619D01*
X143168761Y-114847523D02*
X143883047Y-114609428D01*
X143883047Y-115228476D01*
X144866380Y-112133238D02*
X144866380Y-112228476D01*
X144914000Y-112323714D01*
X144961619Y-112371333D01*
X145056857Y-112418952D01*
X145247333Y-112466571D01*
X145485428Y-112466571D01*
X145675904Y-112418952D01*
X145771142Y-112371333D01*
X145818761Y-112323714D01*
X145866380Y-112228476D01*
X145866380Y-112133238D01*
X145818761Y-112038000D01*
X145771142Y-111990380D01*
X145675904Y-111942761D01*
X145485428Y-111895142D01*
X145247333Y-111895142D01*
X145056857Y-111942761D01*
X144961619Y-111990380D01*
X144914000Y-112038000D01*
X144866380Y-112133238D01*
X145866380Y-112799904D02*
X145199714Y-113323714D01*
X145199714Y-112799904D02*
X145866380Y-113323714D01*
X145199714Y-114133238D02*
X145866380Y-114133238D01*
X144818761Y-113895142D02*
X145533047Y-113657047D01*
X145533047Y-114276095D01*
X145866380Y-115180857D02*
X145866380Y-114609428D01*
X145866380Y-114895142D02*
X144866380Y-114895142D01*
X145009238Y-114799904D01*
X145104476Y-114704666D01*
X145152095Y-114609428D01*
X146516380Y-112133238D02*
X146516380Y-112228476D01*
X146564000Y-112323714D01*
X146611619Y-112371333D01*
X146706857Y-112418952D01*
X146897333Y-112466571D01*
X147135428Y-112466571D01*
X147325904Y-112418952D01*
X147421142Y-112371333D01*
X147468761Y-112323714D01*
X147516380Y-112228476D01*
X147516380Y-112133238D01*
X147468761Y-112038000D01*
X147421142Y-111990380D01*
X147325904Y-111942761D01*
X147135428Y-111895142D01*
X146897333Y-111895142D01*
X146706857Y-111942761D01*
X146611619Y-111990380D01*
X146564000Y-112038000D01*
X146516380Y-112133238D01*
X147516380Y-112799904D02*
X146849714Y-113323714D01*
X146849714Y-112799904D02*
X147516380Y-113323714D01*
X146849714Y-114133238D02*
X147516380Y-114133238D01*
X146468761Y-113895142D02*
X147183047Y-113657047D01*
X147183047Y-114276095D01*
X146516380Y-114847523D02*
X146516380Y-114942761D01*
X146564000Y-115038000D01*
X146611619Y-115085619D01*
X146706857Y-115133238D01*
X146897333Y-115180857D01*
X147135428Y-115180857D01*
X147325904Y-115133238D01*
X147421142Y-115085619D01*
X147468761Y-115038000D01*
X147516380Y-114942761D01*
X147516380Y-114847523D01*
X147468761Y-114752285D01*
X147421142Y-114704666D01*
X147325904Y-114657047D01*
X147135428Y-114609428D01*
X146897333Y-114609428D01*
X146706857Y-114657047D01*
X146611619Y-114704666D01*
X146564000Y-114752285D01*
X146516380Y-114847523D01*
X140630666Y-109013714D02*
X140630666Y-109489904D01*
X140916380Y-108918476D02*
X139916380Y-109251809D01*
X140916380Y-109585142D01*
X140916380Y-110442285D02*
X140916380Y-109870857D01*
X140916380Y-110156571D02*
X139916380Y-110156571D01*
X140059238Y-110061333D01*
X140154476Y-109966095D01*
X140202095Y-109870857D01*
X141566380Y-109061333D02*
X141566380Y-109251809D01*
X141614000Y-109347047D01*
X141709238Y-109442285D01*
X141899714Y-109489904D01*
X142233047Y-109489904D01*
X142423523Y-109442285D01*
X142518761Y-109347047D01*
X142566380Y-109251809D01*
X142566380Y-109061333D01*
X142518761Y-108966095D01*
X142423523Y-108870857D01*
X142233047Y-108823238D01*
X141899714Y-108823238D01*
X141709238Y-108870857D01*
X141614000Y-108966095D01*
X141566380Y-109061333D01*
X141899714Y-109775619D02*
X141899714Y-110156571D01*
X142566380Y-109918476D02*
X141709238Y-109918476D01*
X141614000Y-109966095D01*
X141566380Y-110061333D01*
X141566380Y-110156571D01*
X141899714Y-110347047D02*
X141899714Y-110728000D01*
X142566380Y-110489904D02*
X141709238Y-110489904D01*
X141614000Y-110537523D01*
X141566380Y-110632761D01*
X141566380Y-110728000D01*
X143216380Y-109180380D02*
X143216380Y-109370857D01*
X143264000Y-109466095D01*
X143359238Y-109561333D01*
X143549714Y-109608952D01*
X143883047Y-109608952D01*
X144073523Y-109561333D01*
X144168761Y-109466095D01*
X144216380Y-109370857D01*
X144216380Y-109180380D01*
X144168761Y-109085142D01*
X144073523Y-108989904D01*
X143883047Y-108942285D01*
X143549714Y-108942285D01*
X143359238Y-108989904D01*
X143264000Y-109085142D01*
X143216380Y-109180380D01*
X143549714Y-110037523D02*
X144216380Y-110037523D01*
X143644952Y-110037523D02*
X143597333Y-110085142D01*
X143549714Y-110180380D01*
X143549714Y-110323238D01*
X143597333Y-110418476D01*
X143692571Y-110466095D01*
X144216380Y-110466095D01*
X144866380Y-109061333D02*
X144866380Y-109251809D01*
X144914000Y-109347047D01*
X145009238Y-109442285D01*
X145199714Y-109489904D01*
X145533047Y-109489904D01*
X145723523Y-109442285D01*
X145818761Y-109347047D01*
X145866380Y-109251809D01*
X145866380Y-109061333D01*
X145818761Y-108966095D01*
X145723523Y-108870857D01*
X145533047Y-108823238D01*
X145199714Y-108823238D01*
X145009238Y-108870857D01*
X144914000Y-108966095D01*
X144866380Y-109061333D01*
X145199714Y-109775619D02*
X145199714Y-110156571D01*
X145866380Y-109918476D02*
X145009238Y-109918476D01*
X144914000Y-109966095D01*
X144866380Y-110061333D01*
X144866380Y-110156571D01*
X145199714Y-110347047D02*
X145199714Y-110728000D01*
X145866380Y-110489904D02*
X145009238Y-110489904D01*
X144914000Y-110537523D01*
X144866380Y-110632761D01*
X144866380Y-110728000D01*
X146516380Y-109180380D02*
X146516380Y-109370857D01*
X146564000Y-109466095D01*
X146659238Y-109561333D01*
X146849714Y-109608952D01*
X147183047Y-109608952D01*
X147373523Y-109561333D01*
X147468761Y-109466095D01*
X147516380Y-109370857D01*
X147516380Y-109180380D01*
X147468761Y-109085142D01*
X147373523Y-108989904D01*
X147183047Y-108942285D01*
X146849714Y-108942285D01*
X146659238Y-108989904D01*
X146564000Y-109085142D01*
X146516380Y-109180380D01*
X146849714Y-110037523D02*
X147516380Y-110037523D01*
X146944952Y-110037523D02*
X146897333Y-110085142D01*
X146849714Y-110180380D01*
X146849714Y-110323238D01*
X146897333Y-110418476D01*
X146992571Y-110466095D01*
X147516380Y-110466095D01*
X140630666Y-106473714D02*
X140630666Y-106949904D01*
X140916380Y-106378476D02*
X139916380Y-106711809D01*
X140916380Y-107045142D01*
X139916380Y-107568952D02*
X139916380Y-107664190D01*
X139964000Y-107759428D01*
X140011619Y-107807047D01*
X140106857Y-107854666D01*
X140297333Y-107902285D01*
X140535428Y-107902285D01*
X140725904Y-107854666D01*
X140821142Y-107807047D01*
X140868761Y-107759428D01*
X140916380Y-107664190D01*
X140916380Y-107568952D01*
X140868761Y-107473714D01*
X140821142Y-107426095D01*
X140725904Y-107378476D01*
X140535428Y-107330857D01*
X140297333Y-107330857D01*
X140106857Y-107378476D01*
X140011619Y-107426095D01*
X139964000Y-107473714D01*
X139916380Y-107568952D01*
X141566380Y-106521333D02*
X141566380Y-106711809D01*
X141614000Y-106807047D01*
X141709238Y-106902285D01*
X141899714Y-106949904D01*
X142233047Y-106949904D01*
X142423523Y-106902285D01*
X142518761Y-106807047D01*
X142566380Y-106711809D01*
X142566380Y-106521333D01*
X142518761Y-106426095D01*
X142423523Y-106330857D01*
X142233047Y-106283238D01*
X141899714Y-106283238D01*
X141709238Y-106330857D01*
X141614000Y-106426095D01*
X141566380Y-106521333D01*
X141899714Y-107235619D02*
X141899714Y-107616571D01*
X142566380Y-107378476D02*
X141709238Y-107378476D01*
X141614000Y-107426095D01*
X141566380Y-107521333D01*
X141566380Y-107616571D01*
X141899714Y-107807047D02*
X141899714Y-108188000D01*
X142566380Y-107949904D02*
X141709238Y-107949904D01*
X141614000Y-107997523D01*
X141566380Y-108092761D01*
X141566380Y-108188000D01*
X143216380Y-106521333D02*
X143216380Y-106711809D01*
X143264000Y-106807047D01*
X143359238Y-106902285D01*
X143549714Y-106949904D01*
X143883047Y-106949904D01*
X144073523Y-106902285D01*
X144168761Y-106807047D01*
X144216380Y-106711809D01*
X144216380Y-106521333D01*
X144168761Y-106426095D01*
X144073523Y-106330857D01*
X143883047Y-106283238D01*
X143549714Y-106283238D01*
X143359238Y-106330857D01*
X143264000Y-106426095D01*
X143216380Y-106521333D01*
X143549714Y-107235619D02*
X143549714Y-107616571D01*
X144216380Y-107378476D02*
X143359238Y-107378476D01*
X143264000Y-107426095D01*
X143216380Y-107521333D01*
X143216380Y-107616571D01*
X143549714Y-107807047D02*
X143549714Y-108188000D01*
X144216380Y-107949904D02*
X143359238Y-107949904D01*
X143264000Y-107997523D01*
X143216380Y-108092761D01*
X143216380Y-108188000D01*
X144866380Y-106640380D02*
X144866380Y-106830857D01*
X144914000Y-106926095D01*
X145009238Y-107021333D01*
X145199714Y-107068952D01*
X145533047Y-107068952D01*
X145723523Y-107021333D01*
X145818761Y-106926095D01*
X145866380Y-106830857D01*
X145866380Y-106640380D01*
X145818761Y-106545142D01*
X145723523Y-106449904D01*
X145533047Y-106402285D01*
X145199714Y-106402285D01*
X145009238Y-106449904D01*
X144914000Y-106545142D01*
X144866380Y-106640380D01*
X145199714Y-107497523D02*
X145866380Y-107497523D01*
X145294952Y-107497523D02*
X145247333Y-107545142D01*
X145199714Y-107640380D01*
X145199714Y-107783238D01*
X145247333Y-107878476D01*
X145342571Y-107926095D01*
X145866380Y-107926095D01*
X146516380Y-106640380D02*
X146516380Y-106830857D01*
X146564000Y-106926095D01*
X146659238Y-107021333D01*
X146849714Y-107068952D01*
X147183047Y-107068952D01*
X147373523Y-107021333D01*
X147468761Y-106926095D01*
X147516380Y-106830857D01*
X147516380Y-106640380D01*
X147468761Y-106545142D01*
X147373523Y-106449904D01*
X147183047Y-106402285D01*
X146849714Y-106402285D01*
X146659238Y-106449904D01*
X146564000Y-106545142D01*
X146516380Y-106640380D01*
X146849714Y-107497523D02*
X147516380Y-107497523D01*
X146944952Y-107497523D02*
X146897333Y-107545142D01*
X146849714Y-107640380D01*
X146849714Y-107783238D01*
X146897333Y-107878476D01*
X146992571Y-107926095D01*
X147516380Y-107926095D01*
X131199380Y-91013595D02*
X130199380Y-91013595D01*
X131151761Y-91442166D02*
X131199380Y-91537404D01*
X131199380Y-91727880D01*
X131151761Y-91823119D01*
X131056523Y-91870738D01*
X131008904Y-91870738D01*
X130913666Y-91823119D01*
X130866047Y-91727880D01*
X130866047Y-91585023D01*
X130818428Y-91489785D01*
X130723190Y-91442166D01*
X130675571Y-91442166D01*
X130580333Y-91489785D01*
X130532714Y-91585023D01*
X130532714Y-91727880D01*
X130580333Y-91823119D01*
X131199380Y-92442166D02*
X131151761Y-92346928D01*
X131104142Y-92299309D01*
X131008904Y-92251690D01*
X130723190Y-92251690D01*
X130627952Y-92299309D01*
X130580333Y-92346928D01*
X130532714Y-92442166D01*
X130532714Y-92585023D01*
X130580333Y-92680261D01*
X130627952Y-92727880D01*
X130723190Y-92775500D01*
X131008904Y-92775500D01*
X131104142Y-92727880D01*
X131151761Y-92680261D01*
X131199380Y-92585023D01*
X131199380Y-92442166D01*
X131199380Y-93346928D02*
X131151761Y-93251690D01*
X131056523Y-93204071D01*
X130199380Y-93204071D01*
X131199380Y-94156452D02*
X130675571Y-94156452D01*
X130580333Y-94108833D01*
X130532714Y-94013595D01*
X130532714Y-93823119D01*
X130580333Y-93727880D01*
X131151761Y-94156452D02*
X131199380Y-94061214D01*
X131199380Y-93823119D01*
X131151761Y-93727880D01*
X131056523Y-93680261D01*
X130961285Y-93680261D01*
X130866047Y-93727880D01*
X130818428Y-93823119D01*
X130818428Y-94061214D01*
X130770809Y-94156452D01*
X130532714Y-94489785D02*
X130532714Y-94870738D01*
X130199380Y-94632642D02*
X131056523Y-94632642D01*
X131151761Y-94680261D01*
X131199380Y-94775500D01*
X131199380Y-94870738D01*
X131151761Y-95585023D02*
X131199380Y-95489785D01*
X131199380Y-95299309D01*
X131151761Y-95204071D01*
X131056523Y-95156452D01*
X130675571Y-95156452D01*
X130580333Y-95204071D01*
X130532714Y-95299309D01*
X130532714Y-95489785D01*
X130580333Y-95585023D01*
X130675571Y-95632642D01*
X130770809Y-95632642D01*
X130866047Y-95156452D01*
X131199380Y-96489785D02*
X130199380Y-96489785D01*
X131151761Y-96489785D02*
X131199380Y-96394547D01*
X131199380Y-96204071D01*
X131151761Y-96108833D01*
X131104142Y-96061214D01*
X131008904Y-96013595D01*
X130723190Y-96013595D01*
X130627952Y-96061214D01*
X130580333Y-96108833D01*
X130532714Y-96204071D01*
X130532714Y-96394547D01*
X130580333Y-96489785D01*
X130532714Y-97727880D02*
X131532714Y-97727880D01*
X130580333Y-97727880D02*
X130532714Y-97823119D01*
X130532714Y-98013595D01*
X130580333Y-98108833D01*
X130627952Y-98156452D01*
X130723190Y-98204071D01*
X131008904Y-98204071D01*
X131104142Y-98156452D01*
X131151761Y-98108833D01*
X131199380Y-98013595D01*
X131199380Y-97823119D01*
X131151761Y-97727880D01*
X131199380Y-98632642D02*
X130199380Y-98632642D01*
X130675571Y-98632642D02*
X130675571Y-99204071D01*
X131199380Y-99204071D02*
X130199380Y-99204071D01*
X131199380Y-100442166D02*
X130532714Y-100442166D01*
X130627952Y-100442166D02*
X130580333Y-100489785D01*
X130532714Y-100585023D01*
X130532714Y-100727880D01*
X130580333Y-100823119D01*
X130675571Y-100870738D01*
X131199380Y-100870738D01*
X130675571Y-100870738D02*
X130580333Y-100918357D01*
X130532714Y-101013595D01*
X130532714Y-101156452D01*
X130580333Y-101251690D01*
X130675571Y-101299309D01*
X131199380Y-101299309D01*
X131199380Y-101918357D02*
X131151761Y-101823119D01*
X131104142Y-101775500D01*
X131008904Y-101727880D01*
X130723190Y-101727880D01*
X130627952Y-101775500D01*
X130580333Y-101823119D01*
X130532714Y-101918357D01*
X130532714Y-102061214D01*
X130580333Y-102156452D01*
X130627952Y-102204071D01*
X130723190Y-102251690D01*
X131008904Y-102251690D01*
X131104142Y-102204071D01*
X131151761Y-102156452D01*
X131199380Y-102061214D01*
X131199380Y-101918357D01*
X131199380Y-103108833D02*
X130199380Y-103108833D01*
X131151761Y-103108833D02*
X131199380Y-103013595D01*
X131199380Y-102823119D01*
X131151761Y-102727880D01*
X131104142Y-102680261D01*
X131008904Y-102632642D01*
X130723190Y-102632642D01*
X130627952Y-102680261D01*
X130580333Y-102727880D01*
X130532714Y-102823119D01*
X130532714Y-103013595D01*
X130580333Y-103108833D01*
X130532714Y-104013595D02*
X131199380Y-104013595D01*
X130532714Y-103585023D02*
X131056523Y-103585023D01*
X131151761Y-103632642D01*
X131199380Y-103727880D01*
X131199380Y-103870738D01*
X131151761Y-103965976D01*
X131104142Y-104013595D01*
X131199380Y-104632642D02*
X131151761Y-104537404D01*
X131056523Y-104489785D01*
X130199380Y-104489785D01*
X131151761Y-105394547D02*
X131199380Y-105299309D01*
X131199380Y-105108833D01*
X131151761Y-105013595D01*
X131056523Y-104965976D01*
X130675571Y-104965976D01*
X130580333Y-105013595D01*
X130532714Y-105108833D01*
X130532714Y-105299309D01*
X130580333Y-105394547D01*
X130675571Y-105442166D01*
X130770809Y-105442166D01*
X130866047Y-104965976D01*
X132182714Y-91442166D02*
X132992238Y-91442166D01*
X133087476Y-91394547D01*
X133135095Y-91346928D01*
X133182714Y-91251690D01*
X133182714Y-91108833D01*
X133135095Y-91013595D01*
X132801761Y-91442166D02*
X132849380Y-91346928D01*
X132849380Y-91156452D01*
X132801761Y-91061214D01*
X132754142Y-91013595D01*
X132658904Y-90965976D01*
X132373190Y-90965976D01*
X132277952Y-91013595D01*
X132230333Y-91061214D01*
X132182714Y-91156452D01*
X132182714Y-91346928D01*
X132230333Y-91442166D01*
X132849380Y-91918357D02*
X132182714Y-91918357D01*
X131849380Y-91918357D02*
X131897000Y-91870738D01*
X131944619Y-91918357D01*
X131897000Y-91965976D01*
X131849380Y-91918357D01*
X131944619Y-91918357D01*
X132182714Y-92251690D02*
X132182714Y-92632642D01*
X131849380Y-92394547D02*
X132706523Y-92394547D01*
X132801761Y-92442166D01*
X132849380Y-92537404D01*
X132849380Y-92632642D01*
X132849380Y-92965976D02*
X131849380Y-92965976D01*
X132849380Y-93394547D02*
X132325571Y-93394547D01*
X132230333Y-93346928D01*
X132182714Y-93251690D01*
X132182714Y-93108833D01*
X132230333Y-93013595D01*
X132277952Y-92965976D01*
X132182714Y-94299309D02*
X132849380Y-94299309D01*
X132182714Y-93870738D02*
X132706523Y-93870738D01*
X132801761Y-93918357D01*
X132849380Y-94013595D01*
X132849380Y-94156452D01*
X132801761Y-94251690D01*
X132754142Y-94299309D01*
X132849380Y-94775500D02*
X131849380Y-94775500D01*
X132230333Y-94775500D02*
X132182714Y-94870738D01*
X132182714Y-95061214D01*
X132230333Y-95156452D01*
X132277952Y-95204071D01*
X132373190Y-95251690D01*
X132658904Y-95251690D01*
X132754142Y-95204071D01*
X132801761Y-95156452D01*
X132849380Y-95061214D01*
X132849380Y-94870738D01*
X132801761Y-94775500D01*
X132754142Y-95680261D02*
X132801761Y-95727880D01*
X132849380Y-95680261D01*
X132801761Y-95632642D01*
X132754142Y-95680261D01*
X132849380Y-95680261D01*
X132801761Y-96585023D02*
X132849380Y-96489785D01*
X132849380Y-96299309D01*
X132801761Y-96204071D01*
X132754142Y-96156452D01*
X132658904Y-96108833D01*
X132373190Y-96108833D01*
X132277952Y-96156452D01*
X132230333Y-96204071D01*
X132182714Y-96299309D01*
X132182714Y-96489785D01*
X132230333Y-96585023D01*
X132849380Y-97156452D02*
X132801761Y-97061214D01*
X132754142Y-97013595D01*
X132658904Y-96965976D01*
X132373190Y-96965976D01*
X132277952Y-97013595D01*
X132230333Y-97061214D01*
X132182714Y-97156452D01*
X132182714Y-97299309D01*
X132230333Y-97394547D01*
X132277952Y-97442166D01*
X132373190Y-97489785D01*
X132658904Y-97489785D01*
X132754142Y-97442166D01*
X132801761Y-97394547D01*
X132849380Y-97299309D01*
X132849380Y-97156452D01*
X132849380Y-97918357D02*
X132182714Y-97918357D01*
X132277952Y-97918357D02*
X132230333Y-97965976D01*
X132182714Y-98061214D01*
X132182714Y-98204071D01*
X132230333Y-98299309D01*
X132325571Y-98346928D01*
X132849380Y-98346928D01*
X132325571Y-98346928D02*
X132230333Y-98394547D01*
X132182714Y-98489785D01*
X132182714Y-98632642D01*
X132230333Y-98727880D01*
X132325571Y-98775500D01*
X132849380Y-98775500D01*
X131801761Y-99965976D02*
X133087476Y-99108833D01*
X132849380Y-100299309D02*
X132182714Y-100299309D01*
X132373190Y-100299309D02*
X132277952Y-100346928D01*
X132230333Y-100394547D01*
X132182714Y-100489785D01*
X132182714Y-100585023D01*
X132849380Y-101346928D02*
X132325571Y-101346928D01*
X132230333Y-101299309D01*
X132182714Y-101204071D01*
X132182714Y-101013595D01*
X132230333Y-100918357D01*
X132801761Y-101346928D02*
X132849380Y-101251690D01*
X132849380Y-101013595D01*
X132801761Y-100918357D01*
X132706523Y-100870738D01*
X132611285Y-100870738D01*
X132516047Y-100918357D01*
X132468428Y-101013595D01*
X132468428Y-101251690D01*
X132420809Y-101346928D01*
X132182714Y-101823119D02*
X132849380Y-101823119D01*
X132277952Y-101823119D02*
X132230333Y-101870738D01*
X132182714Y-101965976D01*
X132182714Y-102108833D01*
X132230333Y-102204071D01*
X132325571Y-102251690D01*
X132849380Y-102251690D01*
X132182714Y-102585023D02*
X132182714Y-102965976D01*
X131849380Y-102727880D02*
X132706523Y-102727880D01*
X132801761Y-102775500D01*
X132849380Y-102870738D01*
X132849380Y-102965976D01*
X132849380Y-103299309D02*
X131849380Y-103299309D01*
X132849380Y-103727880D02*
X132325571Y-103727880D01*
X132230333Y-103680261D01*
X132182714Y-103585023D01*
X132182714Y-103442166D01*
X132230333Y-103346928D01*
X132277952Y-103299309D01*
X132849380Y-104632642D02*
X132325571Y-104632642D01*
X132230333Y-104585023D01*
X132182714Y-104489785D01*
X132182714Y-104299309D01*
X132230333Y-104204071D01*
X132801761Y-104632642D02*
X132849380Y-104537404D01*
X132849380Y-104299309D01*
X132801761Y-104204071D01*
X132706523Y-104156452D01*
X132611285Y-104156452D01*
X132516047Y-104204071D01*
X132468428Y-104299309D01*
X132468428Y-104537404D01*
X132420809Y-104632642D01*
X132849380Y-105251690D02*
X132801761Y-105156452D01*
X132706523Y-105108833D01*
X131849380Y-105108833D01*
X132849380Y-105632642D02*
X132182714Y-105632642D01*
X131849380Y-105632642D02*
X131897000Y-105585023D01*
X131944619Y-105632642D01*
X131897000Y-105680261D01*
X131849380Y-105632642D01*
X131944619Y-105632642D01*
X132849380Y-106251690D02*
X132801761Y-106156452D01*
X132754142Y-106108833D01*
X132658904Y-106061214D01*
X132373190Y-106061214D01*
X132277952Y-106108833D01*
X132230333Y-106156452D01*
X132182714Y-106251690D01*
X132182714Y-106394547D01*
X132230333Y-106489785D01*
X132277952Y-106537404D01*
X132373190Y-106585023D01*
X132658904Y-106585023D01*
X132754142Y-106537404D01*
X132801761Y-106489785D01*
X132849380Y-106394547D01*
X132849380Y-106251690D01*
X132182714Y-107013595D02*
X132849380Y-107013595D01*
X132277952Y-107013595D02*
X132230333Y-107061214D01*
X132182714Y-107156452D01*
X132182714Y-107299309D01*
X132230333Y-107394547D01*
X132325571Y-107442166D01*
X132849380Y-107442166D01*
X131801761Y-108632642D02*
X133087476Y-107775500D01*
X132182714Y-108965976D02*
X133182714Y-108965976D01*
X132230333Y-108965976D02*
X132182714Y-109061214D01*
X132182714Y-109251690D01*
X132230333Y-109346928D01*
X132277952Y-109394547D01*
X132373190Y-109442166D01*
X132658904Y-109442166D01*
X132754142Y-109394547D01*
X132801761Y-109346928D01*
X132849380Y-109251690D01*
X132849380Y-109061214D01*
X132801761Y-108965976D01*
X132849380Y-109870738D02*
X131849380Y-109870738D01*
X132849380Y-110299309D02*
X132325571Y-110299309D01*
X132230333Y-110251690D01*
X132182714Y-110156452D01*
X132182714Y-110013595D01*
X132230333Y-109918357D01*
X132277952Y-109870738D01*
X109918476Y-105370380D02*
X110394666Y-105370380D01*
X110442285Y-105846571D01*
X110394666Y-105798952D01*
X110299428Y-105751333D01*
X110061333Y-105751333D01*
X109966095Y-105798952D01*
X109918476Y-105846571D01*
X109870857Y-105941809D01*
X109870857Y-106179904D01*
X109918476Y-106275142D01*
X109966095Y-106322761D01*
X110061333Y-106370380D01*
X110299428Y-106370380D01*
X110394666Y-106322761D01*
X110442285Y-106275142D01*
X109585142Y-105370380D02*
X109251809Y-106370380D01*
X108918476Y-105370380D01*
X110918476Y-103528761D02*
X110775619Y-103576380D01*
X110537523Y-103576380D01*
X110442285Y-103528761D01*
X110394666Y-103481142D01*
X110347047Y-103385904D01*
X110347047Y-103290666D01*
X110394666Y-103195428D01*
X110442285Y-103147809D01*
X110537523Y-103100190D01*
X110728000Y-103052571D01*
X110823238Y-103004952D01*
X110870857Y-102957333D01*
X110918476Y-102862095D01*
X110918476Y-102766857D01*
X110870857Y-102671619D01*
X110823238Y-102624000D01*
X110728000Y-102576380D01*
X110489904Y-102576380D01*
X110347047Y-102624000D01*
X109347047Y-103481142D02*
X109394666Y-103528761D01*
X109537523Y-103576380D01*
X109632761Y-103576380D01*
X109775619Y-103528761D01*
X109870857Y-103433523D01*
X109918476Y-103338285D01*
X109966095Y-103147809D01*
X109966095Y-103004952D01*
X109918476Y-102814476D01*
X109870857Y-102719238D01*
X109775619Y-102624000D01*
X109632761Y-102576380D01*
X109537523Y-102576380D01*
X109394666Y-102624000D01*
X109347047Y-102671619D01*
X108442285Y-103576380D02*
X108918476Y-103576380D01*
X108918476Y-102576380D01*
X110942285Y-101242761D02*
X110799428Y-101290380D01*
X110561333Y-101290380D01*
X110466095Y-101242761D01*
X110418476Y-101195142D01*
X110370857Y-101099904D01*
X110370857Y-101004666D01*
X110418476Y-100909428D01*
X110466095Y-100861809D01*
X110561333Y-100814190D01*
X110751809Y-100766571D01*
X110847047Y-100718952D01*
X110894666Y-100671333D01*
X110942285Y-100576095D01*
X110942285Y-100480857D01*
X110894666Y-100385619D01*
X110847047Y-100338000D01*
X110751809Y-100290380D01*
X110513714Y-100290380D01*
X110370857Y-100338000D01*
X109942285Y-101290380D02*
X109942285Y-100290380D01*
X109704190Y-100290380D01*
X109561333Y-100338000D01*
X109466095Y-100433238D01*
X109418476Y-100528476D01*
X109370857Y-100718952D01*
X109370857Y-100861809D01*
X109418476Y-101052285D01*
X109466095Y-101147523D01*
X109561333Y-101242761D01*
X109704190Y-101290380D01*
X109942285Y-101290380D01*
X108989904Y-101004666D02*
X108513714Y-101004666D01*
X109085142Y-101290380D02*
X108751809Y-100290380D01*
X108418476Y-101290380D01*
X110489904Y-97798000D02*
X110585142Y-97750380D01*
X110728000Y-97750380D01*
X110870857Y-97798000D01*
X110966095Y-97893238D01*
X111013714Y-97988476D01*
X111061333Y-98178952D01*
X111061333Y-98321809D01*
X111013714Y-98512285D01*
X110966095Y-98607523D01*
X110870857Y-98702761D01*
X110728000Y-98750380D01*
X110632761Y-98750380D01*
X110489904Y-98702761D01*
X110442285Y-98655142D01*
X110442285Y-98321809D01*
X110632761Y-98321809D01*
X110013714Y-98750380D02*
X110013714Y-97750380D01*
X109442285Y-98750380D01*
X109442285Y-97750380D01*
X108966095Y-98750380D02*
X108966095Y-97750380D01*
X108728000Y-97750380D01*
X108585142Y-97798000D01*
X108489904Y-97893238D01*
X108442285Y-97988476D01*
X108394666Y-98178952D01*
X108394666Y-98321809D01*
X108442285Y-98512285D01*
X108489904Y-98607523D01*
X108585142Y-98702761D01*
X108728000Y-98750380D01*
X108966095Y-98750380D01*
D12*
G04 #@! TO.C,G\002A\002A\002A*
G36*
X123373746Y-96703015D02*
X123835619Y-96736479D01*
X124589598Y-96661872D01*
X125622748Y-96480095D01*
X126235902Y-96350201D01*
X127363332Y-96177611D01*
X128230950Y-96216577D01*
X128838098Y-96466860D01*
X129184119Y-96928216D01*
X129272543Y-97464865D01*
X129203839Y-97834870D01*
X129022138Y-98395836D01*
X128764056Y-99037397D01*
X128712913Y-99151609D01*
X128349062Y-100010760D01*
X128109597Y-100706136D01*
X128004720Y-101198800D01*
X128044631Y-101449814D01*
X128104544Y-101473842D01*
X128294256Y-101336782D01*
X128374354Y-101179471D01*
X128482084Y-100902766D01*
X128688780Y-100401615D01*
X128959463Y-99760178D01*
X129126028Y-99370899D01*
X129537428Y-98289497D01*
X129738242Y-97434746D01*
X129733340Y-96774917D01*
X129586673Y-96369670D01*
X129232373Y-96033673D01*
X128657055Y-95763660D01*
X127975551Y-95605945D01*
X127637880Y-95583692D01*
X127212512Y-95614747D01*
X126555493Y-95700911D01*
X125764407Y-95828113D01*
X125109298Y-95948276D01*
X124220282Y-96134526D01*
X123631345Y-96292856D01*
X123308405Y-96434292D01*
X123216914Y-96560579D01*
X123373746Y-96703015D01*
X123373746Y-96703015D01*
G37*
X123373746Y-96703015D02*
X123835619Y-96736479D01*
X124589598Y-96661872D01*
X125622748Y-96480095D01*
X126235902Y-96350201D01*
X127363332Y-96177611D01*
X128230950Y-96216577D01*
X128838098Y-96466860D01*
X129184119Y-96928216D01*
X129272543Y-97464865D01*
X129203839Y-97834870D01*
X129022138Y-98395836D01*
X128764056Y-99037397D01*
X128712913Y-99151609D01*
X128349062Y-100010760D01*
X128109597Y-100706136D01*
X128004720Y-101198800D01*
X128044631Y-101449814D01*
X128104544Y-101473842D01*
X128294256Y-101336782D01*
X128374354Y-101179471D01*
X128482084Y-100902766D01*
X128688780Y-100401615D01*
X128959463Y-99760178D01*
X129126028Y-99370899D01*
X129537428Y-98289497D01*
X129738242Y-97434746D01*
X129733340Y-96774917D01*
X129586673Y-96369670D01*
X129232373Y-96033673D01*
X128657055Y-95763660D01*
X127975551Y-95605945D01*
X127637880Y-95583692D01*
X127212512Y-95614747D01*
X126555493Y-95700911D01*
X125764407Y-95828113D01*
X125109298Y-95948276D01*
X124220282Y-96134526D01*
X123631345Y-96292856D01*
X123308405Y-96434292D01*
X123216914Y-96560579D01*
X123373746Y-96703015D01*
G36*
X122576841Y-94802201D02*
X122702503Y-94899464D01*
X122962056Y-94972962D01*
X123396505Y-95028010D01*
X124046854Y-95069921D01*
X124954108Y-95104009D01*
X126076517Y-95133636D01*
X127027832Y-95163245D01*
X127875582Y-95202852D01*
X128556222Y-95248458D01*
X129006205Y-95296066D01*
X129146384Y-95326817D01*
X129386539Y-95363700D01*
X129440755Y-95294998D01*
X129275975Y-95066082D01*
X128791226Y-94877775D01*
X128000893Y-94733440D01*
X126919364Y-94636437D01*
X126539100Y-94617017D01*
X125768770Y-94574469D01*
X125138818Y-94522517D01*
X124714895Y-94467782D01*
X124562609Y-94417651D01*
X124710649Y-94316286D01*
X125090764Y-94177740D01*
X125421040Y-94084321D01*
X126081958Y-93874499D01*
X126797859Y-93582891D01*
X127492347Y-93248833D01*
X128089025Y-92911663D01*
X128511497Y-92610718D01*
X128678531Y-92407004D01*
X128710647Y-92005295D01*
X128672594Y-91833105D01*
X128409621Y-91514296D01*
X127918660Y-91193592D01*
X127302837Y-90928633D01*
X126828764Y-90802600D01*
X126477242Y-90716321D01*
X126360798Y-90626864D01*
X126498062Y-90527804D01*
X126907664Y-90412716D01*
X127608234Y-90275173D01*
X128618402Y-90108753D01*
X129020225Y-90046805D01*
X129902673Y-89910734D01*
X130691340Y-89786041D01*
X131313669Y-89684419D01*
X131697101Y-89617563D01*
X131753669Y-89606256D01*
X132020295Y-89457660D01*
X132133658Y-89235336D01*
X132059012Y-89059237D01*
X131921881Y-89025524D01*
X131661975Y-89056344D01*
X131105090Y-89145484D01*
X130284483Y-89287060D01*
X129233416Y-89475185D01*
X127985148Y-89703973D01*
X126572939Y-89967539D01*
X126176465Y-90042273D01*
X125454247Y-90192168D01*
X124851942Y-90342249D01*
X124449787Y-90471155D01*
X124334545Y-90532635D01*
X124245007Y-90760264D01*
X124474900Y-90949684D01*
X125029454Y-91103220D01*
X125881784Y-91219987D01*
X126743400Y-91328728D01*
X127343719Y-91466494D01*
X127757843Y-91658260D01*
X128060872Y-91929004D01*
X128079208Y-91950768D01*
X128109484Y-92198845D01*
X127822160Y-92491519D01*
X127213722Y-92830682D01*
X126280654Y-93218226D01*
X125019441Y-93656045D01*
X124753964Y-93741400D01*
X123765520Y-94072757D01*
X123057631Y-94347375D01*
X122647101Y-94558148D01*
X122544066Y-94675860D01*
X122576841Y-94802201D01*
X122576841Y-94802201D01*
G37*
X122576841Y-94802201D02*
X122702503Y-94899464D01*
X122962056Y-94972962D01*
X123396505Y-95028010D01*
X124046854Y-95069921D01*
X124954108Y-95104009D01*
X126076517Y-95133636D01*
X127027832Y-95163245D01*
X127875582Y-95202852D01*
X128556222Y-95248458D01*
X129006205Y-95296066D01*
X129146384Y-95326817D01*
X129386539Y-95363700D01*
X129440755Y-95294998D01*
X129275975Y-95066082D01*
X128791226Y-94877775D01*
X128000893Y-94733440D01*
X126919364Y-94636437D01*
X126539100Y-94617017D01*
X125768770Y-94574469D01*
X125138818Y-94522517D01*
X124714895Y-94467782D01*
X124562609Y-94417651D01*
X124710649Y-94316286D01*
X125090764Y-94177740D01*
X125421040Y-94084321D01*
X126081958Y-93874499D01*
X126797859Y-93582891D01*
X127492347Y-93248833D01*
X128089025Y-92911663D01*
X128511497Y-92610718D01*
X128678531Y-92407004D01*
X128710647Y-92005295D01*
X128672594Y-91833105D01*
X128409621Y-91514296D01*
X127918660Y-91193592D01*
X127302837Y-90928633D01*
X126828764Y-90802600D01*
X126477242Y-90716321D01*
X126360798Y-90626864D01*
X126498062Y-90527804D01*
X126907664Y-90412716D01*
X127608234Y-90275173D01*
X128618402Y-90108753D01*
X129020225Y-90046805D01*
X129902673Y-89910734D01*
X130691340Y-89786041D01*
X131313669Y-89684419D01*
X131697101Y-89617563D01*
X131753669Y-89606256D01*
X132020295Y-89457660D01*
X132133658Y-89235336D01*
X132059012Y-89059237D01*
X131921881Y-89025524D01*
X131661975Y-89056344D01*
X131105090Y-89145484D01*
X130284483Y-89287060D01*
X129233416Y-89475185D01*
X127985148Y-89703973D01*
X126572939Y-89967539D01*
X126176465Y-90042273D01*
X125454247Y-90192168D01*
X124851942Y-90342249D01*
X124449787Y-90471155D01*
X124334545Y-90532635D01*
X124245007Y-90760264D01*
X124474900Y-90949684D01*
X125029454Y-91103220D01*
X125881784Y-91219987D01*
X126743400Y-91328728D01*
X127343719Y-91466494D01*
X127757843Y-91658260D01*
X128060872Y-91929004D01*
X128079208Y-91950768D01*
X128109484Y-92198845D01*
X127822160Y-92491519D01*
X127213722Y-92830682D01*
X126280654Y-93218226D01*
X125019441Y-93656045D01*
X124753964Y-93741400D01*
X123765520Y-94072757D01*
X123057631Y-94347375D01*
X122647101Y-94558148D01*
X122544066Y-94675860D01*
X122576841Y-94802201D01*
G04 #@! TD*
M02*
