G04 #@! TF.GenerationSoftware,KiCad,Pcbnew,(5.0.1)-3*
G04 #@! TF.CreationDate,2020-01-05T22:10:57-05:00*
G04 #@! TF.ProjectId,ml-ph-board,6D6C2D70682D626F6172642E6B696361,rev?*
G04 #@! TF.SameCoordinates,Original*
G04 #@! TF.FileFunction,Copper,L2,Bot,Signal*
G04 #@! TF.FilePolarity,Positive*
%FSLAX46Y46*%
G04 Gerber Fmt 4.6, Leading zero omitted, Abs format (unit mm)*
G04 Created by KiCad (PCBNEW (5.0.1)-3) date 1/5/2020 10:10:57 PM*
%MOMM*%
%LPD*%
G01*
G04 APERTURE LIST*
G04 #@! TA.AperFunction,ComponentPad*
%ADD10C,3.215640*%
G04 #@! TD*
G04 #@! TA.AperFunction,ComponentPad*
%ADD11O,2.613660X1.305560*%
G04 #@! TD*
G04 #@! TA.AperFunction,Conductor*
%ADD12C,0.100000*%
G04 #@! TD*
G04 #@! TA.AperFunction,ComponentPad*
%ADD13C,1.700000*%
G04 #@! TD*
G04 #@! TA.AperFunction,ComponentPad*
%ADD14O,1.950000X1.700000*%
G04 #@! TD*
G04 #@! TA.AperFunction,ComponentPad*
%ADD15C,1.879600*%
G04 #@! TD*
G04 #@! TA.AperFunction,ComponentPad*
%ADD16C,1.524000*%
G04 #@! TD*
G04 #@! TA.AperFunction,ViaPad*
%ADD17C,0.800000*%
G04 #@! TD*
G04 #@! TA.AperFunction,ViaPad*
%ADD18C,1.000000*%
G04 #@! TD*
G04 #@! TA.AperFunction,Conductor*
%ADD19C,0.250000*%
G04 #@! TD*
G04 #@! TA.AperFunction,Conductor*
%ADD20C,0.400000*%
G04 #@! TD*
G04 #@! TA.AperFunction,Conductor*
%ADD21C,0.254000*%
G04 #@! TD*
G04 APERTURE END LIST*
D10*
G04 #@! TO.P,J3,3*
G04 #@! TO.N,N/C*
X157480000Y-96774000D03*
G04 #@! TO.P,J3,4*
X157480000Y-106934000D03*
D11*
G04 #@! TO.P,J3,GND*
G04 #@! TO.N,Net-(C6-Pad1)*
X152400000Y-99314000D03*
G04 #@! TO.P,J3,S*
G04 #@! TO.N,Net-(J3-PadS)*
X152400000Y-101854000D03*
G04 #@! TD*
D12*
G04 #@! TO.N,+5V*
G04 #@! TO.C,J1*
G36*
X107683504Y-104815204D02*
X107707773Y-104818804D01*
X107731571Y-104824765D01*
X107754671Y-104833030D01*
X107776849Y-104843520D01*
X107797893Y-104856133D01*
X107817598Y-104870747D01*
X107835777Y-104887223D01*
X107852253Y-104905402D01*
X107866867Y-104925107D01*
X107879480Y-104946151D01*
X107889970Y-104968329D01*
X107898235Y-104991429D01*
X107904196Y-105015227D01*
X107907796Y-105039496D01*
X107909000Y-105064000D01*
X107909000Y-106264000D01*
X107907796Y-106288504D01*
X107904196Y-106312773D01*
X107898235Y-106336571D01*
X107889970Y-106359671D01*
X107879480Y-106381849D01*
X107866867Y-106402893D01*
X107852253Y-106422598D01*
X107835777Y-106440777D01*
X107817598Y-106457253D01*
X107797893Y-106471867D01*
X107776849Y-106484480D01*
X107754671Y-106494970D01*
X107731571Y-106503235D01*
X107707773Y-106509196D01*
X107683504Y-106512796D01*
X107659000Y-106514000D01*
X106209000Y-106514000D01*
X106184496Y-106512796D01*
X106160227Y-106509196D01*
X106136429Y-106503235D01*
X106113329Y-106494970D01*
X106091151Y-106484480D01*
X106070107Y-106471867D01*
X106050402Y-106457253D01*
X106032223Y-106440777D01*
X106015747Y-106422598D01*
X106001133Y-106402893D01*
X105988520Y-106381849D01*
X105978030Y-106359671D01*
X105969765Y-106336571D01*
X105963804Y-106312773D01*
X105960204Y-106288504D01*
X105959000Y-106264000D01*
X105959000Y-105064000D01*
X105960204Y-105039496D01*
X105963804Y-105015227D01*
X105969765Y-104991429D01*
X105978030Y-104968329D01*
X105988520Y-104946151D01*
X106001133Y-104925107D01*
X106015747Y-104905402D01*
X106032223Y-104887223D01*
X106050402Y-104870747D01*
X106070107Y-104856133D01*
X106091151Y-104843520D01*
X106113329Y-104833030D01*
X106136429Y-104824765D01*
X106160227Y-104818804D01*
X106184496Y-104815204D01*
X106209000Y-104814000D01*
X107659000Y-104814000D01*
X107683504Y-104815204D01*
X107683504Y-104815204D01*
G37*
D13*
G04 #@! TD*
G04 #@! TO.P,J1,1*
G04 #@! TO.N,+5V*
X106934000Y-105664000D03*
D14*
G04 #@! TO.P,J1,2*
G04 #@! TO.N,/SCL*
X106934000Y-103164000D03*
G04 #@! TO.P,J1,3*
G04 #@! TO.N,/SDA*
X106934000Y-100664000D03*
G04 #@! TO.P,J1,4*
G04 #@! TO.N,GND*
X106934000Y-98164000D03*
G04 #@! TD*
D15*
G04 #@! TO.P,J2,4*
G04 #@! TO.N,/NRST*
X128778000Y-116078000D03*
G04 #@! TO.P,J2,3*
G04 #@! TO.N,GNDD*
X126238000Y-115824000D03*
G04 #@! TO.P,J2,2*
G04 #@! TO.N,/SWIM*
X123698000Y-116078000D03*
G04 #@! TO.P,J2,1*
G04 #@! TO.N,+5VD*
X121158000Y-115824000D03*
G04 #@! TD*
D16*
G04 #@! TO.P,U2,1*
G04 #@! TO.N,GND*
X113538000Y-92202000D03*
G04 #@! TO.P,U2,2*
G04 #@! TO.N,+5V*
X116078000Y-92202000D03*
G04 #@! TO.P,U2,3*
G04 #@! TO.N,GNDD*
X118618000Y-92202000D03*
G04 #@! TO.P,U2,4*
G04 #@! TO.N,+5VD*
X121158000Y-92202000D03*
G04 #@! TD*
D17*
G04 #@! TO.N,*
X156718000Y-102616000D03*
G04 #@! TO.N,GND*
X115570000Y-105410000D03*
X114046000Y-105410000D03*
D18*
G04 #@! TO.N,+5V*
X109728000Y-99568000D03*
D17*
G04 #@! TO.N,+5VD*
X123444000Y-99060000D03*
X138938000Y-105664000D03*
X128270000Y-110490000D03*
X121158000Y-108966000D03*
G04 #@! TO.N,GNDD*
X123190000Y-105156000D03*
X125222000Y-106934000D03*
X137668000Y-107950000D03*
X137668000Y-109220000D03*
X136144000Y-92710000D03*
X137668000Y-92710000D03*
X139192000Y-92710000D03*
X147320000Y-87630000D03*
X147320000Y-89662000D03*
X145542000Y-87630000D03*
X140208000Y-116078000D03*
X132080000Y-116078000D03*
X143764000Y-94488000D03*
X145034000Y-94488000D03*
X146304000Y-94488000D03*
X134620000Y-100838000D03*
G04 #@! TO.N,/SWIM*
X125222000Y-103632000D03*
G04 #@! TD*
D19*
G04 #@! TO.N,*
X149098000Y-101854000D02*
X148590000Y-101854000D01*
X150876000Y-103378000D02*
X149352000Y-101854000D01*
X155702000Y-102870000D02*
X155194000Y-103378000D01*
X155702000Y-101346000D02*
X154940000Y-100584000D01*
X155702000Y-102616000D02*
X155702000Y-101346000D01*
X155702000Y-102616000D02*
X155702000Y-102870000D01*
X155194000Y-103378000D02*
X150876000Y-103378000D01*
X149352000Y-101854000D02*
X149098000Y-101854000D01*
X145542000Y-100584000D02*
X145034000Y-101092000D01*
X145034000Y-101346000D02*
X145542000Y-101854000D01*
X145034000Y-101092000D02*
X145034000Y-101346000D01*
X154940000Y-100584000D02*
X145542000Y-100584000D01*
X155702000Y-102616000D02*
X156718000Y-102616000D01*
X147066000Y-101854000D02*
X145796000Y-101854000D01*
X145796000Y-101854000D02*
X146050000Y-101854000D01*
X145542000Y-101854000D02*
X145796000Y-101854000D01*
X147066000Y-101854000D02*
X146304000Y-101854000D01*
X149098000Y-101854000D02*
X147066000Y-101854000D01*
D20*
G04 #@! TO.N,+5V*
X109728000Y-99568000D02*
X109728000Y-104902000D01*
X108966000Y-105664000D02*
X109728000Y-104902000D01*
X106934000Y-105664000D02*
X108966000Y-105664000D01*
G04 #@! TO.N,+5VD*
X138938000Y-105664000D02*
X131318000Y-105664000D01*
X128270000Y-108712000D02*
X128270000Y-110490000D01*
X131318000Y-105664000D02*
X128270000Y-108712000D01*
X123444000Y-99060000D02*
X123444000Y-100076000D01*
X121158000Y-102362000D02*
X121158000Y-108966000D01*
X123444000Y-100076000D02*
X121158000Y-102362000D01*
D19*
G04 #@! TO.N,/SWIM*
X123698000Y-116078000D02*
X123698000Y-106680000D01*
X125222000Y-105156000D02*
X125222000Y-103632000D01*
X123698000Y-106680000D02*
X125222000Y-105156000D01*
G04 #@! TD*
D21*
G04 #@! TO.N,GND*
G36*
X116713000Y-90952923D02*
X116355881Y-90805000D01*
X115800119Y-90805000D01*
X115286663Y-91017680D01*
X114893680Y-91410663D01*
X114814572Y-91601647D01*
X114760397Y-91470857D01*
X114518213Y-91401392D01*
X113717605Y-92202000D01*
X114518213Y-93002608D01*
X114760397Y-92933143D01*
X114810535Y-92792607D01*
X114893680Y-92993337D01*
X115286663Y-93386320D01*
X115800119Y-93599000D01*
X116355881Y-93599000D01*
X116713000Y-93451077D01*
X116713000Y-117400000D01*
X107984729Y-117400000D01*
X107912068Y-117392876D01*
X104626493Y-114326339D01*
X104596000Y-114036217D01*
X104596000Y-113555431D01*
X105765000Y-113555431D01*
X105765000Y-114444569D01*
X106105259Y-115266026D01*
X106733974Y-115894741D01*
X107555431Y-116235000D01*
X108444569Y-116235000D01*
X109266026Y-115894741D01*
X109894741Y-115266026D01*
X110235000Y-114444569D01*
X110235000Y-113555431D01*
X109894741Y-112733974D01*
X109266026Y-112105259D01*
X108444569Y-111765000D01*
X107555431Y-111765000D01*
X106733974Y-112105259D01*
X106105259Y-112733974D01*
X105765000Y-113555431D01*
X104596000Y-113555431D01*
X104596000Y-100664000D01*
X105294908Y-100664000D01*
X105410161Y-101243418D01*
X105738375Y-101734625D01*
X106006829Y-101914000D01*
X105738375Y-102093375D01*
X105410161Y-102584582D01*
X105294908Y-103164000D01*
X105410161Y-103743418D01*
X105738375Y-104234625D01*
X105802156Y-104277242D01*
X105574414Y-104429414D01*
X105379874Y-104720565D01*
X105311560Y-105064000D01*
X105311560Y-106264000D01*
X105379874Y-106607435D01*
X105574414Y-106898586D01*
X105865565Y-107093126D01*
X106209000Y-107161440D01*
X107659000Y-107161440D01*
X108002435Y-107093126D01*
X108293586Y-106898586D01*
X108488126Y-106607435D01*
X108509695Y-106499000D01*
X108883767Y-106499000D01*
X108966000Y-106515357D01*
X109048233Y-106499000D01*
X109048237Y-106499000D01*
X109291801Y-106450552D01*
X109568001Y-106266001D01*
X109614587Y-106196280D01*
X110260282Y-105550586D01*
X110330001Y-105504001D01*
X110514552Y-105227801D01*
X110563000Y-104984237D01*
X110579358Y-104902000D01*
X110563000Y-104819763D01*
X110563000Y-100338133D01*
X110690207Y-100210926D01*
X110863000Y-99793766D01*
X110863000Y-99342234D01*
X110690207Y-98925074D01*
X110370926Y-98605793D01*
X109953766Y-98433000D01*
X109502234Y-98433000D01*
X109085074Y-98605793D01*
X108765793Y-98925074D01*
X108593000Y-99342234D01*
X108593000Y-99793766D01*
X108765793Y-100210926D01*
X108893000Y-100338133D01*
X108893001Y-104556131D01*
X108620133Y-104829000D01*
X108509695Y-104829000D01*
X108488126Y-104720565D01*
X108293586Y-104429414D01*
X108065844Y-104277242D01*
X108129625Y-104234625D01*
X108457839Y-103743418D01*
X108573092Y-103164000D01*
X108457839Y-102584582D01*
X108129625Y-102093375D01*
X107861171Y-101914000D01*
X108129625Y-101734625D01*
X108457839Y-101243418D01*
X108573092Y-100664000D01*
X108457839Y-100084582D01*
X108129625Y-99593375D01*
X107856313Y-99410754D01*
X108261497Y-99035193D01*
X108500476Y-98520890D01*
X108379155Y-98291000D01*
X107061000Y-98291000D01*
X107061000Y-98311000D01*
X106807000Y-98311000D01*
X106807000Y-98291000D01*
X105488845Y-98291000D01*
X105367524Y-98520890D01*
X105606503Y-99035193D01*
X106011687Y-99410754D01*
X105738375Y-99593375D01*
X105410161Y-100084582D01*
X105294908Y-100664000D01*
X104596000Y-100664000D01*
X104596000Y-97807110D01*
X105367524Y-97807110D01*
X105488845Y-98037000D01*
X106807000Y-98037000D01*
X106807000Y-96837835D01*
X107061000Y-96837835D01*
X107061000Y-98037000D01*
X108379155Y-98037000D01*
X108500476Y-97807110D01*
X108261497Y-97292807D01*
X107836571Y-96898947D01*
X107293267Y-96697680D01*
X107061000Y-96837835D01*
X106807000Y-96837835D01*
X106574733Y-96697680D01*
X106031429Y-96898947D01*
X105606503Y-97292807D01*
X105367524Y-97807110D01*
X104596000Y-97807110D01*
X104596000Y-93182213D01*
X112737392Y-93182213D01*
X112806857Y-93424397D01*
X113330302Y-93611144D01*
X113885368Y-93583362D01*
X114269143Y-93424397D01*
X114338608Y-93182213D01*
X113538000Y-92381605D01*
X112737392Y-93182213D01*
X104596000Y-93182213D01*
X104596000Y-89950720D01*
X104602209Y-89887397D01*
X104934175Y-89555431D01*
X105765000Y-89555431D01*
X105765000Y-90444569D01*
X106105259Y-91266026D01*
X106733974Y-91894741D01*
X107555431Y-92235000D01*
X108444569Y-92235000D01*
X109025664Y-91994302D01*
X112128856Y-91994302D01*
X112156638Y-92549368D01*
X112315603Y-92933143D01*
X112557787Y-93002608D01*
X113358395Y-92202000D01*
X112557787Y-91401392D01*
X112315603Y-91470857D01*
X112128856Y-91994302D01*
X109025664Y-91994302D01*
X109266026Y-91894741D01*
X109894741Y-91266026D01*
X109913065Y-91221787D01*
X112737392Y-91221787D01*
X113538000Y-92022395D01*
X114338608Y-91221787D01*
X114269143Y-90979603D01*
X113745698Y-90792856D01*
X113190632Y-90820638D01*
X112806857Y-90979603D01*
X112737392Y-91221787D01*
X109913065Y-91221787D01*
X110235000Y-90444569D01*
X110235000Y-89555431D01*
X109894741Y-88733974D01*
X109266026Y-88105259D01*
X108444569Y-87765000D01*
X107555431Y-87765000D01*
X106733974Y-88105259D01*
X106105259Y-88733974D01*
X105765000Y-89555431D01*
X104934175Y-89555431D01*
X107923827Y-86565779D01*
X107959783Y-86562000D01*
X116713000Y-86562000D01*
X116713000Y-90952923D01*
X116713000Y-90952923D01*
G37*
X116713000Y-90952923D02*
X116355881Y-90805000D01*
X115800119Y-90805000D01*
X115286663Y-91017680D01*
X114893680Y-91410663D01*
X114814572Y-91601647D01*
X114760397Y-91470857D01*
X114518213Y-91401392D01*
X113717605Y-92202000D01*
X114518213Y-93002608D01*
X114760397Y-92933143D01*
X114810535Y-92792607D01*
X114893680Y-92993337D01*
X115286663Y-93386320D01*
X115800119Y-93599000D01*
X116355881Y-93599000D01*
X116713000Y-93451077D01*
X116713000Y-117400000D01*
X107984729Y-117400000D01*
X107912068Y-117392876D01*
X104626493Y-114326339D01*
X104596000Y-114036217D01*
X104596000Y-113555431D01*
X105765000Y-113555431D01*
X105765000Y-114444569D01*
X106105259Y-115266026D01*
X106733974Y-115894741D01*
X107555431Y-116235000D01*
X108444569Y-116235000D01*
X109266026Y-115894741D01*
X109894741Y-115266026D01*
X110235000Y-114444569D01*
X110235000Y-113555431D01*
X109894741Y-112733974D01*
X109266026Y-112105259D01*
X108444569Y-111765000D01*
X107555431Y-111765000D01*
X106733974Y-112105259D01*
X106105259Y-112733974D01*
X105765000Y-113555431D01*
X104596000Y-113555431D01*
X104596000Y-100664000D01*
X105294908Y-100664000D01*
X105410161Y-101243418D01*
X105738375Y-101734625D01*
X106006829Y-101914000D01*
X105738375Y-102093375D01*
X105410161Y-102584582D01*
X105294908Y-103164000D01*
X105410161Y-103743418D01*
X105738375Y-104234625D01*
X105802156Y-104277242D01*
X105574414Y-104429414D01*
X105379874Y-104720565D01*
X105311560Y-105064000D01*
X105311560Y-106264000D01*
X105379874Y-106607435D01*
X105574414Y-106898586D01*
X105865565Y-107093126D01*
X106209000Y-107161440D01*
X107659000Y-107161440D01*
X108002435Y-107093126D01*
X108293586Y-106898586D01*
X108488126Y-106607435D01*
X108509695Y-106499000D01*
X108883767Y-106499000D01*
X108966000Y-106515357D01*
X109048233Y-106499000D01*
X109048237Y-106499000D01*
X109291801Y-106450552D01*
X109568001Y-106266001D01*
X109614587Y-106196280D01*
X110260282Y-105550586D01*
X110330001Y-105504001D01*
X110514552Y-105227801D01*
X110563000Y-104984237D01*
X110579358Y-104902000D01*
X110563000Y-104819763D01*
X110563000Y-100338133D01*
X110690207Y-100210926D01*
X110863000Y-99793766D01*
X110863000Y-99342234D01*
X110690207Y-98925074D01*
X110370926Y-98605793D01*
X109953766Y-98433000D01*
X109502234Y-98433000D01*
X109085074Y-98605793D01*
X108765793Y-98925074D01*
X108593000Y-99342234D01*
X108593000Y-99793766D01*
X108765793Y-100210926D01*
X108893000Y-100338133D01*
X108893001Y-104556131D01*
X108620133Y-104829000D01*
X108509695Y-104829000D01*
X108488126Y-104720565D01*
X108293586Y-104429414D01*
X108065844Y-104277242D01*
X108129625Y-104234625D01*
X108457839Y-103743418D01*
X108573092Y-103164000D01*
X108457839Y-102584582D01*
X108129625Y-102093375D01*
X107861171Y-101914000D01*
X108129625Y-101734625D01*
X108457839Y-101243418D01*
X108573092Y-100664000D01*
X108457839Y-100084582D01*
X108129625Y-99593375D01*
X107856313Y-99410754D01*
X108261497Y-99035193D01*
X108500476Y-98520890D01*
X108379155Y-98291000D01*
X107061000Y-98291000D01*
X107061000Y-98311000D01*
X106807000Y-98311000D01*
X106807000Y-98291000D01*
X105488845Y-98291000D01*
X105367524Y-98520890D01*
X105606503Y-99035193D01*
X106011687Y-99410754D01*
X105738375Y-99593375D01*
X105410161Y-100084582D01*
X105294908Y-100664000D01*
X104596000Y-100664000D01*
X104596000Y-97807110D01*
X105367524Y-97807110D01*
X105488845Y-98037000D01*
X106807000Y-98037000D01*
X106807000Y-96837835D01*
X107061000Y-96837835D01*
X107061000Y-98037000D01*
X108379155Y-98037000D01*
X108500476Y-97807110D01*
X108261497Y-97292807D01*
X107836571Y-96898947D01*
X107293267Y-96697680D01*
X107061000Y-96837835D01*
X106807000Y-96837835D01*
X106574733Y-96697680D01*
X106031429Y-96898947D01*
X105606503Y-97292807D01*
X105367524Y-97807110D01*
X104596000Y-97807110D01*
X104596000Y-93182213D01*
X112737392Y-93182213D01*
X112806857Y-93424397D01*
X113330302Y-93611144D01*
X113885368Y-93583362D01*
X114269143Y-93424397D01*
X114338608Y-93182213D01*
X113538000Y-92381605D01*
X112737392Y-93182213D01*
X104596000Y-93182213D01*
X104596000Y-89950720D01*
X104602209Y-89887397D01*
X104934175Y-89555431D01*
X105765000Y-89555431D01*
X105765000Y-90444569D01*
X106105259Y-91266026D01*
X106733974Y-91894741D01*
X107555431Y-92235000D01*
X108444569Y-92235000D01*
X109025664Y-91994302D01*
X112128856Y-91994302D01*
X112156638Y-92549368D01*
X112315603Y-92933143D01*
X112557787Y-93002608D01*
X113358395Y-92202000D01*
X112557787Y-91401392D01*
X112315603Y-91470857D01*
X112128856Y-91994302D01*
X109025664Y-91994302D01*
X109266026Y-91894741D01*
X109894741Y-91266026D01*
X109913065Y-91221787D01*
X112737392Y-91221787D01*
X113538000Y-92022395D01*
X114338608Y-91221787D01*
X114269143Y-90979603D01*
X113745698Y-90792856D01*
X113190632Y-90820638D01*
X112806857Y-90979603D01*
X112737392Y-91221787D01*
X109913065Y-91221787D01*
X110235000Y-90444569D01*
X110235000Y-89555431D01*
X109894741Y-88733974D01*
X109266026Y-88105259D01*
X108444569Y-87765000D01*
X107555431Y-87765000D01*
X106733974Y-88105259D01*
X106105259Y-88733974D01*
X105765000Y-89555431D01*
X104934175Y-89555431D01*
X107923827Y-86565779D01*
X107959783Y-86562000D01*
X116713000Y-86562000D01*
X116713000Y-90952923D01*
G04 #@! TO.N,GNDD*
G36*
X148463000Y-99824000D02*
X145616846Y-99824000D01*
X145541999Y-99809112D01*
X145467152Y-99824000D01*
X145467148Y-99824000D01*
X145245463Y-99868096D01*
X145245461Y-99868097D01*
X145245462Y-99868097D01*
X145057526Y-99993671D01*
X145057524Y-99993673D01*
X144994071Y-100036071D01*
X144951672Y-100099525D01*
X144549529Y-100501670D01*
X144486071Y-100544071D01*
X144318096Y-100795464D01*
X144274000Y-101017149D01*
X144274000Y-101017153D01*
X144259112Y-101092000D01*
X144274000Y-101166847D01*
X144274000Y-101271153D01*
X144259112Y-101346000D01*
X144274000Y-101420847D01*
X144274000Y-101420852D01*
X144318096Y-101642537D01*
X144486071Y-101893929D01*
X144549528Y-101936330D01*
X144951672Y-102338475D01*
X144994071Y-102401929D01*
X145057524Y-102444327D01*
X145057526Y-102444329D01*
X145182902Y-102528102D01*
X145245463Y-102569904D01*
X145467148Y-102614000D01*
X145467152Y-102614000D01*
X145541999Y-102628888D01*
X145616846Y-102614000D01*
X148463000Y-102614000D01*
X148463000Y-117400000D01*
X129683103Y-117400000D01*
X130113051Y-116970052D01*
X130352800Y-116391247D01*
X130352800Y-115764753D01*
X130113051Y-115185948D01*
X129670052Y-114742949D01*
X129091247Y-114503200D01*
X128464753Y-114503200D01*
X127885948Y-114742949D01*
X127617947Y-115010950D01*
X127607580Y-114985923D01*
X127346968Y-114894637D01*
X126417605Y-115824000D01*
X127346968Y-116753363D01*
X127352405Y-116751459D01*
X127442949Y-116970052D01*
X127872897Y-117400000D01*
X126239398Y-117400000D01*
X126613828Y-117385049D01*
X127076077Y-117193580D01*
X127167363Y-116932968D01*
X126238000Y-116003605D01*
X125308637Y-116932968D01*
X125399923Y-117193580D01*
X125960551Y-117400000D01*
X124603103Y-117400000D01*
X125033051Y-116970052D01*
X125123595Y-116751459D01*
X125129032Y-116753363D01*
X126058395Y-115824000D01*
X125129032Y-114894637D01*
X124868420Y-114985923D01*
X124858895Y-115011792D01*
X124590052Y-114742949D01*
X124522655Y-114715032D01*
X125308637Y-114715032D01*
X126238000Y-115644395D01*
X127167363Y-114715032D01*
X127076077Y-114454420D01*
X126488167Y-114237955D01*
X125862172Y-114262951D01*
X125399923Y-114454420D01*
X125308637Y-114715032D01*
X124522655Y-114715032D01*
X124458000Y-114688251D01*
X124458000Y-110284126D01*
X127235000Y-110284126D01*
X127235000Y-110695874D01*
X127392569Y-111076280D01*
X127683720Y-111367431D01*
X128064126Y-111525000D01*
X128475874Y-111525000D01*
X128856280Y-111367431D01*
X129147431Y-111076280D01*
X129305000Y-110695874D01*
X129305000Y-110284126D01*
X129147431Y-109903720D01*
X129105000Y-109861289D01*
X129105000Y-109057867D01*
X131663868Y-106499000D01*
X138309289Y-106499000D01*
X138351720Y-106541431D01*
X138732126Y-106699000D01*
X139143874Y-106699000D01*
X139524280Y-106541431D01*
X139815431Y-106250280D01*
X139973000Y-105869874D01*
X139973000Y-105458126D01*
X139815431Y-105077720D01*
X139524280Y-104786569D01*
X139143874Y-104629000D01*
X138732126Y-104629000D01*
X138351720Y-104786569D01*
X138309289Y-104829000D01*
X131400237Y-104829000D01*
X131318000Y-104812642D01*
X131235763Y-104829000D01*
X130992199Y-104877448D01*
X130715999Y-105061999D01*
X130669415Y-105131717D01*
X127737720Y-108063413D01*
X127667999Y-108109999D01*
X127483448Y-108386200D01*
X127435000Y-108629764D01*
X127435000Y-108629767D01*
X127418643Y-108712000D01*
X127435000Y-108794233D01*
X127435001Y-109861288D01*
X127392569Y-109903720D01*
X127235000Y-110284126D01*
X124458000Y-110284126D01*
X124458000Y-106994801D01*
X125706476Y-105746327D01*
X125769929Y-105703929D01*
X125812327Y-105640476D01*
X125812329Y-105640474D01*
X125896102Y-105515098D01*
X125937904Y-105452537D01*
X125982000Y-105230852D01*
X125982000Y-105230848D01*
X125996888Y-105156001D01*
X125982000Y-105081154D01*
X125982000Y-104335711D01*
X126099431Y-104218280D01*
X126257000Y-103837874D01*
X126257000Y-103426126D01*
X126099431Y-103045720D01*
X125808280Y-102754569D01*
X125427874Y-102597000D01*
X125016126Y-102597000D01*
X124635720Y-102754569D01*
X124344569Y-103045720D01*
X124187000Y-103426126D01*
X124187000Y-103837874D01*
X124344569Y-104218280D01*
X124462001Y-104335712D01*
X124462000Y-104841197D01*
X123213528Y-106089671D01*
X123150072Y-106132071D01*
X123107672Y-106195527D01*
X123107671Y-106195528D01*
X122982097Y-106383463D01*
X122923112Y-106680000D01*
X122938001Y-106754852D01*
X122938000Y-114688251D01*
X122805948Y-114742949D01*
X122529340Y-115019557D01*
X122493051Y-114931948D01*
X122050052Y-114488949D01*
X121471247Y-114249200D01*
X120844753Y-114249200D01*
X120265948Y-114488949D01*
X119822949Y-114931948D01*
X119583200Y-115510753D01*
X119583200Y-116137247D01*
X119822949Y-116716052D01*
X120265948Y-117159051D01*
X120844753Y-117398800D01*
X121471247Y-117398800D01*
X122050052Y-117159051D01*
X122326660Y-116882443D01*
X122362949Y-116970052D01*
X122792897Y-117400000D01*
X119507000Y-117400000D01*
X119507000Y-108760126D01*
X120123000Y-108760126D01*
X120123000Y-109171874D01*
X120280569Y-109552280D01*
X120571720Y-109843431D01*
X120952126Y-110001000D01*
X121363874Y-110001000D01*
X121744280Y-109843431D01*
X122035431Y-109552280D01*
X122193000Y-109171874D01*
X122193000Y-108760126D01*
X122035431Y-108379720D01*
X121993000Y-108337289D01*
X121993000Y-102707867D01*
X123976283Y-100724585D01*
X124046001Y-100678001D01*
X124230552Y-100401801D01*
X124279000Y-100158237D01*
X124279000Y-100158234D01*
X124295357Y-100076001D01*
X124279000Y-99993768D01*
X124279000Y-99688711D01*
X124321431Y-99646280D01*
X124479000Y-99265874D01*
X124479000Y-98854126D01*
X124321431Y-98473720D01*
X124030280Y-98182569D01*
X123649874Y-98025000D01*
X123238126Y-98025000D01*
X122857720Y-98182569D01*
X122566569Y-98473720D01*
X122409000Y-98854126D01*
X122409000Y-99265874D01*
X122566569Y-99646280D01*
X122609001Y-99688712D01*
X122609001Y-99730131D01*
X120625720Y-101713413D01*
X120555999Y-101759999D01*
X120371448Y-102036200D01*
X120323000Y-102279764D01*
X120323000Y-102279767D01*
X120306643Y-102362000D01*
X120323000Y-102444233D01*
X120323001Y-108337288D01*
X120280569Y-108379720D01*
X120123000Y-108760126D01*
X119507000Y-108760126D01*
X119507000Y-95504000D01*
X119503976Y-95476450D01*
X119073350Y-93538634D01*
X119349143Y-93424397D01*
X119418608Y-93182213D01*
X118999000Y-92762605D01*
X118999000Y-92403395D01*
X119598213Y-93002608D01*
X119840397Y-92933143D01*
X119890535Y-92792607D01*
X119973680Y-92993337D01*
X120366663Y-93386320D01*
X120880119Y-93599000D01*
X121435881Y-93599000D01*
X121949337Y-93386320D01*
X122342320Y-92993337D01*
X122555000Y-92479881D01*
X122555000Y-91924119D01*
X122342320Y-91410663D01*
X121949337Y-91017680D01*
X121435881Y-90805000D01*
X120880119Y-90805000D01*
X120366663Y-91017680D01*
X119973680Y-91410663D01*
X119894572Y-91601647D01*
X119840397Y-91470857D01*
X119598213Y-91401392D01*
X118999000Y-92000605D01*
X118999000Y-91641395D01*
X119418608Y-91221787D01*
X119349143Y-90979603D01*
X119078635Y-90883095D01*
X119503208Y-89184802D01*
X119507000Y-89154000D01*
X119507000Y-86562000D01*
X148463000Y-86562000D01*
X148463000Y-99824000D01*
X148463000Y-99824000D01*
G37*
X148463000Y-99824000D02*
X145616846Y-99824000D01*
X145541999Y-99809112D01*
X145467152Y-99824000D01*
X145467148Y-99824000D01*
X145245463Y-99868096D01*
X145245461Y-99868097D01*
X145245462Y-99868097D01*
X145057526Y-99993671D01*
X145057524Y-99993673D01*
X144994071Y-100036071D01*
X144951672Y-100099525D01*
X144549529Y-100501670D01*
X144486071Y-100544071D01*
X144318096Y-100795464D01*
X144274000Y-101017149D01*
X144274000Y-101017153D01*
X144259112Y-101092000D01*
X144274000Y-101166847D01*
X144274000Y-101271153D01*
X144259112Y-101346000D01*
X144274000Y-101420847D01*
X144274000Y-101420852D01*
X144318096Y-101642537D01*
X144486071Y-101893929D01*
X144549528Y-101936330D01*
X144951672Y-102338475D01*
X144994071Y-102401929D01*
X145057524Y-102444327D01*
X145057526Y-102444329D01*
X145182902Y-102528102D01*
X145245463Y-102569904D01*
X145467148Y-102614000D01*
X145467152Y-102614000D01*
X145541999Y-102628888D01*
X145616846Y-102614000D01*
X148463000Y-102614000D01*
X148463000Y-117400000D01*
X129683103Y-117400000D01*
X130113051Y-116970052D01*
X130352800Y-116391247D01*
X130352800Y-115764753D01*
X130113051Y-115185948D01*
X129670052Y-114742949D01*
X129091247Y-114503200D01*
X128464753Y-114503200D01*
X127885948Y-114742949D01*
X127617947Y-115010950D01*
X127607580Y-114985923D01*
X127346968Y-114894637D01*
X126417605Y-115824000D01*
X127346968Y-116753363D01*
X127352405Y-116751459D01*
X127442949Y-116970052D01*
X127872897Y-117400000D01*
X126239398Y-117400000D01*
X126613828Y-117385049D01*
X127076077Y-117193580D01*
X127167363Y-116932968D01*
X126238000Y-116003605D01*
X125308637Y-116932968D01*
X125399923Y-117193580D01*
X125960551Y-117400000D01*
X124603103Y-117400000D01*
X125033051Y-116970052D01*
X125123595Y-116751459D01*
X125129032Y-116753363D01*
X126058395Y-115824000D01*
X125129032Y-114894637D01*
X124868420Y-114985923D01*
X124858895Y-115011792D01*
X124590052Y-114742949D01*
X124522655Y-114715032D01*
X125308637Y-114715032D01*
X126238000Y-115644395D01*
X127167363Y-114715032D01*
X127076077Y-114454420D01*
X126488167Y-114237955D01*
X125862172Y-114262951D01*
X125399923Y-114454420D01*
X125308637Y-114715032D01*
X124522655Y-114715032D01*
X124458000Y-114688251D01*
X124458000Y-110284126D01*
X127235000Y-110284126D01*
X127235000Y-110695874D01*
X127392569Y-111076280D01*
X127683720Y-111367431D01*
X128064126Y-111525000D01*
X128475874Y-111525000D01*
X128856280Y-111367431D01*
X129147431Y-111076280D01*
X129305000Y-110695874D01*
X129305000Y-110284126D01*
X129147431Y-109903720D01*
X129105000Y-109861289D01*
X129105000Y-109057867D01*
X131663868Y-106499000D01*
X138309289Y-106499000D01*
X138351720Y-106541431D01*
X138732126Y-106699000D01*
X139143874Y-106699000D01*
X139524280Y-106541431D01*
X139815431Y-106250280D01*
X139973000Y-105869874D01*
X139973000Y-105458126D01*
X139815431Y-105077720D01*
X139524280Y-104786569D01*
X139143874Y-104629000D01*
X138732126Y-104629000D01*
X138351720Y-104786569D01*
X138309289Y-104829000D01*
X131400237Y-104829000D01*
X131318000Y-104812642D01*
X131235763Y-104829000D01*
X130992199Y-104877448D01*
X130715999Y-105061999D01*
X130669415Y-105131717D01*
X127737720Y-108063413D01*
X127667999Y-108109999D01*
X127483448Y-108386200D01*
X127435000Y-108629764D01*
X127435000Y-108629767D01*
X127418643Y-108712000D01*
X127435000Y-108794233D01*
X127435001Y-109861288D01*
X127392569Y-109903720D01*
X127235000Y-110284126D01*
X124458000Y-110284126D01*
X124458000Y-106994801D01*
X125706476Y-105746327D01*
X125769929Y-105703929D01*
X125812327Y-105640476D01*
X125812329Y-105640474D01*
X125896102Y-105515098D01*
X125937904Y-105452537D01*
X125982000Y-105230852D01*
X125982000Y-105230848D01*
X125996888Y-105156001D01*
X125982000Y-105081154D01*
X125982000Y-104335711D01*
X126099431Y-104218280D01*
X126257000Y-103837874D01*
X126257000Y-103426126D01*
X126099431Y-103045720D01*
X125808280Y-102754569D01*
X125427874Y-102597000D01*
X125016126Y-102597000D01*
X124635720Y-102754569D01*
X124344569Y-103045720D01*
X124187000Y-103426126D01*
X124187000Y-103837874D01*
X124344569Y-104218280D01*
X124462001Y-104335712D01*
X124462000Y-104841197D01*
X123213528Y-106089671D01*
X123150072Y-106132071D01*
X123107672Y-106195527D01*
X123107671Y-106195528D01*
X122982097Y-106383463D01*
X122923112Y-106680000D01*
X122938001Y-106754852D01*
X122938000Y-114688251D01*
X122805948Y-114742949D01*
X122529340Y-115019557D01*
X122493051Y-114931948D01*
X122050052Y-114488949D01*
X121471247Y-114249200D01*
X120844753Y-114249200D01*
X120265948Y-114488949D01*
X119822949Y-114931948D01*
X119583200Y-115510753D01*
X119583200Y-116137247D01*
X119822949Y-116716052D01*
X120265948Y-117159051D01*
X120844753Y-117398800D01*
X121471247Y-117398800D01*
X122050052Y-117159051D01*
X122326660Y-116882443D01*
X122362949Y-116970052D01*
X122792897Y-117400000D01*
X119507000Y-117400000D01*
X119507000Y-108760126D01*
X120123000Y-108760126D01*
X120123000Y-109171874D01*
X120280569Y-109552280D01*
X120571720Y-109843431D01*
X120952126Y-110001000D01*
X121363874Y-110001000D01*
X121744280Y-109843431D01*
X122035431Y-109552280D01*
X122193000Y-109171874D01*
X122193000Y-108760126D01*
X122035431Y-108379720D01*
X121993000Y-108337289D01*
X121993000Y-102707867D01*
X123976283Y-100724585D01*
X124046001Y-100678001D01*
X124230552Y-100401801D01*
X124279000Y-100158237D01*
X124279000Y-100158234D01*
X124295357Y-100076001D01*
X124279000Y-99993768D01*
X124279000Y-99688711D01*
X124321431Y-99646280D01*
X124479000Y-99265874D01*
X124479000Y-98854126D01*
X124321431Y-98473720D01*
X124030280Y-98182569D01*
X123649874Y-98025000D01*
X123238126Y-98025000D01*
X122857720Y-98182569D01*
X122566569Y-98473720D01*
X122409000Y-98854126D01*
X122409000Y-99265874D01*
X122566569Y-99646280D01*
X122609001Y-99688712D01*
X122609001Y-99730131D01*
X120625720Y-101713413D01*
X120555999Y-101759999D01*
X120371448Y-102036200D01*
X120323000Y-102279764D01*
X120323000Y-102279767D01*
X120306643Y-102362000D01*
X120323000Y-102444233D01*
X120323001Y-108337288D01*
X120280569Y-108379720D01*
X120123000Y-108760126D01*
X119507000Y-108760126D01*
X119507000Y-95504000D01*
X119503976Y-95476450D01*
X119073350Y-93538634D01*
X119349143Y-93424397D01*
X119418608Y-93182213D01*
X118999000Y-92762605D01*
X118999000Y-92403395D01*
X119598213Y-93002608D01*
X119840397Y-92933143D01*
X119890535Y-92792607D01*
X119973680Y-92993337D01*
X120366663Y-93386320D01*
X120880119Y-93599000D01*
X121435881Y-93599000D01*
X121949337Y-93386320D01*
X122342320Y-92993337D01*
X122555000Y-92479881D01*
X122555000Y-91924119D01*
X122342320Y-91410663D01*
X121949337Y-91017680D01*
X121435881Y-90805000D01*
X120880119Y-90805000D01*
X120366663Y-91017680D01*
X119973680Y-91410663D01*
X119894572Y-91601647D01*
X119840397Y-91470857D01*
X119598213Y-91401392D01*
X118999000Y-92000605D01*
X118999000Y-91641395D01*
X119418608Y-91221787D01*
X119349143Y-90979603D01*
X119078635Y-90883095D01*
X119503208Y-89184802D01*
X119507000Y-89154000D01*
X119507000Y-86562000D01*
X148463000Y-86562000D01*
X148463000Y-99824000D01*
G04 #@! TD*
M02*
