G04 #@! TF.GenerationSoftware,KiCad,Pcbnew,(5.0.1)-3*
G04 #@! TF.CreationDate,2019-12-14T18:20:53-05:00*
G04 #@! TF.ProjectId,ml-ph-board,6D6C2D70682D626F6172642E6B696361,rev?*
G04 #@! TF.SameCoordinates,Original*
G04 #@! TF.FileFunction,Legend,Top*
G04 #@! TF.FilePolarity,Positive*
%FSLAX46Y46*%
G04 Gerber Fmt 4.6, Leading zero omitted, Abs format (unit mm)*
G04 Created by KiCad (PCBNEW (5.0.1)-3) date 12/14/2019 6:20:53 PM*
%MOMM*%
%LPD*%
G01*
G04 APERTURE LIST*
%ADD10C,0.150000*%
%ADD11C,0.127000*%
%ADD12C,0.120000*%
%ADD13C,0.203200*%
%ADD14C,0.066040*%
%ADD15C,0.100000*%
G04 APERTURE END LIST*
D10*
X112728952Y-89622380D02*
X112728952Y-90336666D01*
X112681333Y-90479523D01*
X112586095Y-90574761D01*
X112443238Y-90622380D01*
X112348000Y-90622380D01*
X113681333Y-90622380D02*
X113205142Y-90622380D01*
X113205142Y-89622380D01*
X114586095Y-90527142D02*
X114538476Y-90574761D01*
X114395619Y-90622380D01*
X114300380Y-90622380D01*
X114157523Y-90574761D01*
X114062285Y-90479523D01*
X114014666Y-90384285D01*
X113967047Y-90193809D01*
X113967047Y-90050952D01*
X114014666Y-89860476D01*
X114062285Y-89765238D01*
X114157523Y-89670000D01*
X114300380Y-89622380D01*
X114395619Y-89622380D01*
X114538476Y-89670000D01*
X114586095Y-89717619D01*
X115300380Y-89622380D02*
X115300380Y-90336666D01*
X115252761Y-90479523D01*
X115157523Y-90574761D01*
X115014666Y-90622380D01*
X114919428Y-90622380D01*
X116252761Y-90622380D02*
X115776571Y-90622380D01*
X115776571Y-89622380D01*
X117157523Y-90527142D02*
X117109904Y-90574761D01*
X116967047Y-90622380D01*
X116871809Y-90622380D01*
X116728952Y-90574761D01*
X116633714Y-90479523D01*
X116586095Y-90384285D01*
X116538476Y-90193809D01*
X116538476Y-90050952D01*
X116586095Y-89860476D01*
X116633714Y-89765238D01*
X116728952Y-89670000D01*
X116871809Y-89622380D01*
X116967047Y-89622380D01*
X117109904Y-89670000D01*
X117157523Y-89717619D01*
X117871809Y-89622380D02*
X117871809Y-90336666D01*
X117824190Y-90479523D01*
X117728952Y-90574761D01*
X117586095Y-90622380D01*
X117490857Y-90622380D01*
X118824190Y-90622380D02*
X118348000Y-90622380D01*
X118348000Y-89622380D01*
X119728952Y-90527142D02*
X119681333Y-90574761D01*
X119538476Y-90622380D01*
X119443238Y-90622380D01*
X119300380Y-90574761D01*
X119205142Y-90479523D01*
X119157523Y-90384285D01*
X119109904Y-90193809D01*
X119109904Y-90050952D01*
X119157523Y-89860476D01*
X119205142Y-89765238D01*
X119300380Y-89670000D01*
X119443238Y-89622380D01*
X119538476Y-89622380D01*
X119681333Y-89670000D01*
X119728952Y-89717619D01*
X120443238Y-89622380D02*
X120443238Y-90336666D01*
X120395619Y-90479523D01*
X120300380Y-90574761D01*
X120157523Y-90622380D01*
X120062285Y-90622380D01*
X121395619Y-90622380D02*
X120919428Y-90622380D01*
X120919428Y-89622380D01*
X122300380Y-90527142D02*
X122252761Y-90574761D01*
X122109904Y-90622380D01*
X122014666Y-90622380D01*
X121871809Y-90574761D01*
X121776571Y-90479523D01*
X121728952Y-90384285D01*
X121681333Y-90193809D01*
X121681333Y-90050952D01*
X121728952Y-89860476D01*
X121776571Y-89765238D01*
X121871809Y-89670000D01*
X122014666Y-89622380D01*
X122109904Y-89622380D01*
X122252761Y-89670000D01*
X122300380Y-89717619D01*
X137580666Y-113490285D02*
X137580666Y-113014095D01*
X137866380Y-113585523D02*
X136866380Y-113252190D01*
X137866380Y-112918857D01*
X137866380Y-112061714D02*
X137866380Y-112633142D01*
X137866380Y-112347428D02*
X136866380Y-112347428D01*
X137009238Y-112442666D01*
X137104476Y-112537904D01*
X137152095Y-112633142D01*
X134786666Y-113490285D02*
X134786666Y-113014095D01*
X135072380Y-113585523D02*
X134072380Y-113252190D01*
X135072380Y-112918857D01*
X134072380Y-112395047D02*
X134072380Y-112299809D01*
X134120000Y-112204571D01*
X134167619Y-112156952D01*
X134262857Y-112109333D01*
X134453333Y-112061714D01*
X134691428Y-112061714D01*
X134881904Y-112109333D01*
X134977142Y-112156952D01*
X135024761Y-112204571D01*
X135072380Y-112299809D01*
X135072380Y-112395047D01*
X135024761Y-112490285D01*
X134977142Y-112537904D01*
X134881904Y-112585523D01*
X134691428Y-112633142D01*
X134453333Y-112633142D01*
X134262857Y-112585523D01*
X134167619Y-112537904D01*
X134120000Y-112490285D01*
X134072380Y-112395047D01*
X129230380Y-113831619D02*
X128754190Y-114164952D01*
X129230380Y-114403047D02*
X128230380Y-114403047D01*
X128230380Y-114022095D01*
X128278000Y-113926857D01*
X128325619Y-113879238D01*
X128420857Y-113831619D01*
X128563714Y-113831619D01*
X128658952Y-113879238D01*
X128706571Y-113926857D01*
X128754190Y-114022095D01*
X128754190Y-114403047D01*
X129182761Y-113450666D02*
X129230380Y-113307809D01*
X129230380Y-113069714D01*
X129182761Y-112974476D01*
X129135142Y-112926857D01*
X129039904Y-112879238D01*
X128944666Y-112879238D01*
X128849428Y-112926857D01*
X128801809Y-112974476D01*
X128754190Y-113069714D01*
X128706571Y-113260190D01*
X128658952Y-113355428D01*
X128611333Y-113403047D01*
X128516095Y-113450666D01*
X128420857Y-113450666D01*
X128325619Y-113403047D01*
X128278000Y-113355428D01*
X128230380Y-113260190D01*
X128230380Y-113022095D01*
X128278000Y-112879238D01*
X128230380Y-112593523D02*
X128230380Y-112022095D01*
X129230380Y-112307809D02*
X128230380Y-112307809D01*
X125690380Y-113680857D02*
X125690380Y-114157047D01*
X126166571Y-114204666D01*
X126118952Y-114157047D01*
X126071333Y-114061809D01*
X126071333Y-113823714D01*
X126118952Y-113728476D01*
X126166571Y-113680857D01*
X126261809Y-113633238D01*
X126499904Y-113633238D01*
X126595142Y-113680857D01*
X126642761Y-113728476D01*
X126690380Y-113823714D01*
X126690380Y-114061809D01*
X126642761Y-114157047D01*
X126595142Y-114204666D01*
X126023714Y-113299904D02*
X126690380Y-113061809D01*
X126023714Y-112823714D01*
X123198000Y-113791904D02*
X123150380Y-113887142D01*
X123150380Y-114030000D01*
X123198000Y-114172857D01*
X123293238Y-114268095D01*
X123388476Y-114315714D01*
X123578952Y-114363333D01*
X123721809Y-114363333D01*
X123912285Y-114315714D01*
X124007523Y-114268095D01*
X124102761Y-114172857D01*
X124150380Y-114030000D01*
X124150380Y-113934761D01*
X124102761Y-113791904D01*
X124055142Y-113744285D01*
X123721809Y-113744285D01*
X123721809Y-113934761D01*
X124150380Y-113315714D02*
X123150380Y-113315714D01*
X124150380Y-112744285D01*
X123150380Y-112744285D01*
X124150380Y-112268095D02*
X123150380Y-112268095D01*
X123150380Y-112030000D01*
X123198000Y-111887142D01*
X123293238Y-111791904D01*
X123388476Y-111744285D01*
X123578952Y-111696666D01*
X123721809Y-111696666D01*
X123912285Y-111744285D01*
X124007523Y-111791904D01*
X124102761Y-111887142D01*
X124150380Y-112030000D01*
X124150380Y-112268095D01*
X121562761Y-114442666D02*
X121610380Y-114299809D01*
X121610380Y-114061714D01*
X121562761Y-113966476D01*
X121515142Y-113918857D01*
X121419904Y-113871238D01*
X121324666Y-113871238D01*
X121229428Y-113918857D01*
X121181809Y-113966476D01*
X121134190Y-114061714D01*
X121086571Y-114252190D01*
X121038952Y-114347428D01*
X120991333Y-114395047D01*
X120896095Y-114442666D01*
X120800857Y-114442666D01*
X120705619Y-114395047D01*
X120658000Y-114347428D01*
X120610380Y-114252190D01*
X120610380Y-114014095D01*
X120658000Y-113871238D01*
X120610380Y-113537904D02*
X121610380Y-113299809D01*
X120896095Y-113109333D01*
X121610380Y-112918857D01*
X120610380Y-112680761D01*
X121610380Y-112299809D02*
X120610380Y-112299809D01*
X121610380Y-111823619D02*
X120610380Y-111823619D01*
X121324666Y-111490285D01*
X120610380Y-111156952D01*
X121610380Y-111156952D01*
D11*
G04 #@! TO.C,J3*
X149428200Y-94361000D02*
X149428200Y-109347000D01*
X149428200Y-109347000D02*
X163271200Y-109347000D01*
X163271200Y-109347000D02*
X163271200Y-94361000D01*
X163271200Y-94361000D02*
X149428200Y-94361000D01*
D12*
G04 #@! TO.C,J1*
X104474000Y-108224000D02*
X110444000Y-108224000D01*
X110444000Y-108224000D02*
X110444000Y-95604000D01*
X110444000Y-95604000D02*
X104474000Y-95604000D01*
X104474000Y-95604000D02*
X104474000Y-108224000D01*
X104484000Y-104914000D02*
X105234000Y-104914000D01*
X105234000Y-104914000D02*
X105234000Y-98914000D01*
X105234000Y-98914000D02*
X104484000Y-98914000D01*
X104484000Y-98914000D02*
X104484000Y-104914000D01*
X104484000Y-108214000D02*
X105234000Y-108214000D01*
X105234000Y-108214000D02*
X105234000Y-106414000D01*
X105234000Y-106414000D02*
X104484000Y-106414000D01*
X104484000Y-106414000D02*
X104484000Y-108214000D01*
X104484000Y-97414000D02*
X105234000Y-97414000D01*
X105234000Y-97414000D02*
X105234000Y-95614000D01*
X105234000Y-95614000D02*
X104484000Y-95614000D01*
X104484000Y-95614000D02*
X104484000Y-97414000D01*
X106734000Y-108214000D02*
X106734000Y-107464000D01*
X106734000Y-107464000D02*
X109684000Y-107464000D01*
X109684000Y-107464000D02*
X109684000Y-101914000D01*
X106734000Y-95614000D02*
X106734000Y-96364000D01*
X106734000Y-96364000D02*
X109684000Y-96364000D01*
X109684000Y-96364000D02*
X109684000Y-101914000D01*
X104184000Y-107264000D02*
X104184000Y-108514000D01*
X104184000Y-108514000D02*
X105434000Y-108514000D01*
G04 #@! TO.C,C1*
X114691279Y-94740000D02*
X114365721Y-94740000D01*
X114691279Y-95760000D02*
X114365721Y-95760000D01*
G04 #@! TO.C,C2*
X114691279Y-97538000D02*
X114365721Y-97538000D01*
X114691279Y-96518000D02*
X114365721Y-96518000D01*
G04 #@! TO.C,C3*
X124970000Y-90246419D02*
X124970000Y-89920861D01*
X123950000Y-90246419D02*
X123950000Y-89920861D01*
G04 #@! TO.C,C4*
X134114000Y-107761721D02*
X134114000Y-108087279D01*
X133094000Y-107761721D02*
X133094000Y-108087279D01*
G04 #@! TO.C,C5*
X133856000Y-95387279D02*
X133856000Y-95061721D01*
X134876000Y-95387279D02*
X134876000Y-95061721D01*
G04 #@! TO.C,C6*
X143762000Y-90298779D02*
X143762000Y-89973221D01*
X144782000Y-90298779D02*
X144782000Y-89973221D01*
G04 #@! TO.C,C7*
X132844000Y-95387279D02*
X132844000Y-95061721D01*
X131824000Y-95387279D02*
X131824000Y-95061721D01*
G04 #@! TO.C,C8*
X140718000Y-96403279D02*
X140718000Y-96077721D01*
X139698000Y-96403279D02*
X139698000Y-96077721D01*
G04 #@! TO.C,C9*
X129855500Y-95387279D02*
X129855500Y-95061721D01*
X130875500Y-95387279D02*
X130875500Y-95061721D01*
G04 #@! TO.C,D1*
X142804000Y-89156000D02*
X141874000Y-89156000D01*
X139644000Y-89156000D02*
X140574000Y-89156000D01*
X139644000Y-89156000D02*
X139644000Y-91316000D01*
X142804000Y-89156000D02*
X142804000Y-90616000D01*
D13*
G04 #@! TO.C,J2*
X130048000Y-115316000D02*
X130048000Y-116586000D01*
X121793000Y-117221000D02*
X120523000Y-117221000D01*
X119888000Y-116586000D02*
X120523000Y-117221000D01*
X120523000Y-114681000D02*
X119888000Y-115316000D01*
X119888000Y-115316000D02*
X119888000Y-116586000D01*
X123063000Y-117221000D02*
X122428000Y-116586000D01*
X124333000Y-117221000D02*
X123063000Y-117221000D01*
X124968000Y-116586000D02*
X124333000Y-117221000D01*
X124333000Y-114681000D02*
X124968000Y-115316000D01*
X123063000Y-114681000D02*
X124333000Y-114681000D01*
X122428000Y-115316000D02*
X123063000Y-114681000D01*
X122428000Y-116586000D02*
X121793000Y-117221000D01*
X121793000Y-114681000D02*
X122428000Y-115316000D01*
X120523000Y-114681000D02*
X121793000Y-114681000D01*
X129413000Y-117221000D02*
X128143000Y-117221000D01*
X127508000Y-116586000D02*
X128143000Y-117221000D01*
X128143000Y-114681000D02*
X127508000Y-115316000D01*
X125603000Y-117221000D02*
X124968000Y-116586000D01*
X126873000Y-117221000D02*
X125603000Y-117221000D01*
X127508000Y-116586000D02*
X126873000Y-117221000D01*
X126873000Y-114681000D02*
X127508000Y-115316000D01*
X125603000Y-114681000D02*
X126873000Y-114681000D01*
X124968000Y-115316000D02*
X125603000Y-114681000D01*
X130048000Y-116586000D02*
X129413000Y-117221000D01*
X129413000Y-114681000D02*
X130048000Y-115316000D01*
X128143000Y-114681000D02*
X129413000Y-114681000D01*
D12*
G04 #@! TO.C,R1*
X125982000Y-95061721D02*
X125982000Y-95387279D01*
X127002000Y-95061721D02*
X127002000Y-95387279D01*
G04 #@! TO.C,R2*
X128970500Y-95061721D02*
X128970500Y-95387279D01*
X127950500Y-95061721D02*
X127950500Y-95387279D01*
G04 #@! TO.C,R3*
X130875632Y-108087279D02*
X130875632Y-107761721D01*
X131895632Y-108087279D02*
X131895632Y-107761721D01*
G04 #@! TO.C,R4*
X138686000Y-90298779D02*
X138686000Y-89973221D01*
X137666000Y-90298779D02*
X137666000Y-89973221D01*
G04 #@! TO.C,R5*
X146306000Y-107884279D02*
X146306000Y-107558721D01*
X145286000Y-107884279D02*
X145286000Y-107558721D01*
G04 #@! TO.C,R6*
X144274000Y-107558721D02*
X144274000Y-107884279D01*
X143254000Y-107558721D02*
X143254000Y-107884279D01*
D10*
G04 #@! TO.C,U1*
X116035000Y-99025000D02*
X116035000Y-99075000D01*
X120185000Y-99025000D02*
X120185000Y-99170000D01*
X120185000Y-104175000D02*
X120185000Y-104030000D01*
X116035000Y-104175000D02*
X116035000Y-104030000D01*
X116035000Y-99025000D02*
X120185000Y-99025000D01*
X116035000Y-104175000D02*
X120185000Y-104175000D01*
X116035000Y-99075000D02*
X114635000Y-99075000D01*
G04 #@! TO.C,U2*
X111618000Y-93492000D02*
X123118000Y-93492000D01*
X111618000Y-93492000D02*
X111618000Y-87492000D01*
X111618000Y-87492000D02*
X123118000Y-87492000D01*
X123118000Y-93492000D02*
X123118000Y-87492000D01*
G04 #@! TO.C,U3*
X132527000Y-98404000D02*
X128077000Y-98404000D01*
X134052000Y-105304000D02*
X128077000Y-105304000D01*
G04 #@! TO.C,U4*
X146768000Y-105059000D02*
X146768000Y-104404000D01*
X141268000Y-105059000D02*
X141268000Y-104309000D01*
X141268000Y-98649000D02*
X141268000Y-99399000D01*
X146768000Y-98649000D02*
X146768000Y-99399000D01*
X146768000Y-105059000D02*
X141268000Y-105059000D01*
X146768000Y-98649000D02*
X141268000Y-98649000D01*
X146768000Y-104404000D02*
X148518000Y-104404000D01*
D12*
G04 #@! TO.C,D2*
X129209000Y-91748640D02*
X129209000Y-89263640D01*
X127839000Y-91748640D02*
X129209000Y-91748640D01*
X127839000Y-89263640D02*
X127839000Y-91748640D01*
G04 #@! TO.C,D3*
X129862266Y-108744500D02*
X129862266Y-106259500D01*
X129862266Y-106259500D02*
X128492266Y-106259500D01*
X128492266Y-106259500D02*
X128492266Y-108744500D01*
D14*
G04 #@! TO.C,R7*
X126796720Y-90281760D02*
X126796720Y-89885520D01*
X126796720Y-89885520D02*
X126197280Y-89885520D01*
X126197280Y-90281760D02*
X126197280Y-89885520D01*
X126796720Y-90281760D02*
X126197280Y-90281760D01*
G04 #@! TO.C,R8*
X127299720Y-108122620D02*
X126700280Y-108122620D01*
X126700280Y-108122620D02*
X126700280Y-107726380D01*
X127299720Y-107726380D02*
X126700280Y-107726380D01*
X127299720Y-108122620D02*
X127299720Y-107726380D01*
D12*
G04 #@! TO.C,JP1*
X135620000Y-113953000D02*
X135620000Y-116753000D01*
X135620000Y-116753000D02*
X133620000Y-116753000D01*
X133620000Y-116753000D02*
X133620000Y-113953000D01*
X133620000Y-113953000D02*
X135620000Y-113953000D01*
G04 #@! TO.C,JP2*
X136414000Y-113953000D02*
X138414000Y-113953000D01*
X136414000Y-116753000D02*
X136414000Y-113953000D01*
X138414000Y-116753000D02*
X136414000Y-116753000D01*
X138414000Y-113953000D02*
X138414000Y-116753000D01*
G04 #@! TO.C,R9*
X136743221Y-101852000D02*
X137068779Y-101852000D01*
X136743221Y-102872000D02*
X137068779Y-102872000D01*
G04 #@! TO.C,C10*
X142242000Y-107533221D02*
X142242000Y-107858779D01*
X141222000Y-107533221D02*
X141222000Y-107858779D01*
G04 #@! TO.C,R10*
X130812000Y-90007221D02*
X130812000Y-90332779D01*
X129792000Y-90007221D02*
X129792000Y-90332779D01*
G04 #@! TO.C,R11*
X131824000Y-89981721D02*
X131824000Y-90307279D01*
X132844000Y-89981721D02*
X132844000Y-90307279D01*
G04 #@! TO.C,R12*
X134876000Y-89981721D02*
X134876000Y-90307279D01*
X133856000Y-89981721D02*
X133856000Y-90307279D01*
G04 #@! TO.C,C1*
D10*
X111847333Y-95607142D02*
X111799714Y-95654761D01*
X111656857Y-95702380D01*
X111561619Y-95702380D01*
X111418761Y-95654761D01*
X111323523Y-95559523D01*
X111275904Y-95464285D01*
X111228285Y-95273809D01*
X111228285Y-95130952D01*
X111275904Y-94940476D01*
X111323523Y-94845238D01*
X111418761Y-94750000D01*
X111561619Y-94702380D01*
X111656857Y-94702380D01*
X111799714Y-94750000D01*
X111847333Y-94797619D01*
X112799714Y-95702380D02*
X112228285Y-95702380D01*
X112514000Y-95702380D02*
X112514000Y-94702380D01*
X112418761Y-94845238D01*
X112323523Y-94940476D01*
X112228285Y-94988095D01*
G04 #@! TO.C,C2*
X111847333Y-97385142D02*
X111799714Y-97432761D01*
X111656857Y-97480380D01*
X111561619Y-97480380D01*
X111418761Y-97432761D01*
X111323523Y-97337523D01*
X111275904Y-97242285D01*
X111228285Y-97051809D01*
X111228285Y-96908952D01*
X111275904Y-96718476D01*
X111323523Y-96623238D01*
X111418761Y-96528000D01*
X111561619Y-96480380D01*
X111656857Y-96480380D01*
X111799714Y-96528000D01*
X111847333Y-96575619D01*
X112228285Y-96575619D02*
X112275904Y-96528000D01*
X112371142Y-96480380D01*
X112609238Y-96480380D01*
X112704476Y-96528000D01*
X112752095Y-96575619D01*
X112799714Y-96670857D01*
X112799714Y-96766095D01*
X112752095Y-96908952D01*
X112180666Y-97480380D01*
X112799714Y-97480380D01*
G04 #@! TO.C,C3*
X124817142Y-87796666D02*
X124864761Y-87844285D01*
X124912380Y-87987142D01*
X124912380Y-88082380D01*
X124864761Y-88225238D01*
X124769523Y-88320476D01*
X124674285Y-88368095D01*
X124483809Y-88415714D01*
X124340952Y-88415714D01*
X124150476Y-88368095D01*
X124055238Y-88320476D01*
X123960000Y-88225238D01*
X123912380Y-88082380D01*
X123912380Y-87987142D01*
X123960000Y-87844285D01*
X124007619Y-87796666D01*
X123912380Y-87463333D02*
X123912380Y-86844285D01*
X124293333Y-87177619D01*
X124293333Y-87034761D01*
X124340952Y-86939523D01*
X124388571Y-86891904D01*
X124483809Y-86844285D01*
X124721904Y-86844285D01*
X124817142Y-86891904D01*
X124864761Y-86939523D01*
X124912380Y-87034761D01*
X124912380Y-87320476D01*
X124864761Y-87415714D01*
X124817142Y-87463333D01*
G04 #@! TO.C,C4*
X133961142Y-110656666D02*
X134008761Y-110704285D01*
X134056380Y-110847142D01*
X134056380Y-110942380D01*
X134008761Y-111085238D01*
X133913523Y-111180476D01*
X133818285Y-111228095D01*
X133627809Y-111275714D01*
X133484952Y-111275714D01*
X133294476Y-111228095D01*
X133199238Y-111180476D01*
X133104000Y-111085238D01*
X133056380Y-110942380D01*
X133056380Y-110847142D01*
X133104000Y-110704285D01*
X133151619Y-110656666D01*
X133389714Y-109799523D02*
X134056380Y-109799523D01*
X133008761Y-110037619D02*
X133723047Y-110275714D01*
X133723047Y-109656666D01*
G04 #@! TO.C,C5*
X134723142Y-92876666D02*
X134770761Y-92924285D01*
X134818380Y-93067142D01*
X134818380Y-93162380D01*
X134770761Y-93305238D01*
X134675523Y-93400476D01*
X134580285Y-93448095D01*
X134389809Y-93495714D01*
X134246952Y-93495714D01*
X134056476Y-93448095D01*
X133961238Y-93400476D01*
X133866000Y-93305238D01*
X133818380Y-93162380D01*
X133818380Y-93067142D01*
X133866000Y-92924285D01*
X133913619Y-92876666D01*
X133818380Y-91971904D02*
X133818380Y-92448095D01*
X134294571Y-92495714D01*
X134246952Y-92448095D01*
X134199333Y-92352857D01*
X134199333Y-92114761D01*
X134246952Y-92019523D01*
X134294571Y-91971904D01*
X134389809Y-91924285D01*
X134627904Y-91924285D01*
X134723142Y-91971904D01*
X134770761Y-92019523D01*
X134818380Y-92114761D01*
X134818380Y-92352857D01*
X134770761Y-92448095D01*
X134723142Y-92495714D01*
G04 #@! TO.C,C6*
X144629142Y-87542666D02*
X144676761Y-87590285D01*
X144724380Y-87733142D01*
X144724380Y-87828380D01*
X144676761Y-87971238D01*
X144581523Y-88066476D01*
X144486285Y-88114095D01*
X144295809Y-88161714D01*
X144152952Y-88161714D01*
X143962476Y-88114095D01*
X143867238Y-88066476D01*
X143772000Y-87971238D01*
X143724380Y-87828380D01*
X143724380Y-87733142D01*
X143772000Y-87590285D01*
X143819619Y-87542666D01*
X143724380Y-86685523D02*
X143724380Y-86876000D01*
X143772000Y-86971238D01*
X143819619Y-87018857D01*
X143962476Y-87114095D01*
X144152952Y-87161714D01*
X144533904Y-87161714D01*
X144629142Y-87114095D01*
X144676761Y-87066476D01*
X144724380Y-86971238D01*
X144724380Y-86780761D01*
X144676761Y-86685523D01*
X144629142Y-86637904D01*
X144533904Y-86590285D01*
X144295809Y-86590285D01*
X144200571Y-86637904D01*
X144152952Y-86685523D01*
X144105333Y-86780761D01*
X144105333Y-86971238D01*
X144152952Y-87066476D01*
X144200571Y-87114095D01*
X144295809Y-87161714D01*
G04 #@! TO.C,C7*
X132691142Y-92876666D02*
X132738761Y-92924285D01*
X132786380Y-93067142D01*
X132786380Y-93162380D01*
X132738761Y-93305238D01*
X132643523Y-93400476D01*
X132548285Y-93448095D01*
X132357809Y-93495714D01*
X132214952Y-93495714D01*
X132024476Y-93448095D01*
X131929238Y-93400476D01*
X131834000Y-93305238D01*
X131786380Y-93162380D01*
X131786380Y-93067142D01*
X131834000Y-92924285D01*
X131881619Y-92876666D01*
X131786380Y-92543333D02*
X131786380Y-91876666D01*
X132786380Y-92305238D01*
G04 #@! TO.C,C8*
X140819142Y-93638666D02*
X140866761Y-93686285D01*
X140914380Y-93829142D01*
X140914380Y-93924380D01*
X140866761Y-94067238D01*
X140771523Y-94162476D01*
X140676285Y-94210095D01*
X140485809Y-94257714D01*
X140342952Y-94257714D01*
X140152476Y-94210095D01*
X140057238Y-94162476D01*
X139962000Y-94067238D01*
X139914380Y-93924380D01*
X139914380Y-93829142D01*
X139962000Y-93686285D01*
X140009619Y-93638666D01*
X140342952Y-93067238D02*
X140295333Y-93162476D01*
X140247714Y-93210095D01*
X140152476Y-93257714D01*
X140104857Y-93257714D01*
X140009619Y-93210095D01*
X139962000Y-93162476D01*
X139914380Y-93067238D01*
X139914380Y-92876761D01*
X139962000Y-92781523D01*
X140009619Y-92733904D01*
X140104857Y-92686285D01*
X140152476Y-92686285D01*
X140247714Y-92733904D01*
X140295333Y-92781523D01*
X140342952Y-92876761D01*
X140342952Y-93067238D01*
X140390571Y-93162476D01*
X140438190Y-93210095D01*
X140533428Y-93257714D01*
X140723904Y-93257714D01*
X140819142Y-93210095D01*
X140866761Y-93162476D01*
X140914380Y-93067238D01*
X140914380Y-92876761D01*
X140866761Y-92781523D01*
X140819142Y-92733904D01*
X140723904Y-92686285D01*
X140533428Y-92686285D01*
X140438190Y-92733904D01*
X140390571Y-92781523D01*
X140342952Y-92876761D01*
G04 #@! TO.C,C9*
X130913142Y-92876666D02*
X130960761Y-92924285D01*
X131008380Y-93067142D01*
X131008380Y-93162380D01*
X130960761Y-93305238D01*
X130865523Y-93400476D01*
X130770285Y-93448095D01*
X130579809Y-93495714D01*
X130436952Y-93495714D01*
X130246476Y-93448095D01*
X130151238Y-93400476D01*
X130056000Y-93305238D01*
X130008380Y-93162380D01*
X130008380Y-93067142D01*
X130056000Y-92924285D01*
X130103619Y-92876666D01*
X131008380Y-92400476D02*
X131008380Y-92210000D01*
X130960761Y-92114761D01*
X130913142Y-92067142D01*
X130770285Y-91971904D01*
X130579809Y-91924285D01*
X130198857Y-91924285D01*
X130103619Y-91971904D01*
X130056000Y-92019523D01*
X130008380Y-92114761D01*
X130008380Y-92305238D01*
X130056000Y-92400476D01*
X130103619Y-92448095D01*
X130198857Y-92495714D01*
X130436952Y-92495714D01*
X130532190Y-92448095D01*
X130579809Y-92400476D01*
X130627428Y-92305238D01*
X130627428Y-92114761D01*
X130579809Y-92019523D01*
X130532190Y-91971904D01*
X130436952Y-91924285D01*
G04 #@! TO.C,D1*
X141676380Y-87860095D02*
X140676380Y-87860095D01*
X140676380Y-87622000D01*
X140724000Y-87479142D01*
X140819238Y-87383904D01*
X140914476Y-87336285D01*
X141104952Y-87288666D01*
X141247809Y-87288666D01*
X141438285Y-87336285D01*
X141533523Y-87383904D01*
X141628761Y-87479142D01*
X141676380Y-87622000D01*
X141676380Y-87860095D01*
X141676380Y-86336285D02*
X141676380Y-86907714D01*
X141676380Y-86622000D02*
X140676380Y-86622000D01*
X140819238Y-86717238D01*
X140914476Y-86812476D01*
X140962095Y-86907714D01*
G04 #@! TO.C,R1*
X126944380Y-92876666D02*
X126468190Y-93210000D01*
X126944380Y-93448095D02*
X125944380Y-93448095D01*
X125944380Y-93067142D01*
X125992000Y-92971904D01*
X126039619Y-92924285D01*
X126134857Y-92876666D01*
X126277714Y-92876666D01*
X126372952Y-92924285D01*
X126420571Y-92971904D01*
X126468190Y-93067142D01*
X126468190Y-93448095D01*
X126944380Y-91924285D02*
X126944380Y-92495714D01*
X126944380Y-92210000D02*
X125944380Y-92210000D01*
X126087238Y-92305238D01*
X126182476Y-92400476D01*
X126230095Y-92495714D01*
G04 #@! TO.C,R2*
X128976380Y-92876666D02*
X128500190Y-93210000D01*
X128976380Y-93448095D02*
X127976380Y-93448095D01*
X127976380Y-93067142D01*
X128024000Y-92971904D01*
X128071619Y-92924285D01*
X128166857Y-92876666D01*
X128309714Y-92876666D01*
X128404952Y-92924285D01*
X128452571Y-92971904D01*
X128500190Y-93067142D01*
X128500190Y-93448095D01*
X128071619Y-92495714D02*
X128024000Y-92448095D01*
X127976380Y-92352857D01*
X127976380Y-92114761D01*
X128024000Y-92019523D01*
X128071619Y-91971904D01*
X128166857Y-91924285D01*
X128262095Y-91924285D01*
X128404952Y-91971904D01*
X128976380Y-92543333D01*
X128976380Y-91924285D01*
G04 #@! TO.C,R3*
X132024380Y-110656666D02*
X131548190Y-110990000D01*
X132024380Y-111228095D02*
X131024380Y-111228095D01*
X131024380Y-110847142D01*
X131072000Y-110751904D01*
X131119619Y-110704285D01*
X131214857Y-110656666D01*
X131357714Y-110656666D01*
X131452952Y-110704285D01*
X131500571Y-110751904D01*
X131548190Y-110847142D01*
X131548190Y-111228095D01*
X131024380Y-110323333D02*
X131024380Y-109704285D01*
X131405333Y-110037619D01*
X131405333Y-109894761D01*
X131452952Y-109799523D01*
X131500571Y-109751904D01*
X131595809Y-109704285D01*
X131833904Y-109704285D01*
X131929142Y-109751904D01*
X131976761Y-109799523D01*
X132024380Y-109894761D01*
X132024380Y-110180476D01*
X131976761Y-110275714D01*
X131929142Y-110323333D01*
G04 #@! TO.C,R4*
X138628380Y-87542666D02*
X138152190Y-87876000D01*
X138628380Y-88114095D02*
X137628380Y-88114095D01*
X137628380Y-87733142D01*
X137676000Y-87637904D01*
X137723619Y-87590285D01*
X137818857Y-87542666D01*
X137961714Y-87542666D01*
X138056952Y-87590285D01*
X138104571Y-87637904D01*
X138152190Y-87733142D01*
X138152190Y-88114095D01*
X137961714Y-86685523D02*
X138628380Y-86685523D01*
X137580761Y-86923619D02*
X138295047Y-87161714D01*
X138295047Y-86542666D01*
G04 #@! TO.C,R5*
X146248380Y-110402666D02*
X145772190Y-110736000D01*
X146248380Y-110974095D02*
X145248380Y-110974095D01*
X145248380Y-110593142D01*
X145296000Y-110497904D01*
X145343619Y-110450285D01*
X145438857Y-110402666D01*
X145581714Y-110402666D01*
X145676952Y-110450285D01*
X145724571Y-110497904D01*
X145772190Y-110593142D01*
X145772190Y-110974095D01*
X145248380Y-109497904D02*
X145248380Y-109974095D01*
X145724571Y-110021714D01*
X145676952Y-109974095D01*
X145629333Y-109878857D01*
X145629333Y-109640761D01*
X145676952Y-109545523D01*
X145724571Y-109497904D01*
X145819809Y-109450285D01*
X146057904Y-109450285D01*
X146153142Y-109497904D01*
X146200761Y-109545523D01*
X146248380Y-109640761D01*
X146248380Y-109878857D01*
X146200761Y-109974095D01*
X146153142Y-110021714D01*
G04 #@! TO.C,R6*
X144216380Y-110402666D02*
X143740190Y-110736000D01*
X144216380Y-110974095D02*
X143216380Y-110974095D01*
X143216380Y-110593142D01*
X143264000Y-110497904D01*
X143311619Y-110450285D01*
X143406857Y-110402666D01*
X143549714Y-110402666D01*
X143644952Y-110450285D01*
X143692571Y-110497904D01*
X143740190Y-110593142D01*
X143740190Y-110974095D01*
X143216380Y-109545523D02*
X143216380Y-109736000D01*
X143264000Y-109831238D01*
X143311619Y-109878857D01*
X143454476Y-109974095D01*
X143644952Y-110021714D01*
X144025904Y-110021714D01*
X144121142Y-109974095D01*
X144168761Y-109926476D01*
X144216380Y-109831238D01*
X144216380Y-109640761D01*
X144168761Y-109545523D01*
X144121142Y-109497904D01*
X144025904Y-109450285D01*
X143787809Y-109450285D01*
X143692571Y-109497904D01*
X143644952Y-109545523D01*
X143597333Y-109640761D01*
X143597333Y-109831238D01*
X143644952Y-109926476D01*
X143692571Y-109974095D01*
X143787809Y-110021714D01*
G04 #@! TO.C,U1*
X117348095Y-101052380D02*
X117348095Y-101861904D01*
X117395714Y-101957142D01*
X117443333Y-102004761D01*
X117538571Y-102052380D01*
X117729047Y-102052380D01*
X117824285Y-102004761D01*
X117871904Y-101957142D01*
X117919523Y-101861904D01*
X117919523Y-101052380D01*
X118919523Y-102052380D02*
X118348095Y-102052380D01*
X118633809Y-102052380D02*
X118633809Y-101052380D01*
X118538571Y-101195238D01*
X118443333Y-101290476D01*
X118348095Y-101338095D01*
G04 #@! TO.C,U3*
X129540095Y-101560380D02*
X129540095Y-102369904D01*
X129587714Y-102465142D01*
X129635333Y-102512761D01*
X129730571Y-102560380D01*
X129921047Y-102560380D01*
X130016285Y-102512761D01*
X130063904Y-102465142D01*
X130111523Y-102369904D01*
X130111523Y-101560380D01*
X130492476Y-101560380D02*
X131111523Y-101560380D01*
X130778190Y-101941333D01*
X130921047Y-101941333D01*
X131016285Y-101988952D01*
X131063904Y-102036571D01*
X131111523Y-102131809D01*
X131111523Y-102369904D01*
X131063904Y-102465142D01*
X131016285Y-102512761D01*
X130921047Y-102560380D01*
X130635333Y-102560380D01*
X130540095Y-102512761D01*
X130492476Y-102465142D01*
G04 #@! TO.C,U4*
X143256095Y-101306380D02*
X143256095Y-102115904D01*
X143303714Y-102211142D01*
X143351333Y-102258761D01*
X143446571Y-102306380D01*
X143637047Y-102306380D01*
X143732285Y-102258761D01*
X143779904Y-102211142D01*
X143827523Y-102115904D01*
X143827523Y-101306380D01*
X144732285Y-101639714D02*
X144732285Y-102306380D01*
X144494190Y-101258761D02*
X144256095Y-101973047D01*
X144875142Y-101973047D01*
G04 #@! TO.C,D2*
X128976380Y-88114095D02*
X127976380Y-88114095D01*
X127976380Y-87876000D01*
X128024000Y-87733142D01*
X128119238Y-87637904D01*
X128214476Y-87590285D01*
X128404952Y-87542666D01*
X128547809Y-87542666D01*
X128738285Y-87590285D01*
X128833523Y-87637904D01*
X128928761Y-87733142D01*
X128976380Y-87876000D01*
X128976380Y-88114095D01*
X128071619Y-87161714D02*
X128024000Y-87114095D01*
X127976380Y-87018857D01*
X127976380Y-86780761D01*
X128024000Y-86685523D01*
X128071619Y-86637904D01*
X128166857Y-86590285D01*
X128262095Y-86590285D01*
X128404952Y-86637904D01*
X128976380Y-87209333D01*
X128976380Y-86590285D01*
G04 #@! TO.C,D3*
X129738380Y-111482095D02*
X128738380Y-111482095D01*
X128738380Y-111244000D01*
X128786000Y-111101142D01*
X128881238Y-111005904D01*
X128976476Y-110958285D01*
X129166952Y-110910666D01*
X129309809Y-110910666D01*
X129500285Y-110958285D01*
X129595523Y-111005904D01*
X129690761Y-111101142D01*
X129738380Y-111244000D01*
X129738380Y-111482095D01*
X128738380Y-110577333D02*
X128738380Y-109958285D01*
X129119333Y-110291619D01*
X129119333Y-110148761D01*
X129166952Y-110053523D01*
X129214571Y-110005904D01*
X129309809Y-109958285D01*
X129547904Y-109958285D01*
X129643142Y-110005904D01*
X129690761Y-110053523D01*
X129738380Y-110148761D01*
X129738380Y-110434476D01*
X129690761Y-110529714D01*
X129643142Y-110577333D01*
G04 #@! TO.C,R7*
X126944380Y-87796666D02*
X126468190Y-88130000D01*
X126944380Y-88368095D02*
X125944380Y-88368095D01*
X125944380Y-87987142D01*
X125992000Y-87891904D01*
X126039619Y-87844285D01*
X126134857Y-87796666D01*
X126277714Y-87796666D01*
X126372952Y-87844285D01*
X126420571Y-87891904D01*
X126468190Y-87987142D01*
X126468190Y-88368095D01*
X125944380Y-87463333D02*
X125944380Y-86796666D01*
X126944380Y-87225238D01*
G04 #@! TO.C,R8*
X127452380Y-110910666D02*
X126976190Y-111244000D01*
X127452380Y-111482095D02*
X126452380Y-111482095D01*
X126452380Y-111101142D01*
X126500000Y-111005904D01*
X126547619Y-110958285D01*
X126642857Y-110910666D01*
X126785714Y-110910666D01*
X126880952Y-110958285D01*
X126928571Y-111005904D01*
X126976190Y-111101142D01*
X126976190Y-111482095D01*
X126880952Y-110339238D02*
X126833333Y-110434476D01*
X126785714Y-110482095D01*
X126690476Y-110529714D01*
X126642857Y-110529714D01*
X126547619Y-110482095D01*
X126500000Y-110434476D01*
X126452380Y-110339238D01*
X126452380Y-110148761D01*
X126500000Y-110053523D01*
X126547619Y-110005904D01*
X126642857Y-109958285D01*
X126690476Y-109958285D01*
X126785714Y-110005904D01*
X126833333Y-110053523D01*
X126880952Y-110148761D01*
X126880952Y-110339238D01*
X126928571Y-110434476D01*
X126976190Y-110482095D01*
X127071428Y-110529714D01*
X127261904Y-110529714D01*
X127357142Y-110482095D01*
X127404761Y-110434476D01*
X127452380Y-110339238D01*
X127452380Y-110148761D01*
X127404761Y-110053523D01*
X127357142Y-110005904D01*
X127261904Y-109958285D01*
X127071428Y-109958285D01*
X126976190Y-110005904D01*
X126928571Y-110053523D01*
X126880952Y-110148761D01*
G04 #@! TO.C,R9*
X136739333Y-101384380D02*
X136406000Y-100908190D01*
X136167904Y-101384380D02*
X136167904Y-100384380D01*
X136548857Y-100384380D01*
X136644095Y-100432000D01*
X136691714Y-100479619D01*
X136739333Y-100574857D01*
X136739333Y-100717714D01*
X136691714Y-100812952D01*
X136644095Y-100860571D01*
X136548857Y-100908190D01*
X136167904Y-100908190D01*
X137215523Y-101384380D02*
X137406000Y-101384380D01*
X137501238Y-101336761D01*
X137548857Y-101289142D01*
X137644095Y-101146285D01*
X137691714Y-100955809D01*
X137691714Y-100574857D01*
X137644095Y-100479619D01*
X137596476Y-100432000D01*
X137501238Y-100384380D01*
X137310761Y-100384380D01*
X137215523Y-100432000D01*
X137167904Y-100479619D01*
X137120285Y-100574857D01*
X137120285Y-100812952D01*
X137167904Y-100908190D01*
X137215523Y-100955809D01*
X137310761Y-101003428D01*
X137501238Y-101003428D01*
X137596476Y-100955809D01*
X137644095Y-100908190D01*
X137691714Y-100812952D01*
G04 #@! TO.C,C10*
X142089142Y-111386857D02*
X142136761Y-111434476D01*
X142184380Y-111577333D01*
X142184380Y-111672571D01*
X142136761Y-111815428D01*
X142041523Y-111910666D01*
X141946285Y-111958285D01*
X141755809Y-112005904D01*
X141612952Y-112005904D01*
X141422476Y-111958285D01*
X141327238Y-111910666D01*
X141232000Y-111815428D01*
X141184380Y-111672571D01*
X141184380Y-111577333D01*
X141232000Y-111434476D01*
X141279619Y-111386857D01*
X142184380Y-110434476D02*
X142184380Y-111005904D01*
X142184380Y-110720190D02*
X141184380Y-110720190D01*
X141327238Y-110815428D01*
X141422476Y-110910666D01*
X141470095Y-111005904D01*
X141184380Y-109815428D02*
X141184380Y-109720190D01*
X141232000Y-109624952D01*
X141279619Y-109577333D01*
X141374857Y-109529714D01*
X141565333Y-109482095D01*
X141803428Y-109482095D01*
X141993904Y-109529714D01*
X142089142Y-109577333D01*
X142136761Y-109624952D01*
X142184380Y-109720190D01*
X142184380Y-109815428D01*
X142136761Y-109910666D01*
X142089142Y-109958285D01*
X141993904Y-110005904D01*
X141803428Y-110053523D01*
X141565333Y-110053523D01*
X141374857Y-110005904D01*
X141279619Y-109958285D01*
X141232000Y-109910666D01*
X141184380Y-109815428D01*
G04 #@! TO.C,R10*
D15*
X130663904Y-87890285D02*
X130282952Y-88156952D01*
X130663904Y-88347428D02*
X129863904Y-88347428D01*
X129863904Y-88042666D01*
X129902000Y-87966476D01*
X129940095Y-87928380D01*
X130016285Y-87890285D01*
X130130571Y-87890285D01*
X130206761Y-87928380D01*
X130244857Y-87966476D01*
X130282952Y-88042666D01*
X130282952Y-88347428D01*
X130663904Y-87128380D02*
X130663904Y-87585523D01*
X130663904Y-87356952D02*
X129863904Y-87356952D01*
X129978190Y-87433142D01*
X130054380Y-87509333D01*
X130092476Y-87585523D01*
X129863904Y-86633142D02*
X129863904Y-86556952D01*
X129902000Y-86480761D01*
X129940095Y-86442666D01*
X130016285Y-86404571D01*
X130168666Y-86366476D01*
X130359142Y-86366476D01*
X130511523Y-86404571D01*
X130587714Y-86442666D01*
X130625809Y-86480761D01*
X130663904Y-86556952D01*
X130663904Y-86633142D01*
X130625809Y-86709333D01*
X130587714Y-86747428D01*
X130511523Y-86785523D01*
X130359142Y-86823619D01*
X130168666Y-86823619D01*
X130016285Y-86785523D01*
X129940095Y-86747428D01*
X129902000Y-86709333D01*
X129863904Y-86633142D01*
G04 #@! TO.C,R11*
X132695904Y-87890285D02*
X132314952Y-88156952D01*
X132695904Y-88347428D02*
X131895904Y-88347428D01*
X131895904Y-88042666D01*
X131934000Y-87966476D01*
X131972095Y-87928380D01*
X132048285Y-87890285D01*
X132162571Y-87890285D01*
X132238761Y-87928380D01*
X132276857Y-87966476D01*
X132314952Y-88042666D01*
X132314952Y-88347428D01*
X132695904Y-87128380D02*
X132695904Y-87585523D01*
X132695904Y-87356952D02*
X131895904Y-87356952D01*
X132010190Y-87433142D01*
X132086380Y-87509333D01*
X132124476Y-87585523D01*
X132695904Y-86366476D02*
X132695904Y-86823619D01*
X132695904Y-86595047D02*
X131895904Y-86595047D01*
X132010190Y-86671238D01*
X132086380Y-86747428D01*
X132124476Y-86823619D01*
G04 #@! TO.C,R12*
X134727904Y-87890285D02*
X134346952Y-88156952D01*
X134727904Y-88347428D02*
X133927904Y-88347428D01*
X133927904Y-88042666D01*
X133966000Y-87966476D01*
X134004095Y-87928380D01*
X134080285Y-87890285D01*
X134194571Y-87890285D01*
X134270761Y-87928380D01*
X134308857Y-87966476D01*
X134346952Y-88042666D01*
X134346952Y-88347428D01*
X134727904Y-87128380D02*
X134727904Y-87585523D01*
X134727904Y-87356952D02*
X133927904Y-87356952D01*
X134042190Y-87433142D01*
X134118380Y-87509333D01*
X134156476Y-87585523D01*
X134004095Y-86823619D02*
X133966000Y-86785523D01*
X133927904Y-86709333D01*
X133927904Y-86518857D01*
X133966000Y-86442666D01*
X134004095Y-86404571D01*
X134080285Y-86366476D01*
X134156476Y-86366476D01*
X134270761Y-86404571D01*
X134727904Y-86861714D01*
X134727904Y-86366476D01*
G04 #@! TD*
M02*
