G04 #@! TF.GenerationSoftware,KiCad,Pcbnew,(5.0.1)-3*
G04 #@! TF.CreationDate,2019-12-29T13:00:18-05:00*
G04 #@! TF.ProjectId,ml-ph-board,6D6C2D70682D626F6172642E6B696361,rev?*
G04 #@! TF.SameCoordinates,Original*
G04 #@! TF.FileFunction,Copper,L1,Top,Signal*
G04 #@! TF.FilePolarity,Positive*
%FSLAX46Y46*%
G04 Gerber Fmt 4.6, Leading zero omitted, Abs format (unit mm)*
G04 Created by KiCad (PCBNEW (5.0.1)-3) date 12/29/2019 1:00:18 PM*
%MOMM*%
%LPD*%
G01*
G04 APERTURE LIST*
G04 #@! TA.AperFunction,SMDPad,CuDef*
%ADD10R,1.550000X0.600000*%
G04 #@! TD*
G04 #@! TA.AperFunction,ComponentPad*
%ADD11C,3.215640*%
G04 #@! TD*
G04 #@! TA.AperFunction,ComponentPad*
%ADD12O,2.613660X1.305560*%
G04 #@! TD*
G04 #@! TA.AperFunction,Conductor*
%ADD13C,0.100000*%
G04 #@! TD*
G04 #@! TA.AperFunction,ComponentPad*
%ADD14C,1.700000*%
G04 #@! TD*
G04 #@! TA.AperFunction,ComponentPad*
%ADD15O,1.950000X1.700000*%
G04 #@! TD*
G04 #@! TA.AperFunction,SMDPad,CuDef*
%ADD16C,0.875000*%
G04 #@! TD*
G04 #@! TA.AperFunction,SMDPad,CuDef*
%ADD17R,0.800000X0.900000*%
G04 #@! TD*
G04 #@! TA.AperFunction,ComponentPad*
%ADD18C,1.879600*%
G04 #@! TD*
G04 #@! TA.AperFunction,ComponentPad*
%ADD19C,1.524000*%
G04 #@! TD*
G04 #@! TA.AperFunction,SMDPad,CuDef*
%ADD20R,1.450000X0.450000*%
G04 #@! TD*
G04 #@! TA.AperFunction,SMDPad,CuDef*
%ADD21C,0.850000*%
G04 #@! TD*
G04 #@! TA.AperFunction,SMDPad,CuDef*
%ADD22R,0.998220X1.099820*%
G04 #@! TD*
G04 #@! TA.AperFunction,SMDPad,CuDef*
%ADD23C,0.300000*%
G04 #@! TD*
G04 #@! TA.AperFunction,ViaPad*
%ADD24C,0.800000*%
G04 #@! TD*
G04 #@! TA.AperFunction,ViaPad*
%ADD25C,1.000000*%
G04 #@! TD*
G04 #@! TA.AperFunction,Conductor*
%ADD26C,0.250000*%
G04 #@! TD*
G04 #@! TA.AperFunction,Conductor*
%ADD27C,0.400000*%
G04 #@! TD*
G04 #@! TA.AperFunction,Conductor*
%ADD28C,0.254000*%
G04 #@! TD*
G04 APERTURE END LIST*
D10*
G04 #@! TO.P,U4,1*
G04 #@! TO.N,Net-(R5-Pad2)*
X146718000Y-103759000D03*
G04 #@! TO.P,U4,2*
X146718000Y-102489000D03*
G04 #@! TO.P,U4,3*
G04 #@! TO.N,Net-(J3-PadS)*
X146718000Y-101219000D03*
G04 #@! TO.P,U4,4*
G04 #@! TO.N,GNDD*
X146718000Y-99949000D03*
G04 #@! TO.P,U4,5*
G04 #@! TO.N,Net-(C6-Pad1)*
X141318000Y-99949000D03*
G04 #@! TO.P,U4,6*
G04 #@! TO.N,Net-(R5-Pad1)*
X141318000Y-101219000D03*
G04 #@! TO.P,U4,7*
G04 #@! TO.N,Net-(R6-Pad1)*
X141318000Y-102489000D03*
G04 #@! TO.P,U4,8*
G04 #@! TO.N,+5VD*
X141318000Y-103759000D03*
G04 #@! TD*
D11*
G04 #@! TO.P,J3,3*
G04 #@! TO.N,N/C*
X157480000Y-96774000D03*
G04 #@! TO.P,J3,4*
X157480000Y-106934000D03*
D12*
G04 #@! TO.P,J3,GND*
G04 #@! TO.N,Net-(C6-Pad1)*
X152400000Y-99314000D03*
G04 #@! TO.P,J3,S*
G04 #@! TO.N,Net-(J3-PadS)*
X152400000Y-101854000D03*
G04 #@! TD*
D13*
G04 #@! TO.N,+5V*
G04 #@! TO.C,J1*
G36*
X107683504Y-104815204D02*
X107707773Y-104818804D01*
X107731571Y-104824765D01*
X107754671Y-104833030D01*
X107776849Y-104843520D01*
X107797893Y-104856133D01*
X107817598Y-104870747D01*
X107835777Y-104887223D01*
X107852253Y-104905402D01*
X107866867Y-104925107D01*
X107879480Y-104946151D01*
X107889970Y-104968329D01*
X107898235Y-104991429D01*
X107904196Y-105015227D01*
X107907796Y-105039496D01*
X107909000Y-105064000D01*
X107909000Y-106264000D01*
X107907796Y-106288504D01*
X107904196Y-106312773D01*
X107898235Y-106336571D01*
X107889970Y-106359671D01*
X107879480Y-106381849D01*
X107866867Y-106402893D01*
X107852253Y-106422598D01*
X107835777Y-106440777D01*
X107817598Y-106457253D01*
X107797893Y-106471867D01*
X107776849Y-106484480D01*
X107754671Y-106494970D01*
X107731571Y-106503235D01*
X107707773Y-106509196D01*
X107683504Y-106512796D01*
X107659000Y-106514000D01*
X106209000Y-106514000D01*
X106184496Y-106512796D01*
X106160227Y-106509196D01*
X106136429Y-106503235D01*
X106113329Y-106494970D01*
X106091151Y-106484480D01*
X106070107Y-106471867D01*
X106050402Y-106457253D01*
X106032223Y-106440777D01*
X106015747Y-106422598D01*
X106001133Y-106402893D01*
X105988520Y-106381849D01*
X105978030Y-106359671D01*
X105969765Y-106336571D01*
X105963804Y-106312773D01*
X105960204Y-106288504D01*
X105959000Y-106264000D01*
X105959000Y-105064000D01*
X105960204Y-105039496D01*
X105963804Y-105015227D01*
X105969765Y-104991429D01*
X105978030Y-104968329D01*
X105988520Y-104946151D01*
X106001133Y-104925107D01*
X106015747Y-104905402D01*
X106032223Y-104887223D01*
X106050402Y-104870747D01*
X106070107Y-104856133D01*
X106091151Y-104843520D01*
X106113329Y-104833030D01*
X106136429Y-104824765D01*
X106160227Y-104818804D01*
X106184496Y-104815204D01*
X106209000Y-104814000D01*
X107659000Y-104814000D01*
X107683504Y-104815204D01*
X107683504Y-104815204D01*
G37*
D14*
G04 #@! TD*
G04 #@! TO.P,J1,1*
G04 #@! TO.N,+5V*
X106934000Y-105664000D03*
D15*
G04 #@! TO.P,J1,2*
G04 #@! TO.N,/SCL*
X106934000Y-103164000D03*
G04 #@! TO.P,J1,3*
G04 #@! TO.N,/SDA*
X106934000Y-100664000D03*
G04 #@! TO.P,J1,4*
G04 #@! TO.N,GND*
X106934000Y-98164000D03*
G04 #@! TD*
D13*
G04 #@! TO.N,GND*
G04 #@! TO.C,C1*
G36*
X113981191Y-94776053D02*
X114002426Y-94779203D01*
X114023250Y-94784419D01*
X114043462Y-94791651D01*
X114062868Y-94800830D01*
X114081281Y-94811866D01*
X114098524Y-94824654D01*
X114114430Y-94839070D01*
X114128846Y-94854976D01*
X114141634Y-94872219D01*
X114152670Y-94890632D01*
X114161849Y-94910038D01*
X114169081Y-94930250D01*
X114174297Y-94951074D01*
X114177447Y-94972309D01*
X114178500Y-94993750D01*
X114178500Y-95506250D01*
X114177447Y-95527691D01*
X114174297Y-95548926D01*
X114169081Y-95569750D01*
X114161849Y-95589962D01*
X114152670Y-95609368D01*
X114141634Y-95627781D01*
X114128846Y-95645024D01*
X114114430Y-95660930D01*
X114098524Y-95675346D01*
X114081281Y-95688134D01*
X114062868Y-95699170D01*
X114043462Y-95708349D01*
X114023250Y-95715581D01*
X114002426Y-95720797D01*
X113981191Y-95723947D01*
X113959750Y-95725000D01*
X113522250Y-95725000D01*
X113500809Y-95723947D01*
X113479574Y-95720797D01*
X113458750Y-95715581D01*
X113438538Y-95708349D01*
X113419132Y-95699170D01*
X113400719Y-95688134D01*
X113383476Y-95675346D01*
X113367570Y-95660930D01*
X113353154Y-95645024D01*
X113340366Y-95627781D01*
X113329330Y-95609368D01*
X113320151Y-95589962D01*
X113312919Y-95569750D01*
X113307703Y-95548926D01*
X113304553Y-95527691D01*
X113303500Y-95506250D01*
X113303500Y-94993750D01*
X113304553Y-94972309D01*
X113307703Y-94951074D01*
X113312919Y-94930250D01*
X113320151Y-94910038D01*
X113329330Y-94890632D01*
X113340366Y-94872219D01*
X113353154Y-94854976D01*
X113367570Y-94839070D01*
X113383476Y-94824654D01*
X113400719Y-94811866D01*
X113419132Y-94800830D01*
X113438538Y-94791651D01*
X113458750Y-94784419D01*
X113479574Y-94779203D01*
X113500809Y-94776053D01*
X113522250Y-94775000D01*
X113959750Y-94775000D01*
X113981191Y-94776053D01*
X113981191Y-94776053D01*
G37*
D16*
G04 #@! TD*
G04 #@! TO.P,C1,2*
G04 #@! TO.N,GND*
X113741000Y-95250000D03*
D13*
G04 #@! TO.N,+5V*
G04 #@! TO.C,C1*
G36*
X115556191Y-94776053D02*
X115577426Y-94779203D01*
X115598250Y-94784419D01*
X115618462Y-94791651D01*
X115637868Y-94800830D01*
X115656281Y-94811866D01*
X115673524Y-94824654D01*
X115689430Y-94839070D01*
X115703846Y-94854976D01*
X115716634Y-94872219D01*
X115727670Y-94890632D01*
X115736849Y-94910038D01*
X115744081Y-94930250D01*
X115749297Y-94951074D01*
X115752447Y-94972309D01*
X115753500Y-94993750D01*
X115753500Y-95506250D01*
X115752447Y-95527691D01*
X115749297Y-95548926D01*
X115744081Y-95569750D01*
X115736849Y-95589962D01*
X115727670Y-95609368D01*
X115716634Y-95627781D01*
X115703846Y-95645024D01*
X115689430Y-95660930D01*
X115673524Y-95675346D01*
X115656281Y-95688134D01*
X115637868Y-95699170D01*
X115618462Y-95708349D01*
X115598250Y-95715581D01*
X115577426Y-95720797D01*
X115556191Y-95723947D01*
X115534750Y-95725000D01*
X115097250Y-95725000D01*
X115075809Y-95723947D01*
X115054574Y-95720797D01*
X115033750Y-95715581D01*
X115013538Y-95708349D01*
X114994132Y-95699170D01*
X114975719Y-95688134D01*
X114958476Y-95675346D01*
X114942570Y-95660930D01*
X114928154Y-95645024D01*
X114915366Y-95627781D01*
X114904330Y-95609368D01*
X114895151Y-95589962D01*
X114887919Y-95569750D01*
X114882703Y-95548926D01*
X114879553Y-95527691D01*
X114878500Y-95506250D01*
X114878500Y-94993750D01*
X114879553Y-94972309D01*
X114882703Y-94951074D01*
X114887919Y-94930250D01*
X114895151Y-94910038D01*
X114904330Y-94890632D01*
X114915366Y-94872219D01*
X114928154Y-94854976D01*
X114942570Y-94839070D01*
X114958476Y-94824654D01*
X114975719Y-94811866D01*
X114994132Y-94800830D01*
X115013538Y-94791651D01*
X115033750Y-94784419D01*
X115054574Y-94779203D01*
X115075809Y-94776053D01*
X115097250Y-94775000D01*
X115534750Y-94775000D01*
X115556191Y-94776053D01*
X115556191Y-94776053D01*
G37*
D16*
G04 #@! TD*
G04 #@! TO.P,C1,1*
G04 #@! TO.N,+5V*
X115316000Y-95250000D03*
D13*
G04 #@! TO.N,+5V*
G04 #@! TO.C,C2*
G36*
X115556191Y-96554053D02*
X115577426Y-96557203D01*
X115598250Y-96562419D01*
X115618462Y-96569651D01*
X115637868Y-96578830D01*
X115656281Y-96589866D01*
X115673524Y-96602654D01*
X115689430Y-96617070D01*
X115703846Y-96632976D01*
X115716634Y-96650219D01*
X115727670Y-96668632D01*
X115736849Y-96688038D01*
X115744081Y-96708250D01*
X115749297Y-96729074D01*
X115752447Y-96750309D01*
X115753500Y-96771750D01*
X115753500Y-97284250D01*
X115752447Y-97305691D01*
X115749297Y-97326926D01*
X115744081Y-97347750D01*
X115736849Y-97367962D01*
X115727670Y-97387368D01*
X115716634Y-97405781D01*
X115703846Y-97423024D01*
X115689430Y-97438930D01*
X115673524Y-97453346D01*
X115656281Y-97466134D01*
X115637868Y-97477170D01*
X115618462Y-97486349D01*
X115598250Y-97493581D01*
X115577426Y-97498797D01*
X115556191Y-97501947D01*
X115534750Y-97503000D01*
X115097250Y-97503000D01*
X115075809Y-97501947D01*
X115054574Y-97498797D01*
X115033750Y-97493581D01*
X115013538Y-97486349D01*
X114994132Y-97477170D01*
X114975719Y-97466134D01*
X114958476Y-97453346D01*
X114942570Y-97438930D01*
X114928154Y-97423024D01*
X114915366Y-97405781D01*
X114904330Y-97387368D01*
X114895151Y-97367962D01*
X114887919Y-97347750D01*
X114882703Y-97326926D01*
X114879553Y-97305691D01*
X114878500Y-97284250D01*
X114878500Y-96771750D01*
X114879553Y-96750309D01*
X114882703Y-96729074D01*
X114887919Y-96708250D01*
X114895151Y-96688038D01*
X114904330Y-96668632D01*
X114915366Y-96650219D01*
X114928154Y-96632976D01*
X114942570Y-96617070D01*
X114958476Y-96602654D01*
X114975719Y-96589866D01*
X114994132Y-96578830D01*
X115013538Y-96569651D01*
X115033750Y-96562419D01*
X115054574Y-96557203D01*
X115075809Y-96554053D01*
X115097250Y-96553000D01*
X115534750Y-96553000D01*
X115556191Y-96554053D01*
X115556191Y-96554053D01*
G37*
D16*
G04 #@! TD*
G04 #@! TO.P,C2,1*
G04 #@! TO.N,+5V*
X115316000Y-97028000D03*
D13*
G04 #@! TO.N,GND*
G04 #@! TO.C,C2*
G36*
X113981191Y-96554053D02*
X114002426Y-96557203D01*
X114023250Y-96562419D01*
X114043462Y-96569651D01*
X114062868Y-96578830D01*
X114081281Y-96589866D01*
X114098524Y-96602654D01*
X114114430Y-96617070D01*
X114128846Y-96632976D01*
X114141634Y-96650219D01*
X114152670Y-96668632D01*
X114161849Y-96688038D01*
X114169081Y-96708250D01*
X114174297Y-96729074D01*
X114177447Y-96750309D01*
X114178500Y-96771750D01*
X114178500Y-97284250D01*
X114177447Y-97305691D01*
X114174297Y-97326926D01*
X114169081Y-97347750D01*
X114161849Y-97367962D01*
X114152670Y-97387368D01*
X114141634Y-97405781D01*
X114128846Y-97423024D01*
X114114430Y-97438930D01*
X114098524Y-97453346D01*
X114081281Y-97466134D01*
X114062868Y-97477170D01*
X114043462Y-97486349D01*
X114023250Y-97493581D01*
X114002426Y-97498797D01*
X113981191Y-97501947D01*
X113959750Y-97503000D01*
X113522250Y-97503000D01*
X113500809Y-97501947D01*
X113479574Y-97498797D01*
X113458750Y-97493581D01*
X113438538Y-97486349D01*
X113419132Y-97477170D01*
X113400719Y-97466134D01*
X113383476Y-97453346D01*
X113367570Y-97438930D01*
X113353154Y-97423024D01*
X113340366Y-97405781D01*
X113329330Y-97387368D01*
X113320151Y-97367962D01*
X113312919Y-97347750D01*
X113307703Y-97326926D01*
X113304553Y-97305691D01*
X113303500Y-97284250D01*
X113303500Y-96771750D01*
X113304553Y-96750309D01*
X113307703Y-96729074D01*
X113312919Y-96708250D01*
X113320151Y-96688038D01*
X113329330Y-96668632D01*
X113340366Y-96650219D01*
X113353154Y-96632976D01*
X113367570Y-96617070D01*
X113383476Y-96602654D01*
X113400719Y-96589866D01*
X113419132Y-96578830D01*
X113438538Y-96569651D01*
X113458750Y-96562419D01*
X113479574Y-96557203D01*
X113500809Y-96554053D01*
X113522250Y-96553000D01*
X113959750Y-96553000D01*
X113981191Y-96554053D01*
X113981191Y-96554053D01*
G37*
D16*
G04 #@! TD*
G04 #@! TO.P,C2,2*
G04 #@! TO.N,GND*
X113741000Y-97028000D03*
D13*
G04 #@! TO.N,GNDD*
G04 #@! TO.C,C3*
G36*
X124737691Y-88859693D02*
X124758926Y-88862843D01*
X124779750Y-88868059D01*
X124799962Y-88875291D01*
X124819368Y-88884470D01*
X124837781Y-88895506D01*
X124855024Y-88908294D01*
X124870930Y-88922710D01*
X124885346Y-88938616D01*
X124898134Y-88955859D01*
X124909170Y-88974272D01*
X124918349Y-88993678D01*
X124925581Y-89013890D01*
X124930797Y-89034714D01*
X124933947Y-89055949D01*
X124935000Y-89077390D01*
X124935000Y-89514890D01*
X124933947Y-89536331D01*
X124930797Y-89557566D01*
X124925581Y-89578390D01*
X124918349Y-89598602D01*
X124909170Y-89618008D01*
X124898134Y-89636421D01*
X124885346Y-89653664D01*
X124870930Y-89669570D01*
X124855024Y-89683986D01*
X124837781Y-89696774D01*
X124819368Y-89707810D01*
X124799962Y-89716989D01*
X124779750Y-89724221D01*
X124758926Y-89729437D01*
X124737691Y-89732587D01*
X124716250Y-89733640D01*
X124203750Y-89733640D01*
X124182309Y-89732587D01*
X124161074Y-89729437D01*
X124140250Y-89724221D01*
X124120038Y-89716989D01*
X124100632Y-89707810D01*
X124082219Y-89696774D01*
X124064976Y-89683986D01*
X124049070Y-89669570D01*
X124034654Y-89653664D01*
X124021866Y-89636421D01*
X124010830Y-89618008D01*
X124001651Y-89598602D01*
X123994419Y-89578390D01*
X123989203Y-89557566D01*
X123986053Y-89536331D01*
X123985000Y-89514890D01*
X123985000Y-89077390D01*
X123986053Y-89055949D01*
X123989203Y-89034714D01*
X123994419Y-89013890D01*
X124001651Y-88993678D01*
X124010830Y-88974272D01*
X124021866Y-88955859D01*
X124034654Y-88938616D01*
X124049070Y-88922710D01*
X124064976Y-88908294D01*
X124082219Y-88895506D01*
X124100632Y-88884470D01*
X124120038Y-88875291D01*
X124140250Y-88868059D01*
X124161074Y-88862843D01*
X124182309Y-88859693D01*
X124203750Y-88858640D01*
X124716250Y-88858640D01*
X124737691Y-88859693D01*
X124737691Y-88859693D01*
G37*
D16*
G04 #@! TD*
G04 #@! TO.P,C3,2*
G04 #@! TO.N,GNDD*
X124460000Y-89296140D03*
D13*
G04 #@! TO.N,+5VD*
G04 #@! TO.C,C3*
G36*
X124737691Y-90434693D02*
X124758926Y-90437843D01*
X124779750Y-90443059D01*
X124799962Y-90450291D01*
X124819368Y-90459470D01*
X124837781Y-90470506D01*
X124855024Y-90483294D01*
X124870930Y-90497710D01*
X124885346Y-90513616D01*
X124898134Y-90530859D01*
X124909170Y-90549272D01*
X124918349Y-90568678D01*
X124925581Y-90588890D01*
X124930797Y-90609714D01*
X124933947Y-90630949D01*
X124935000Y-90652390D01*
X124935000Y-91089890D01*
X124933947Y-91111331D01*
X124930797Y-91132566D01*
X124925581Y-91153390D01*
X124918349Y-91173602D01*
X124909170Y-91193008D01*
X124898134Y-91211421D01*
X124885346Y-91228664D01*
X124870930Y-91244570D01*
X124855024Y-91258986D01*
X124837781Y-91271774D01*
X124819368Y-91282810D01*
X124799962Y-91291989D01*
X124779750Y-91299221D01*
X124758926Y-91304437D01*
X124737691Y-91307587D01*
X124716250Y-91308640D01*
X124203750Y-91308640D01*
X124182309Y-91307587D01*
X124161074Y-91304437D01*
X124140250Y-91299221D01*
X124120038Y-91291989D01*
X124100632Y-91282810D01*
X124082219Y-91271774D01*
X124064976Y-91258986D01*
X124049070Y-91244570D01*
X124034654Y-91228664D01*
X124021866Y-91211421D01*
X124010830Y-91193008D01*
X124001651Y-91173602D01*
X123994419Y-91153390D01*
X123989203Y-91132566D01*
X123986053Y-91111331D01*
X123985000Y-91089890D01*
X123985000Y-90652390D01*
X123986053Y-90630949D01*
X123989203Y-90609714D01*
X123994419Y-90588890D01*
X124001651Y-90568678D01*
X124010830Y-90549272D01*
X124021866Y-90530859D01*
X124034654Y-90513616D01*
X124049070Y-90497710D01*
X124064976Y-90483294D01*
X124082219Y-90470506D01*
X124100632Y-90459470D01*
X124120038Y-90450291D01*
X124140250Y-90443059D01*
X124161074Y-90437843D01*
X124182309Y-90434693D01*
X124203750Y-90433640D01*
X124716250Y-90433640D01*
X124737691Y-90434693D01*
X124737691Y-90434693D01*
G37*
D16*
G04 #@! TD*
G04 #@! TO.P,C3,1*
G04 #@! TO.N,+5VD*
X124460000Y-90871140D03*
D13*
G04 #@! TO.N,/NRST*
G04 #@! TO.C,C4*
G36*
X133881691Y-106700553D02*
X133902926Y-106703703D01*
X133923750Y-106708919D01*
X133943962Y-106716151D01*
X133963368Y-106725330D01*
X133981781Y-106736366D01*
X133999024Y-106749154D01*
X134014930Y-106763570D01*
X134029346Y-106779476D01*
X134042134Y-106796719D01*
X134053170Y-106815132D01*
X134062349Y-106834538D01*
X134069581Y-106854750D01*
X134074797Y-106875574D01*
X134077947Y-106896809D01*
X134079000Y-106918250D01*
X134079000Y-107355750D01*
X134077947Y-107377191D01*
X134074797Y-107398426D01*
X134069581Y-107419250D01*
X134062349Y-107439462D01*
X134053170Y-107458868D01*
X134042134Y-107477281D01*
X134029346Y-107494524D01*
X134014930Y-107510430D01*
X133999024Y-107524846D01*
X133981781Y-107537634D01*
X133963368Y-107548670D01*
X133943962Y-107557849D01*
X133923750Y-107565081D01*
X133902926Y-107570297D01*
X133881691Y-107573447D01*
X133860250Y-107574500D01*
X133347750Y-107574500D01*
X133326309Y-107573447D01*
X133305074Y-107570297D01*
X133284250Y-107565081D01*
X133264038Y-107557849D01*
X133244632Y-107548670D01*
X133226219Y-107537634D01*
X133208976Y-107524846D01*
X133193070Y-107510430D01*
X133178654Y-107494524D01*
X133165866Y-107477281D01*
X133154830Y-107458868D01*
X133145651Y-107439462D01*
X133138419Y-107419250D01*
X133133203Y-107398426D01*
X133130053Y-107377191D01*
X133129000Y-107355750D01*
X133129000Y-106918250D01*
X133130053Y-106896809D01*
X133133203Y-106875574D01*
X133138419Y-106854750D01*
X133145651Y-106834538D01*
X133154830Y-106815132D01*
X133165866Y-106796719D01*
X133178654Y-106779476D01*
X133193070Y-106763570D01*
X133208976Y-106749154D01*
X133226219Y-106736366D01*
X133244632Y-106725330D01*
X133264038Y-106716151D01*
X133284250Y-106708919D01*
X133305074Y-106703703D01*
X133326309Y-106700553D01*
X133347750Y-106699500D01*
X133860250Y-106699500D01*
X133881691Y-106700553D01*
X133881691Y-106700553D01*
G37*
D16*
G04 #@! TD*
G04 #@! TO.P,C4,1*
G04 #@! TO.N,/NRST*
X133604000Y-107137000D03*
D13*
G04 #@! TO.N,GNDD*
G04 #@! TO.C,C4*
G36*
X133881691Y-108275553D02*
X133902926Y-108278703D01*
X133923750Y-108283919D01*
X133943962Y-108291151D01*
X133963368Y-108300330D01*
X133981781Y-108311366D01*
X133999024Y-108324154D01*
X134014930Y-108338570D01*
X134029346Y-108354476D01*
X134042134Y-108371719D01*
X134053170Y-108390132D01*
X134062349Y-108409538D01*
X134069581Y-108429750D01*
X134074797Y-108450574D01*
X134077947Y-108471809D01*
X134079000Y-108493250D01*
X134079000Y-108930750D01*
X134077947Y-108952191D01*
X134074797Y-108973426D01*
X134069581Y-108994250D01*
X134062349Y-109014462D01*
X134053170Y-109033868D01*
X134042134Y-109052281D01*
X134029346Y-109069524D01*
X134014930Y-109085430D01*
X133999024Y-109099846D01*
X133981781Y-109112634D01*
X133963368Y-109123670D01*
X133943962Y-109132849D01*
X133923750Y-109140081D01*
X133902926Y-109145297D01*
X133881691Y-109148447D01*
X133860250Y-109149500D01*
X133347750Y-109149500D01*
X133326309Y-109148447D01*
X133305074Y-109145297D01*
X133284250Y-109140081D01*
X133264038Y-109132849D01*
X133244632Y-109123670D01*
X133226219Y-109112634D01*
X133208976Y-109099846D01*
X133193070Y-109085430D01*
X133178654Y-109069524D01*
X133165866Y-109052281D01*
X133154830Y-109033868D01*
X133145651Y-109014462D01*
X133138419Y-108994250D01*
X133133203Y-108973426D01*
X133130053Y-108952191D01*
X133129000Y-108930750D01*
X133129000Y-108493250D01*
X133130053Y-108471809D01*
X133133203Y-108450574D01*
X133138419Y-108429750D01*
X133145651Y-108409538D01*
X133154830Y-108390132D01*
X133165866Y-108371719D01*
X133178654Y-108354476D01*
X133193070Y-108338570D01*
X133208976Y-108324154D01*
X133226219Y-108311366D01*
X133244632Y-108300330D01*
X133264038Y-108291151D01*
X133284250Y-108283919D01*
X133305074Y-108278703D01*
X133326309Y-108275553D01*
X133347750Y-108274500D01*
X133860250Y-108274500D01*
X133881691Y-108275553D01*
X133881691Y-108275553D01*
G37*
D16*
G04 #@! TD*
G04 #@! TO.P,C4,2*
G04 #@! TO.N,GNDD*
X133604000Y-108712000D03*
D13*
G04 #@! TO.N,Net-(C5-Pad1)*
G04 #@! TO.C,C5*
G36*
X134643691Y-95575553D02*
X134664926Y-95578703D01*
X134685750Y-95583919D01*
X134705962Y-95591151D01*
X134725368Y-95600330D01*
X134743781Y-95611366D01*
X134761024Y-95624154D01*
X134776930Y-95638570D01*
X134791346Y-95654476D01*
X134804134Y-95671719D01*
X134815170Y-95690132D01*
X134824349Y-95709538D01*
X134831581Y-95729750D01*
X134836797Y-95750574D01*
X134839947Y-95771809D01*
X134841000Y-95793250D01*
X134841000Y-96230750D01*
X134839947Y-96252191D01*
X134836797Y-96273426D01*
X134831581Y-96294250D01*
X134824349Y-96314462D01*
X134815170Y-96333868D01*
X134804134Y-96352281D01*
X134791346Y-96369524D01*
X134776930Y-96385430D01*
X134761024Y-96399846D01*
X134743781Y-96412634D01*
X134725368Y-96423670D01*
X134705962Y-96432849D01*
X134685750Y-96440081D01*
X134664926Y-96445297D01*
X134643691Y-96448447D01*
X134622250Y-96449500D01*
X134109750Y-96449500D01*
X134088309Y-96448447D01*
X134067074Y-96445297D01*
X134046250Y-96440081D01*
X134026038Y-96432849D01*
X134006632Y-96423670D01*
X133988219Y-96412634D01*
X133970976Y-96399846D01*
X133955070Y-96385430D01*
X133940654Y-96369524D01*
X133927866Y-96352281D01*
X133916830Y-96333868D01*
X133907651Y-96314462D01*
X133900419Y-96294250D01*
X133895203Y-96273426D01*
X133892053Y-96252191D01*
X133891000Y-96230750D01*
X133891000Y-95793250D01*
X133892053Y-95771809D01*
X133895203Y-95750574D01*
X133900419Y-95729750D01*
X133907651Y-95709538D01*
X133916830Y-95690132D01*
X133927866Y-95671719D01*
X133940654Y-95654476D01*
X133955070Y-95638570D01*
X133970976Y-95624154D01*
X133988219Y-95611366D01*
X134006632Y-95600330D01*
X134026038Y-95591151D01*
X134046250Y-95583919D01*
X134067074Y-95578703D01*
X134088309Y-95575553D01*
X134109750Y-95574500D01*
X134622250Y-95574500D01*
X134643691Y-95575553D01*
X134643691Y-95575553D01*
G37*
D16*
G04 #@! TD*
G04 #@! TO.P,C5,1*
G04 #@! TO.N,Net-(C5-Pad1)*
X134366000Y-96012000D03*
D13*
G04 #@! TO.N,GNDD*
G04 #@! TO.C,C5*
G36*
X134643691Y-94000553D02*
X134664926Y-94003703D01*
X134685750Y-94008919D01*
X134705962Y-94016151D01*
X134725368Y-94025330D01*
X134743781Y-94036366D01*
X134761024Y-94049154D01*
X134776930Y-94063570D01*
X134791346Y-94079476D01*
X134804134Y-94096719D01*
X134815170Y-94115132D01*
X134824349Y-94134538D01*
X134831581Y-94154750D01*
X134836797Y-94175574D01*
X134839947Y-94196809D01*
X134841000Y-94218250D01*
X134841000Y-94655750D01*
X134839947Y-94677191D01*
X134836797Y-94698426D01*
X134831581Y-94719250D01*
X134824349Y-94739462D01*
X134815170Y-94758868D01*
X134804134Y-94777281D01*
X134791346Y-94794524D01*
X134776930Y-94810430D01*
X134761024Y-94824846D01*
X134743781Y-94837634D01*
X134725368Y-94848670D01*
X134705962Y-94857849D01*
X134685750Y-94865081D01*
X134664926Y-94870297D01*
X134643691Y-94873447D01*
X134622250Y-94874500D01*
X134109750Y-94874500D01*
X134088309Y-94873447D01*
X134067074Y-94870297D01*
X134046250Y-94865081D01*
X134026038Y-94857849D01*
X134006632Y-94848670D01*
X133988219Y-94837634D01*
X133970976Y-94824846D01*
X133955070Y-94810430D01*
X133940654Y-94794524D01*
X133927866Y-94777281D01*
X133916830Y-94758868D01*
X133907651Y-94739462D01*
X133900419Y-94719250D01*
X133895203Y-94698426D01*
X133892053Y-94677191D01*
X133891000Y-94655750D01*
X133891000Y-94218250D01*
X133892053Y-94196809D01*
X133895203Y-94175574D01*
X133900419Y-94154750D01*
X133907651Y-94134538D01*
X133916830Y-94115132D01*
X133927866Y-94096719D01*
X133940654Y-94079476D01*
X133955070Y-94063570D01*
X133970976Y-94049154D01*
X133988219Y-94036366D01*
X134006632Y-94025330D01*
X134026038Y-94016151D01*
X134046250Y-94008919D01*
X134067074Y-94003703D01*
X134088309Y-94000553D01*
X134109750Y-93999500D01*
X134622250Y-93999500D01*
X134643691Y-94000553D01*
X134643691Y-94000553D01*
G37*
D16*
G04 #@! TD*
G04 #@! TO.P,C5,2*
G04 #@! TO.N,GNDD*
X134366000Y-94437000D03*
D13*
G04 #@! TO.N,Net-(C6-Pad1)*
G04 #@! TO.C,C6*
G36*
X144549691Y-90487053D02*
X144570926Y-90490203D01*
X144591750Y-90495419D01*
X144611962Y-90502651D01*
X144631368Y-90511830D01*
X144649781Y-90522866D01*
X144667024Y-90535654D01*
X144682930Y-90550070D01*
X144697346Y-90565976D01*
X144710134Y-90583219D01*
X144721170Y-90601632D01*
X144730349Y-90621038D01*
X144737581Y-90641250D01*
X144742797Y-90662074D01*
X144745947Y-90683309D01*
X144747000Y-90704750D01*
X144747000Y-91142250D01*
X144745947Y-91163691D01*
X144742797Y-91184926D01*
X144737581Y-91205750D01*
X144730349Y-91225962D01*
X144721170Y-91245368D01*
X144710134Y-91263781D01*
X144697346Y-91281024D01*
X144682930Y-91296930D01*
X144667024Y-91311346D01*
X144649781Y-91324134D01*
X144631368Y-91335170D01*
X144611962Y-91344349D01*
X144591750Y-91351581D01*
X144570926Y-91356797D01*
X144549691Y-91359947D01*
X144528250Y-91361000D01*
X144015750Y-91361000D01*
X143994309Y-91359947D01*
X143973074Y-91356797D01*
X143952250Y-91351581D01*
X143932038Y-91344349D01*
X143912632Y-91335170D01*
X143894219Y-91324134D01*
X143876976Y-91311346D01*
X143861070Y-91296930D01*
X143846654Y-91281024D01*
X143833866Y-91263781D01*
X143822830Y-91245368D01*
X143813651Y-91225962D01*
X143806419Y-91205750D01*
X143801203Y-91184926D01*
X143798053Y-91163691D01*
X143797000Y-91142250D01*
X143797000Y-90704750D01*
X143798053Y-90683309D01*
X143801203Y-90662074D01*
X143806419Y-90641250D01*
X143813651Y-90621038D01*
X143822830Y-90601632D01*
X143833866Y-90583219D01*
X143846654Y-90565976D01*
X143861070Y-90550070D01*
X143876976Y-90535654D01*
X143894219Y-90522866D01*
X143912632Y-90511830D01*
X143932038Y-90502651D01*
X143952250Y-90495419D01*
X143973074Y-90490203D01*
X143994309Y-90487053D01*
X144015750Y-90486000D01*
X144528250Y-90486000D01*
X144549691Y-90487053D01*
X144549691Y-90487053D01*
G37*
D16*
G04 #@! TD*
G04 #@! TO.P,C6,1*
G04 #@! TO.N,Net-(C6-Pad1)*
X144272000Y-90923500D03*
D13*
G04 #@! TO.N,GNDD*
G04 #@! TO.C,C6*
G36*
X144549691Y-88912053D02*
X144570926Y-88915203D01*
X144591750Y-88920419D01*
X144611962Y-88927651D01*
X144631368Y-88936830D01*
X144649781Y-88947866D01*
X144667024Y-88960654D01*
X144682930Y-88975070D01*
X144697346Y-88990976D01*
X144710134Y-89008219D01*
X144721170Y-89026632D01*
X144730349Y-89046038D01*
X144737581Y-89066250D01*
X144742797Y-89087074D01*
X144745947Y-89108309D01*
X144747000Y-89129750D01*
X144747000Y-89567250D01*
X144745947Y-89588691D01*
X144742797Y-89609926D01*
X144737581Y-89630750D01*
X144730349Y-89650962D01*
X144721170Y-89670368D01*
X144710134Y-89688781D01*
X144697346Y-89706024D01*
X144682930Y-89721930D01*
X144667024Y-89736346D01*
X144649781Y-89749134D01*
X144631368Y-89760170D01*
X144611962Y-89769349D01*
X144591750Y-89776581D01*
X144570926Y-89781797D01*
X144549691Y-89784947D01*
X144528250Y-89786000D01*
X144015750Y-89786000D01*
X143994309Y-89784947D01*
X143973074Y-89781797D01*
X143952250Y-89776581D01*
X143932038Y-89769349D01*
X143912632Y-89760170D01*
X143894219Y-89749134D01*
X143876976Y-89736346D01*
X143861070Y-89721930D01*
X143846654Y-89706024D01*
X143833866Y-89688781D01*
X143822830Y-89670368D01*
X143813651Y-89650962D01*
X143806419Y-89630750D01*
X143801203Y-89609926D01*
X143798053Y-89588691D01*
X143797000Y-89567250D01*
X143797000Y-89129750D01*
X143798053Y-89108309D01*
X143801203Y-89087074D01*
X143806419Y-89066250D01*
X143813651Y-89046038D01*
X143822830Y-89026632D01*
X143833866Y-89008219D01*
X143846654Y-88990976D01*
X143861070Y-88975070D01*
X143876976Y-88960654D01*
X143894219Y-88947866D01*
X143912632Y-88936830D01*
X143932038Y-88927651D01*
X143952250Y-88920419D01*
X143973074Y-88915203D01*
X143994309Y-88912053D01*
X144015750Y-88911000D01*
X144528250Y-88911000D01*
X144549691Y-88912053D01*
X144549691Y-88912053D01*
G37*
D16*
G04 #@! TD*
G04 #@! TO.P,C6,2*
G04 #@! TO.N,GNDD*
X144272000Y-89348500D03*
D13*
G04 #@! TO.N,GNDD*
G04 #@! TO.C,C7*
G36*
X132611691Y-94000553D02*
X132632926Y-94003703D01*
X132653750Y-94008919D01*
X132673962Y-94016151D01*
X132693368Y-94025330D01*
X132711781Y-94036366D01*
X132729024Y-94049154D01*
X132744930Y-94063570D01*
X132759346Y-94079476D01*
X132772134Y-94096719D01*
X132783170Y-94115132D01*
X132792349Y-94134538D01*
X132799581Y-94154750D01*
X132804797Y-94175574D01*
X132807947Y-94196809D01*
X132809000Y-94218250D01*
X132809000Y-94655750D01*
X132807947Y-94677191D01*
X132804797Y-94698426D01*
X132799581Y-94719250D01*
X132792349Y-94739462D01*
X132783170Y-94758868D01*
X132772134Y-94777281D01*
X132759346Y-94794524D01*
X132744930Y-94810430D01*
X132729024Y-94824846D01*
X132711781Y-94837634D01*
X132693368Y-94848670D01*
X132673962Y-94857849D01*
X132653750Y-94865081D01*
X132632926Y-94870297D01*
X132611691Y-94873447D01*
X132590250Y-94874500D01*
X132077750Y-94874500D01*
X132056309Y-94873447D01*
X132035074Y-94870297D01*
X132014250Y-94865081D01*
X131994038Y-94857849D01*
X131974632Y-94848670D01*
X131956219Y-94837634D01*
X131938976Y-94824846D01*
X131923070Y-94810430D01*
X131908654Y-94794524D01*
X131895866Y-94777281D01*
X131884830Y-94758868D01*
X131875651Y-94739462D01*
X131868419Y-94719250D01*
X131863203Y-94698426D01*
X131860053Y-94677191D01*
X131859000Y-94655750D01*
X131859000Y-94218250D01*
X131860053Y-94196809D01*
X131863203Y-94175574D01*
X131868419Y-94154750D01*
X131875651Y-94134538D01*
X131884830Y-94115132D01*
X131895866Y-94096719D01*
X131908654Y-94079476D01*
X131923070Y-94063570D01*
X131938976Y-94049154D01*
X131956219Y-94036366D01*
X131974632Y-94025330D01*
X131994038Y-94016151D01*
X132014250Y-94008919D01*
X132035074Y-94003703D01*
X132056309Y-94000553D01*
X132077750Y-93999500D01*
X132590250Y-93999500D01*
X132611691Y-94000553D01*
X132611691Y-94000553D01*
G37*
D16*
G04 #@! TD*
G04 #@! TO.P,C7,2*
G04 #@! TO.N,GNDD*
X132334000Y-94437000D03*
D13*
G04 #@! TO.N,+5VD*
G04 #@! TO.C,C7*
G36*
X132611691Y-95575553D02*
X132632926Y-95578703D01*
X132653750Y-95583919D01*
X132673962Y-95591151D01*
X132693368Y-95600330D01*
X132711781Y-95611366D01*
X132729024Y-95624154D01*
X132744930Y-95638570D01*
X132759346Y-95654476D01*
X132772134Y-95671719D01*
X132783170Y-95690132D01*
X132792349Y-95709538D01*
X132799581Y-95729750D01*
X132804797Y-95750574D01*
X132807947Y-95771809D01*
X132809000Y-95793250D01*
X132809000Y-96230750D01*
X132807947Y-96252191D01*
X132804797Y-96273426D01*
X132799581Y-96294250D01*
X132792349Y-96314462D01*
X132783170Y-96333868D01*
X132772134Y-96352281D01*
X132759346Y-96369524D01*
X132744930Y-96385430D01*
X132729024Y-96399846D01*
X132711781Y-96412634D01*
X132693368Y-96423670D01*
X132673962Y-96432849D01*
X132653750Y-96440081D01*
X132632926Y-96445297D01*
X132611691Y-96448447D01*
X132590250Y-96449500D01*
X132077750Y-96449500D01*
X132056309Y-96448447D01*
X132035074Y-96445297D01*
X132014250Y-96440081D01*
X131994038Y-96432849D01*
X131974632Y-96423670D01*
X131956219Y-96412634D01*
X131938976Y-96399846D01*
X131923070Y-96385430D01*
X131908654Y-96369524D01*
X131895866Y-96352281D01*
X131884830Y-96333868D01*
X131875651Y-96314462D01*
X131868419Y-96294250D01*
X131863203Y-96273426D01*
X131860053Y-96252191D01*
X131859000Y-96230750D01*
X131859000Y-95793250D01*
X131860053Y-95771809D01*
X131863203Y-95750574D01*
X131868419Y-95729750D01*
X131875651Y-95709538D01*
X131884830Y-95690132D01*
X131895866Y-95671719D01*
X131908654Y-95654476D01*
X131923070Y-95638570D01*
X131938976Y-95624154D01*
X131956219Y-95611366D01*
X131974632Y-95600330D01*
X131994038Y-95591151D01*
X132014250Y-95583919D01*
X132035074Y-95578703D01*
X132056309Y-95575553D01*
X132077750Y-95574500D01*
X132590250Y-95574500D01*
X132611691Y-95575553D01*
X132611691Y-95575553D01*
G37*
D16*
G04 #@! TD*
G04 #@! TO.P,C7,1*
G04 #@! TO.N,+5VD*
X132334000Y-96012000D03*
D13*
G04 #@! TO.N,GNDD*
G04 #@! TO.C,C8*
G36*
X140485691Y-95016553D02*
X140506926Y-95019703D01*
X140527750Y-95024919D01*
X140547962Y-95032151D01*
X140567368Y-95041330D01*
X140585781Y-95052366D01*
X140603024Y-95065154D01*
X140618930Y-95079570D01*
X140633346Y-95095476D01*
X140646134Y-95112719D01*
X140657170Y-95131132D01*
X140666349Y-95150538D01*
X140673581Y-95170750D01*
X140678797Y-95191574D01*
X140681947Y-95212809D01*
X140683000Y-95234250D01*
X140683000Y-95671750D01*
X140681947Y-95693191D01*
X140678797Y-95714426D01*
X140673581Y-95735250D01*
X140666349Y-95755462D01*
X140657170Y-95774868D01*
X140646134Y-95793281D01*
X140633346Y-95810524D01*
X140618930Y-95826430D01*
X140603024Y-95840846D01*
X140585781Y-95853634D01*
X140567368Y-95864670D01*
X140547962Y-95873849D01*
X140527750Y-95881081D01*
X140506926Y-95886297D01*
X140485691Y-95889447D01*
X140464250Y-95890500D01*
X139951750Y-95890500D01*
X139930309Y-95889447D01*
X139909074Y-95886297D01*
X139888250Y-95881081D01*
X139868038Y-95873849D01*
X139848632Y-95864670D01*
X139830219Y-95853634D01*
X139812976Y-95840846D01*
X139797070Y-95826430D01*
X139782654Y-95810524D01*
X139769866Y-95793281D01*
X139758830Y-95774868D01*
X139749651Y-95755462D01*
X139742419Y-95735250D01*
X139737203Y-95714426D01*
X139734053Y-95693191D01*
X139733000Y-95671750D01*
X139733000Y-95234250D01*
X139734053Y-95212809D01*
X139737203Y-95191574D01*
X139742419Y-95170750D01*
X139749651Y-95150538D01*
X139758830Y-95131132D01*
X139769866Y-95112719D01*
X139782654Y-95095476D01*
X139797070Y-95079570D01*
X139812976Y-95065154D01*
X139830219Y-95052366D01*
X139848632Y-95041330D01*
X139868038Y-95032151D01*
X139888250Y-95024919D01*
X139909074Y-95019703D01*
X139930309Y-95016553D01*
X139951750Y-95015500D01*
X140464250Y-95015500D01*
X140485691Y-95016553D01*
X140485691Y-95016553D01*
G37*
D16*
G04 #@! TD*
G04 #@! TO.P,C8,2*
G04 #@! TO.N,GNDD*
X140208000Y-95453000D03*
D13*
G04 #@! TO.N,Net-(C6-Pad1)*
G04 #@! TO.C,C8*
G36*
X140485691Y-96591553D02*
X140506926Y-96594703D01*
X140527750Y-96599919D01*
X140547962Y-96607151D01*
X140567368Y-96616330D01*
X140585781Y-96627366D01*
X140603024Y-96640154D01*
X140618930Y-96654570D01*
X140633346Y-96670476D01*
X140646134Y-96687719D01*
X140657170Y-96706132D01*
X140666349Y-96725538D01*
X140673581Y-96745750D01*
X140678797Y-96766574D01*
X140681947Y-96787809D01*
X140683000Y-96809250D01*
X140683000Y-97246750D01*
X140681947Y-97268191D01*
X140678797Y-97289426D01*
X140673581Y-97310250D01*
X140666349Y-97330462D01*
X140657170Y-97349868D01*
X140646134Y-97368281D01*
X140633346Y-97385524D01*
X140618930Y-97401430D01*
X140603024Y-97415846D01*
X140585781Y-97428634D01*
X140567368Y-97439670D01*
X140547962Y-97448849D01*
X140527750Y-97456081D01*
X140506926Y-97461297D01*
X140485691Y-97464447D01*
X140464250Y-97465500D01*
X139951750Y-97465500D01*
X139930309Y-97464447D01*
X139909074Y-97461297D01*
X139888250Y-97456081D01*
X139868038Y-97448849D01*
X139848632Y-97439670D01*
X139830219Y-97428634D01*
X139812976Y-97415846D01*
X139797070Y-97401430D01*
X139782654Y-97385524D01*
X139769866Y-97368281D01*
X139758830Y-97349868D01*
X139749651Y-97330462D01*
X139742419Y-97310250D01*
X139737203Y-97289426D01*
X139734053Y-97268191D01*
X139733000Y-97246750D01*
X139733000Y-96809250D01*
X139734053Y-96787809D01*
X139737203Y-96766574D01*
X139742419Y-96745750D01*
X139749651Y-96725538D01*
X139758830Y-96706132D01*
X139769866Y-96687719D01*
X139782654Y-96670476D01*
X139797070Y-96654570D01*
X139812976Y-96640154D01*
X139830219Y-96627366D01*
X139848632Y-96616330D01*
X139868038Y-96607151D01*
X139888250Y-96599919D01*
X139909074Y-96594703D01*
X139930309Y-96591553D01*
X139951750Y-96590500D01*
X140464250Y-96590500D01*
X140485691Y-96591553D01*
X140485691Y-96591553D01*
G37*
D16*
G04 #@! TD*
G04 #@! TO.P,C8,1*
G04 #@! TO.N,Net-(C6-Pad1)*
X140208000Y-97028000D03*
D13*
G04 #@! TO.N,+5VD*
G04 #@! TO.C,C9*
G36*
X130643191Y-95575553D02*
X130664426Y-95578703D01*
X130685250Y-95583919D01*
X130705462Y-95591151D01*
X130724868Y-95600330D01*
X130743281Y-95611366D01*
X130760524Y-95624154D01*
X130776430Y-95638570D01*
X130790846Y-95654476D01*
X130803634Y-95671719D01*
X130814670Y-95690132D01*
X130823849Y-95709538D01*
X130831081Y-95729750D01*
X130836297Y-95750574D01*
X130839447Y-95771809D01*
X130840500Y-95793250D01*
X130840500Y-96230750D01*
X130839447Y-96252191D01*
X130836297Y-96273426D01*
X130831081Y-96294250D01*
X130823849Y-96314462D01*
X130814670Y-96333868D01*
X130803634Y-96352281D01*
X130790846Y-96369524D01*
X130776430Y-96385430D01*
X130760524Y-96399846D01*
X130743281Y-96412634D01*
X130724868Y-96423670D01*
X130705462Y-96432849D01*
X130685250Y-96440081D01*
X130664426Y-96445297D01*
X130643191Y-96448447D01*
X130621750Y-96449500D01*
X130109250Y-96449500D01*
X130087809Y-96448447D01*
X130066574Y-96445297D01*
X130045750Y-96440081D01*
X130025538Y-96432849D01*
X130006132Y-96423670D01*
X129987719Y-96412634D01*
X129970476Y-96399846D01*
X129954570Y-96385430D01*
X129940154Y-96369524D01*
X129927366Y-96352281D01*
X129916330Y-96333868D01*
X129907151Y-96314462D01*
X129899919Y-96294250D01*
X129894703Y-96273426D01*
X129891553Y-96252191D01*
X129890500Y-96230750D01*
X129890500Y-95793250D01*
X129891553Y-95771809D01*
X129894703Y-95750574D01*
X129899919Y-95729750D01*
X129907151Y-95709538D01*
X129916330Y-95690132D01*
X129927366Y-95671719D01*
X129940154Y-95654476D01*
X129954570Y-95638570D01*
X129970476Y-95624154D01*
X129987719Y-95611366D01*
X130006132Y-95600330D01*
X130025538Y-95591151D01*
X130045750Y-95583919D01*
X130066574Y-95578703D01*
X130087809Y-95575553D01*
X130109250Y-95574500D01*
X130621750Y-95574500D01*
X130643191Y-95575553D01*
X130643191Y-95575553D01*
G37*
D16*
G04 #@! TD*
G04 #@! TO.P,C9,1*
G04 #@! TO.N,+5VD*
X130365500Y-96012000D03*
D13*
G04 #@! TO.N,GNDD*
G04 #@! TO.C,C9*
G36*
X130643191Y-94000553D02*
X130664426Y-94003703D01*
X130685250Y-94008919D01*
X130705462Y-94016151D01*
X130724868Y-94025330D01*
X130743281Y-94036366D01*
X130760524Y-94049154D01*
X130776430Y-94063570D01*
X130790846Y-94079476D01*
X130803634Y-94096719D01*
X130814670Y-94115132D01*
X130823849Y-94134538D01*
X130831081Y-94154750D01*
X130836297Y-94175574D01*
X130839447Y-94196809D01*
X130840500Y-94218250D01*
X130840500Y-94655750D01*
X130839447Y-94677191D01*
X130836297Y-94698426D01*
X130831081Y-94719250D01*
X130823849Y-94739462D01*
X130814670Y-94758868D01*
X130803634Y-94777281D01*
X130790846Y-94794524D01*
X130776430Y-94810430D01*
X130760524Y-94824846D01*
X130743281Y-94837634D01*
X130724868Y-94848670D01*
X130705462Y-94857849D01*
X130685250Y-94865081D01*
X130664426Y-94870297D01*
X130643191Y-94873447D01*
X130621750Y-94874500D01*
X130109250Y-94874500D01*
X130087809Y-94873447D01*
X130066574Y-94870297D01*
X130045750Y-94865081D01*
X130025538Y-94857849D01*
X130006132Y-94848670D01*
X129987719Y-94837634D01*
X129970476Y-94824846D01*
X129954570Y-94810430D01*
X129940154Y-94794524D01*
X129927366Y-94777281D01*
X129916330Y-94758868D01*
X129907151Y-94739462D01*
X129899919Y-94719250D01*
X129894703Y-94698426D01*
X129891553Y-94677191D01*
X129890500Y-94655750D01*
X129890500Y-94218250D01*
X129891553Y-94196809D01*
X129894703Y-94175574D01*
X129899919Y-94154750D01*
X129907151Y-94134538D01*
X129916330Y-94115132D01*
X129927366Y-94096719D01*
X129940154Y-94079476D01*
X129954570Y-94063570D01*
X129970476Y-94049154D01*
X129987719Y-94036366D01*
X130006132Y-94025330D01*
X130025538Y-94016151D01*
X130045750Y-94008919D01*
X130066574Y-94003703D01*
X130087809Y-94000553D01*
X130109250Y-93999500D01*
X130621750Y-93999500D01*
X130643191Y-94000553D01*
X130643191Y-94000553D01*
G37*
D16*
G04 #@! TD*
G04 #@! TO.P,C9,2*
G04 #@! TO.N,GNDD*
X130365500Y-94437000D03*
D17*
G04 #@! TO.P,D1,1*
G04 #@! TO.N,Net-(C6-Pad1)*
X140274000Y-90916000D03*
G04 #@! TO.P,D1,2*
X142174000Y-90916000D03*
G04 #@! TO.P,D1,3*
G04 #@! TO.N,GNDD*
X141224000Y-88916000D03*
G04 #@! TD*
D18*
G04 #@! TO.P,J2,4*
G04 #@! TO.N,/NRST*
X128778000Y-116078000D03*
G04 #@! TO.P,J2,3*
G04 #@! TO.N,GNDD*
X126238000Y-115824000D03*
G04 #@! TO.P,J2,2*
G04 #@! TO.N,/SWIM*
X123698000Y-116078000D03*
G04 #@! TO.P,J2,1*
G04 #@! TO.N,+5VD*
X121158000Y-115824000D03*
G04 #@! TD*
D13*
G04 #@! TO.N,/I2C_SDA*
G04 #@! TO.C,R1*
G36*
X126769691Y-95575553D02*
X126790926Y-95578703D01*
X126811750Y-95583919D01*
X126831962Y-95591151D01*
X126851368Y-95600330D01*
X126869781Y-95611366D01*
X126887024Y-95624154D01*
X126902930Y-95638570D01*
X126917346Y-95654476D01*
X126930134Y-95671719D01*
X126941170Y-95690132D01*
X126950349Y-95709538D01*
X126957581Y-95729750D01*
X126962797Y-95750574D01*
X126965947Y-95771809D01*
X126967000Y-95793250D01*
X126967000Y-96230750D01*
X126965947Y-96252191D01*
X126962797Y-96273426D01*
X126957581Y-96294250D01*
X126950349Y-96314462D01*
X126941170Y-96333868D01*
X126930134Y-96352281D01*
X126917346Y-96369524D01*
X126902930Y-96385430D01*
X126887024Y-96399846D01*
X126869781Y-96412634D01*
X126851368Y-96423670D01*
X126831962Y-96432849D01*
X126811750Y-96440081D01*
X126790926Y-96445297D01*
X126769691Y-96448447D01*
X126748250Y-96449500D01*
X126235750Y-96449500D01*
X126214309Y-96448447D01*
X126193074Y-96445297D01*
X126172250Y-96440081D01*
X126152038Y-96432849D01*
X126132632Y-96423670D01*
X126114219Y-96412634D01*
X126096976Y-96399846D01*
X126081070Y-96385430D01*
X126066654Y-96369524D01*
X126053866Y-96352281D01*
X126042830Y-96333868D01*
X126033651Y-96314462D01*
X126026419Y-96294250D01*
X126021203Y-96273426D01*
X126018053Y-96252191D01*
X126017000Y-96230750D01*
X126017000Y-95793250D01*
X126018053Y-95771809D01*
X126021203Y-95750574D01*
X126026419Y-95729750D01*
X126033651Y-95709538D01*
X126042830Y-95690132D01*
X126053866Y-95671719D01*
X126066654Y-95654476D01*
X126081070Y-95638570D01*
X126096976Y-95624154D01*
X126114219Y-95611366D01*
X126132632Y-95600330D01*
X126152038Y-95591151D01*
X126172250Y-95583919D01*
X126193074Y-95578703D01*
X126214309Y-95575553D01*
X126235750Y-95574500D01*
X126748250Y-95574500D01*
X126769691Y-95575553D01*
X126769691Y-95575553D01*
G37*
D16*
G04 #@! TD*
G04 #@! TO.P,R1,2*
G04 #@! TO.N,/I2C_SDA*
X126492000Y-96012000D03*
D13*
G04 #@! TO.N,+5VD*
G04 #@! TO.C,R1*
G36*
X126769691Y-94000553D02*
X126790926Y-94003703D01*
X126811750Y-94008919D01*
X126831962Y-94016151D01*
X126851368Y-94025330D01*
X126869781Y-94036366D01*
X126887024Y-94049154D01*
X126902930Y-94063570D01*
X126917346Y-94079476D01*
X126930134Y-94096719D01*
X126941170Y-94115132D01*
X126950349Y-94134538D01*
X126957581Y-94154750D01*
X126962797Y-94175574D01*
X126965947Y-94196809D01*
X126967000Y-94218250D01*
X126967000Y-94655750D01*
X126965947Y-94677191D01*
X126962797Y-94698426D01*
X126957581Y-94719250D01*
X126950349Y-94739462D01*
X126941170Y-94758868D01*
X126930134Y-94777281D01*
X126917346Y-94794524D01*
X126902930Y-94810430D01*
X126887024Y-94824846D01*
X126869781Y-94837634D01*
X126851368Y-94848670D01*
X126831962Y-94857849D01*
X126811750Y-94865081D01*
X126790926Y-94870297D01*
X126769691Y-94873447D01*
X126748250Y-94874500D01*
X126235750Y-94874500D01*
X126214309Y-94873447D01*
X126193074Y-94870297D01*
X126172250Y-94865081D01*
X126152038Y-94857849D01*
X126132632Y-94848670D01*
X126114219Y-94837634D01*
X126096976Y-94824846D01*
X126081070Y-94810430D01*
X126066654Y-94794524D01*
X126053866Y-94777281D01*
X126042830Y-94758868D01*
X126033651Y-94739462D01*
X126026419Y-94719250D01*
X126021203Y-94698426D01*
X126018053Y-94677191D01*
X126017000Y-94655750D01*
X126017000Y-94218250D01*
X126018053Y-94196809D01*
X126021203Y-94175574D01*
X126026419Y-94154750D01*
X126033651Y-94134538D01*
X126042830Y-94115132D01*
X126053866Y-94096719D01*
X126066654Y-94079476D01*
X126081070Y-94063570D01*
X126096976Y-94049154D01*
X126114219Y-94036366D01*
X126132632Y-94025330D01*
X126152038Y-94016151D01*
X126172250Y-94008919D01*
X126193074Y-94003703D01*
X126214309Y-94000553D01*
X126235750Y-93999500D01*
X126748250Y-93999500D01*
X126769691Y-94000553D01*
X126769691Y-94000553D01*
G37*
D16*
G04 #@! TD*
G04 #@! TO.P,R1,1*
G04 #@! TO.N,+5VD*
X126492000Y-94437000D03*
D13*
G04 #@! TO.N,+5VD*
G04 #@! TO.C,R2*
G36*
X128738191Y-94000553D02*
X128759426Y-94003703D01*
X128780250Y-94008919D01*
X128800462Y-94016151D01*
X128819868Y-94025330D01*
X128838281Y-94036366D01*
X128855524Y-94049154D01*
X128871430Y-94063570D01*
X128885846Y-94079476D01*
X128898634Y-94096719D01*
X128909670Y-94115132D01*
X128918849Y-94134538D01*
X128926081Y-94154750D01*
X128931297Y-94175574D01*
X128934447Y-94196809D01*
X128935500Y-94218250D01*
X128935500Y-94655750D01*
X128934447Y-94677191D01*
X128931297Y-94698426D01*
X128926081Y-94719250D01*
X128918849Y-94739462D01*
X128909670Y-94758868D01*
X128898634Y-94777281D01*
X128885846Y-94794524D01*
X128871430Y-94810430D01*
X128855524Y-94824846D01*
X128838281Y-94837634D01*
X128819868Y-94848670D01*
X128800462Y-94857849D01*
X128780250Y-94865081D01*
X128759426Y-94870297D01*
X128738191Y-94873447D01*
X128716750Y-94874500D01*
X128204250Y-94874500D01*
X128182809Y-94873447D01*
X128161574Y-94870297D01*
X128140750Y-94865081D01*
X128120538Y-94857849D01*
X128101132Y-94848670D01*
X128082719Y-94837634D01*
X128065476Y-94824846D01*
X128049570Y-94810430D01*
X128035154Y-94794524D01*
X128022366Y-94777281D01*
X128011330Y-94758868D01*
X128002151Y-94739462D01*
X127994919Y-94719250D01*
X127989703Y-94698426D01*
X127986553Y-94677191D01*
X127985500Y-94655750D01*
X127985500Y-94218250D01*
X127986553Y-94196809D01*
X127989703Y-94175574D01*
X127994919Y-94154750D01*
X128002151Y-94134538D01*
X128011330Y-94115132D01*
X128022366Y-94096719D01*
X128035154Y-94079476D01*
X128049570Y-94063570D01*
X128065476Y-94049154D01*
X128082719Y-94036366D01*
X128101132Y-94025330D01*
X128120538Y-94016151D01*
X128140750Y-94008919D01*
X128161574Y-94003703D01*
X128182809Y-94000553D01*
X128204250Y-93999500D01*
X128716750Y-93999500D01*
X128738191Y-94000553D01*
X128738191Y-94000553D01*
G37*
D16*
G04 #@! TD*
G04 #@! TO.P,R2,1*
G04 #@! TO.N,+5VD*
X128460500Y-94437000D03*
D13*
G04 #@! TO.N,/I2C_SCL*
G04 #@! TO.C,R2*
G36*
X128738191Y-95575553D02*
X128759426Y-95578703D01*
X128780250Y-95583919D01*
X128800462Y-95591151D01*
X128819868Y-95600330D01*
X128838281Y-95611366D01*
X128855524Y-95624154D01*
X128871430Y-95638570D01*
X128885846Y-95654476D01*
X128898634Y-95671719D01*
X128909670Y-95690132D01*
X128918849Y-95709538D01*
X128926081Y-95729750D01*
X128931297Y-95750574D01*
X128934447Y-95771809D01*
X128935500Y-95793250D01*
X128935500Y-96230750D01*
X128934447Y-96252191D01*
X128931297Y-96273426D01*
X128926081Y-96294250D01*
X128918849Y-96314462D01*
X128909670Y-96333868D01*
X128898634Y-96352281D01*
X128885846Y-96369524D01*
X128871430Y-96385430D01*
X128855524Y-96399846D01*
X128838281Y-96412634D01*
X128819868Y-96423670D01*
X128800462Y-96432849D01*
X128780250Y-96440081D01*
X128759426Y-96445297D01*
X128738191Y-96448447D01*
X128716750Y-96449500D01*
X128204250Y-96449500D01*
X128182809Y-96448447D01*
X128161574Y-96445297D01*
X128140750Y-96440081D01*
X128120538Y-96432849D01*
X128101132Y-96423670D01*
X128082719Y-96412634D01*
X128065476Y-96399846D01*
X128049570Y-96385430D01*
X128035154Y-96369524D01*
X128022366Y-96352281D01*
X128011330Y-96333868D01*
X128002151Y-96314462D01*
X127994919Y-96294250D01*
X127989703Y-96273426D01*
X127986553Y-96252191D01*
X127985500Y-96230750D01*
X127985500Y-95793250D01*
X127986553Y-95771809D01*
X127989703Y-95750574D01*
X127994919Y-95729750D01*
X128002151Y-95709538D01*
X128011330Y-95690132D01*
X128022366Y-95671719D01*
X128035154Y-95654476D01*
X128049570Y-95638570D01*
X128065476Y-95624154D01*
X128082719Y-95611366D01*
X128101132Y-95600330D01*
X128120538Y-95591151D01*
X128140750Y-95583919D01*
X128161574Y-95578703D01*
X128182809Y-95575553D01*
X128204250Y-95574500D01*
X128716750Y-95574500D01*
X128738191Y-95575553D01*
X128738191Y-95575553D01*
G37*
D16*
G04 #@! TD*
G04 #@! TO.P,R2,2*
G04 #@! TO.N,/I2C_SCL*
X128460500Y-96012000D03*
D13*
G04 #@! TO.N,+5VD*
G04 #@! TO.C,R3*
G36*
X131663323Y-108275553D02*
X131684558Y-108278703D01*
X131705382Y-108283919D01*
X131725594Y-108291151D01*
X131745000Y-108300330D01*
X131763413Y-108311366D01*
X131780656Y-108324154D01*
X131796562Y-108338570D01*
X131810978Y-108354476D01*
X131823766Y-108371719D01*
X131834802Y-108390132D01*
X131843981Y-108409538D01*
X131851213Y-108429750D01*
X131856429Y-108450574D01*
X131859579Y-108471809D01*
X131860632Y-108493250D01*
X131860632Y-108930750D01*
X131859579Y-108952191D01*
X131856429Y-108973426D01*
X131851213Y-108994250D01*
X131843981Y-109014462D01*
X131834802Y-109033868D01*
X131823766Y-109052281D01*
X131810978Y-109069524D01*
X131796562Y-109085430D01*
X131780656Y-109099846D01*
X131763413Y-109112634D01*
X131745000Y-109123670D01*
X131725594Y-109132849D01*
X131705382Y-109140081D01*
X131684558Y-109145297D01*
X131663323Y-109148447D01*
X131641882Y-109149500D01*
X131129382Y-109149500D01*
X131107941Y-109148447D01*
X131086706Y-109145297D01*
X131065882Y-109140081D01*
X131045670Y-109132849D01*
X131026264Y-109123670D01*
X131007851Y-109112634D01*
X130990608Y-109099846D01*
X130974702Y-109085430D01*
X130960286Y-109069524D01*
X130947498Y-109052281D01*
X130936462Y-109033868D01*
X130927283Y-109014462D01*
X130920051Y-108994250D01*
X130914835Y-108973426D01*
X130911685Y-108952191D01*
X130910632Y-108930750D01*
X130910632Y-108493250D01*
X130911685Y-108471809D01*
X130914835Y-108450574D01*
X130920051Y-108429750D01*
X130927283Y-108409538D01*
X130936462Y-108390132D01*
X130947498Y-108371719D01*
X130960286Y-108354476D01*
X130974702Y-108338570D01*
X130990608Y-108324154D01*
X131007851Y-108311366D01*
X131026264Y-108300330D01*
X131045670Y-108291151D01*
X131065882Y-108283919D01*
X131086706Y-108278703D01*
X131107941Y-108275553D01*
X131129382Y-108274500D01*
X131641882Y-108274500D01*
X131663323Y-108275553D01*
X131663323Y-108275553D01*
G37*
D16*
G04 #@! TD*
G04 #@! TO.P,R3,1*
G04 #@! TO.N,+5VD*
X131385632Y-108712000D03*
D13*
G04 #@! TO.N,/NRST*
G04 #@! TO.C,R3*
G36*
X131663323Y-106700553D02*
X131684558Y-106703703D01*
X131705382Y-106708919D01*
X131725594Y-106716151D01*
X131745000Y-106725330D01*
X131763413Y-106736366D01*
X131780656Y-106749154D01*
X131796562Y-106763570D01*
X131810978Y-106779476D01*
X131823766Y-106796719D01*
X131834802Y-106815132D01*
X131843981Y-106834538D01*
X131851213Y-106854750D01*
X131856429Y-106875574D01*
X131859579Y-106896809D01*
X131860632Y-106918250D01*
X131860632Y-107355750D01*
X131859579Y-107377191D01*
X131856429Y-107398426D01*
X131851213Y-107419250D01*
X131843981Y-107439462D01*
X131834802Y-107458868D01*
X131823766Y-107477281D01*
X131810978Y-107494524D01*
X131796562Y-107510430D01*
X131780656Y-107524846D01*
X131763413Y-107537634D01*
X131745000Y-107548670D01*
X131725594Y-107557849D01*
X131705382Y-107565081D01*
X131684558Y-107570297D01*
X131663323Y-107573447D01*
X131641882Y-107574500D01*
X131129382Y-107574500D01*
X131107941Y-107573447D01*
X131086706Y-107570297D01*
X131065882Y-107565081D01*
X131045670Y-107557849D01*
X131026264Y-107548670D01*
X131007851Y-107537634D01*
X130990608Y-107524846D01*
X130974702Y-107510430D01*
X130960286Y-107494524D01*
X130947498Y-107477281D01*
X130936462Y-107458868D01*
X130927283Y-107439462D01*
X130920051Y-107419250D01*
X130914835Y-107398426D01*
X130911685Y-107377191D01*
X130910632Y-107355750D01*
X130910632Y-106918250D01*
X130911685Y-106896809D01*
X130914835Y-106875574D01*
X130920051Y-106854750D01*
X130927283Y-106834538D01*
X130936462Y-106815132D01*
X130947498Y-106796719D01*
X130960286Y-106779476D01*
X130974702Y-106763570D01*
X130990608Y-106749154D01*
X131007851Y-106736366D01*
X131026264Y-106725330D01*
X131045670Y-106716151D01*
X131065882Y-106708919D01*
X131086706Y-106703703D01*
X131107941Y-106700553D01*
X131129382Y-106699500D01*
X131641882Y-106699500D01*
X131663323Y-106700553D01*
X131663323Y-106700553D01*
G37*
D16*
G04 #@! TD*
G04 #@! TO.P,R3,2*
G04 #@! TO.N,/NRST*
X131385632Y-107137000D03*
D13*
G04 #@! TO.N,+5VD*
G04 #@! TO.C,R4*
G36*
X138453691Y-88912053D02*
X138474926Y-88915203D01*
X138495750Y-88920419D01*
X138515962Y-88927651D01*
X138535368Y-88936830D01*
X138553781Y-88947866D01*
X138571024Y-88960654D01*
X138586930Y-88975070D01*
X138601346Y-88990976D01*
X138614134Y-89008219D01*
X138625170Y-89026632D01*
X138634349Y-89046038D01*
X138641581Y-89066250D01*
X138646797Y-89087074D01*
X138649947Y-89108309D01*
X138651000Y-89129750D01*
X138651000Y-89567250D01*
X138649947Y-89588691D01*
X138646797Y-89609926D01*
X138641581Y-89630750D01*
X138634349Y-89650962D01*
X138625170Y-89670368D01*
X138614134Y-89688781D01*
X138601346Y-89706024D01*
X138586930Y-89721930D01*
X138571024Y-89736346D01*
X138553781Y-89749134D01*
X138535368Y-89760170D01*
X138515962Y-89769349D01*
X138495750Y-89776581D01*
X138474926Y-89781797D01*
X138453691Y-89784947D01*
X138432250Y-89786000D01*
X137919750Y-89786000D01*
X137898309Y-89784947D01*
X137877074Y-89781797D01*
X137856250Y-89776581D01*
X137836038Y-89769349D01*
X137816632Y-89760170D01*
X137798219Y-89749134D01*
X137780976Y-89736346D01*
X137765070Y-89721930D01*
X137750654Y-89706024D01*
X137737866Y-89688781D01*
X137726830Y-89670368D01*
X137717651Y-89650962D01*
X137710419Y-89630750D01*
X137705203Y-89609926D01*
X137702053Y-89588691D01*
X137701000Y-89567250D01*
X137701000Y-89129750D01*
X137702053Y-89108309D01*
X137705203Y-89087074D01*
X137710419Y-89066250D01*
X137717651Y-89046038D01*
X137726830Y-89026632D01*
X137737866Y-89008219D01*
X137750654Y-88990976D01*
X137765070Y-88975070D01*
X137780976Y-88960654D01*
X137798219Y-88947866D01*
X137816632Y-88936830D01*
X137836038Y-88927651D01*
X137856250Y-88920419D01*
X137877074Y-88915203D01*
X137898309Y-88912053D01*
X137919750Y-88911000D01*
X138432250Y-88911000D01*
X138453691Y-88912053D01*
X138453691Y-88912053D01*
G37*
D16*
G04 #@! TD*
G04 #@! TO.P,R4,2*
G04 #@! TO.N,+5VD*
X138176000Y-89348500D03*
D13*
G04 #@! TO.N,Net-(C6-Pad1)*
G04 #@! TO.C,R4*
G36*
X138453691Y-90487053D02*
X138474926Y-90490203D01*
X138495750Y-90495419D01*
X138515962Y-90502651D01*
X138535368Y-90511830D01*
X138553781Y-90522866D01*
X138571024Y-90535654D01*
X138586930Y-90550070D01*
X138601346Y-90565976D01*
X138614134Y-90583219D01*
X138625170Y-90601632D01*
X138634349Y-90621038D01*
X138641581Y-90641250D01*
X138646797Y-90662074D01*
X138649947Y-90683309D01*
X138651000Y-90704750D01*
X138651000Y-91142250D01*
X138649947Y-91163691D01*
X138646797Y-91184926D01*
X138641581Y-91205750D01*
X138634349Y-91225962D01*
X138625170Y-91245368D01*
X138614134Y-91263781D01*
X138601346Y-91281024D01*
X138586930Y-91296930D01*
X138571024Y-91311346D01*
X138553781Y-91324134D01*
X138535368Y-91335170D01*
X138515962Y-91344349D01*
X138495750Y-91351581D01*
X138474926Y-91356797D01*
X138453691Y-91359947D01*
X138432250Y-91361000D01*
X137919750Y-91361000D01*
X137898309Y-91359947D01*
X137877074Y-91356797D01*
X137856250Y-91351581D01*
X137836038Y-91344349D01*
X137816632Y-91335170D01*
X137798219Y-91324134D01*
X137780976Y-91311346D01*
X137765070Y-91296930D01*
X137750654Y-91281024D01*
X137737866Y-91263781D01*
X137726830Y-91245368D01*
X137717651Y-91225962D01*
X137710419Y-91205750D01*
X137705203Y-91184926D01*
X137702053Y-91163691D01*
X137701000Y-91142250D01*
X137701000Y-90704750D01*
X137702053Y-90683309D01*
X137705203Y-90662074D01*
X137710419Y-90641250D01*
X137717651Y-90621038D01*
X137726830Y-90601632D01*
X137737866Y-90583219D01*
X137750654Y-90565976D01*
X137765070Y-90550070D01*
X137780976Y-90535654D01*
X137798219Y-90522866D01*
X137816632Y-90511830D01*
X137836038Y-90502651D01*
X137856250Y-90495419D01*
X137877074Y-90490203D01*
X137898309Y-90487053D01*
X137919750Y-90486000D01*
X138432250Y-90486000D01*
X138453691Y-90487053D01*
X138453691Y-90487053D01*
G37*
D16*
G04 #@! TD*
G04 #@! TO.P,R4,1*
G04 #@! TO.N,Net-(C6-Pad1)*
X138176000Y-90923500D03*
D13*
G04 #@! TO.N,Net-(R5-Pad2)*
G04 #@! TO.C,R5*
G36*
X146073691Y-106497553D02*
X146094926Y-106500703D01*
X146115750Y-106505919D01*
X146135962Y-106513151D01*
X146155368Y-106522330D01*
X146173781Y-106533366D01*
X146191024Y-106546154D01*
X146206930Y-106560570D01*
X146221346Y-106576476D01*
X146234134Y-106593719D01*
X146245170Y-106612132D01*
X146254349Y-106631538D01*
X146261581Y-106651750D01*
X146266797Y-106672574D01*
X146269947Y-106693809D01*
X146271000Y-106715250D01*
X146271000Y-107152750D01*
X146269947Y-107174191D01*
X146266797Y-107195426D01*
X146261581Y-107216250D01*
X146254349Y-107236462D01*
X146245170Y-107255868D01*
X146234134Y-107274281D01*
X146221346Y-107291524D01*
X146206930Y-107307430D01*
X146191024Y-107321846D01*
X146173781Y-107334634D01*
X146155368Y-107345670D01*
X146135962Y-107354849D01*
X146115750Y-107362081D01*
X146094926Y-107367297D01*
X146073691Y-107370447D01*
X146052250Y-107371500D01*
X145539750Y-107371500D01*
X145518309Y-107370447D01*
X145497074Y-107367297D01*
X145476250Y-107362081D01*
X145456038Y-107354849D01*
X145436632Y-107345670D01*
X145418219Y-107334634D01*
X145400976Y-107321846D01*
X145385070Y-107307430D01*
X145370654Y-107291524D01*
X145357866Y-107274281D01*
X145346830Y-107255868D01*
X145337651Y-107236462D01*
X145330419Y-107216250D01*
X145325203Y-107195426D01*
X145322053Y-107174191D01*
X145321000Y-107152750D01*
X145321000Y-106715250D01*
X145322053Y-106693809D01*
X145325203Y-106672574D01*
X145330419Y-106651750D01*
X145337651Y-106631538D01*
X145346830Y-106612132D01*
X145357866Y-106593719D01*
X145370654Y-106576476D01*
X145385070Y-106560570D01*
X145400976Y-106546154D01*
X145418219Y-106533366D01*
X145436632Y-106522330D01*
X145456038Y-106513151D01*
X145476250Y-106505919D01*
X145497074Y-106500703D01*
X145518309Y-106497553D01*
X145539750Y-106496500D01*
X146052250Y-106496500D01*
X146073691Y-106497553D01*
X146073691Y-106497553D01*
G37*
D16*
G04 #@! TD*
G04 #@! TO.P,R5,2*
G04 #@! TO.N,Net-(R5-Pad2)*
X145796000Y-106934000D03*
D13*
G04 #@! TO.N,Net-(R5-Pad1)*
G04 #@! TO.C,R5*
G36*
X146073691Y-108072553D02*
X146094926Y-108075703D01*
X146115750Y-108080919D01*
X146135962Y-108088151D01*
X146155368Y-108097330D01*
X146173781Y-108108366D01*
X146191024Y-108121154D01*
X146206930Y-108135570D01*
X146221346Y-108151476D01*
X146234134Y-108168719D01*
X146245170Y-108187132D01*
X146254349Y-108206538D01*
X146261581Y-108226750D01*
X146266797Y-108247574D01*
X146269947Y-108268809D01*
X146271000Y-108290250D01*
X146271000Y-108727750D01*
X146269947Y-108749191D01*
X146266797Y-108770426D01*
X146261581Y-108791250D01*
X146254349Y-108811462D01*
X146245170Y-108830868D01*
X146234134Y-108849281D01*
X146221346Y-108866524D01*
X146206930Y-108882430D01*
X146191024Y-108896846D01*
X146173781Y-108909634D01*
X146155368Y-108920670D01*
X146135962Y-108929849D01*
X146115750Y-108937081D01*
X146094926Y-108942297D01*
X146073691Y-108945447D01*
X146052250Y-108946500D01*
X145539750Y-108946500D01*
X145518309Y-108945447D01*
X145497074Y-108942297D01*
X145476250Y-108937081D01*
X145456038Y-108929849D01*
X145436632Y-108920670D01*
X145418219Y-108909634D01*
X145400976Y-108896846D01*
X145385070Y-108882430D01*
X145370654Y-108866524D01*
X145357866Y-108849281D01*
X145346830Y-108830868D01*
X145337651Y-108811462D01*
X145330419Y-108791250D01*
X145325203Y-108770426D01*
X145322053Y-108749191D01*
X145321000Y-108727750D01*
X145321000Y-108290250D01*
X145322053Y-108268809D01*
X145325203Y-108247574D01*
X145330419Y-108226750D01*
X145337651Y-108206538D01*
X145346830Y-108187132D01*
X145357866Y-108168719D01*
X145370654Y-108151476D01*
X145385070Y-108135570D01*
X145400976Y-108121154D01*
X145418219Y-108108366D01*
X145436632Y-108097330D01*
X145456038Y-108088151D01*
X145476250Y-108080919D01*
X145497074Y-108075703D01*
X145518309Y-108072553D01*
X145539750Y-108071500D01*
X146052250Y-108071500D01*
X146073691Y-108072553D01*
X146073691Y-108072553D01*
G37*
D16*
G04 #@! TD*
G04 #@! TO.P,R5,1*
G04 #@! TO.N,Net-(R5-Pad1)*
X145796000Y-108509000D03*
D13*
G04 #@! TO.N,Net-(R6-Pad1)*
G04 #@! TO.C,R6*
G36*
X144041691Y-106497553D02*
X144062926Y-106500703D01*
X144083750Y-106505919D01*
X144103962Y-106513151D01*
X144123368Y-106522330D01*
X144141781Y-106533366D01*
X144159024Y-106546154D01*
X144174930Y-106560570D01*
X144189346Y-106576476D01*
X144202134Y-106593719D01*
X144213170Y-106612132D01*
X144222349Y-106631538D01*
X144229581Y-106651750D01*
X144234797Y-106672574D01*
X144237947Y-106693809D01*
X144239000Y-106715250D01*
X144239000Y-107152750D01*
X144237947Y-107174191D01*
X144234797Y-107195426D01*
X144229581Y-107216250D01*
X144222349Y-107236462D01*
X144213170Y-107255868D01*
X144202134Y-107274281D01*
X144189346Y-107291524D01*
X144174930Y-107307430D01*
X144159024Y-107321846D01*
X144141781Y-107334634D01*
X144123368Y-107345670D01*
X144103962Y-107354849D01*
X144083750Y-107362081D01*
X144062926Y-107367297D01*
X144041691Y-107370447D01*
X144020250Y-107371500D01*
X143507750Y-107371500D01*
X143486309Y-107370447D01*
X143465074Y-107367297D01*
X143444250Y-107362081D01*
X143424038Y-107354849D01*
X143404632Y-107345670D01*
X143386219Y-107334634D01*
X143368976Y-107321846D01*
X143353070Y-107307430D01*
X143338654Y-107291524D01*
X143325866Y-107274281D01*
X143314830Y-107255868D01*
X143305651Y-107236462D01*
X143298419Y-107216250D01*
X143293203Y-107195426D01*
X143290053Y-107174191D01*
X143289000Y-107152750D01*
X143289000Y-106715250D01*
X143290053Y-106693809D01*
X143293203Y-106672574D01*
X143298419Y-106651750D01*
X143305651Y-106631538D01*
X143314830Y-106612132D01*
X143325866Y-106593719D01*
X143338654Y-106576476D01*
X143353070Y-106560570D01*
X143368976Y-106546154D01*
X143386219Y-106533366D01*
X143404632Y-106522330D01*
X143424038Y-106513151D01*
X143444250Y-106505919D01*
X143465074Y-106500703D01*
X143486309Y-106497553D01*
X143507750Y-106496500D01*
X144020250Y-106496500D01*
X144041691Y-106497553D01*
X144041691Y-106497553D01*
G37*
D16*
G04 #@! TD*
G04 #@! TO.P,R6,1*
G04 #@! TO.N,Net-(R6-Pad1)*
X143764000Y-106934000D03*
D13*
G04 #@! TO.N,Net-(R5-Pad1)*
G04 #@! TO.C,R6*
G36*
X144041691Y-108072553D02*
X144062926Y-108075703D01*
X144083750Y-108080919D01*
X144103962Y-108088151D01*
X144123368Y-108097330D01*
X144141781Y-108108366D01*
X144159024Y-108121154D01*
X144174930Y-108135570D01*
X144189346Y-108151476D01*
X144202134Y-108168719D01*
X144213170Y-108187132D01*
X144222349Y-108206538D01*
X144229581Y-108226750D01*
X144234797Y-108247574D01*
X144237947Y-108268809D01*
X144239000Y-108290250D01*
X144239000Y-108727750D01*
X144237947Y-108749191D01*
X144234797Y-108770426D01*
X144229581Y-108791250D01*
X144222349Y-108811462D01*
X144213170Y-108830868D01*
X144202134Y-108849281D01*
X144189346Y-108866524D01*
X144174930Y-108882430D01*
X144159024Y-108896846D01*
X144141781Y-108909634D01*
X144123368Y-108920670D01*
X144103962Y-108929849D01*
X144083750Y-108937081D01*
X144062926Y-108942297D01*
X144041691Y-108945447D01*
X144020250Y-108946500D01*
X143507750Y-108946500D01*
X143486309Y-108945447D01*
X143465074Y-108942297D01*
X143444250Y-108937081D01*
X143424038Y-108929849D01*
X143404632Y-108920670D01*
X143386219Y-108909634D01*
X143368976Y-108896846D01*
X143353070Y-108882430D01*
X143338654Y-108866524D01*
X143325866Y-108849281D01*
X143314830Y-108830868D01*
X143305651Y-108811462D01*
X143298419Y-108791250D01*
X143293203Y-108770426D01*
X143290053Y-108749191D01*
X143289000Y-108727750D01*
X143289000Y-108290250D01*
X143290053Y-108268809D01*
X143293203Y-108247574D01*
X143298419Y-108226750D01*
X143305651Y-108206538D01*
X143314830Y-108187132D01*
X143325866Y-108168719D01*
X143338654Y-108151476D01*
X143353070Y-108135570D01*
X143368976Y-108121154D01*
X143386219Y-108108366D01*
X143404632Y-108097330D01*
X143424038Y-108088151D01*
X143444250Y-108080919D01*
X143465074Y-108075703D01*
X143486309Y-108072553D01*
X143507750Y-108071500D01*
X144020250Y-108071500D01*
X144041691Y-108072553D01*
X144041691Y-108072553D01*
G37*
D16*
G04 #@! TD*
G04 #@! TO.P,R6,2*
G04 #@! TO.N,Net-(R5-Pad1)*
X143764000Y-108509000D03*
D10*
G04 #@! TO.P,U1,1*
G04 #@! TO.N,+5V*
X115410000Y-99695000D03*
G04 #@! TO.P,U1,2*
G04 #@! TO.N,/SDA*
X115410000Y-100965000D03*
G04 #@! TO.P,U1,3*
G04 #@! TO.N,/SCL*
X115410000Y-102235000D03*
G04 #@! TO.P,U1,4*
G04 #@! TO.N,GND*
X115410000Y-103505000D03*
G04 #@! TO.P,U1,5*
G04 #@! TO.N,GNDD*
X120810000Y-103505000D03*
G04 #@! TO.P,U1,6*
G04 #@! TO.N,/I2C_SCL*
X120810000Y-102235000D03*
G04 #@! TO.P,U1,7*
G04 #@! TO.N,/I2C_SDA*
X120810000Y-100965000D03*
G04 #@! TO.P,U1,8*
G04 #@! TO.N,+5VD*
X120810000Y-99695000D03*
G04 #@! TD*
D19*
G04 #@! TO.P,U2,1*
G04 #@! TO.N,GND*
X113538000Y-92202000D03*
G04 #@! TO.P,U2,2*
G04 #@! TO.N,+5V*
X116078000Y-92202000D03*
G04 #@! TO.P,U2,3*
G04 #@! TO.N,GNDD*
X118618000Y-92202000D03*
G04 #@! TO.P,U2,4*
G04 #@! TO.N,+5VD*
X121158000Y-92202000D03*
G04 #@! TD*
D20*
G04 #@! TO.P,U3,1*
G04 #@! TO.N,/ADDR1*
X133252000Y-104779000D03*
G04 #@! TO.P,U3,2*
G04 #@! TO.N,/ADDR2*
X133252000Y-104129000D03*
G04 #@! TO.P,U3,3*
G04 #@! TO.N,/Aout*
X133252000Y-103479000D03*
G04 #@! TO.P,U3,4*
G04 #@! TO.N,/NRST*
X133252000Y-102829000D03*
G04 #@! TO.P,U3,5*
G04 #@! TO.N,Net-(R13-Pad1)*
X133252000Y-102179000D03*
G04 #@! TO.P,U3,6*
G04 #@! TO.N,Net-(U3-Pad6)*
X133252000Y-101529000D03*
G04 #@! TO.P,U3,7*
G04 #@! TO.N,GNDD*
X133252000Y-100879000D03*
G04 #@! TO.P,U3,8*
G04 #@! TO.N,Net-(C5-Pad1)*
X133252000Y-100229000D03*
G04 #@! TO.P,U3,9*
G04 #@! TO.N,+5VD*
X133252000Y-99579000D03*
G04 #@! TO.P,U3,10*
G04 #@! TO.N,Net-(U3-Pad10)*
X133252000Y-98929000D03*
G04 #@! TO.P,U3,11*
G04 #@! TO.N,/I2C_SDA*
X127352000Y-98929000D03*
G04 #@! TO.P,U3,12*
G04 #@! TO.N,/I2C_SCL*
X127352000Y-99579000D03*
G04 #@! TO.P,U3,13*
G04 #@! TO.N,Net-(U3-Pad13)*
X127352000Y-100229000D03*
G04 #@! TO.P,U3,14*
G04 #@! TO.N,Net-(U3-Pad14)*
X127352000Y-100879000D03*
G04 #@! TO.P,U3,15*
G04 #@! TO.N,Net-(U3-Pad15)*
X127352000Y-101529000D03*
G04 #@! TO.P,U3,16*
G04 #@! TO.N,Net-(U3-Pad16)*
X127352000Y-102179000D03*
G04 #@! TO.P,U3,17*
G04 #@! TO.N,Net-(U3-Pad17)*
X127352000Y-102829000D03*
G04 #@! TO.P,U3,18*
G04 #@! TO.N,/SWIM*
X127352000Y-103479000D03*
G04 #@! TO.P,U3,19*
G04 #@! TO.N,Net-(U3-Pad19)*
X127352000Y-104129000D03*
G04 #@! TO.P,U3,20*
G04 #@! TO.N,Net-(D3-Pad1)*
X127352000Y-104779000D03*
G04 #@! TD*
D13*
G04 #@! TO.N,Net-(D2-Pad2)*
G04 #@! TO.C,D2*
G36*
X128757329Y-88639663D02*
X128777957Y-88642723D01*
X128798185Y-88647790D01*
X128817820Y-88654816D01*
X128836672Y-88663732D01*
X128854559Y-88674453D01*
X128871309Y-88686875D01*
X128886760Y-88700880D01*
X128900765Y-88716331D01*
X128913187Y-88733081D01*
X128923908Y-88750968D01*
X128932824Y-88769820D01*
X128939850Y-88789455D01*
X128944917Y-88809683D01*
X128947977Y-88830311D01*
X128949000Y-88851140D01*
X128949000Y-89651140D01*
X128947977Y-89671969D01*
X128944917Y-89692597D01*
X128939850Y-89712825D01*
X128932824Y-89732460D01*
X128923908Y-89751312D01*
X128913187Y-89769199D01*
X128900765Y-89785949D01*
X128886760Y-89801400D01*
X128871309Y-89815405D01*
X128854559Y-89827827D01*
X128836672Y-89838548D01*
X128817820Y-89847464D01*
X128798185Y-89854490D01*
X128777957Y-89859557D01*
X128757329Y-89862617D01*
X128736500Y-89863640D01*
X128311500Y-89863640D01*
X128290671Y-89862617D01*
X128270043Y-89859557D01*
X128249815Y-89854490D01*
X128230180Y-89847464D01*
X128211328Y-89838548D01*
X128193441Y-89827827D01*
X128176691Y-89815405D01*
X128161240Y-89801400D01*
X128147235Y-89785949D01*
X128134813Y-89769199D01*
X128124092Y-89751312D01*
X128115176Y-89732460D01*
X128108150Y-89712825D01*
X128103083Y-89692597D01*
X128100023Y-89671969D01*
X128099000Y-89651140D01*
X128099000Y-88851140D01*
X128100023Y-88830311D01*
X128103083Y-88809683D01*
X128108150Y-88789455D01*
X128115176Y-88769820D01*
X128124092Y-88750968D01*
X128134813Y-88733081D01*
X128147235Y-88716331D01*
X128161240Y-88700880D01*
X128176691Y-88686875D01*
X128193441Y-88674453D01*
X128211328Y-88663732D01*
X128230180Y-88654816D01*
X128249815Y-88647790D01*
X128270043Y-88642723D01*
X128290671Y-88639663D01*
X128311500Y-88638640D01*
X128736500Y-88638640D01*
X128757329Y-88639663D01*
X128757329Y-88639663D01*
G37*
D21*
G04 #@! TD*
G04 #@! TO.P,D2,2*
G04 #@! TO.N,Net-(D2-Pad2)*
X128524000Y-89251140D03*
D13*
G04 #@! TO.N,GNDD*
G04 #@! TO.C,D2*
G36*
X128757329Y-90264663D02*
X128777957Y-90267723D01*
X128798185Y-90272790D01*
X128817820Y-90279816D01*
X128836672Y-90288732D01*
X128854559Y-90299453D01*
X128871309Y-90311875D01*
X128886760Y-90325880D01*
X128900765Y-90341331D01*
X128913187Y-90358081D01*
X128923908Y-90375968D01*
X128932824Y-90394820D01*
X128939850Y-90414455D01*
X128944917Y-90434683D01*
X128947977Y-90455311D01*
X128949000Y-90476140D01*
X128949000Y-91276140D01*
X128947977Y-91296969D01*
X128944917Y-91317597D01*
X128939850Y-91337825D01*
X128932824Y-91357460D01*
X128923908Y-91376312D01*
X128913187Y-91394199D01*
X128900765Y-91410949D01*
X128886760Y-91426400D01*
X128871309Y-91440405D01*
X128854559Y-91452827D01*
X128836672Y-91463548D01*
X128817820Y-91472464D01*
X128798185Y-91479490D01*
X128777957Y-91484557D01*
X128757329Y-91487617D01*
X128736500Y-91488640D01*
X128311500Y-91488640D01*
X128290671Y-91487617D01*
X128270043Y-91484557D01*
X128249815Y-91479490D01*
X128230180Y-91472464D01*
X128211328Y-91463548D01*
X128193441Y-91452827D01*
X128176691Y-91440405D01*
X128161240Y-91426400D01*
X128147235Y-91410949D01*
X128134813Y-91394199D01*
X128124092Y-91376312D01*
X128115176Y-91357460D01*
X128108150Y-91337825D01*
X128103083Y-91317597D01*
X128100023Y-91296969D01*
X128099000Y-91276140D01*
X128099000Y-90476140D01*
X128100023Y-90455311D01*
X128103083Y-90434683D01*
X128108150Y-90414455D01*
X128115176Y-90394820D01*
X128124092Y-90375968D01*
X128134813Y-90358081D01*
X128147235Y-90341331D01*
X128161240Y-90325880D01*
X128176691Y-90311875D01*
X128193441Y-90299453D01*
X128211328Y-90288732D01*
X128230180Y-90279816D01*
X128249815Y-90272790D01*
X128270043Y-90267723D01*
X128290671Y-90264663D01*
X128311500Y-90263640D01*
X128736500Y-90263640D01*
X128757329Y-90264663D01*
X128757329Y-90264663D01*
G37*
D21*
G04 #@! TD*
G04 #@! TO.P,D2,1*
G04 #@! TO.N,GNDD*
X128524000Y-90876140D03*
D13*
G04 #@! TO.N,Net-(D3-Pad1)*
G04 #@! TO.C,D3*
G36*
X129410595Y-106520523D02*
X129431223Y-106523583D01*
X129451451Y-106528650D01*
X129471086Y-106535676D01*
X129489938Y-106544592D01*
X129507825Y-106555313D01*
X129524575Y-106567735D01*
X129540026Y-106581740D01*
X129554031Y-106597191D01*
X129566453Y-106613941D01*
X129577174Y-106631828D01*
X129586090Y-106650680D01*
X129593116Y-106670315D01*
X129598183Y-106690543D01*
X129601243Y-106711171D01*
X129602266Y-106732000D01*
X129602266Y-107532000D01*
X129601243Y-107552829D01*
X129598183Y-107573457D01*
X129593116Y-107593685D01*
X129586090Y-107613320D01*
X129577174Y-107632172D01*
X129566453Y-107650059D01*
X129554031Y-107666809D01*
X129540026Y-107682260D01*
X129524575Y-107696265D01*
X129507825Y-107708687D01*
X129489938Y-107719408D01*
X129471086Y-107728324D01*
X129451451Y-107735350D01*
X129431223Y-107740417D01*
X129410595Y-107743477D01*
X129389766Y-107744500D01*
X128964766Y-107744500D01*
X128943937Y-107743477D01*
X128923309Y-107740417D01*
X128903081Y-107735350D01*
X128883446Y-107728324D01*
X128864594Y-107719408D01*
X128846707Y-107708687D01*
X128829957Y-107696265D01*
X128814506Y-107682260D01*
X128800501Y-107666809D01*
X128788079Y-107650059D01*
X128777358Y-107632172D01*
X128768442Y-107613320D01*
X128761416Y-107593685D01*
X128756349Y-107573457D01*
X128753289Y-107552829D01*
X128752266Y-107532000D01*
X128752266Y-106732000D01*
X128753289Y-106711171D01*
X128756349Y-106690543D01*
X128761416Y-106670315D01*
X128768442Y-106650680D01*
X128777358Y-106631828D01*
X128788079Y-106613941D01*
X128800501Y-106597191D01*
X128814506Y-106581740D01*
X128829957Y-106567735D01*
X128846707Y-106555313D01*
X128864594Y-106544592D01*
X128883446Y-106535676D01*
X128903081Y-106528650D01*
X128923309Y-106523583D01*
X128943937Y-106520523D01*
X128964766Y-106519500D01*
X129389766Y-106519500D01*
X129410595Y-106520523D01*
X129410595Y-106520523D01*
G37*
D21*
G04 #@! TD*
G04 #@! TO.P,D3,1*
G04 #@! TO.N,Net-(D3-Pad1)*
X129177266Y-107132000D03*
D13*
G04 #@! TO.N,Net-(D3-Pad2)*
G04 #@! TO.C,D3*
G36*
X129410595Y-108145523D02*
X129431223Y-108148583D01*
X129451451Y-108153650D01*
X129471086Y-108160676D01*
X129489938Y-108169592D01*
X129507825Y-108180313D01*
X129524575Y-108192735D01*
X129540026Y-108206740D01*
X129554031Y-108222191D01*
X129566453Y-108238941D01*
X129577174Y-108256828D01*
X129586090Y-108275680D01*
X129593116Y-108295315D01*
X129598183Y-108315543D01*
X129601243Y-108336171D01*
X129602266Y-108357000D01*
X129602266Y-109157000D01*
X129601243Y-109177829D01*
X129598183Y-109198457D01*
X129593116Y-109218685D01*
X129586090Y-109238320D01*
X129577174Y-109257172D01*
X129566453Y-109275059D01*
X129554031Y-109291809D01*
X129540026Y-109307260D01*
X129524575Y-109321265D01*
X129507825Y-109333687D01*
X129489938Y-109344408D01*
X129471086Y-109353324D01*
X129451451Y-109360350D01*
X129431223Y-109365417D01*
X129410595Y-109368477D01*
X129389766Y-109369500D01*
X128964766Y-109369500D01*
X128943937Y-109368477D01*
X128923309Y-109365417D01*
X128903081Y-109360350D01*
X128883446Y-109353324D01*
X128864594Y-109344408D01*
X128846707Y-109333687D01*
X128829957Y-109321265D01*
X128814506Y-109307260D01*
X128800501Y-109291809D01*
X128788079Y-109275059D01*
X128777358Y-109257172D01*
X128768442Y-109238320D01*
X128761416Y-109218685D01*
X128756349Y-109198457D01*
X128753289Y-109177829D01*
X128752266Y-109157000D01*
X128752266Y-108357000D01*
X128753289Y-108336171D01*
X128756349Y-108315543D01*
X128761416Y-108295315D01*
X128768442Y-108275680D01*
X128777358Y-108256828D01*
X128788079Y-108238941D01*
X128800501Y-108222191D01*
X128814506Y-108206740D01*
X128829957Y-108192735D01*
X128846707Y-108180313D01*
X128864594Y-108169592D01*
X128883446Y-108160676D01*
X128903081Y-108153650D01*
X128923309Y-108148583D01*
X128943937Y-108145523D01*
X128964766Y-108144500D01*
X129389766Y-108144500D01*
X129410595Y-108145523D01*
X129410595Y-108145523D01*
G37*
D21*
G04 #@! TD*
G04 #@! TO.P,D3,2*
G04 #@! TO.N,Net-(D3-Pad2)*
X129177266Y-108757000D03*
D22*
G04 #@! TO.P,R7,1*
G04 #@! TO.N,+5VD*
X126497000Y-90932000D03*
G04 #@! TO.P,R7,2*
G04 #@! TO.N,Net-(D2-Pad2)*
X126497000Y-89235280D03*
G04 #@! TD*
G04 #@! TO.P,R8,2*
G04 #@! TO.N,Net-(D3-Pad2)*
X127000000Y-107076140D03*
G04 #@! TO.P,R8,1*
G04 #@! TO.N,+5VD*
X127000000Y-108772860D03*
G04 #@! TD*
D23*
G04 #@! TO.P,JP1,1*
G04 #@! TO.N,/ADDR1*
X134620000Y-114628000D03*
D13*
G04 #@! TD*
G04 #@! TO.N,/ADDR1*
G04 #@! TO.C,JP1*
G36*
X134620000Y-115628000D02*
X133870000Y-115128000D01*
X133870000Y-114128000D01*
X135370000Y-114128000D01*
X135370000Y-115128000D01*
X134620000Y-115628000D01*
X134620000Y-115628000D01*
G37*
D23*
G04 #@! TO.P,JP1,2*
G04 #@! TO.N,GNDD*
X134620000Y-116078000D03*
D13*
G04 #@! TD*
G04 #@! TO.N,GNDD*
G04 #@! TO.C,JP1*
G36*
X133870000Y-116578000D02*
X133870000Y-115428000D01*
X134620000Y-115928000D01*
X135370000Y-115428000D01*
X135370000Y-116578000D01*
X133870000Y-116578000D01*
X133870000Y-116578000D01*
G37*
D23*
G04 #@! TO.P,JP2,2*
G04 #@! TO.N,GNDD*
X137414000Y-116078000D03*
D13*
G04 #@! TD*
G04 #@! TO.N,GNDD*
G04 #@! TO.C,JP2*
G36*
X136664000Y-116578000D02*
X136664000Y-115428000D01*
X137414000Y-115928000D01*
X138164000Y-115428000D01*
X138164000Y-116578000D01*
X136664000Y-116578000D01*
X136664000Y-116578000D01*
G37*
D23*
G04 #@! TO.P,JP2,1*
G04 #@! TO.N,/ADDR2*
X137414000Y-114628000D03*
D13*
G04 #@! TD*
G04 #@! TO.N,/ADDR2*
G04 #@! TO.C,JP2*
G36*
X137414000Y-115628000D02*
X136664000Y-115128000D01*
X136664000Y-114128000D01*
X138164000Y-114128000D01*
X138164000Y-115128000D01*
X137414000Y-115628000D01*
X137414000Y-115628000D01*
G37*
G04 #@! TO.N,/Aout*
G04 #@! TO.C,R9*
G36*
X136358691Y-103412053D02*
X136379926Y-103415203D01*
X136400750Y-103420419D01*
X136420962Y-103427651D01*
X136440368Y-103436830D01*
X136458781Y-103447866D01*
X136476024Y-103460654D01*
X136491930Y-103475070D01*
X136506346Y-103490976D01*
X136519134Y-103508219D01*
X136530170Y-103526632D01*
X136539349Y-103546038D01*
X136546581Y-103566250D01*
X136551797Y-103587074D01*
X136554947Y-103608309D01*
X136556000Y-103629750D01*
X136556000Y-104142250D01*
X136554947Y-104163691D01*
X136551797Y-104184926D01*
X136546581Y-104205750D01*
X136539349Y-104225962D01*
X136530170Y-104245368D01*
X136519134Y-104263781D01*
X136506346Y-104281024D01*
X136491930Y-104296930D01*
X136476024Y-104311346D01*
X136458781Y-104324134D01*
X136440368Y-104335170D01*
X136420962Y-104344349D01*
X136400750Y-104351581D01*
X136379926Y-104356797D01*
X136358691Y-104359947D01*
X136337250Y-104361000D01*
X135899750Y-104361000D01*
X135878309Y-104359947D01*
X135857074Y-104356797D01*
X135836250Y-104351581D01*
X135816038Y-104344349D01*
X135796632Y-104335170D01*
X135778219Y-104324134D01*
X135760976Y-104311346D01*
X135745070Y-104296930D01*
X135730654Y-104281024D01*
X135717866Y-104263781D01*
X135706830Y-104245368D01*
X135697651Y-104225962D01*
X135690419Y-104205750D01*
X135685203Y-104184926D01*
X135682053Y-104163691D01*
X135681000Y-104142250D01*
X135681000Y-103629750D01*
X135682053Y-103608309D01*
X135685203Y-103587074D01*
X135690419Y-103566250D01*
X135697651Y-103546038D01*
X135706830Y-103526632D01*
X135717866Y-103508219D01*
X135730654Y-103490976D01*
X135745070Y-103475070D01*
X135760976Y-103460654D01*
X135778219Y-103447866D01*
X135796632Y-103436830D01*
X135816038Y-103427651D01*
X135836250Y-103420419D01*
X135857074Y-103415203D01*
X135878309Y-103412053D01*
X135899750Y-103411000D01*
X136337250Y-103411000D01*
X136358691Y-103412053D01*
X136358691Y-103412053D01*
G37*
D16*
G04 #@! TD*
G04 #@! TO.P,R9,1*
G04 #@! TO.N,/Aout*
X136118500Y-103886000D03*
D13*
G04 #@! TO.N,Net-(R6-Pad1)*
G04 #@! TO.C,R9*
G36*
X137933691Y-103412053D02*
X137954926Y-103415203D01*
X137975750Y-103420419D01*
X137995962Y-103427651D01*
X138015368Y-103436830D01*
X138033781Y-103447866D01*
X138051024Y-103460654D01*
X138066930Y-103475070D01*
X138081346Y-103490976D01*
X138094134Y-103508219D01*
X138105170Y-103526632D01*
X138114349Y-103546038D01*
X138121581Y-103566250D01*
X138126797Y-103587074D01*
X138129947Y-103608309D01*
X138131000Y-103629750D01*
X138131000Y-104142250D01*
X138129947Y-104163691D01*
X138126797Y-104184926D01*
X138121581Y-104205750D01*
X138114349Y-104225962D01*
X138105170Y-104245368D01*
X138094134Y-104263781D01*
X138081346Y-104281024D01*
X138066930Y-104296930D01*
X138051024Y-104311346D01*
X138033781Y-104324134D01*
X138015368Y-104335170D01*
X137995962Y-104344349D01*
X137975750Y-104351581D01*
X137954926Y-104356797D01*
X137933691Y-104359947D01*
X137912250Y-104361000D01*
X137474750Y-104361000D01*
X137453309Y-104359947D01*
X137432074Y-104356797D01*
X137411250Y-104351581D01*
X137391038Y-104344349D01*
X137371632Y-104335170D01*
X137353219Y-104324134D01*
X137335976Y-104311346D01*
X137320070Y-104296930D01*
X137305654Y-104281024D01*
X137292866Y-104263781D01*
X137281830Y-104245368D01*
X137272651Y-104225962D01*
X137265419Y-104205750D01*
X137260203Y-104184926D01*
X137257053Y-104163691D01*
X137256000Y-104142250D01*
X137256000Y-103629750D01*
X137257053Y-103608309D01*
X137260203Y-103587074D01*
X137265419Y-103566250D01*
X137272651Y-103546038D01*
X137281830Y-103526632D01*
X137292866Y-103508219D01*
X137305654Y-103490976D01*
X137320070Y-103475070D01*
X137335976Y-103460654D01*
X137353219Y-103447866D01*
X137371632Y-103436830D01*
X137391038Y-103427651D01*
X137411250Y-103420419D01*
X137432074Y-103415203D01*
X137453309Y-103412053D01*
X137474750Y-103411000D01*
X137912250Y-103411000D01*
X137933691Y-103412053D01*
X137933691Y-103412053D01*
G37*
D16*
G04 #@! TD*
G04 #@! TO.P,R9,2*
G04 #@! TO.N,Net-(R6-Pad1)*
X137693500Y-103886000D03*
D13*
G04 #@! TO.N,+5VD*
G04 #@! TO.C,C10*
G36*
X142009691Y-106472053D02*
X142030926Y-106475203D01*
X142051750Y-106480419D01*
X142071962Y-106487651D01*
X142091368Y-106496830D01*
X142109781Y-106507866D01*
X142127024Y-106520654D01*
X142142930Y-106535070D01*
X142157346Y-106550976D01*
X142170134Y-106568219D01*
X142181170Y-106586632D01*
X142190349Y-106606038D01*
X142197581Y-106626250D01*
X142202797Y-106647074D01*
X142205947Y-106668309D01*
X142207000Y-106689750D01*
X142207000Y-107127250D01*
X142205947Y-107148691D01*
X142202797Y-107169926D01*
X142197581Y-107190750D01*
X142190349Y-107210962D01*
X142181170Y-107230368D01*
X142170134Y-107248781D01*
X142157346Y-107266024D01*
X142142930Y-107281930D01*
X142127024Y-107296346D01*
X142109781Y-107309134D01*
X142091368Y-107320170D01*
X142071962Y-107329349D01*
X142051750Y-107336581D01*
X142030926Y-107341797D01*
X142009691Y-107344947D01*
X141988250Y-107346000D01*
X141475750Y-107346000D01*
X141454309Y-107344947D01*
X141433074Y-107341797D01*
X141412250Y-107336581D01*
X141392038Y-107329349D01*
X141372632Y-107320170D01*
X141354219Y-107309134D01*
X141336976Y-107296346D01*
X141321070Y-107281930D01*
X141306654Y-107266024D01*
X141293866Y-107248781D01*
X141282830Y-107230368D01*
X141273651Y-107210962D01*
X141266419Y-107190750D01*
X141261203Y-107169926D01*
X141258053Y-107148691D01*
X141257000Y-107127250D01*
X141257000Y-106689750D01*
X141258053Y-106668309D01*
X141261203Y-106647074D01*
X141266419Y-106626250D01*
X141273651Y-106606038D01*
X141282830Y-106586632D01*
X141293866Y-106568219D01*
X141306654Y-106550976D01*
X141321070Y-106535070D01*
X141336976Y-106520654D01*
X141354219Y-106507866D01*
X141372632Y-106496830D01*
X141392038Y-106487651D01*
X141412250Y-106480419D01*
X141433074Y-106475203D01*
X141454309Y-106472053D01*
X141475750Y-106471000D01*
X141988250Y-106471000D01*
X142009691Y-106472053D01*
X142009691Y-106472053D01*
G37*
D16*
G04 #@! TD*
G04 #@! TO.P,C10,1*
G04 #@! TO.N,+5VD*
X141732000Y-106908500D03*
D13*
G04 #@! TO.N,GNDD*
G04 #@! TO.C,C10*
G36*
X142009691Y-108047053D02*
X142030926Y-108050203D01*
X142051750Y-108055419D01*
X142071962Y-108062651D01*
X142091368Y-108071830D01*
X142109781Y-108082866D01*
X142127024Y-108095654D01*
X142142930Y-108110070D01*
X142157346Y-108125976D01*
X142170134Y-108143219D01*
X142181170Y-108161632D01*
X142190349Y-108181038D01*
X142197581Y-108201250D01*
X142202797Y-108222074D01*
X142205947Y-108243309D01*
X142207000Y-108264750D01*
X142207000Y-108702250D01*
X142205947Y-108723691D01*
X142202797Y-108744926D01*
X142197581Y-108765750D01*
X142190349Y-108785962D01*
X142181170Y-108805368D01*
X142170134Y-108823781D01*
X142157346Y-108841024D01*
X142142930Y-108856930D01*
X142127024Y-108871346D01*
X142109781Y-108884134D01*
X142091368Y-108895170D01*
X142071962Y-108904349D01*
X142051750Y-108911581D01*
X142030926Y-108916797D01*
X142009691Y-108919947D01*
X141988250Y-108921000D01*
X141475750Y-108921000D01*
X141454309Y-108919947D01*
X141433074Y-108916797D01*
X141412250Y-108911581D01*
X141392038Y-108904349D01*
X141372632Y-108895170D01*
X141354219Y-108884134D01*
X141336976Y-108871346D01*
X141321070Y-108856930D01*
X141306654Y-108841024D01*
X141293866Y-108823781D01*
X141282830Y-108805368D01*
X141273651Y-108785962D01*
X141266419Y-108765750D01*
X141261203Y-108744926D01*
X141258053Y-108723691D01*
X141257000Y-108702250D01*
X141257000Y-108264750D01*
X141258053Y-108243309D01*
X141261203Y-108222074D01*
X141266419Y-108201250D01*
X141273651Y-108181038D01*
X141282830Y-108161632D01*
X141293866Y-108143219D01*
X141306654Y-108125976D01*
X141321070Y-108110070D01*
X141336976Y-108095654D01*
X141354219Y-108082866D01*
X141372632Y-108071830D01*
X141392038Y-108062651D01*
X141412250Y-108055419D01*
X141433074Y-108050203D01*
X141454309Y-108047053D01*
X141475750Y-108046000D01*
X141988250Y-108046000D01*
X142009691Y-108047053D01*
X142009691Y-108047053D01*
G37*
D16*
G04 #@! TD*
G04 #@! TO.P,C10,2*
G04 #@! TO.N,GNDD*
X141732000Y-108483500D03*
D13*
G04 #@! TO.N,GNDD*
G04 #@! TO.C,R10*
G36*
X130579691Y-88946053D02*
X130600926Y-88949203D01*
X130621750Y-88954419D01*
X130641962Y-88961651D01*
X130661368Y-88970830D01*
X130679781Y-88981866D01*
X130697024Y-88994654D01*
X130712930Y-89009070D01*
X130727346Y-89024976D01*
X130740134Y-89042219D01*
X130751170Y-89060632D01*
X130760349Y-89080038D01*
X130767581Y-89100250D01*
X130772797Y-89121074D01*
X130775947Y-89142309D01*
X130777000Y-89163750D01*
X130777000Y-89601250D01*
X130775947Y-89622691D01*
X130772797Y-89643926D01*
X130767581Y-89664750D01*
X130760349Y-89684962D01*
X130751170Y-89704368D01*
X130740134Y-89722781D01*
X130727346Y-89740024D01*
X130712930Y-89755930D01*
X130697024Y-89770346D01*
X130679781Y-89783134D01*
X130661368Y-89794170D01*
X130641962Y-89803349D01*
X130621750Y-89810581D01*
X130600926Y-89815797D01*
X130579691Y-89818947D01*
X130558250Y-89820000D01*
X130045750Y-89820000D01*
X130024309Y-89818947D01*
X130003074Y-89815797D01*
X129982250Y-89810581D01*
X129962038Y-89803349D01*
X129942632Y-89794170D01*
X129924219Y-89783134D01*
X129906976Y-89770346D01*
X129891070Y-89755930D01*
X129876654Y-89740024D01*
X129863866Y-89722781D01*
X129852830Y-89704368D01*
X129843651Y-89684962D01*
X129836419Y-89664750D01*
X129831203Y-89643926D01*
X129828053Y-89622691D01*
X129827000Y-89601250D01*
X129827000Y-89163750D01*
X129828053Y-89142309D01*
X129831203Y-89121074D01*
X129836419Y-89100250D01*
X129843651Y-89080038D01*
X129852830Y-89060632D01*
X129863866Y-89042219D01*
X129876654Y-89024976D01*
X129891070Y-89009070D01*
X129906976Y-88994654D01*
X129924219Y-88981866D01*
X129942632Y-88970830D01*
X129962038Y-88961651D01*
X129982250Y-88954419D01*
X130003074Y-88949203D01*
X130024309Y-88946053D01*
X130045750Y-88945000D01*
X130558250Y-88945000D01*
X130579691Y-88946053D01*
X130579691Y-88946053D01*
G37*
D16*
G04 #@! TD*
G04 #@! TO.P,R10,1*
G04 #@! TO.N,GNDD*
X130302000Y-89382500D03*
D13*
G04 #@! TO.N,+5VD*
G04 #@! TO.C,R10*
G36*
X130579691Y-90521053D02*
X130600926Y-90524203D01*
X130621750Y-90529419D01*
X130641962Y-90536651D01*
X130661368Y-90545830D01*
X130679781Y-90556866D01*
X130697024Y-90569654D01*
X130712930Y-90584070D01*
X130727346Y-90599976D01*
X130740134Y-90617219D01*
X130751170Y-90635632D01*
X130760349Y-90655038D01*
X130767581Y-90675250D01*
X130772797Y-90696074D01*
X130775947Y-90717309D01*
X130777000Y-90738750D01*
X130777000Y-91176250D01*
X130775947Y-91197691D01*
X130772797Y-91218926D01*
X130767581Y-91239750D01*
X130760349Y-91259962D01*
X130751170Y-91279368D01*
X130740134Y-91297781D01*
X130727346Y-91315024D01*
X130712930Y-91330930D01*
X130697024Y-91345346D01*
X130679781Y-91358134D01*
X130661368Y-91369170D01*
X130641962Y-91378349D01*
X130621750Y-91385581D01*
X130600926Y-91390797D01*
X130579691Y-91393947D01*
X130558250Y-91395000D01*
X130045750Y-91395000D01*
X130024309Y-91393947D01*
X130003074Y-91390797D01*
X129982250Y-91385581D01*
X129962038Y-91378349D01*
X129942632Y-91369170D01*
X129924219Y-91358134D01*
X129906976Y-91345346D01*
X129891070Y-91330930D01*
X129876654Y-91315024D01*
X129863866Y-91297781D01*
X129852830Y-91279368D01*
X129843651Y-91259962D01*
X129836419Y-91239750D01*
X129831203Y-91218926D01*
X129828053Y-91197691D01*
X129827000Y-91176250D01*
X129827000Y-90738750D01*
X129828053Y-90717309D01*
X129831203Y-90696074D01*
X129836419Y-90675250D01*
X129843651Y-90655038D01*
X129852830Y-90635632D01*
X129863866Y-90617219D01*
X129876654Y-90599976D01*
X129891070Y-90584070D01*
X129906976Y-90569654D01*
X129924219Y-90556866D01*
X129942632Y-90545830D01*
X129962038Y-90536651D01*
X129982250Y-90529419D01*
X130003074Y-90524203D01*
X130024309Y-90521053D01*
X130045750Y-90520000D01*
X130558250Y-90520000D01*
X130579691Y-90521053D01*
X130579691Y-90521053D01*
G37*
D16*
G04 #@! TD*
G04 #@! TO.P,R10,2*
G04 #@! TO.N,+5VD*
X130302000Y-90957500D03*
D13*
G04 #@! TO.N,+5VD*
G04 #@! TO.C,R11*
G36*
X132611691Y-90495553D02*
X132632926Y-90498703D01*
X132653750Y-90503919D01*
X132673962Y-90511151D01*
X132693368Y-90520330D01*
X132711781Y-90531366D01*
X132729024Y-90544154D01*
X132744930Y-90558570D01*
X132759346Y-90574476D01*
X132772134Y-90591719D01*
X132783170Y-90610132D01*
X132792349Y-90629538D01*
X132799581Y-90649750D01*
X132804797Y-90670574D01*
X132807947Y-90691809D01*
X132809000Y-90713250D01*
X132809000Y-91150750D01*
X132807947Y-91172191D01*
X132804797Y-91193426D01*
X132799581Y-91214250D01*
X132792349Y-91234462D01*
X132783170Y-91253868D01*
X132772134Y-91272281D01*
X132759346Y-91289524D01*
X132744930Y-91305430D01*
X132729024Y-91319846D01*
X132711781Y-91332634D01*
X132693368Y-91343670D01*
X132673962Y-91352849D01*
X132653750Y-91360081D01*
X132632926Y-91365297D01*
X132611691Y-91368447D01*
X132590250Y-91369500D01*
X132077750Y-91369500D01*
X132056309Y-91368447D01*
X132035074Y-91365297D01*
X132014250Y-91360081D01*
X131994038Y-91352849D01*
X131974632Y-91343670D01*
X131956219Y-91332634D01*
X131938976Y-91319846D01*
X131923070Y-91305430D01*
X131908654Y-91289524D01*
X131895866Y-91272281D01*
X131884830Y-91253868D01*
X131875651Y-91234462D01*
X131868419Y-91214250D01*
X131863203Y-91193426D01*
X131860053Y-91172191D01*
X131859000Y-91150750D01*
X131859000Y-90713250D01*
X131860053Y-90691809D01*
X131863203Y-90670574D01*
X131868419Y-90649750D01*
X131875651Y-90629538D01*
X131884830Y-90610132D01*
X131895866Y-90591719D01*
X131908654Y-90574476D01*
X131923070Y-90558570D01*
X131938976Y-90544154D01*
X131956219Y-90531366D01*
X131974632Y-90520330D01*
X131994038Y-90511151D01*
X132014250Y-90503919D01*
X132035074Y-90498703D01*
X132056309Y-90495553D01*
X132077750Y-90494500D01*
X132590250Y-90494500D01*
X132611691Y-90495553D01*
X132611691Y-90495553D01*
G37*
D16*
G04 #@! TD*
G04 #@! TO.P,R11,2*
G04 #@! TO.N,+5VD*
X132334000Y-90932000D03*
D13*
G04 #@! TO.N,GNDD*
G04 #@! TO.C,R11*
G36*
X132611691Y-88920553D02*
X132632926Y-88923703D01*
X132653750Y-88928919D01*
X132673962Y-88936151D01*
X132693368Y-88945330D01*
X132711781Y-88956366D01*
X132729024Y-88969154D01*
X132744930Y-88983570D01*
X132759346Y-88999476D01*
X132772134Y-89016719D01*
X132783170Y-89035132D01*
X132792349Y-89054538D01*
X132799581Y-89074750D01*
X132804797Y-89095574D01*
X132807947Y-89116809D01*
X132809000Y-89138250D01*
X132809000Y-89575750D01*
X132807947Y-89597191D01*
X132804797Y-89618426D01*
X132799581Y-89639250D01*
X132792349Y-89659462D01*
X132783170Y-89678868D01*
X132772134Y-89697281D01*
X132759346Y-89714524D01*
X132744930Y-89730430D01*
X132729024Y-89744846D01*
X132711781Y-89757634D01*
X132693368Y-89768670D01*
X132673962Y-89777849D01*
X132653750Y-89785081D01*
X132632926Y-89790297D01*
X132611691Y-89793447D01*
X132590250Y-89794500D01*
X132077750Y-89794500D01*
X132056309Y-89793447D01*
X132035074Y-89790297D01*
X132014250Y-89785081D01*
X131994038Y-89777849D01*
X131974632Y-89768670D01*
X131956219Y-89757634D01*
X131938976Y-89744846D01*
X131923070Y-89730430D01*
X131908654Y-89714524D01*
X131895866Y-89697281D01*
X131884830Y-89678868D01*
X131875651Y-89659462D01*
X131868419Y-89639250D01*
X131863203Y-89618426D01*
X131860053Y-89597191D01*
X131859000Y-89575750D01*
X131859000Y-89138250D01*
X131860053Y-89116809D01*
X131863203Y-89095574D01*
X131868419Y-89074750D01*
X131875651Y-89054538D01*
X131884830Y-89035132D01*
X131895866Y-89016719D01*
X131908654Y-88999476D01*
X131923070Y-88983570D01*
X131938976Y-88969154D01*
X131956219Y-88956366D01*
X131974632Y-88945330D01*
X131994038Y-88936151D01*
X132014250Y-88928919D01*
X132035074Y-88923703D01*
X132056309Y-88920553D01*
X132077750Y-88919500D01*
X132590250Y-88919500D01*
X132611691Y-88920553D01*
X132611691Y-88920553D01*
G37*
D16*
G04 #@! TD*
G04 #@! TO.P,R11,1*
G04 #@! TO.N,GNDD*
X132334000Y-89357000D03*
D13*
G04 #@! TO.N,GNDD*
G04 #@! TO.C,R12*
G36*
X134643691Y-88920553D02*
X134664926Y-88923703D01*
X134685750Y-88928919D01*
X134705962Y-88936151D01*
X134725368Y-88945330D01*
X134743781Y-88956366D01*
X134761024Y-88969154D01*
X134776930Y-88983570D01*
X134791346Y-88999476D01*
X134804134Y-89016719D01*
X134815170Y-89035132D01*
X134824349Y-89054538D01*
X134831581Y-89074750D01*
X134836797Y-89095574D01*
X134839947Y-89116809D01*
X134841000Y-89138250D01*
X134841000Y-89575750D01*
X134839947Y-89597191D01*
X134836797Y-89618426D01*
X134831581Y-89639250D01*
X134824349Y-89659462D01*
X134815170Y-89678868D01*
X134804134Y-89697281D01*
X134791346Y-89714524D01*
X134776930Y-89730430D01*
X134761024Y-89744846D01*
X134743781Y-89757634D01*
X134725368Y-89768670D01*
X134705962Y-89777849D01*
X134685750Y-89785081D01*
X134664926Y-89790297D01*
X134643691Y-89793447D01*
X134622250Y-89794500D01*
X134109750Y-89794500D01*
X134088309Y-89793447D01*
X134067074Y-89790297D01*
X134046250Y-89785081D01*
X134026038Y-89777849D01*
X134006632Y-89768670D01*
X133988219Y-89757634D01*
X133970976Y-89744846D01*
X133955070Y-89730430D01*
X133940654Y-89714524D01*
X133927866Y-89697281D01*
X133916830Y-89678868D01*
X133907651Y-89659462D01*
X133900419Y-89639250D01*
X133895203Y-89618426D01*
X133892053Y-89597191D01*
X133891000Y-89575750D01*
X133891000Y-89138250D01*
X133892053Y-89116809D01*
X133895203Y-89095574D01*
X133900419Y-89074750D01*
X133907651Y-89054538D01*
X133916830Y-89035132D01*
X133927866Y-89016719D01*
X133940654Y-88999476D01*
X133955070Y-88983570D01*
X133970976Y-88969154D01*
X133988219Y-88956366D01*
X134006632Y-88945330D01*
X134026038Y-88936151D01*
X134046250Y-88928919D01*
X134067074Y-88923703D01*
X134088309Y-88920553D01*
X134109750Y-88919500D01*
X134622250Y-88919500D01*
X134643691Y-88920553D01*
X134643691Y-88920553D01*
G37*
D16*
G04 #@! TD*
G04 #@! TO.P,R12,1*
G04 #@! TO.N,GNDD*
X134366000Y-89357000D03*
D13*
G04 #@! TO.N,+5VD*
G04 #@! TO.C,R12*
G36*
X134643691Y-90495553D02*
X134664926Y-90498703D01*
X134685750Y-90503919D01*
X134705962Y-90511151D01*
X134725368Y-90520330D01*
X134743781Y-90531366D01*
X134761024Y-90544154D01*
X134776930Y-90558570D01*
X134791346Y-90574476D01*
X134804134Y-90591719D01*
X134815170Y-90610132D01*
X134824349Y-90629538D01*
X134831581Y-90649750D01*
X134836797Y-90670574D01*
X134839947Y-90691809D01*
X134841000Y-90713250D01*
X134841000Y-91150750D01*
X134839947Y-91172191D01*
X134836797Y-91193426D01*
X134831581Y-91214250D01*
X134824349Y-91234462D01*
X134815170Y-91253868D01*
X134804134Y-91272281D01*
X134791346Y-91289524D01*
X134776930Y-91305430D01*
X134761024Y-91319846D01*
X134743781Y-91332634D01*
X134725368Y-91343670D01*
X134705962Y-91352849D01*
X134685750Y-91360081D01*
X134664926Y-91365297D01*
X134643691Y-91368447D01*
X134622250Y-91369500D01*
X134109750Y-91369500D01*
X134088309Y-91368447D01*
X134067074Y-91365297D01*
X134046250Y-91360081D01*
X134026038Y-91352849D01*
X134006632Y-91343670D01*
X133988219Y-91332634D01*
X133970976Y-91319846D01*
X133955070Y-91305430D01*
X133940654Y-91289524D01*
X133927866Y-91272281D01*
X133916830Y-91253868D01*
X133907651Y-91234462D01*
X133900419Y-91214250D01*
X133895203Y-91193426D01*
X133892053Y-91172191D01*
X133891000Y-91150750D01*
X133891000Y-90713250D01*
X133892053Y-90691809D01*
X133895203Y-90670574D01*
X133900419Y-90649750D01*
X133907651Y-90629538D01*
X133916830Y-90610132D01*
X133927866Y-90591719D01*
X133940654Y-90574476D01*
X133955070Y-90558570D01*
X133970976Y-90544154D01*
X133988219Y-90531366D01*
X134006632Y-90520330D01*
X134026038Y-90511151D01*
X134046250Y-90503919D01*
X134067074Y-90498703D01*
X134088309Y-90495553D01*
X134109750Y-90494500D01*
X134622250Y-90494500D01*
X134643691Y-90495553D01*
X134643691Y-90495553D01*
G37*
D16*
G04 #@! TD*
G04 #@! TO.P,R12,2*
G04 #@! TO.N,+5VD*
X134366000Y-90932000D03*
D13*
G04 #@! TO.N,Net-(C11-Pad1)*
G04 #@! TO.C,C11*
G36*
X137908191Y-101888053D02*
X137929426Y-101891203D01*
X137950250Y-101896419D01*
X137970462Y-101903651D01*
X137989868Y-101912830D01*
X138008281Y-101923866D01*
X138025524Y-101936654D01*
X138041430Y-101951070D01*
X138055846Y-101966976D01*
X138068634Y-101984219D01*
X138079670Y-102002632D01*
X138088849Y-102022038D01*
X138096081Y-102042250D01*
X138101297Y-102063074D01*
X138104447Y-102084309D01*
X138105500Y-102105750D01*
X138105500Y-102618250D01*
X138104447Y-102639691D01*
X138101297Y-102660926D01*
X138096081Y-102681750D01*
X138088849Y-102701962D01*
X138079670Y-102721368D01*
X138068634Y-102739781D01*
X138055846Y-102757024D01*
X138041430Y-102772930D01*
X138025524Y-102787346D01*
X138008281Y-102800134D01*
X137989868Y-102811170D01*
X137970462Y-102820349D01*
X137950250Y-102827581D01*
X137929426Y-102832797D01*
X137908191Y-102835947D01*
X137886750Y-102837000D01*
X137449250Y-102837000D01*
X137427809Y-102835947D01*
X137406574Y-102832797D01*
X137385750Y-102827581D01*
X137365538Y-102820349D01*
X137346132Y-102811170D01*
X137327719Y-102800134D01*
X137310476Y-102787346D01*
X137294570Y-102772930D01*
X137280154Y-102757024D01*
X137267366Y-102739781D01*
X137256330Y-102721368D01*
X137247151Y-102701962D01*
X137239919Y-102681750D01*
X137234703Y-102660926D01*
X137231553Y-102639691D01*
X137230500Y-102618250D01*
X137230500Y-102105750D01*
X137231553Y-102084309D01*
X137234703Y-102063074D01*
X137239919Y-102042250D01*
X137247151Y-102022038D01*
X137256330Y-102002632D01*
X137267366Y-101984219D01*
X137280154Y-101966976D01*
X137294570Y-101951070D01*
X137310476Y-101936654D01*
X137327719Y-101923866D01*
X137346132Y-101912830D01*
X137365538Y-101903651D01*
X137385750Y-101896419D01*
X137406574Y-101891203D01*
X137427809Y-101888053D01*
X137449250Y-101887000D01*
X137886750Y-101887000D01*
X137908191Y-101888053D01*
X137908191Y-101888053D01*
G37*
D16*
G04 #@! TD*
G04 #@! TO.P,C11,1*
G04 #@! TO.N,Net-(C11-Pad1)*
X137668000Y-102362000D03*
D13*
G04 #@! TO.N,/Aout*
G04 #@! TO.C,C11*
G36*
X136333191Y-101888053D02*
X136354426Y-101891203D01*
X136375250Y-101896419D01*
X136395462Y-101903651D01*
X136414868Y-101912830D01*
X136433281Y-101923866D01*
X136450524Y-101936654D01*
X136466430Y-101951070D01*
X136480846Y-101966976D01*
X136493634Y-101984219D01*
X136504670Y-102002632D01*
X136513849Y-102022038D01*
X136521081Y-102042250D01*
X136526297Y-102063074D01*
X136529447Y-102084309D01*
X136530500Y-102105750D01*
X136530500Y-102618250D01*
X136529447Y-102639691D01*
X136526297Y-102660926D01*
X136521081Y-102681750D01*
X136513849Y-102701962D01*
X136504670Y-102721368D01*
X136493634Y-102739781D01*
X136480846Y-102757024D01*
X136466430Y-102772930D01*
X136450524Y-102787346D01*
X136433281Y-102800134D01*
X136414868Y-102811170D01*
X136395462Y-102820349D01*
X136375250Y-102827581D01*
X136354426Y-102832797D01*
X136333191Y-102835947D01*
X136311750Y-102837000D01*
X135874250Y-102837000D01*
X135852809Y-102835947D01*
X135831574Y-102832797D01*
X135810750Y-102827581D01*
X135790538Y-102820349D01*
X135771132Y-102811170D01*
X135752719Y-102800134D01*
X135735476Y-102787346D01*
X135719570Y-102772930D01*
X135705154Y-102757024D01*
X135692366Y-102739781D01*
X135681330Y-102721368D01*
X135672151Y-102701962D01*
X135664919Y-102681750D01*
X135659703Y-102660926D01*
X135656553Y-102639691D01*
X135655500Y-102618250D01*
X135655500Y-102105750D01*
X135656553Y-102084309D01*
X135659703Y-102063074D01*
X135664919Y-102042250D01*
X135672151Y-102022038D01*
X135681330Y-102002632D01*
X135692366Y-101984219D01*
X135705154Y-101966976D01*
X135719570Y-101951070D01*
X135735476Y-101936654D01*
X135752719Y-101923866D01*
X135771132Y-101912830D01*
X135790538Y-101903651D01*
X135810750Y-101896419D01*
X135831574Y-101891203D01*
X135852809Y-101888053D01*
X135874250Y-101887000D01*
X136311750Y-101887000D01*
X136333191Y-101888053D01*
X136333191Y-101888053D01*
G37*
D16*
G04 #@! TD*
G04 #@! TO.P,C11,2*
G04 #@! TO.N,/Aout*
X136093000Y-102362000D03*
D13*
G04 #@! TO.N,Net-(R13-Pad1)*
G04 #@! TO.C,R13*
G36*
X136358691Y-100364053D02*
X136379926Y-100367203D01*
X136400750Y-100372419D01*
X136420962Y-100379651D01*
X136440368Y-100388830D01*
X136458781Y-100399866D01*
X136476024Y-100412654D01*
X136491930Y-100427070D01*
X136506346Y-100442976D01*
X136519134Y-100460219D01*
X136530170Y-100478632D01*
X136539349Y-100498038D01*
X136546581Y-100518250D01*
X136551797Y-100539074D01*
X136554947Y-100560309D01*
X136556000Y-100581750D01*
X136556000Y-101094250D01*
X136554947Y-101115691D01*
X136551797Y-101136926D01*
X136546581Y-101157750D01*
X136539349Y-101177962D01*
X136530170Y-101197368D01*
X136519134Y-101215781D01*
X136506346Y-101233024D01*
X136491930Y-101248930D01*
X136476024Y-101263346D01*
X136458781Y-101276134D01*
X136440368Y-101287170D01*
X136420962Y-101296349D01*
X136400750Y-101303581D01*
X136379926Y-101308797D01*
X136358691Y-101311947D01*
X136337250Y-101313000D01*
X135899750Y-101313000D01*
X135878309Y-101311947D01*
X135857074Y-101308797D01*
X135836250Y-101303581D01*
X135816038Y-101296349D01*
X135796632Y-101287170D01*
X135778219Y-101276134D01*
X135760976Y-101263346D01*
X135745070Y-101248930D01*
X135730654Y-101233024D01*
X135717866Y-101215781D01*
X135706830Y-101197368D01*
X135697651Y-101177962D01*
X135690419Y-101157750D01*
X135685203Y-101136926D01*
X135682053Y-101115691D01*
X135681000Y-101094250D01*
X135681000Y-100581750D01*
X135682053Y-100560309D01*
X135685203Y-100539074D01*
X135690419Y-100518250D01*
X135697651Y-100498038D01*
X135706830Y-100478632D01*
X135717866Y-100460219D01*
X135730654Y-100442976D01*
X135745070Y-100427070D01*
X135760976Y-100412654D01*
X135778219Y-100399866D01*
X135796632Y-100388830D01*
X135816038Y-100379651D01*
X135836250Y-100372419D01*
X135857074Y-100367203D01*
X135878309Y-100364053D01*
X135899750Y-100363000D01*
X136337250Y-100363000D01*
X136358691Y-100364053D01*
X136358691Y-100364053D01*
G37*
D16*
G04 #@! TD*
G04 #@! TO.P,R13,1*
G04 #@! TO.N,Net-(R13-Pad1)*
X136118500Y-100838000D03*
D13*
G04 #@! TO.N,Net-(C11-Pad1)*
G04 #@! TO.C,R13*
G36*
X137933691Y-100364053D02*
X137954926Y-100367203D01*
X137975750Y-100372419D01*
X137995962Y-100379651D01*
X138015368Y-100388830D01*
X138033781Y-100399866D01*
X138051024Y-100412654D01*
X138066930Y-100427070D01*
X138081346Y-100442976D01*
X138094134Y-100460219D01*
X138105170Y-100478632D01*
X138114349Y-100498038D01*
X138121581Y-100518250D01*
X138126797Y-100539074D01*
X138129947Y-100560309D01*
X138131000Y-100581750D01*
X138131000Y-101094250D01*
X138129947Y-101115691D01*
X138126797Y-101136926D01*
X138121581Y-101157750D01*
X138114349Y-101177962D01*
X138105170Y-101197368D01*
X138094134Y-101215781D01*
X138081346Y-101233024D01*
X138066930Y-101248930D01*
X138051024Y-101263346D01*
X138033781Y-101276134D01*
X138015368Y-101287170D01*
X137995962Y-101296349D01*
X137975750Y-101303581D01*
X137954926Y-101308797D01*
X137933691Y-101311947D01*
X137912250Y-101313000D01*
X137474750Y-101313000D01*
X137453309Y-101311947D01*
X137432074Y-101308797D01*
X137411250Y-101303581D01*
X137391038Y-101296349D01*
X137371632Y-101287170D01*
X137353219Y-101276134D01*
X137335976Y-101263346D01*
X137320070Y-101248930D01*
X137305654Y-101233024D01*
X137292866Y-101215781D01*
X137281830Y-101197368D01*
X137272651Y-101177962D01*
X137265419Y-101157750D01*
X137260203Y-101136926D01*
X137257053Y-101115691D01*
X137256000Y-101094250D01*
X137256000Y-100581750D01*
X137257053Y-100560309D01*
X137260203Y-100539074D01*
X137265419Y-100518250D01*
X137272651Y-100498038D01*
X137281830Y-100478632D01*
X137292866Y-100460219D01*
X137305654Y-100442976D01*
X137320070Y-100427070D01*
X137335976Y-100412654D01*
X137353219Y-100399866D01*
X137371632Y-100388830D01*
X137391038Y-100379651D01*
X137411250Y-100372419D01*
X137432074Y-100367203D01*
X137453309Y-100364053D01*
X137474750Y-100363000D01*
X137912250Y-100363000D01*
X137933691Y-100364053D01*
X137933691Y-100364053D01*
G37*
D16*
G04 #@! TD*
G04 #@! TO.P,R13,2*
G04 #@! TO.N,Net-(C11-Pad1)*
X137693500Y-100838000D03*
D24*
G04 #@! TO.N,*
X156718000Y-102616000D03*
G04 #@! TO.N,GND*
X115570000Y-105410000D03*
X114046000Y-105410000D03*
D25*
G04 #@! TO.N,+5V*
X109728000Y-99568000D03*
D24*
G04 #@! TO.N,+5VD*
X123444000Y-99060000D03*
X138938000Y-105664000D03*
X128270000Y-110490000D03*
X121158000Y-108966000D03*
G04 #@! TO.N,GNDD*
X123190000Y-105156000D03*
X125222000Y-106934000D03*
X137668000Y-107950000D03*
X137668000Y-109220000D03*
X136144000Y-92710000D03*
X137668000Y-92710000D03*
X139192000Y-92710000D03*
X147320000Y-87630000D03*
X147320000Y-89662000D03*
X145542000Y-87630000D03*
X140208000Y-116078000D03*
X132080000Y-116078000D03*
X143764000Y-94488000D03*
X145034000Y-94488000D03*
X146304000Y-94488000D03*
X134620000Y-100838000D03*
G04 #@! TO.N,/SWIM*
X125222000Y-103632000D03*
G04 #@! TD*
D26*
G04 #@! TO.N,*
X156718000Y-102616000D02*
X155702000Y-102616000D01*
X155702000Y-101346000D02*
X155702000Y-102616000D01*
X154940000Y-100584000D02*
X155702000Y-101346000D01*
X145542000Y-100584000D02*
X154940000Y-100584000D01*
X145034000Y-101092000D02*
X145542000Y-100584000D01*
X154940000Y-103378000D02*
X150876000Y-103378000D01*
X155702000Y-102616000D02*
X154940000Y-103378000D01*
X149352000Y-101854000D02*
X145542000Y-101854000D01*
X145542000Y-101854000D02*
X145034000Y-101346000D01*
X150876000Y-103378000D02*
X149352000Y-101854000D01*
X145034000Y-101346000D02*
X145034000Y-101092000D01*
D27*
G04 #@! TO.N,+5V*
X116078000Y-93472000D02*
X116078000Y-92202000D01*
X115316000Y-97028000D02*
X115316000Y-95250000D01*
X115316000Y-94234000D02*
X116078000Y-93472000D01*
X115316000Y-95250000D02*
X115316000Y-94234000D01*
X115410000Y-97122000D02*
X115316000Y-97028000D01*
X115410000Y-99695000D02*
X115410000Y-97122000D01*
X115410000Y-99695000D02*
X109855000Y-99695000D01*
X109855000Y-99695000D02*
X109728000Y-99568000D01*
G04 #@! TO.N,+5VD*
X124520860Y-90932000D02*
X124460000Y-90871140D01*
X126497000Y-90932000D02*
X124520860Y-90932000D01*
X121158000Y-92202000D02*
X121412000Y-92202000D01*
X122742860Y-90871140D02*
X124460000Y-90871140D01*
X121412000Y-92202000D02*
X122742860Y-90871140D01*
X126492000Y-94437000D02*
X128460500Y-94437000D01*
X130365500Y-96012000D02*
X132334000Y-96012000D01*
X128790500Y-94437000D02*
X130365500Y-96012000D01*
X128460500Y-94437000D02*
X128790500Y-94437000D01*
X126497000Y-94432000D02*
X126492000Y-94437000D01*
X126497000Y-90932000D02*
X126497000Y-94432000D01*
X128460500Y-94043500D02*
X128460500Y-94437000D01*
X120810000Y-99695000D02*
X122809000Y-99695000D01*
X124968000Y-97536000D02*
X124968000Y-94996000D01*
X125527000Y-94437000D02*
X126492000Y-94437000D01*
X124968000Y-94996000D02*
X125527000Y-94437000D01*
X131385632Y-108712000D02*
X131385632Y-109660368D01*
X131385632Y-109660368D02*
X130556000Y-110490000D01*
X122809000Y-99695000D02*
X123444000Y-99060000D01*
X123444000Y-99060000D02*
X124968000Y-97536000D01*
X134366000Y-90932000D02*
X132334000Y-90932000D01*
X130327500Y-90932000D02*
X130302000Y-90957500D01*
X132334000Y-90932000D02*
X130327500Y-90932000D01*
X130302000Y-90957500D02*
X130302000Y-92202000D01*
X130302000Y-92202000D02*
X128460500Y-94043500D01*
X134366000Y-90932000D02*
X135128000Y-90932000D01*
X136711500Y-89348500D02*
X138176000Y-89348500D01*
X135128000Y-90932000D02*
X136711500Y-89348500D01*
X121158000Y-115824000D02*
X121158000Y-108966000D01*
X127000000Y-108772860D02*
X127000000Y-109728000D01*
X127000000Y-109728000D02*
X127762000Y-110490000D01*
X140182500Y-106908500D02*
X138938000Y-105664000D01*
X141732000Y-106908500D02*
X140182500Y-106908500D01*
X130365500Y-98361500D02*
X130365500Y-96012000D01*
X133252000Y-99579000D02*
X131583000Y-99579000D01*
X131583000Y-99579000D02*
X130365500Y-98361500D01*
X127762000Y-110490000D02*
X128270000Y-110490000D01*
X128270000Y-110490000D02*
X130556000Y-110490000D01*
X140843000Y-103759000D02*
X138938000Y-105664000D01*
X141318000Y-103759000D02*
X140843000Y-103759000D01*
X121351140Y-108772860D02*
X121158000Y-108966000D01*
X127000000Y-108772860D02*
X121351140Y-108772860D01*
D26*
G04 #@! TO.N,GNDD*
X134620000Y-116078000D02*
X137414000Y-116078000D01*
X137414000Y-116078000D02*
X139192000Y-116078000D01*
X139192000Y-116078000D02*
X140208000Y-116078000D01*
X134620000Y-116078000D02*
X132080000Y-116078000D01*
X128808360Y-90876140D02*
X130302000Y-89382500D01*
X128524000Y-90876140D02*
X128808360Y-90876140D01*
X133252000Y-100879000D02*
X134579000Y-100879000D01*
X134579000Y-100879000D02*
X134620000Y-100838000D01*
G04 #@! TO.N,/NRST*
X132588000Y-107137000D02*
X132588000Y-109728000D01*
X132588000Y-107137000D02*
X133604000Y-107137000D01*
X131385632Y-107137000D02*
X132588000Y-107137000D01*
X128778000Y-113538000D02*
X128778000Y-116078000D01*
X132588000Y-109728000D02*
X128778000Y-113538000D01*
X133252000Y-102829000D02*
X131867000Y-102829000D01*
X131385632Y-103310368D02*
X131385632Y-107137000D01*
X131867000Y-102829000D02*
X131385632Y-103310368D01*
G04 #@! TO.N,Net-(C5-Pad1)*
X134366000Y-96774000D02*
X134366000Y-96012000D01*
X135636000Y-98044000D02*
X134366000Y-96774000D01*
X133252000Y-100229000D02*
X134213000Y-100229000D01*
X134213000Y-100229000D02*
X135636000Y-98806000D01*
X135636000Y-98806000D02*
X135636000Y-98044000D01*
G04 #@! TO.N,Net-(C6-Pad1)*
X142181500Y-90923500D02*
X142174000Y-90916000D01*
X144272000Y-90923500D02*
X142181500Y-90923500D01*
X140266500Y-90923500D02*
X140274000Y-90916000D01*
X138176000Y-90923500D02*
X140266500Y-90923500D01*
X142174000Y-90916000D02*
X140274000Y-90916000D01*
X152400000Y-99314000D02*
X152400000Y-93218000D01*
X150105500Y-90923500D02*
X152400000Y-93218000D01*
X140208000Y-99839000D02*
X140318000Y-99949000D01*
X140208000Y-97028000D02*
X140208000Y-99839000D01*
X141478000Y-97028000D02*
X140208000Y-97028000D01*
X142174000Y-90916000D02*
X142174000Y-96332000D01*
X142174000Y-96332000D02*
X141478000Y-97028000D01*
X150105500Y-90923500D02*
X144272000Y-90923500D01*
X141318000Y-99949000D02*
X140318000Y-99949000D01*
G04 #@! TO.N,/SWIM*
X127352000Y-103479000D02*
X125375000Y-103479000D01*
X125375000Y-103479000D02*
X125222000Y-103632000D01*
G04 #@! TO.N,Net-(J3-PadS)*
X150114000Y-101854000D02*
X152400000Y-101854000D01*
X146718000Y-101219000D02*
X149479000Y-101219000D01*
X149479000Y-101219000D02*
X150114000Y-101854000D01*
G04 #@! TO.N,/I2C_SCL*
X120810000Y-102235000D02*
X123063000Y-102235000D01*
X125719000Y-99579000D02*
X127352000Y-99579000D01*
X123063000Y-102235000D02*
X125719000Y-99579000D01*
X127352000Y-99579000D02*
X128767000Y-99579000D01*
X128767000Y-99579000D02*
X129032000Y-99314000D01*
X129032000Y-99314000D02*
X129032000Y-97282000D01*
X128460500Y-96710500D02*
X128460500Y-96012000D01*
X129032000Y-97282000D02*
X128460500Y-96710500D01*
G04 #@! TO.N,/I2C_SDA*
X127352000Y-98929000D02*
X125353000Y-98929000D01*
X123317000Y-100965000D02*
X120810000Y-100965000D01*
X125353000Y-98929000D02*
X123317000Y-100965000D01*
X126492000Y-97790000D02*
X125353000Y-98929000D01*
X126492000Y-96012000D02*
X126492000Y-97790000D01*
G04 #@! TO.N,Net-(R5-Pad2)*
X148844000Y-106934000D02*
X145796000Y-106934000D01*
X149606000Y-106172000D02*
X148844000Y-106934000D01*
X149606000Y-103886000D02*
X149606000Y-106172000D01*
X149606000Y-103124000D02*
X149606000Y-103886000D01*
X146718000Y-102489000D02*
X148971000Y-102489000D01*
X148971000Y-102489000D02*
X149606000Y-103124000D01*
X149479000Y-103759000D02*
X149606000Y-103886000D01*
X146718000Y-103759000D02*
X149479000Y-103759000D01*
G04 #@! TO.N,Net-(R5-Pad1)*
X145796000Y-108509000D02*
X144780000Y-108509000D01*
X144780000Y-108509000D02*
X143764000Y-108509000D01*
X142621000Y-101219000D02*
X141318000Y-101219000D01*
X144780000Y-108509000D02*
X144780000Y-103378000D01*
X144780000Y-103378000D02*
X142621000Y-101219000D01*
G04 #@! TO.N,/Aout*
X133252000Y-103479000D02*
X134975000Y-103479000D01*
X135382000Y-103886000D02*
X136118500Y-103886000D01*
X134975000Y-103479000D02*
X135382000Y-103886000D01*
X136093000Y-103860500D02*
X136118500Y-103886000D01*
X136093000Y-102362000D02*
X136093000Y-103860500D01*
G04 #@! TO.N,Net-(D3-Pad1)*
X127352000Y-104779000D02*
X128147000Y-104779000D01*
X129177266Y-105809266D02*
X129177266Y-107132000D01*
X128147000Y-104779000D02*
X129177266Y-105809266D01*
G04 #@! TO.N,Net-(D2-Pad2)*
X128508140Y-89235280D02*
X128524000Y-89251140D01*
X126497000Y-89235280D02*
X128508140Y-89235280D01*
G04 #@! TO.N,Net-(D3-Pad2)*
X129161406Y-108772860D02*
X129177266Y-108757000D01*
X129177266Y-108757000D02*
X128823000Y-108757000D01*
X127142140Y-107076140D02*
X127000000Y-107076140D01*
X128823000Y-108757000D02*
X127142140Y-107076140D01*
G04 #@! TO.N,/SCL*
X107863000Y-102235000D02*
X106934000Y-103164000D01*
X115410000Y-102235000D02*
X107863000Y-102235000D01*
G04 #@! TO.N,/SDA*
X107235000Y-100965000D02*
X106934000Y-100664000D01*
X115410000Y-100965000D02*
X107235000Y-100965000D01*
G04 #@! TO.N,/ADDR1*
X134620000Y-114628000D02*
X134620000Y-111506000D01*
X133252000Y-104779000D02*
X134243000Y-104779000D01*
X134243000Y-104779000D02*
X134874000Y-105410000D01*
X134874000Y-111252000D02*
X134620000Y-111506000D01*
X134874000Y-105410000D02*
X134874000Y-111252000D01*
G04 #@! TO.N,/ADDR2*
X137414000Y-111506000D02*
X137414000Y-114628000D01*
X135382000Y-109474000D02*
X137414000Y-111506000D01*
X135382000Y-105156000D02*
X135382000Y-109474000D01*
X133252000Y-104129000D02*
X134355000Y-104129000D01*
X134355000Y-104129000D02*
X135382000Y-105156000D01*
G04 #@! TO.N,Net-(R6-Pad1)*
X139090500Y-102489000D02*
X137693500Y-103886000D01*
X141318000Y-102489000D02*
X139090500Y-102489000D01*
X142367000Y-102489000D02*
X141318000Y-102489000D01*
X143764000Y-106934000D02*
X143764000Y-103886000D01*
X143764000Y-103886000D02*
X142367000Y-102489000D01*
G04 #@! TO.N,Net-(C11-Pad1)*
X137668000Y-100863500D02*
X137693500Y-100838000D01*
X137668000Y-102362000D02*
X137668000Y-100863500D01*
G04 #@! TO.N,Net-(R13-Pad1)*
X134549000Y-102179000D02*
X133252000Y-102179000D01*
X136118500Y-100838000D02*
X135890000Y-100838000D01*
X135890000Y-100838000D02*
X134549000Y-102179000D01*
G04 #@! TD*
D28*
G04 #@! TO.N,GND*
G36*
X116713000Y-90952923D02*
X116355881Y-90805000D01*
X115800119Y-90805000D01*
X115286663Y-91017680D01*
X114893680Y-91410663D01*
X114814572Y-91601647D01*
X114760397Y-91470857D01*
X114518213Y-91401392D01*
X113717605Y-92202000D01*
X114518213Y-93002608D01*
X114760397Y-92933143D01*
X114810535Y-92792607D01*
X114893680Y-92993337D01*
X115134738Y-93234395D01*
X114783718Y-93585415D01*
X114714000Y-93631999D01*
X114667416Y-93701717D01*
X114529448Y-93908200D01*
X114469751Y-94208321D01*
X114304809Y-94140000D01*
X114026750Y-94140000D01*
X113868000Y-94298750D01*
X113868000Y-95123000D01*
X113888000Y-95123000D01*
X113888000Y-95377000D01*
X113868000Y-95377000D01*
X113868000Y-96901000D01*
X113888000Y-96901000D01*
X113888000Y-97155000D01*
X113868000Y-97155000D01*
X113868000Y-97979250D01*
X114026750Y-98138000D01*
X114304809Y-98138000D01*
X114538198Y-98041327D01*
X114575001Y-98004525D01*
X114575000Y-98759495D01*
X114387235Y-98796843D01*
X114292715Y-98860000D01*
X110625133Y-98860000D01*
X110370926Y-98605793D01*
X109953766Y-98433000D01*
X109502234Y-98433000D01*
X109085074Y-98605793D01*
X108765793Y-98925074D01*
X108593000Y-99342234D01*
X108593000Y-99793766D01*
X108763338Y-100205000D01*
X108481792Y-100205000D01*
X108457839Y-100084582D01*
X108129625Y-99593375D01*
X107856313Y-99410754D01*
X108261497Y-99035193D01*
X108500476Y-98520890D01*
X108379155Y-98291000D01*
X107061000Y-98291000D01*
X107061000Y-98311000D01*
X106807000Y-98311000D01*
X106807000Y-98291000D01*
X105488845Y-98291000D01*
X105367524Y-98520890D01*
X105606503Y-99035193D01*
X106011687Y-99410754D01*
X105738375Y-99593375D01*
X105410161Y-100084582D01*
X105294908Y-100664000D01*
X105410161Y-101243418D01*
X105738375Y-101734625D01*
X106006829Y-101914000D01*
X105738375Y-102093375D01*
X105410161Y-102584582D01*
X105294908Y-103164000D01*
X105410161Y-103743418D01*
X105738375Y-104234625D01*
X105802156Y-104277242D01*
X105574414Y-104429414D01*
X105379874Y-104720565D01*
X105311560Y-105064000D01*
X105311560Y-106264000D01*
X105379874Y-106607435D01*
X105574414Y-106898586D01*
X105865565Y-107093126D01*
X106209000Y-107161440D01*
X107659000Y-107161440D01*
X108002435Y-107093126D01*
X108293586Y-106898586D01*
X108488126Y-106607435D01*
X108556440Y-106264000D01*
X108556440Y-105064000D01*
X108488126Y-104720565D01*
X108293586Y-104429414D01*
X108065844Y-104277242D01*
X108129625Y-104234625D01*
X108426212Y-103790750D01*
X114000000Y-103790750D01*
X114000000Y-103931310D01*
X114096673Y-104164699D01*
X114275302Y-104343327D01*
X114508691Y-104440000D01*
X115124250Y-104440000D01*
X115283000Y-104281250D01*
X115283000Y-103632000D01*
X114158750Y-103632000D01*
X114000000Y-103790750D01*
X108426212Y-103790750D01*
X108457839Y-103743418D01*
X108573092Y-103164000D01*
X108539476Y-102995000D01*
X114034666Y-102995000D01*
X114000000Y-103078690D01*
X114000000Y-103219250D01*
X114158750Y-103378000D01*
X115283000Y-103378000D01*
X115283000Y-103358000D01*
X115537000Y-103358000D01*
X115537000Y-103378000D01*
X115557000Y-103378000D01*
X115557000Y-103632000D01*
X115537000Y-103632000D01*
X115537000Y-104281250D01*
X115695750Y-104440000D01*
X116311309Y-104440000D01*
X116544698Y-104343327D01*
X116713000Y-104175026D01*
X116713000Y-117400000D01*
X107984729Y-117400000D01*
X107912068Y-117392876D01*
X104626493Y-114326339D01*
X104596000Y-114036217D01*
X104596000Y-113555431D01*
X105765000Y-113555431D01*
X105765000Y-114444569D01*
X106105259Y-115266026D01*
X106733974Y-115894741D01*
X107555431Y-116235000D01*
X108444569Y-116235000D01*
X109266026Y-115894741D01*
X109894741Y-115266026D01*
X110235000Y-114444569D01*
X110235000Y-113555431D01*
X109894741Y-112733974D01*
X109266026Y-112105259D01*
X108444569Y-111765000D01*
X107555431Y-111765000D01*
X106733974Y-112105259D01*
X106105259Y-112733974D01*
X105765000Y-113555431D01*
X104596000Y-113555431D01*
X104596000Y-97807110D01*
X105367524Y-97807110D01*
X105488845Y-98037000D01*
X106807000Y-98037000D01*
X106807000Y-96837835D01*
X107061000Y-96837835D01*
X107061000Y-98037000D01*
X108379155Y-98037000D01*
X108500476Y-97807110D01*
X108271229Y-97313750D01*
X112668500Y-97313750D01*
X112668500Y-97629310D01*
X112765173Y-97862699D01*
X112943802Y-98041327D01*
X113177191Y-98138000D01*
X113455250Y-98138000D01*
X113614000Y-97979250D01*
X113614000Y-97155000D01*
X112827250Y-97155000D01*
X112668500Y-97313750D01*
X108271229Y-97313750D01*
X108261497Y-97292807D01*
X107836571Y-96898947D01*
X107293267Y-96697680D01*
X107061000Y-96837835D01*
X106807000Y-96837835D01*
X106574733Y-96697680D01*
X106031429Y-96898947D01*
X105606503Y-97292807D01*
X105367524Y-97807110D01*
X104596000Y-97807110D01*
X104596000Y-95535750D01*
X112668500Y-95535750D01*
X112668500Y-95851310D01*
X112765173Y-96084699D01*
X112819474Y-96139000D01*
X112765173Y-96193301D01*
X112668500Y-96426690D01*
X112668500Y-96742250D01*
X112827250Y-96901000D01*
X113614000Y-96901000D01*
X113614000Y-95377000D01*
X112827250Y-95377000D01*
X112668500Y-95535750D01*
X104596000Y-95535750D01*
X104596000Y-94648690D01*
X112668500Y-94648690D01*
X112668500Y-94964250D01*
X112827250Y-95123000D01*
X113614000Y-95123000D01*
X113614000Y-94298750D01*
X113455250Y-94140000D01*
X113177191Y-94140000D01*
X112943802Y-94236673D01*
X112765173Y-94415301D01*
X112668500Y-94648690D01*
X104596000Y-94648690D01*
X104596000Y-93182213D01*
X112737392Y-93182213D01*
X112806857Y-93424397D01*
X113330302Y-93611144D01*
X113885368Y-93583362D01*
X114269143Y-93424397D01*
X114338608Y-93182213D01*
X113538000Y-92381605D01*
X112737392Y-93182213D01*
X104596000Y-93182213D01*
X104596000Y-89950720D01*
X104602209Y-89887397D01*
X104934175Y-89555431D01*
X105765000Y-89555431D01*
X105765000Y-90444569D01*
X106105259Y-91266026D01*
X106733974Y-91894741D01*
X107555431Y-92235000D01*
X108444569Y-92235000D01*
X109025664Y-91994302D01*
X112128856Y-91994302D01*
X112156638Y-92549368D01*
X112315603Y-92933143D01*
X112557787Y-93002608D01*
X113358395Y-92202000D01*
X112557787Y-91401392D01*
X112315603Y-91470857D01*
X112128856Y-91994302D01*
X109025664Y-91994302D01*
X109266026Y-91894741D01*
X109894741Y-91266026D01*
X109913065Y-91221787D01*
X112737392Y-91221787D01*
X113538000Y-92022395D01*
X114338608Y-91221787D01*
X114269143Y-90979603D01*
X113745698Y-90792856D01*
X113190632Y-90820638D01*
X112806857Y-90979603D01*
X112737392Y-91221787D01*
X109913065Y-91221787D01*
X110235000Y-90444569D01*
X110235000Y-89555431D01*
X109894741Y-88733974D01*
X109266026Y-88105259D01*
X108444569Y-87765000D01*
X107555431Y-87765000D01*
X106733974Y-88105259D01*
X106105259Y-88733974D01*
X105765000Y-89555431D01*
X104934175Y-89555431D01*
X107923827Y-86565779D01*
X107959783Y-86562000D01*
X116713000Y-86562000D01*
X116713000Y-90952923D01*
X116713000Y-90952923D01*
G37*
X116713000Y-90952923D02*
X116355881Y-90805000D01*
X115800119Y-90805000D01*
X115286663Y-91017680D01*
X114893680Y-91410663D01*
X114814572Y-91601647D01*
X114760397Y-91470857D01*
X114518213Y-91401392D01*
X113717605Y-92202000D01*
X114518213Y-93002608D01*
X114760397Y-92933143D01*
X114810535Y-92792607D01*
X114893680Y-92993337D01*
X115134738Y-93234395D01*
X114783718Y-93585415D01*
X114714000Y-93631999D01*
X114667416Y-93701717D01*
X114529448Y-93908200D01*
X114469751Y-94208321D01*
X114304809Y-94140000D01*
X114026750Y-94140000D01*
X113868000Y-94298750D01*
X113868000Y-95123000D01*
X113888000Y-95123000D01*
X113888000Y-95377000D01*
X113868000Y-95377000D01*
X113868000Y-96901000D01*
X113888000Y-96901000D01*
X113888000Y-97155000D01*
X113868000Y-97155000D01*
X113868000Y-97979250D01*
X114026750Y-98138000D01*
X114304809Y-98138000D01*
X114538198Y-98041327D01*
X114575001Y-98004525D01*
X114575000Y-98759495D01*
X114387235Y-98796843D01*
X114292715Y-98860000D01*
X110625133Y-98860000D01*
X110370926Y-98605793D01*
X109953766Y-98433000D01*
X109502234Y-98433000D01*
X109085074Y-98605793D01*
X108765793Y-98925074D01*
X108593000Y-99342234D01*
X108593000Y-99793766D01*
X108763338Y-100205000D01*
X108481792Y-100205000D01*
X108457839Y-100084582D01*
X108129625Y-99593375D01*
X107856313Y-99410754D01*
X108261497Y-99035193D01*
X108500476Y-98520890D01*
X108379155Y-98291000D01*
X107061000Y-98291000D01*
X107061000Y-98311000D01*
X106807000Y-98311000D01*
X106807000Y-98291000D01*
X105488845Y-98291000D01*
X105367524Y-98520890D01*
X105606503Y-99035193D01*
X106011687Y-99410754D01*
X105738375Y-99593375D01*
X105410161Y-100084582D01*
X105294908Y-100664000D01*
X105410161Y-101243418D01*
X105738375Y-101734625D01*
X106006829Y-101914000D01*
X105738375Y-102093375D01*
X105410161Y-102584582D01*
X105294908Y-103164000D01*
X105410161Y-103743418D01*
X105738375Y-104234625D01*
X105802156Y-104277242D01*
X105574414Y-104429414D01*
X105379874Y-104720565D01*
X105311560Y-105064000D01*
X105311560Y-106264000D01*
X105379874Y-106607435D01*
X105574414Y-106898586D01*
X105865565Y-107093126D01*
X106209000Y-107161440D01*
X107659000Y-107161440D01*
X108002435Y-107093126D01*
X108293586Y-106898586D01*
X108488126Y-106607435D01*
X108556440Y-106264000D01*
X108556440Y-105064000D01*
X108488126Y-104720565D01*
X108293586Y-104429414D01*
X108065844Y-104277242D01*
X108129625Y-104234625D01*
X108426212Y-103790750D01*
X114000000Y-103790750D01*
X114000000Y-103931310D01*
X114096673Y-104164699D01*
X114275302Y-104343327D01*
X114508691Y-104440000D01*
X115124250Y-104440000D01*
X115283000Y-104281250D01*
X115283000Y-103632000D01*
X114158750Y-103632000D01*
X114000000Y-103790750D01*
X108426212Y-103790750D01*
X108457839Y-103743418D01*
X108573092Y-103164000D01*
X108539476Y-102995000D01*
X114034666Y-102995000D01*
X114000000Y-103078690D01*
X114000000Y-103219250D01*
X114158750Y-103378000D01*
X115283000Y-103378000D01*
X115283000Y-103358000D01*
X115537000Y-103358000D01*
X115537000Y-103378000D01*
X115557000Y-103378000D01*
X115557000Y-103632000D01*
X115537000Y-103632000D01*
X115537000Y-104281250D01*
X115695750Y-104440000D01*
X116311309Y-104440000D01*
X116544698Y-104343327D01*
X116713000Y-104175026D01*
X116713000Y-117400000D01*
X107984729Y-117400000D01*
X107912068Y-117392876D01*
X104626493Y-114326339D01*
X104596000Y-114036217D01*
X104596000Y-113555431D01*
X105765000Y-113555431D01*
X105765000Y-114444569D01*
X106105259Y-115266026D01*
X106733974Y-115894741D01*
X107555431Y-116235000D01*
X108444569Y-116235000D01*
X109266026Y-115894741D01*
X109894741Y-115266026D01*
X110235000Y-114444569D01*
X110235000Y-113555431D01*
X109894741Y-112733974D01*
X109266026Y-112105259D01*
X108444569Y-111765000D01*
X107555431Y-111765000D01*
X106733974Y-112105259D01*
X106105259Y-112733974D01*
X105765000Y-113555431D01*
X104596000Y-113555431D01*
X104596000Y-97807110D01*
X105367524Y-97807110D01*
X105488845Y-98037000D01*
X106807000Y-98037000D01*
X106807000Y-96837835D01*
X107061000Y-96837835D01*
X107061000Y-98037000D01*
X108379155Y-98037000D01*
X108500476Y-97807110D01*
X108271229Y-97313750D01*
X112668500Y-97313750D01*
X112668500Y-97629310D01*
X112765173Y-97862699D01*
X112943802Y-98041327D01*
X113177191Y-98138000D01*
X113455250Y-98138000D01*
X113614000Y-97979250D01*
X113614000Y-97155000D01*
X112827250Y-97155000D01*
X112668500Y-97313750D01*
X108271229Y-97313750D01*
X108261497Y-97292807D01*
X107836571Y-96898947D01*
X107293267Y-96697680D01*
X107061000Y-96837835D01*
X106807000Y-96837835D01*
X106574733Y-96697680D01*
X106031429Y-96898947D01*
X105606503Y-97292807D01*
X105367524Y-97807110D01*
X104596000Y-97807110D01*
X104596000Y-95535750D01*
X112668500Y-95535750D01*
X112668500Y-95851310D01*
X112765173Y-96084699D01*
X112819474Y-96139000D01*
X112765173Y-96193301D01*
X112668500Y-96426690D01*
X112668500Y-96742250D01*
X112827250Y-96901000D01*
X113614000Y-96901000D01*
X113614000Y-95377000D01*
X112827250Y-95377000D01*
X112668500Y-95535750D01*
X104596000Y-95535750D01*
X104596000Y-94648690D01*
X112668500Y-94648690D01*
X112668500Y-94964250D01*
X112827250Y-95123000D01*
X113614000Y-95123000D01*
X113614000Y-94298750D01*
X113455250Y-94140000D01*
X113177191Y-94140000D01*
X112943802Y-94236673D01*
X112765173Y-94415301D01*
X112668500Y-94648690D01*
X104596000Y-94648690D01*
X104596000Y-93182213D01*
X112737392Y-93182213D01*
X112806857Y-93424397D01*
X113330302Y-93611144D01*
X113885368Y-93583362D01*
X114269143Y-93424397D01*
X114338608Y-93182213D01*
X113538000Y-92381605D01*
X112737392Y-93182213D01*
X104596000Y-93182213D01*
X104596000Y-89950720D01*
X104602209Y-89887397D01*
X104934175Y-89555431D01*
X105765000Y-89555431D01*
X105765000Y-90444569D01*
X106105259Y-91266026D01*
X106733974Y-91894741D01*
X107555431Y-92235000D01*
X108444569Y-92235000D01*
X109025664Y-91994302D01*
X112128856Y-91994302D01*
X112156638Y-92549368D01*
X112315603Y-92933143D01*
X112557787Y-93002608D01*
X113358395Y-92202000D01*
X112557787Y-91401392D01*
X112315603Y-91470857D01*
X112128856Y-91994302D01*
X109025664Y-91994302D01*
X109266026Y-91894741D01*
X109894741Y-91266026D01*
X109913065Y-91221787D01*
X112737392Y-91221787D01*
X113538000Y-92022395D01*
X114338608Y-91221787D01*
X114269143Y-90979603D01*
X113745698Y-90792856D01*
X113190632Y-90820638D01*
X112806857Y-90979603D01*
X112737392Y-91221787D01*
X109913065Y-91221787D01*
X110235000Y-90444569D01*
X110235000Y-89555431D01*
X109894741Y-88733974D01*
X109266026Y-88105259D01*
X108444569Y-87765000D01*
X107555431Y-87765000D01*
X106733974Y-88105259D01*
X106105259Y-88733974D01*
X105765000Y-89555431D01*
X104934175Y-89555431D01*
X107923827Y-86565779D01*
X107959783Y-86562000D01*
X116713000Y-86562000D01*
X116713000Y-90952923D01*
G04 #@! TO.N,GNDD*
G36*
X126191635Y-100454000D02*
X126211526Y-100554000D01*
X126191635Y-100654000D01*
X126191635Y-101104000D01*
X126211526Y-101204000D01*
X126191635Y-101304000D01*
X126191635Y-101754000D01*
X126211526Y-101853999D01*
X126191635Y-101954000D01*
X126191635Y-102404000D01*
X126211526Y-102504000D01*
X126191635Y-102604000D01*
X126191635Y-102927000D01*
X125681035Y-102927000D01*
X125386501Y-102805000D01*
X125057499Y-102805000D01*
X124753542Y-102930903D01*
X124520903Y-103163542D01*
X124395000Y-103467499D01*
X124395000Y-103796501D01*
X124520903Y-104100458D01*
X124753542Y-104333097D01*
X125057499Y-104459000D01*
X125386501Y-104459000D01*
X125690458Y-104333097D01*
X125923097Y-104100458D01*
X125951867Y-104031000D01*
X126191635Y-104031000D01*
X126191635Y-104354000D01*
X126211526Y-104454000D01*
X126191635Y-104554000D01*
X126191635Y-105004000D01*
X126224775Y-105170607D01*
X126319150Y-105311850D01*
X126460393Y-105406225D01*
X126627000Y-105439365D01*
X128026720Y-105439365D01*
X128625266Y-106037912D01*
X128625266Y-106194638D01*
X128506656Y-106273890D01*
X128366217Y-106484073D01*
X128316901Y-106732000D01*
X128316901Y-107470256D01*
X127934475Y-107087830D01*
X127934475Y-106526230D01*
X127901335Y-106359623D01*
X127806960Y-106218380D01*
X127665717Y-106124005D01*
X127499110Y-106090865D01*
X126500890Y-106090865D01*
X126334283Y-106124005D01*
X126193040Y-106218380D01*
X126098665Y-106359623D01*
X126065525Y-106526230D01*
X126065525Y-107626050D01*
X126098665Y-107792657D01*
X126186759Y-107924500D01*
X126098665Y-108056343D01*
X126080859Y-108145860D01*
X121412884Y-108145860D01*
X121351139Y-108133578D01*
X121322949Y-108139185D01*
X121322501Y-108139000D01*
X120993499Y-108139000D01*
X120689542Y-108264903D01*
X120456903Y-108497542D01*
X120331000Y-108801499D01*
X120331000Y-109130501D01*
X120456903Y-109434458D01*
X120531001Y-109508556D01*
X120531000Y-114604298D01*
X120383770Y-114665283D01*
X119999283Y-115049770D01*
X119791200Y-115552127D01*
X119791200Y-116095873D01*
X119999283Y-116598230D01*
X120383770Y-116982717D01*
X120886127Y-117190800D01*
X121429873Y-117190800D01*
X121932230Y-116982717D01*
X122316717Y-116598230D01*
X122375395Y-116456569D01*
X122539283Y-116852230D01*
X122923770Y-117236717D01*
X123426127Y-117444800D01*
X123969873Y-117444800D01*
X124472230Y-117236717D01*
X124775979Y-116932968D01*
X125308637Y-116932968D01*
X125399923Y-117193580D01*
X125987833Y-117410045D01*
X126613828Y-117385049D01*
X127076077Y-117193580D01*
X127167363Y-116932968D01*
X126238000Y-116003605D01*
X125308637Y-116932968D01*
X124775979Y-116932968D01*
X124856717Y-116852230D01*
X124926984Y-116682591D01*
X125129032Y-116753363D01*
X126058395Y-115824000D01*
X125129032Y-114894637D01*
X124868420Y-114985923D01*
X124779735Y-115226788D01*
X124472230Y-114919283D01*
X123979125Y-114715032D01*
X125308637Y-114715032D01*
X126238000Y-115644395D01*
X127167363Y-114715032D01*
X127076077Y-114454420D01*
X126488167Y-114237955D01*
X125862172Y-114262951D01*
X125399923Y-114454420D01*
X125308637Y-114715032D01*
X123979125Y-114715032D01*
X123969873Y-114711200D01*
X123426127Y-114711200D01*
X122923770Y-114919283D01*
X122539283Y-115303770D01*
X122480605Y-115445431D01*
X122316717Y-115049770D01*
X121932230Y-114665283D01*
X121785000Y-114604298D01*
X121785000Y-109508555D01*
X121859097Y-109434458D01*
X121873428Y-109399860D01*
X126080859Y-109399860D01*
X126098665Y-109489377D01*
X126193040Y-109630620D01*
X126334283Y-109724995D01*
X126361185Y-109730346D01*
X126409380Y-109972642D01*
X126511831Y-110125970D01*
X126547960Y-110180041D01*
X126600308Y-110215019D01*
X127274979Y-110889690D01*
X127309959Y-110942041D01*
X127517357Y-111080620D01*
X127700250Y-111117000D01*
X127700254Y-111117000D01*
X127734197Y-111123752D01*
X127801542Y-111191097D01*
X128105499Y-111317000D01*
X128434501Y-111317000D01*
X128738458Y-111191097D01*
X128812555Y-111117000D01*
X130418354Y-111117000D01*
X128426123Y-113109232D01*
X128380030Y-113140030D01*
X128258029Y-113322620D01*
X128258028Y-113322621D01*
X128215186Y-113538000D01*
X128226000Y-113592365D01*
X128226001Y-114827232D01*
X128003770Y-114919283D01*
X127704103Y-115218950D01*
X127607580Y-114985923D01*
X127346968Y-114894637D01*
X126417605Y-115824000D01*
X127346968Y-116753363D01*
X127549016Y-116682591D01*
X127619283Y-116852230D01*
X128003770Y-117236717D01*
X128506127Y-117444800D01*
X129049873Y-117444800D01*
X129552230Y-117236717D01*
X129936717Y-116852230D01*
X130144800Y-116349873D01*
X130144800Y-115806127D01*
X129936717Y-115303770D01*
X129552230Y-114919283D01*
X129330000Y-114827232D01*
X129330000Y-113766645D01*
X132939879Y-110156767D01*
X132985970Y-110125970D01*
X133107972Y-109943380D01*
X133139575Y-109784500D01*
X133318250Y-109784500D01*
X133477000Y-109625750D01*
X133477000Y-108839000D01*
X133457000Y-108839000D01*
X133457000Y-108585000D01*
X133477000Y-108585000D01*
X133477000Y-108565000D01*
X133731000Y-108565000D01*
X133731000Y-108585000D01*
X133751000Y-108585000D01*
X133751000Y-108839000D01*
X133731000Y-108839000D01*
X133731000Y-109625750D01*
X133889750Y-109784500D01*
X134205310Y-109784500D01*
X134322001Y-109736165D01*
X134322001Y-111023354D01*
X134268122Y-111077233D01*
X134222031Y-111108030D01*
X134191236Y-111154119D01*
X134100028Y-111290621D01*
X134057186Y-111506000D01*
X134068001Y-111560370D01*
X134068000Y-113692635D01*
X133870000Y-113692635D01*
X133703393Y-113725775D01*
X133562150Y-113820150D01*
X133467775Y-113961393D01*
X133434635Y-114128000D01*
X133434635Y-115128000D01*
X133437843Y-115160394D01*
X133391475Y-115229788D01*
X133352048Y-115428000D01*
X133352048Y-116578000D01*
X133391475Y-116776212D01*
X133503753Y-116944247D01*
X133671788Y-117056525D01*
X133870000Y-117095952D01*
X135370000Y-117095952D01*
X135568212Y-117056525D01*
X135736247Y-116944247D01*
X135848525Y-116776212D01*
X135887952Y-116578000D01*
X135887952Y-115428000D01*
X135802096Y-115144436D01*
X135805365Y-115128000D01*
X135805365Y-114128000D01*
X135772225Y-113961393D01*
X135677850Y-113820150D01*
X135536607Y-113725775D01*
X135370000Y-113692635D01*
X135172000Y-113692635D01*
X135172000Y-111734645D01*
X135225876Y-111680769D01*
X135271970Y-111649970D01*
X135393972Y-111467380D01*
X135426000Y-111306365D01*
X135436814Y-111252001D01*
X135426000Y-111197636D01*
X135426000Y-110298645D01*
X136862000Y-111734646D01*
X136862001Y-113692635D01*
X136664000Y-113692635D01*
X136497393Y-113725775D01*
X136356150Y-113820150D01*
X136261775Y-113961393D01*
X136228635Y-114128000D01*
X136228635Y-115128000D01*
X136231843Y-115160394D01*
X136185475Y-115229788D01*
X136146048Y-115428000D01*
X136146048Y-116578000D01*
X136185475Y-116776212D01*
X136297753Y-116944247D01*
X136465788Y-117056525D01*
X136664000Y-117095952D01*
X138164000Y-117095952D01*
X138362212Y-117056525D01*
X138530247Y-116944247D01*
X138642525Y-116776212D01*
X138681952Y-116578000D01*
X138681952Y-115428000D01*
X138596096Y-115144436D01*
X138599365Y-115128000D01*
X138599365Y-114128000D01*
X138566225Y-113961393D01*
X138471850Y-113820150D01*
X138330607Y-113725775D01*
X138164000Y-113692635D01*
X137966000Y-113692635D01*
X137966000Y-111560365D01*
X137976814Y-111506000D01*
X137933972Y-111290620D01*
X137842765Y-111154119D01*
X137811970Y-111108030D01*
X137765880Y-111077234D01*
X135934000Y-109245355D01*
X135934000Y-108769250D01*
X140622000Y-108769250D01*
X140622000Y-109047309D01*
X140718673Y-109280698D01*
X140897301Y-109459327D01*
X141130690Y-109556000D01*
X141446250Y-109556000D01*
X141605000Y-109397250D01*
X141605000Y-108610500D01*
X141859000Y-108610500D01*
X141859000Y-109397250D01*
X142017750Y-109556000D01*
X142333310Y-109556000D01*
X142566699Y-109459327D01*
X142745327Y-109280698D01*
X142842000Y-109047309D01*
X142842000Y-108769250D01*
X142683250Y-108610500D01*
X141859000Y-108610500D01*
X141605000Y-108610500D01*
X140780750Y-108610500D01*
X140622000Y-108769250D01*
X135934000Y-108769250D01*
X135934000Y-105210364D01*
X135944814Y-105155999D01*
X135901972Y-104940620D01*
X135791151Y-104774763D01*
X135899750Y-104796365D01*
X136337250Y-104796365D01*
X136587569Y-104746573D01*
X136799779Y-104604779D01*
X136906000Y-104445808D01*
X137012221Y-104604779D01*
X137224431Y-104746573D01*
X137474750Y-104796365D01*
X137912250Y-104796365D01*
X138162569Y-104746573D01*
X138374779Y-104604779D01*
X138516573Y-104392569D01*
X138566365Y-104142250D01*
X138566365Y-103793780D01*
X139319146Y-103041000D01*
X140197832Y-103041000D01*
X140235150Y-103096850D01*
X140275783Y-103124000D01*
X140235150Y-103151150D01*
X140140775Y-103292393D01*
X140107635Y-103459000D01*
X140107635Y-103607654D01*
X138878289Y-104837000D01*
X138773499Y-104837000D01*
X138469542Y-104962903D01*
X138236903Y-105195542D01*
X138111000Y-105499499D01*
X138111000Y-105828501D01*
X138236903Y-106132458D01*
X138469542Y-106365097D01*
X138773499Y-106491000D01*
X138878289Y-106491000D01*
X139695479Y-107308190D01*
X139730459Y-107360541D01*
X139937857Y-107499120D01*
X140120750Y-107535500D01*
X140120754Y-107535500D01*
X140182500Y-107547782D01*
X140244246Y-107535500D01*
X140869474Y-107535500D01*
X140718673Y-107686302D01*
X140622000Y-107919691D01*
X140622000Y-108197750D01*
X140780750Y-108356500D01*
X141605000Y-108356500D01*
X141605000Y-108336500D01*
X141859000Y-108336500D01*
X141859000Y-108356500D01*
X142683250Y-108356500D01*
X142842000Y-108197750D01*
X142842000Y-107919691D01*
X142745327Y-107686302D01*
X142566699Y-107507673D01*
X142518876Y-107487864D01*
X142592573Y-107377569D01*
X142642365Y-107127250D01*
X142642365Y-106689750D01*
X142592573Y-106439431D01*
X142450779Y-106227221D01*
X142238569Y-106085427D01*
X141988250Y-106035635D01*
X141475750Y-106035635D01*
X141225431Y-106085427D01*
X141013221Y-106227221D01*
X140976953Y-106281500D01*
X140442211Y-106281500D01*
X139824711Y-105664000D01*
X140994346Y-104494365D01*
X141097000Y-104494365D01*
X141097000Y-105156000D01*
X141106667Y-105204601D01*
X141134197Y-105245803D01*
X141175399Y-105273333D01*
X141224000Y-105283000D01*
X143212000Y-105283000D01*
X143212000Y-106141283D01*
X143045221Y-106252721D01*
X142903427Y-106464931D01*
X142853635Y-106715250D01*
X142853635Y-107152750D01*
X142903427Y-107403069D01*
X143045221Y-107615279D01*
X143204192Y-107721500D01*
X143045221Y-107827721D01*
X142903427Y-108039931D01*
X142853635Y-108290250D01*
X142853635Y-108727750D01*
X142903427Y-108978069D01*
X143045221Y-109190279D01*
X143257431Y-109332073D01*
X143507750Y-109381865D01*
X144020250Y-109381865D01*
X144270569Y-109332073D01*
X144482779Y-109190279D01*
X144569160Y-109061000D01*
X144725635Y-109061000D01*
X144780000Y-109071814D01*
X144834365Y-109061000D01*
X144990840Y-109061000D01*
X145077221Y-109190279D01*
X145289431Y-109332073D01*
X145539750Y-109381865D01*
X146052250Y-109381865D01*
X146302569Y-109332073D01*
X146514779Y-109190279D01*
X146656573Y-108978069D01*
X146706365Y-108727750D01*
X146706365Y-108290250D01*
X146656573Y-108039931D01*
X146514779Y-107827721D01*
X146355808Y-107721500D01*
X146514779Y-107615279D01*
X146601160Y-107486000D01*
X148463000Y-107486000D01*
X148463000Y-117475000D01*
X119507000Y-117475000D01*
X119507000Y-104175026D01*
X119675302Y-104343327D01*
X119908691Y-104440000D01*
X120524250Y-104440000D01*
X120683000Y-104281250D01*
X120683000Y-103632000D01*
X120937000Y-103632000D01*
X120937000Y-104281250D01*
X121095750Y-104440000D01*
X121711309Y-104440000D01*
X121944698Y-104343327D01*
X122123327Y-104164699D01*
X122220000Y-103931310D01*
X122220000Y-103790750D01*
X122061250Y-103632000D01*
X120937000Y-103632000D01*
X120683000Y-103632000D01*
X120663000Y-103632000D01*
X120663000Y-103378000D01*
X120683000Y-103378000D01*
X120683000Y-103358000D01*
X120937000Y-103358000D01*
X120937000Y-103378000D01*
X122061250Y-103378000D01*
X122220000Y-103219250D01*
X122220000Y-103078690D01*
X122123327Y-102845301D01*
X122065026Y-102787000D01*
X123008635Y-102787000D01*
X123063000Y-102797814D01*
X123117365Y-102787000D01*
X123278380Y-102754972D01*
X123460970Y-102632970D01*
X123491768Y-102586877D01*
X125947646Y-100131000D01*
X126191635Y-100131000D01*
X126191635Y-100454000D01*
X126191635Y-100454000D01*
G37*
X126191635Y-100454000D02*
X126211526Y-100554000D01*
X126191635Y-100654000D01*
X126191635Y-101104000D01*
X126211526Y-101204000D01*
X126191635Y-101304000D01*
X126191635Y-101754000D01*
X126211526Y-101853999D01*
X126191635Y-101954000D01*
X126191635Y-102404000D01*
X126211526Y-102504000D01*
X126191635Y-102604000D01*
X126191635Y-102927000D01*
X125681035Y-102927000D01*
X125386501Y-102805000D01*
X125057499Y-102805000D01*
X124753542Y-102930903D01*
X124520903Y-103163542D01*
X124395000Y-103467499D01*
X124395000Y-103796501D01*
X124520903Y-104100458D01*
X124753542Y-104333097D01*
X125057499Y-104459000D01*
X125386501Y-104459000D01*
X125690458Y-104333097D01*
X125923097Y-104100458D01*
X125951867Y-104031000D01*
X126191635Y-104031000D01*
X126191635Y-104354000D01*
X126211526Y-104454000D01*
X126191635Y-104554000D01*
X126191635Y-105004000D01*
X126224775Y-105170607D01*
X126319150Y-105311850D01*
X126460393Y-105406225D01*
X126627000Y-105439365D01*
X128026720Y-105439365D01*
X128625266Y-106037912D01*
X128625266Y-106194638D01*
X128506656Y-106273890D01*
X128366217Y-106484073D01*
X128316901Y-106732000D01*
X128316901Y-107470256D01*
X127934475Y-107087830D01*
X127934475Y-106526230D01*
X127901335Y-106359623D01*
X127806960Y-106218380D01*
X127665717Y-106124005D01*
X127499110Y-106090865D01*
X126500890Y-106090865D01*
X126334283Y-106124005D01*
X126193040Y-106218380D01*
X126098665Y-106359623D01*
X126065525Y-106526230D01*
X126065525Y-107626050D01*
X126098665Y-107792657D01*
X126186759Y-107924500D01*
X126098665Y-108056343D01*
X126080859Y-108145860D01*
X121412884Y-108145860D01*
X121351139Y-108133578D01*
X121322949Y-108139185D01*
X121322501Y-108139000D01*
X120993499Y-108139000D01*
X120689542Y-108264903D01*
X120456903Y-108497542D01*
X120331000Y-108801499D01*
X120331000Y-109130501D01*
X120456903Y-109434458D01*
X120531001Y-109508556D01*
X120531000Y-114604298D01*
X120383770Y-114665283D01*
X119999283Y-115049770D01*
X119791200Y-115552127D01*
X119791200Y-116095873D01*
X119999283Y-116598230D01*
X120383770Y-116982717D01*
X120886127Y-117190800D01*
X121429873Y-117190800D01*
X121932230Y-116982717D01*
X122316717Y-116598230D01*
X122375395Y-116456569D01*
X122539283Y-116852230D01*
X122923770Y-117236717D01*
X123426127Y-117444800D01*
X123969873Y-117444800D01*
X124472230Y-117236717D01*
X124775979Y-116932968D01*
X125308637Y-116932968D01*
X125399923Y-117193580D01*
X125987833Y-117410045D01*
X126613828Y-117385049D01*
X127076077Y-117193580D01*
X127167363Y-116932968D01*
X126238000Y-116003605D01*
X125308637Y-116932968D01*
X124775979Y-116932968D01*
X124856717Y-116852230D01*
X124926984Y-116682591D01*
X125129032Y-116753363D01*
X126058395Y-115824000D01*
X125129032Y-114894637D01*
X124868420Y-114985923D01*
X124779735Y-115226788D01*
X124472230Y-114919283D01*
X123979125Y-114715032D01*
X125308637Y-114715032D01*
X126238000Y-115644395D01*
X127167363Y-114715032D01*
X127076077Y-114454420D01*
X126488167Y-114237955D01*
X125862172Y-114262951D01*
X125399923Y-114454420D01*
X125308637Y-114715032D01*
X123979125Y-114715032D01*
X123969873Y-114711200D01*
X123426127Y-114711200D01*
X122923770Y-114919283D01*
X122539283Y-115303770D01*
X122480605Y-115445431D01*
X122316717Y-115049770D01*
X121932230Y-114665283D01*
X121785000Y-114604298D01*
X121785000Y-109508555D01*
X121859097Y-109434458D01*
X121873428Y-109399860D01*
X126080859Y-109399860D01*
X126098665Y-109489377D01*
X126193040Y-109630620D01*
X126334283Y-109724995D01*
X126361185Y-109730346D01*
X126409380Y-109972642D01*
X126511831Y-110125970D01*
X126547960Y-110180041D01*
X126600308Y-110215019D01*
X127274979Y-110889690D01*
X127309959Y-110942041D01*
X127517357Y-111080620D01*
X127700250Y-111117000D01*
X127700254Y-111117000D01*
X127734197Y-111123752D01*
X127801542Y-111191097D01*
X128105499Y-111317000D01*
X128434501Y-111317000D01*
X128738458Y-111191097D01*
X128812555Y-111117000D01*
X130418354Y-111117000D01*
X128426123Y-113109232D01*
X128380030Y-113140030D01*
X128258029Y-113322620D01*
X128258028Y-113322621D01*
X128215186Y-113538000D01*
X128226000Y-113592365D01*
X128226001Y-114827232D01*
X128003770Y-114919283D01*
X127704103Y-115218950D01*
X127607580Y-114985923D01*
X127346968Y-114894637D01*
X126417605Y-115824000D01*
X127346968Y-116753363D01*
X127549016Y-116682591D01*
X127619283Y-116852230D01*
X128003770Y-117236717D01*
X128506127Y-117444800D01*
X129049873Y-117444800D01*
X129552230Y-117236717D01*
X129936717Y-116852230D01*
X130144800Y-116349873D01*
X130144800Y-115806127D01*
X129936717Y-115303770D01*
X129552230Y-114919283D01*
X129330000Y-114827232D01*
X129330000Y-113766645D01*
X132939879Y-110156767D01*
X132985970Y-110125970D01*
X133107972Y-109943380D01*
X133139575Y-109784500D01*
X133318250Y-109784500D01*
X133477000Y-109625750D01*
X133477000Y-108839000D01*
X133457000Y-108839000D01*
X133457000Y-108585000D01*
X133477000Y-108585000D01*
X133477000Y-108565000D01*
X133731000Y-108565000D01*
X133731000Y-108585000D01*
X133751000Y-108585000D01*
X133751000Y-108839000D01*
X133731000Y-108839000D01*
X133731000Y-109625750D01*
X133889750Y-109784500D01*
X134205310Y-109784500D01*
X134322001Y-109736165D01*
X134322001Y-111023354D01*
X134268122Y-111077233D01*
X134222031Y-111108030D01*
X134191236Y-111154119D01*
X134100028Y-111290621D01*
X134057186Y-111506000D01*
X134068001Y-111560370D01*
X134068000Y-113692635D01*
X133870000Y-113692635D01*
X133703393Y-113725775D01*
X133562150Y-113820150D01*
X133467775Y-113961393D01*
X133434635Y-114128000D01*
X133434635Y-115128000D01*
X133437843Y-115160394D01*
X133391475Y-115229788D01*
X133352048Y-115428000D01*
X133352048Y-116578000D01*
X133391475Y-116776212D01*
X133503753Y-116944247D01*
X133671788Y-117056525D01*
X133870000Y-117095952D01*
X135370000Y-117095952D01*
X135568212Y-117056525D01*
X135736247Y-116944247D01*
X135848525Y-116776212D01*
X135887952Y-116578000D01*
X135887952Y-115428000D01*
X135802096Y-115144436D01*
X135805365Y-115128000D01*
X135805365Y-114128000D01*
X135772225Y-113961393D01*
X135677850Y-113820150D01*
X135536607Y-113725775D01*
X135370000Y-113692635D01*
X135172000Y-113692635D01*
X135172000Y-111734645D01*
X135225876Y-111680769D01*
X135271970Y-111649970D01*
X135393972Y-111467380D01*
X135426000Y-111306365D01*
X135436814Y-111252001D01*
X135426000Y-111197636D01*
X135426000Y-110298645D01*
X136862000Y-111734646D01*
X136862001Y-113692635D01*
X136664000Y-113692635D01*
X136497393Y-113725775D01*
X136356150Y-113820150D01*
X136261775Y-113961393D01*
X136228635Y-114128000D01*
X136228635Y-115128000D01*
X136231843Y-115160394D01*
X136185475Y-115229788D01*
X136146048Y-115428000D01*
X136146048Y-116578000D01*
X136185475Y-116776212D01*
X136297753Y-116944247D01*
X136465788Y-117056525D01*
X136664000Y-117095952D01*
X138164000Y-117095952D01*
X138362212Y-117056525D01*
X138530247Y-116944247D01*
X138642525Y-116776212D01*
X138681952Y-116578000D01*
X138681952Y-115428000D01*
X138596096Y-115144436D01*
X138599365Y-115128000D01*
X138599365Y-114128000D01*
X138566225Y-113961393D01*
X138471850Y-113820150D01*
X138330607Y-113725775D01*
X138164000Y-113692635D01*
X137966000Y-113692635D01*
X137966000Y-111560365D01*
X137976814Y-111506000D01*
X137933972Y-111290620D01*
X137842765Y-111154119D01*
X137811970Y-111108030D01*
X137765880Y-111077234D01*
X135934000Y-109245355D01*
X135934000Y-108769250D01*
X140622000Y-108769250D01*
X140622000Y-109047309D01*
X140718673Y-109280698D01*
X140897301Y-109459327D01*
X141130690Y-109556000D01*
X141446250Y-109556000D01*
X141605000Y-109397250D01*
X141605000Y-108610500D01*
X141859000Y-108610500D01*
X141859000Y-109397250D01*
X142017750Y-109556000D01*
X142333310Y-109556000D01*
X142566699Y-109459327D01*
X142745327Y-109280698D01*
X142842000Y-109047309D01*
X142842000Y-108769250D01*
X142683250Y-108610500D01*
X141859000Y-108610500D01*
X141605000Y-108610500D01*
X140780750Y-108610500D01*
X140622000Y-108769250D01*
X135934000Y-108769250D01*
X135934000Y-105210364D01*
X135944814Y-105155999D01*
X135901972Y-104940620D01*
X135791151Y-104774763D01*
X135899750Y-104796365D01*
X136337250Y-104796365D01*
X136587569Y-104746573D01*
X136799779Y-104604779D01*
X136906000Y-104445808D01*
X137012221Y-104604779D01*
X137224431Y-104746573D01*
X137474750Y-104796365D01*
X137912250Y-104796365D01*
X138162569Y-104746573D01*
X138374779Y-104604779D01*
X138516573Y-104392569D01*
X138566365Y-104142250D01*
X138566365Y-103793780D01*
X139319146Y-103041000D01*
X140197832Y-103041000D01*
X140235150Y-103096850D01*
X140275783Y-103124000D01*
X140235150Y-103151150D01*
X140140775Y-103292393D01*
X140107635Y-103459000D01*
X140107635Y-103607654D01*
X138878289Y-104837000D01*
X138773499Y-104837000D01*
X138469542Y-104962903D01*
X138236903Y-105195542D01*
X138111000Y-105499499D01*
X138111000Y-105828501D01*
X138236903Y-106132458D01*
X138469542Y-106365097D01*
X138773499Y-106491000D01*
X138878289Y-106491000D01*
X139695479Y-107308190D01*
X139730459Y-107360541D01*
X139937857Y-107499120D01*
X140120750Y-107535500D01*
X140120754Y-107535500D01*
X140182500Y-107547782D01*
X140244246Y-107535500D01*
X140869474Y-107535500D01*
X140718673Y-107686302D01*
X140622000Y-107919691D01*
X140622000Y-108197750D01*
X140780750Y-108356500D01*
X141605000Y-108356500D01*
X141605000Y-108336500D01*
X141859000Y-108336500D01*
X141859000Y-108356500D01*
X142683250Y-108356500D01*
X142842000Y-108197750D01*
X142842000Y-107919691D01*
X142745327Y-107686302D01*
X142566699Y-107507673D01*
X142518876Y-107487864D01*
X142592573Y-107377569D01*
X142642365Y-107127250D01*
X142642365Y-106689750D01*
X142592573Y-106439431D01*
X142450779Y-106227221D01*
X142238569Y-106085427D01*
X141988250Y-106035635D01*
X141475750Y-106035635D01*
X141225431Y-106085427D01*
X141013221Y-106227221D01*
X140976953Y-106281500D01*
X140442211Y-106281500D01*
X139824711Y-105664000D01*
X140994346Y-104494365D01*
X141097000Y-104494365D01*
X141097000Y-105156000D01*
X141106667Y-105204601D01*
X141134197Y-105245803D01*
X141175399Y-105273333D01*
X141224000Y-105283000D01*
X143212000Y-105283000D01*
X143212000Y-106141283D01*
X143045221Y-106252721D01*
X142903427Y-106464931D01*
X142853635Y-106715250D01*
X142853635Y-107152750D01*
X142903427Y-107403069D01*
X143045221Y-107615279D01*
X143204192Y-107721500D01*
X143045221Y-107827721D01*
X142903427Y-108039931D01*
X142853635Y-108290250D01*
X142853635Y-108727750D01*
X142903427Y-108978069D01*
X143045221Y-109190279D01*
X143257431Y-109332073D01*
X143507750Y-109381865D01*
X144020250Y-109381865D01*
X144270569Y-109332073D01*
X144482779Y-109190279D01*
X144569160Y-109061000D01*
X144725635Y-109061000D01*
X144780000Y-109071814D01*
X144834365Y-109061000D01*
X144990840Y-109061000D01*
X145077221Y-109190279D01*
X145289431Y-109332073D01*
X145539750Y-109381865D01*
X146052250Y-109381865D01*
X146302569Y-109332073D01*
X146514779Y-109190279D01*
X146656573Y-108978069D01*
X146706365Y-108727750D01*
X146706365Y-108290250D01*
X146656573Y-108039931D01*
X146514779Y-107827721D01*
X146355808Y-107721500D01*
X146514779Y-107615279D01*
X146601160Y-107486000D01*
X148463000Y-107486000D01*
X148463000Y-117475000D01*
X119507000Y-117475000D01*
X119507000Y-104175026D01*
X119675302Y-104343327D01*
X119908691Y-104440000D01*
X120524250Y-104440000D01*
X120683000Y-104281250D01*
X120683000Y-103632000D01*
X120937000Y-103632000D01*
X120937000Y-104281250D01*
X121095750Y-104440000D01*
X121711309Y-104440000D01*
X121944698Y-104343327D01*
X122123327Y-104164699D01*
X122220000Y-103931310D01*
X122220000Y-103790750D01*
X122061250Y-103632000D01*
X120937000Y-103632000D01*
X120683000Y-103632000D01*
X120663000Y-103632000D01*
X120663000Y-103378000D01*
X120683000Y-103378000D01*
X120683000Y-103358000D01*
X120937000Y-103358000D01*
X120937000Y-103378000D01*
X122061250Y-103378000D01*
X122220000Y-103219250D01*
X122220000Y-103078690D01*
X122123327Y-102845301D01*
X122065026Y-102787000D01*
X123008635Y-102787000D01*
X123063000Y-102797814D01*
X123117365Y-102787000D01*
X123278380Y-102754972D01*
X123460970Y-102632970D01*
X123491768Y-102586877D01*
X125947646Y-100131000D01*
X126191635Y-100131000D01*
X126191635Y-100454000D01*
G36*
X148463000Y-90371500D02*
X145077160Y-90371500D01*
X145058876Y-90344136D01*
X145106699Y-90324327D01*
X145285327Y-90145698D01*
X145382000Y-89912309D01*
X145382000Y-89634250D01*
X145223250Y-89475500D01*
X144399000Y-89475500D01*
X144399000Y-89495500D01*
X144145000Y-89495500D01*
X144145000Y-89475500D01*
X143320750Y-89475500D01*
X143162000Y-89634250D01*
X143162000Y-89912309D01*
X143258673Y-90145698D01*
X143437301Y-90324327D01*
X143485124Y-90344136D01*
X143466840Y-90371500D01*
X142990568Y-90371500D01*
X142976225Y-90299393D01*
X142881850Y-90158150D01*
X142740607Y-90063775D01*
X142574000Y-90030635D01*
X141774000Y-90030635D01*
X141607393Y-90063775D01*
X141466150Y-90158150D01*
X141371775Y-90299393D01*
X141358924Y-90364000D01*
X141089076Y-90364000D01*
X141076225Y-90299393D01*
X140981850Y-90158150D01*
X140840607Y-90063775D01*
X140674000Y-90030635D01*
X139874000Y-90030635D01*
X139707393Y-90063775D01*
X139566150Y-90158150D01*
X139471775Y-90299393D01*
X139457432Y-90371500D01*
X138981160Y-90371500D01*
X138894779Y-90242221D01*
X138735808Y-90136000D01*
X138894779Y-90029779D01*
X139036573Y-89817569D01*
X139086365Y-89567250D01*
X139086365Y-89201750D01*
X140189000Y-89201750D01*
X140189000Y-89492309D01*
X140285673Y-89725698D01*
X140464301Y-89904327D01*
X140697690Y-90001000D01*
X140938250Y-90001000D01*
X141097000Y-89842250D01*
X141097000Y-89043000D01*
X141351000Y-89043000D01*
X141351000Y-89842250D01*
X141509750Y-90001000D01*
X141750310Y-90001000D01*
X141983699Y-89904327D01*
X142162327Y-89725698D01*
X142259000Y-89492309D01*
X142259000Y-89201750D01*
X142100250Y-89043000D01*
X141351000Y-89043000D01*
X141097000Y-89043000D01*
X140347750Y-89043000D01*
X140189000Y-89201750D01*
X139086365Y-89201750D01*
X139086365Y-89129750D01*
X139036573Y-88879431D01*
X138894779Y-88667221D01*
X138682569Y-88525427D01*
X138432250Y-88475635D01*
X137919750Y-88475635D01*
X137669431Y-88525427D01*
X137457221Y-88667221D01*
X137420953Y-88721500D01*
X136773245Y-88721500D01*
X136711499Y-88709218D01*
X136649753Y-88721500D01*
X136649750Y-88721500D01*
X136466857Y-88757880D01*
X136327284Y-88851140D01*
X136259459Y-88896459D01*
X136224481Y-88948807D01*
X135476000Y-89697289D01*
X135476000Y-89642750D01*
X135317250Y-89484000D01*
X134493000Y-89484000D01*
X134493000Y-89504000D01*
X134239000Y-89504000D01*
X134239000Y-89484000D01*
X133414750Y-89484000D01*
X133350000Y-89548750D01*
X133285250Y-89484000D01*
X132461000Y-89484000D01*
X132461000Y-89504000D01*
X132207000Y-89504000D01*
X132207000Y-89484000D01*
X131382750Y-89484000D01*
X131305250Y-89561500D01*
X131253250Y-89509500D01*
X130429000Y-89509500D01*
X130429000Y-89529500D01*
X130175000Y-89529500D01*
X130175000Y-89509500D01*
X130155000Y-89509500D01*
X130155000Y-89255500D01*
X130175000Y-89255500D01*
X130175000Y-88468750D01*
X130429000Y-88468750D01*
X130429000Y-89255500D01*
X131253250Y-89255500D01*
X131330750Y-89178000D01*
X131382750Y-89230000D01*
X132207000Y-89230000D01*
X132207000Y-88443250D01*
X132461000Y-88443250D01*
X132461000Y-89230000D01*
X133285250Y-89230000D01*
X133350000Y-89165250D01*
X133414750Y-89230000D01*
X134239000Y-89230000D01*
X134239000Y-88443250D01*
X134493000Y-88443250D01*
X134493000Y-89230000D01*
X135317250Y-89230000D01*
X135476000Y-89071250D01*
X135476000Y-88793191D01*
X135379327Y-88559802D01*
X135200699Y-88381173D01*
X135100553Y-88339691D01*
X140189000Y-88339691D01*
X140189000Y-88630250D01*
X140347750Y-88789000D01*
X141097000Y-88789000D01*
X141097000Y-87989750D01*
X141351000Y-87989750D01*
X141351000Y-88789000D01*
X142100250Y-88789000D01*
X142104559Y-88784691D01*
X143162000Y-88784691D01*
X143162000Y-89062750D01*
X143320750Y-89221500D01*
X144145000Y-89221500D01*
X144145000Y-88434750D01*
X144399000Y-88434750D01*
X144399000Y-89221500D01*
X145223250Y-89221500D01*
X145382000Y-89062750D01*
X145382000Y-88784691D01*
X145285327Y-88551302D01*
X145106699Y-88372673D01*
X144873310Y-88276000D01*
X144557750Y-88276000D01*
X144399000Y-88434750D01*
X144145000Y-88434750D01*
X143986250Y-88276000D01*
X143670690Y-88276000D01*
X143437301Y-88372673D01*
X143258673Y-88551302D01*
X143162000Y-88784691D01*
X142104559Y-88784691D01*
X142259000Y-88630250D01*
X142259000Y-88339691D01*
X142162327Y-88106302D01*
X141983699Y-87927673D01*
X141750310Y-87831000D01*
X141509750Y-87831000D01*
X141351000Y-87989750D01*
X141097000Y-87989750D01*
X140938250Y-87831000D01*
X140697690Y-87831000D01*
X140464301Y-87927673D01*
X140285673Y-88106302D01*
X140189000Y-88339691D01*
X135100553Y-88339691D01*
X134967310Y-88284500D01*
X134651750Y-88284500D01*
X134493000Y-88443250D01*
X134239000Y-88443250D01*
X134080250Y-88284500D01*
X133764690Y-88284500D01*
X133531301Y-88381173D01*
X133352673Y-88559802D01*
X133350000Y-88566255D01*
X133347327Y-88559802D01*
X133168699Y-88381173D01*
X132935310Y-88284500D01*
X132619750Y-88284500D01*
X132461000Y-88443250D01*
X132207000Y-88443250D01*
X132048250Y-88284500D01*
X131732690Y-88284500D01*
X131499301Y-88381173D01*
X131320673Y-88559802D01*
X131311638Y-88581613D01*
X131136699Y-88406673D01*
X130903310Y-88310000D01*
X130587750Y-88310000D01*
X130429000Y-88468750D01*
X130175000Y-88468750D01*
X130016250Y-88310000D01*
X129700690Y-88310000D01*
X129467301Y-88406673D01*
X129309299Y-88564676D01*
X129194610Y-88393030D01*
X128984427Y-88252591D01*
X128736500Y-88203275D01*
X128311500Y-88203275D01*
X128063573Y-88252591D01*
X127853390Y-88393030D01*
X127712951Y-88603213D01*
X127697025Y-88683280D01*
X127431059Y-88683280D01*
X127398335Y-88518763D01*
X127303960Y-88377520D01*
X127162717Y-88283145D01*
X126996110Y-88250005D01*
X125997890Y-88250005D01*
X125831283Y-88283145D01*
X125690040Y-88377520D01*
X125595665Y-88518763D01*
X125562525Y-88685370D01*
X125562525Y-88714285D01*
X125473327Y-88498942D01*
X125294699Y-88320313D01*
X125061310Y-88223640D01*
X124745750Y-88223640D01*
X124587000Y-88382390D01*
X124587000Y-89169140D01*
X124607000Y-89169140D01*
X124607000Y-89423140D01*
X124587000Y-89423140D01*
X124587000Y-89443140D01*
X124333000Y-89443140D01*
X124333000Y-89423140D01*
X123508750Y-89423140D01*
X123350000Y-89581890D01*
X123350000Y-89859949D01*
X123446673Y-90093338D01*
X123597474Y-90244140D01*
X122804604Y-90244140D01*
X122742859Y-90231858D01*
X122681114Y-90244140D01*
X122681110Y-90244140D01*
X122498217Y-90280520D01*
X122290819Y-90419099D01*
X122255841Y-90471447D01*
X121620627Y-91106662D01*
X121394507Y-91013000D01*
X120921493Y-91013000D01*
X120484486Y-91194014D01*
X120150014Y-91528486D01*
X120001039Y-91888143D01*
X119999362Y-91854632D01*
X119840397Y-91470857D01*
X119598213Y-91401392D01*
X118797605Y-92202000D01*
X119598213Y-93002608D01*
X119840397Y-92933143D01*
X119994716Y-92500592D01*
X120150014Y-92875514D01*
X120484486Y-93209986D01*
X120921493Y-93391000D01*
X121394507Y-93391000D01*
X121831514Y-93209986D01*
X122165986Y-92875514D01*
X122347000Y-92438507D01*
X122347000Y-92153711D01*
X123002572Y-91498140D01*
X123704953Y-91498140D01*
X123741221Y-91552419D01*
X123953431Y-91694213D01*
X124203750Y-91744005D01*
X124716250Y-91744005D01*
X124966569Y-91694213D01*
X125168930Y-91559000D01*
X125577859Y-91559000D01*
X125595665Y-91648517D01*
X125690040Y-91789760D01*
X125831283Y-91884135D01*
X125870000Y-91891836D01*
X125870001Y-93691055D01*
X125773221Y-93755721D01*
X125736953Y-93810000D01*
X125588744Y-93810000D01*
X125526999Y-93797718D01*
X125465254Y-93810000D01*
X125465250Y-93810000D01*
X125282357Y-93846380D01*
X125074959Y-93984959D01*
X125039981Y-94037307D01*
X124568307Y-94508982D01*
X124515960Y-94543959D01*
X124480982Y-94596307D01*
X124480981Y-94596308D01*
X124377380Y-94751358D01*
X124328718Y-94996000D01*
X124341001Y-95057751D01*
X124341000Y-97276288D01*
X123384289Y-98233000D01*
X123279499Y-98233000D01*
X122975542Y-98358903D01*
X122742903Y-98591542D01*
X122617000Y-98895499D01*
X122617000Y-99000289D01*
X122549289Y-99068000D01*
X121864190Y-99068000D01*
X121751607Y-98992775D01*
X121585000Y-98959635D01*
X120035000Y-98959635D01*
X119868393Y-98992775D01*
X119727150Y-99087150D01*
X119632775Y-99228393D01*
X119599635Y-99395000D01*
X119599635Y-99995000D01*
X119632775Y-100161607D01*
X119727150Y-100302850D01*
X119767783Y-100330000D01*
X119727150Y-100357150D01*
X119632775Y-100498393D01*
X119599635Y-100665000D01*
X119599635Y-101265000D01*
X119632775Y-101431607D01*
X119727150Y-101572850D01*
X119767783Y-101600000D01*
X119727150Y-101627150D01*
X119632775Y-101768393D01*
X119599635Y-101935000D01*
X119599635Y-102535000D01*
X119632775Y-102701607D01*
X119635816Y-102706159D01*
X119507000Y-102834974D01*
X119507000Y-95504000D01*
X119503976Y-95476450D01*
X119073350Y-93538634D01*
X119349143Y-93424397D01*
X119418608Y-93182213D01*
X118618000Y-92381605D01*
X118603858Y-92395748D01*
X118424253Y-92216143D01*
X118438395Y-92202000D01*
X118424253Y-92187858D01*
X118603858Y-92008252D01*
X118618000Y-92022395D01*
X119418608Y-91221787D01*
X119349143Y-90979603D01*
X119023659Y-90863482D01*
X119502114Y-89188890D01*
X119507000Y-89154000D01*
X119507000Y-88732331D01*
X123350000Y-88732331D01*
X123350000Y-89010390D01*
X123508750Y-89169140D01*
X124333000Y-89169140D01*
X124333000Y-88382390D01*
X124174250Y-88223640D01*
X123858690Y-88223640D01*
X123625301Y-88320313D01*
X123446673Y-88498942D01*
X123350000Y-88732331D01*
X119507000Y-88732331D01*
X119507000Y-86487000D01*
X148463000Y-86487000D01*
X148463000Y-90371500D01*
X148463000Y-90371500D01*
G37*
X148463000Y-90371500D02*
X145077160Y-90371500D01*
X145058876Y-90344136D01*
X145106699Y-90324327D01*
X145285327Y-90145698D01*
X145382000Y-89912309D01*
X145382000Y-89634250D01*
X145223250Y-89475500D01*
X144399000Y-89475500D01*
X144399000Y-89495500D01*
X144145000Y-89495500D01*
X144145000Y-89475500D01*
X143320750Y-89475500D01*
X143162000Y-89634250D01*
X143162000Y-89912309D01*
X143258673Y-90145698D01*
X143437301Y-90324327D01*
X143485124Y-90344136D01*
X143466840Y-90371500D01*
X142990568Y-90371500D01*
X142976225Y-90299393D01*
X142881850Y-90158150D01*
X142740607Y-90063775D01*
X142574000Y-90030635D01*
X141774000Y-90030635D01*
X141607393Y-90063775D01*
X141466150Y-90158150D01*
X141371775Y-90299393D01*
X141358924Y-90364000D01*
X141089076Y-90364000D01*
X141076225Y-90299393D01*
X140981850Y-90158150D01*
X140840607Y-90063775D01*
X140674000Y-90030635D01*
X139874000Y-90030635D01*
X139707393Y-90063775D01*
X139566150Y-90158150D01*
X139471775Y-90299393D01*
X139457432Y-90371500D01*
X138981160Y-90371500D01*
X138894779Y-90242221D01*
X138735808Y-90136000D01*
X138894779Y-90029779D01*
X139036573Y-89817569D01*
X139086365Y-89567250D01*
X139086365Y-89201750D01*
X140189000Y-89201750D01*
X140189000Y-89492309D01*
X140285673Y-89725698D01*
X140464301Y-89904327D01*
X140697690Y-90001000D01*
X140938250Y-90001000D01*
X141097000Y-89842250D01*
X141097000Y-89043000D01*
X141351000Y-89043000D01*
X141351000Y-89842250D01*
X141509750Y-90001000D01*
X141750310Y-90001000D01*
X141983699Y-89904327D01*
X142162327Y-89725698D01*
X142259000Y-89492309D01*
X142259000Y-89201750D01*
X142100250Y-89043000D01*
X141351000Y-89043000D01*
X141097000Y-89043000D01*
X140347750Y-89043000D01*
X140189000Y-89201750D01*
X139086365Y-89201750D01*
X139086365Y-89129750D01*
X139036573Y-88879431D01*
X138894779Y-88667221D01*
X138682569Y-88525427D01*
X138432250Y-88475635D01*
X137919750Y-88475635D01*
X137669431Y-88525427D01*
X137457221Y-88667221D01*
X137420953Y-88721500D01*
X136773245Y-88721500D01*
X136711499Y-88709218D01*
X136649753Y-88721500D01*
X136649750Y-88721500D01*
X136466857Y-88757880D01*
X136327284Y-88851140D01*
X136259459Y-88896459D01*
X136224481Y-88948807D01*
X135476000Y-89697289D01*
X135476000Y-89642750D01*
X135317250Y-89484000D01*
X134493000Y-89484000D01*
X134493000Y-89504000D01*
X134239000Y-89504000D01*
X134239000Y-89484000D01*
X133414750Y-89484000D01*
X133350000Y-89548750D01*
X133285250Y-89484000D01*
X132461000Y-89484000D01*
X132461000Y-89504000D01*
X132207000Y-89504000D01*
X132207000Y-89484000D01*
X131382750Y-89484000D01*
X131305250Y-89561500D01*
X131253250Y-89509500D01*
X130429000Y-89509500D01*
X130429000Y-89529500D01*
X130175000Y-89529500D01*
X130175000Y-89509500D01*
X130155000Y-89509500D01*
X130155000Y-89255500D01*
X130175000Y-89255500D01*
X130175000Y-88468750D01*
X130429000Y-88468750D01*
X130429000Y-89255500D01*
X131253250Y-89255500D01*
X131330750Y-89178000D01*
X131382750Y-89230000D01*
X132207000Y-89230000D01*
X132207000Y-88443250D01*
X132461000Y-88443250D01*
X132461000Y-89230000D01*
X133285250Y-89230000D01*
X133350000Y-89165250D01*
X133414750Y-89230000D01*
X134239000Y-89230000D01*
X134239000Y-88443250D01*
X134493000Y-88443250D01*
X134493000Y-89230000D01*
X135317250Y-89230000D01*
X135476000Y-89071250D01*
X135476000Y-88793191D01*
X135379327Y-88559802D01*
X135200699Y-88381173D01*
X135100553Y-88339691D01*
X140189000Y-88339691D01*
X140189000Y-88630250D01*
X140347750Y-88789000D01*
X141097000Y-88789000D01*
X141097000Y-87989750D01*
X141351000Y-87989750D01*
X141351000Y-88789000D01*
X142100250Y-88789000D01*
X142104559Y-88784691D01*
X143162000Y-88784691D01*
X143162000Y-89062750D01*
X143320750Y-89221500D01*
X144145000Y-89221500D01*
X144145000Y-88434750D01*
X144399000Y-88434750D01*
X144399000Y-89221500D01*
X145223250Y-89221500D01*
X145382000Y-89062750D01*
X145382000Y-88784691D01*
X145285327Y-88551302D01*
X145106699Y-88372673D01*
X144873310Y-88276000D01*
X144557750Y-88276000D01*
X144399000Y-88434750D01*
X144145000Y-88434750D01*
X143986250Y-88276000D01*
X143670690Y-88276000D01*
X143437301Y-88372673D01*
X143258673Y-88551302D01*
X143162000Y-88784691D01*
X142104559Y-88784691D01*
X142259000Y-88630250D01*
X142259000Y-88339691D01*
X142162327Y-88106302D01*
X141983699Y-87927673D01*
X141750310Y-87831000D01*
X141509750Y-87831000D01*
X141351000Y-87989750D01*
X141097000Y-87989750D01*
X140938250Y-87831000D01*
X140697690Y-87831000D01*
X140464301Y-87927673D01*
X140285673Y-88106302D01*
X140189000Y-88339691D01*
X135100553Y-88339691D01*
X134967310Y-88284500D01*
X134651750Y-88284500D01*
X134493000Y-88443250D01*
X134239000Y-88443250D01*
X134080250Y-88284500D01*
X133764690Y-88284500D01*
X133531301Y-88381173D01*
X133352673Y-88559802D01*
X133350000Y-88566255D01*
X133347327Y-88559802D01*
X133168699Y-88381173D01*
X132935310Y-88284500D01*
X132619750Y-88284500D01*
X132461000Y-88443250D01*
X132207000Y-88443250D01*
X132048250Y-88284500D01*
X131732690Y-88284500D01*
X131499301Y-88381173D01*
X131320673Y-88559802D01*
X131311638Y-88581613D01*
X131136699Y-88406673D01*
X130903310Y-88310000D01*
X130587750Y-88310000D01*
X130429000Y-88468750D01*
X130175000Y-88468750D01*
X130016250Y-88310000D01*
X129700690Y-88310000D01*
X129467301Y-88406673D01*
X129309299Y-88564676D01*
X129194610Y-88393030D01*
X128984427Y-88252591D01*
X128736500Y-88203275D01*
X128311500Y-88203275D01*
X128063573Y-88252591D01*
X127853390Y-88393030D01*
X127712951Y-88603213D01*
X127697025Y-88683280D01*
X127431059Y-88683280D01*
X127398335Y-88518763D01*
X127303960Y-88377520D01*
X127162717Y-88283145D01*
X126996110Y-88250005D01*
X125997890Y-88250005D01*
X125831283Y-88283145D01*
X125690040Y-88377520D01*
X125595665Y-88518763D01*
X125562525Y-88685370D01*
X125562525Y-88714285D01*
X125473327Y-88498942D01*
X125294699Y-88320313D01*
X125061310Y-88223640D01*
X124745750Y-88223640D01*
X124587000Y-88382390D01*
X124587000Y-89169140D01*
X124607000Y-89169140D01*
X124607000Y-89423140D01*
X124587000Y-89423140D01*
X124587000Y-89443140D01*
X124333000Y-89443140D01*
X124333000Y-89423140D01*
X123508750Y-89423140D01*
X123350000Y-89581890D01*
X123350000Y-89859949D01*
X123446673Y-90093338D01*
X123597474Y-90244140D01*
X122804604Y-90244140D01*
X122742859Y-90231858D01*
X122681114Y-90244140D01*
X122681110Y-90244140D01*
X122498217Y-90280520D01*
X122290819Y-90419099D01*
X122255841Y-90471447D01*
X121620627Y-91106662D01*
X121394507Y-91013000D01*
X120921493Y-91013000D01*
X120484486Y-91194014D01*
X120150014Y-91528486D01*
X120001039Y-91888143D01*
X119999362Y-91854632D01*
X119840397Y-91470857D01*
X119598213Y-91401392D01*
X118797605Y-92202000D01*
X119598213Y-93002608D01*
X119840397Y-92933143D01*
X119994716Y-92500592D01*
X120150014Y-92875514D01*
X120484486Y-93209986D01*
X120921493Y-93391000D01*
X121394507Y-93391000D01*
X121831514Y-93209986D01*
X122165986Y-92875514D01*
X122347000Y-92438507D01*
X122347000Y-92153711D01*
X123002572Y-91498140D01*
X123704953Y-91498140D01*
X123741221Y-91552419D01*
X123953431Y-91694213D01*
X124203750Y-91744005D01*
X124716250Y-91744005D01*
X124966569Y-91694213D01*
X125168930Y-91559000D01*
X125577859Y-91559000D01*
X125595665Y-91648517D01*
X125690040Y-91789760D01*
X125831283Y-91884135D01*
X125870000Y-91891836D01*
X125870001Y-93691055D01*
X125773221Y-93755721D01*
X125736953Y-93810000D01*
X125588744Y-93810000D01*
X125526999Y-93797718D01*
X125465254Y-93810000D01*
X125465250Y-93810000D01*
X125282357Y-93846380D01*
X125074959Y-93984959D01*
X125039981Y-94037307D01*
X124568307Y-94508982D01*
X124515960Y-94543959D01*
X124480982Y-94596307D01*
X124480981Y-94596308D01*
X124377380Y-94751358D01*
X124328718Y-94996000D01*
X124341001Y-95057751D01*
X124341000Y-97276288D01*
X123384289Y-98233000D01*
X123279499Y-98233000D01*
X122975542Y-98358903D01*
X122742903Y-98591542D01*
X122617000Y-98895499D01*
X122617000Y-99000289D01*
X122549289Y-99068000D01*
X121864190Y-99068000D01*
X121751607Y-98992775D01*
X121585000Y-98959635D01*
X120035000Y-98959635D01*
X119868393Y-98992775D01*
X119727150Y-99087150D01*
X119632775Y-99228393D01*
X119599635Y-99395000D01*
X119599635Y-99995000D01*
X119632775Y-100161607D01*
X119727150Y-100302850D01*
X119767783Y-100330000D01*
X119727150Y-100357150D01*
X119632775Y-100498393D01*
X119599635Y-100665000D01*
X119599635Y-101265000D01*
X119632775Y-101431607D01*
X119727150Y-101572850D01*
X119767783Y-101600000D01*
X119727150Y-101627150D01*
X119632775Y-101768393D01*
X119599635Y-101935000D01*
X119599635Y-102535000D01*
X119632775Y-102701607D01*
X119635816Y-102706159D01*
X119507000Y-102834974D01*
X119507000Y-95504000D01*
X119503976Y-95476450D01*
X119073350Y-93538634D01*
X119349143Y-93424397D01*
X119418608Y-93182213D01*
X118618000Y-92381605D01*
X118603858Y-92395748D01*
X118424253Y-92216143D01*
X118438395Y-92202000D01*
X118424253Y-92187858D01*
X118603858Y-92008252D01*
X118618000Y-92022395D01*
X119418608Y-91221787D01*
X119349143Y-90979603D01*
X119023659Y-90863482D01*
X119502114Y-89188890D01*
X119507000Y-89154000D01*
X119507000Y-88732331D01*
X123350000Y-88732331D01*
X123350000Y-89010390D01*
X123508750Y-89169140D01*
X124333000Y-89169140D01*
X124333000Y-88382390D01*
X124174250Y-88223640D01*
X123858690Y-88223640D01*
X123625301Y-88320313D01*
X123446673Y-88498942D01*
X123350000Y-88732331D01*
X119507000Y-88732331D01*
X119507000Y-86487000D01*
X148463000Y-86487000D01*
X148463000Y-90371500D01*
G36*
X137457221Y-90029779D02*
X137616192Y-90136000D01*
X137457221Y-90242221D01*
X137315427Y-90454431D01*
X137265635Y-90704750D01*
X137265635Y-91142250D01*
X137315427Y-91392569D01*
X137457221Y-91604779D01*
X137669431Y-91746573D01*
X137919750Y-91796365D01*
X138432250Y-91796365D01*
X138682569Y-91746573D01*
X138894779Y-91604779D01*
X138981160Y-91475500D01*
X139460416Y-91475500D01*
X139471775Y-91532607D01*
X139566150Y-91673850D01*
X139707393Y-91768225D01*
X139874000Y-91801365D01*
X140674000Y-91801365D01*
X140840607Y-91768225D01*
X140981850Y-91673850D01*
X141076225Y-91532607D01*
X141089076Y-91468000D01*
X141358924Y-91468000D01*
X141371775Y-91532607D01*
X141466150Y-91673850D01*
X141607393Y-91768225D01*
X141622000Y-91771131D01*
X141622001Y-96103353D01*
X141249355Y-96476000D01*
X141013160Y-96476000D01*
X140994876Y-96448636D01*
X141042699Y-96428827D01*
X141221327Y-96250198D01*
X141318000Y-96016809D01*
X141318000Y-95738750D01*
X141159250Y-95580000D01*
X140335000Y-95580000D01*
X140335000Y-95600000D01*
X140081000Y-95600000D01*
X140081000Y-95580000D01*
X139256750Y-95580000D01*
X139098000Y-95738750D01*
X139098000Y-96016809D01*
X139194673Y-96250198D01*
X139373301Y-96428827D01*
X139421124Y-96448636D01*
X139347427Y-96558931D01*
X139297635Y-96809250D01*
X139297635Y-97246750D01*
X139347427Y-97497069D01*
X139489221Y-97709279D01*
X139656000Y-97820717D01*
X139656001Y-99784630D01*
X139645186Y-99839000D01*
X139688028Y-100054379D01*
X139695806Y-100066019D01*
X139810031Y-100236970D01*
X139856122Y-100267767D01*
X139889231Y-100300876D01*
X139920030Y-100346970D01*
X140102620Y-100468972D01*
X140176336Y-100483635D01*
X140187746Y-100485905D01*
X140235150Y-100556850D01*
X140275783Y-100584000D01*
X140235150Y-100611150D01*
X140140775Y-100752393D01*
X140107635Y-100919000D01*
X140107635Y-101519000D01*
X140140775Y-101685607D01*
X140235150Y-101826850D01*
X140275783Y-101854000D01*
X140235150Y-101881150D01*
X140197832Y-101937000D01*
X139144864Y-101937000D01*
X139090499Y-101926186D01*
X138875120Y-101969028D01*
X138692530Y-102091030D01*
X138661733Y-102137121D01*
X138540865Y-102257989D01*
X138540865Y-102105750D01*
X138491073Y-101855431D01*
X138349279Y-101643221D01*
X138297344Y-101608519D01*
X138374779Y-101556779D01*
X138516573Y-101344569D01*
X138566365Y-101094250D01*
X138566365Y-100581750D01*
X138516573Y-100331431D01*
X138374779Y-100119221D01*
X138162569Y-99977427D01*
X137912250Y-99927635D01*
X137474750Y-99927635D01*
X137224431Y-99977427D01*
X137012221Y-100119221D01*
X136906000Y-100278192D01*
X136799779Y-100119221D01*
X136587569Y-99977427D01*
X136337250Y-99927635D01*
X135899750Y-99927635D01*
X135649431Y-99977427D01*
X135437221Y-100119221D01*
X135295427Y-100331431D01*
X135245635Y-100581750D01*
X135245635Y-100701719D01*
X134537722Y-101409633D01*
X134612000Y-101230310D01*
X134612000Y-101150250D01*
X134453250Y-100991500D01*
X134277891Y-100991500D01*
X134143607Y-100901775D01*
X134029109Y-100879000D01*
X134143607Y-100856225D01*
X134251453Y-100784165D01*
X134267365Y-100781000D01*
X134340261Y-100766500D01*
X134453250Y-100766500D01*
X134556152Y-100663598D01*
X134610970Y-100626970D01*
X134641768Y-100580877D01*
X135987880Y-99234766D01*
X136033970Y-99203970D01*
X136155972Y-99021380D01*
X136188000Y-98860365D01*
X136188000Y-98860364D01*
X136198814Y-98806000D01*
X136188000Y-98751635D01*
X136188000Y-98098364D01*
X136198814Y-98043999D01*
X136155972Y-97828620D01*
X136130168Y-97790001D01*
X136033970Y-97646030D01*
X135987879Y-97615233D01*
X135073476Y-96700831D01*
X135084779Y-96693279D01*
X135226573Y-96481069D01*
X135276365Y-96230750D01*
X135276365Y-95793250D01*
X135226573Y-95542931D01*
X135152876Y-95432636D01*
X135200699Y-95412827D01*
X135379327Y-95234198D01*
X135476000Y-95000809D01*
X135476000Y-94889191D01*
X139098000Y-94889191D01*
X139098000Y-95167250D01*
X139256750Y-95326000D01*
X140081000Y-95326000D01*
X140081000Y-94539250D01*
X140335000Y-94539250D01*
X140335000Y-95326000D01*
X141159250Y-95326000D01*
X141318000Y-95167250D01*
X141318000Y-94889191D01*
X141221327Y-94655802D01*
X141042699Y-94477173D01*
X140809310Y-94380500D01*
X140493750Y-94380500D01*
X140335000Y-94539250D01*
X140081000Y-94539250D01*
X139922250Y-94380500D01*
X139606690Y-94380500D01*
X139373301Y-94477173D01*
X139194673Y-94655802D01*
X139098000Y-94889191D01*
X135476000Y-94889191D01*
X135476000Y-94722750D01*
X135317250Y-94564000D01*
X134493000Y-94564000D01*
X134493000Y-94584000D01*
X134239000Y-94584000D01*
X134239000Y-94564000D01*
X133414750Y-94564000D01*
X133350000Y-94628750D01*
X133285250Y-94564000D01*
X132461000Y-94564000D01*
X132461000Y-94584000D01*
X132207000Y-94584000D01*
X132207000Y-94564000D01*
X131382750Y-94564000D01*
X131349750Y-94597000D01*
X131316750Y-94564000D01*
X130492500Y-94564000D01*
X130492500Y-94584000D01*
X130238500Y-94584000D01*
X130238500Y-94564000D01*
X130218500Y-94564000D01*
X130218500Y-94310000D01*
X130238500Y-94310000D01*
X130238500Y-93523250D01*
X130492500Y-93523250D01*
X130492500Y-94310000D01*
X131316750Y-94310000D01*
X131349750Y-94277000D01*
X131382750Y-94310000D01*
X132207000Y-94310000D01*
X132207000Y-93523250D01*
X132461000Y-93523250D01*
X132461000Y-94310000D01*
X133285250Y-94310000D01*
X133350000Y-94245250D01*
X133414750Y-94310000D01*
X134239000Y-94310000D01*
X134239000Y-93523250D01*
X134493000Y-93523250D01*
X134493000Y-94310000D01*
X135317250Y-94310000D01*
X135476000Y-94151250D01*
X135476000Y-93873191D01*
X135379327Y-93639802D01*
X135200699Y-93461173D01*
X134967310Y-93364500D01*
X134651750Y-93364500D01*
X134493000Y-93523250D01*
X134239000Y-93523250D01*
X134080250Y-93364500D01*
X133764690Y-93364500D01*
X133531301Y-93461173D01*
X133352673Y-93639802D01*
X133350000Y-93646255D01*
X133347327Y-93639802D01*
X133168699Y-93461173D01*
X132935310Y-93364500D01*
X132619750Y-93364500D01*
X132461000Y-93523250D01*
X132207000Y-93523250D01*
X132048250Y-93364500D01*
X131732690Y-93364500D01*
X131499301Y-93461173D01*
X131349750Y-93610725D01*
X131200199Y-93461173D01*
X130966810Y-93364500D01*
X130651250Y-93364500D01*
X130492500Y-93523250D01*
X130238500Y-93523250D01*
X130079750Y-93364500D01*
X130026212Y-93364500D01*
X130701693Y-92689019D01*
X130754041Y-92654041D01*
X130892620Y-92446643D01*
X130929000Y-92263750D01*
X130929000Y-92263746D01*
X130941282Y-92202001D01*
X130929000Y-92140256D01*
X130929000Y-91700104D01*
X131020779Y-91638779D01*
X131074086Y-91559000D01*
X131578953Y-91559000D01*
X131615221Y-91613279D01*
X131827431Y-91755073D01*
X132077750Y-91804865D01*
X132590250Y-91804865D01*
X132840569Y-91755073D01*
X133052779Y-91613279D01*
X133089047Y-91559000D01*
X133610953Y-91559000D01*
X133647221Y-91613279D01*
X133859431Y-91755073D01*
X134109750Y-91804865D01*
X134622250Y-91804865D01*
X134872569Y-91755073D01*
X135084779Y-91613279D01*
X135114619Y-91568620D01*
X135128000Y-91571282D01*
X135189746Y-91559000D01*
X135189750Y-91559000D01*
X135372643Y-91522620D01*
X135580041Y-91384041D01*
X135615020Y-91331691D01*
X136971212Y-89975500D01*
X137420953Y-89975500D01*
X137457221Y-90029779D01*
X137457221Y-90029779D01*
G37*
X137457221Y-90029779D02*
X137616192Y-90136000D01*
X137457221Y-90242221D01*
X137315427Y-90454431D01*
X137265635Y-90704750D01*
X137265635Y-91142250D01*
X137315427Y-91392569D01*
X137457221Y-91604779D01*
X137669431Y-91746573D01*
X137919750Y-91796365D01*
X138432250Y-91796365D01*
X138682569Y-91746573D01*
X138894779Y-91604779D01*
X138981160Y-91475500D01*
X139460416Y-91475500D01*
X139471775Y-91532607D01*
X139566150Y-91673850D01*
X139707393Y-91768225D01*
X139874000Y-91801365D01*
X140674000Y-91801365D01*
X140840607Y-91768225D01*
X140981850Y-91673850D01*
X141076225Y-91532607D01*
X141089076Y-91468000D01*
X141358924Y-91468000D01*
X141371775Y-91532607D01*
X141466150Y-91673850D01*
X141607393Y-91768225D01*
X141622000Y-91771131D01*
X141622001Y-96103353D01*
X141249355Y-96476000D01*
X141013160Y-96476000D01*
X140994876Y-96448636D01*
X141042699Y-96428827D01*
X141221327Y-96250198D01*
X141318000Y-96016809D01*
X141318000Y-95738750D01*
X141159250Y-95580000D01*
X140335000Y-95580000D01*
X140335000Y-95600000D01*
X140081000Y-95600000D01*
X140081000Y-95580000D01*
X139256750Y-95580000D01*
X139098000Y-95738750D01*
X139098000Y-96016809D01*
X139194673Y-96250198D01*
X139373301Y-96428827D01*
X139421124Y-96448636D01*
X139347427Y-96558931D01*
X139297635Y-96809250D01*
X139297635Y-97246750D01*
X139347427Y-97497069D01*
X139489221Y-97709279D01*
X139656000Y-97820717D01*
X139656001Y-99784630D01*
X139645186Y-99839000D01*
X139688028Y-100054379D01*
X139695806Y-100066019D01*
X139810031Y-100236970D01*
X139856122Y-100267767D01*
X139889231Y-100300876D01*
X139920030Y-100346970D01*
X140102620Y-100468972D01*
X140176336Y-100483635D01*
X140187746Y-100485905D01*
X140235150Y-100556850D01*
X140275783Y-100584000D01*
X140235150Y-100611150D01*
X140140775Y-100752393D01*
X140107635Y-100919000D01*
X140107635Y-101519000D01*
X140140775Y-101685607D01*
X140235150Y-101826850D01*
X140275783Y-101854000D01*
X140235150Y-101881150D01*
X140197832Y-101937000D01*
X139144864Y-101937000D01*
X139090499Y-101926186D01*
X138875120Y-101969028D01*
X138692530Y-102091030D01*
X138661733Y-102137121D01*
X138540865Y-102257989D01*
X138540865Y-102105750D01*
X138491073Y-101855431D01*
X138349279Y-101643221D01*
X138297344Y-101608519D01*
X138374779Y-101556779D01*
X138516573Y-101344569D01*
X138566365Y-101094250D01*
X138566365Y-100581750D01*
X138516573Y-100331431D01*
X138374779Y-100119221D01*
X138162569Y-99977427D01*
X137912250Y-99927635D01*
X137474750Y-99927635D01*
X137224431Y-99977427D01*
X137012221Y-100119221D01*
X136906000Y-100278192D01*
X136799779Y-100119221D01*
X136587569Y-99977427D01*
X136337250Y-99927635D01*
X135899750Y-99927635D01*
X135649431Y-99977427D01*
X135437221Y-100119221D01*
X135295427Y-100331431D01*
X135245635Y-100581750D01*
X135245635Y-100701719D01*
X134537722Y-101409633D01*
X134612000Y-101230310D01*
X134612000Y-101150250D01*
X134453250Y-100991500D01*
X134277891Y-100991500D01*
X134143607Y-100901775D01*
X134029109Y-100879000D01*
X134143607Y-100856225D01*
X134251453Y-100784165D01*
X134267365Y-100781000D01*
X134340261Y-100766500D01*
X134453250Y-100766500D01*
X134556152Y-100663598D01*
X134610970Y-100626970D01*
X134641768Y-100580877D01*
X135987880Y-99234766D01*
X136033970Y-99203970D01*
X136155972Y-99021380D01*
X136188000Y-98860365D01*
X136188000Y-98860364D01*
X136198814Y-98806000D01*
X136188000Y-98751635D01*
X136188000Y-98098364D01*
X136198814Y-98043999D01*
X136155972Y-97828620D01*
X136130168Y-97790001D01*
X136033970Y-97646030D01*
X135987879Y-97615233D01*
X135073476Y-96700831D01*
X135084779Y-96693279D01*
X135226573Y-96481069D01*
X135276365Y-96230750D01*
X135276365Y-95793250D01*
X135226573Y-95542931D01*
X135152876Y-95432636D01*
X135200699Y-95412827D01*
X135379327Y-95234198D01*
X135476000Y-95000809D01*
X135476000Y-94889191D01*
X139098000Y-94889191D01*
X139098000Y-95167250D01*
X139256750Y-95326000D01*
X140081000Y-95326000D01*
X140081000Y-94539250D01*
X140335000Y-94539250D01*
X140335000Y-95326000D01*
X141159250Y-95326000D01*
X141318000Y-95167250D01*
X141318000Y-94889191D01*
X141221327Y-94655802D01*
X141042699Y-94477173D01*
X140809310Y-94380500D01*
X140493750Y-94380500D01*
X140335000Y-94539250D01*
X140081000Y-94539250D01*
X139922250Y-94380500D01*
X139606690Y-94380500D01*
X139373301Y-94477173D01*
X139194673Y-94655802D01*
X139098000Y-94889191D01*
X135476000Y-94889191D01*
X135476000Y-94722750D01*
X135317250Y-94564000D01*
X134493000Y-94564000D01*
X134493000Y-94584000D01*
X134239000Y-94584000D01*
X134239000Y-94564000D01*
X133414750Y-94564000D01*
X133350000Y-94628750D01*
X133285250Y-94564000D01*
X132461000Y-94564000D01*
X132461000Y-94584000D01*
X132207000Y-94584000D01*
X132207000Y-94564000D01*
X131382750Y-94564000D01*
X131349750Y-94597000D01*
X131316750Y-94564000D01*
X130492500Y-94564000D01*
X130492500Y-94584000D01*
X130238500Y-94584000D01*
X130238500Y-94564000D01*
X130218500Y-94564000D01*
X130218500Y-94310000D01*
X130238500Y-94310000D01*
X130238500Y-93523250D01*
X130492500Y-93523250D01*
X130492500Y-94310000D01*
X131316750Y-94310000D01*
X131349750Y-94277000D01*
X131382750Y-94310000D01*
X132207000Y-94310000D01*
X132207000Y-93523250D01*
X132461000Y-93523250D01*
X132461000Y-94310000D01*
X133285250Y-94310000D01*
X133350000Y-94245250D01*
X133414750Y-94310000D01*
X134239000Y-94310000D01*
X134239000Y-93523250D01*
X134493000Y-93523250D01*
X134493000Y-94310000D01*
X135317250Y-94310000D01*
X135476000Y-94151250D01*
X135476000Y-93873191D01*
X135379327Y-93639802D01*
X135200699Y-93461173D01*
X134967310Y-93364500D01*
X134651750Y-93364500D01*
X134493000Y-93523250D01*
X134239000Y-93523250D01*
X134080250Y-93364500D01*
X133764690Y-93364500D01*
X133531301Y-93461173D01*
X133352673Y-93639802D01*
X133350000Y-93646255D01*
X133347327Y-93639802D01*
X133168699Y-93461173D01*
X132935310Y-93364500D01*
X132619750Y-93364500D01*
X132461000Y-93523250D01*
X132207000Y-93523250D01*
X132048250Y-93364500D01*
X131732690Y-93364500D01*
X131499301Y-93461173D01*
X131349750Y-93610725D01*
X131200199Y-93461173D01*
X130966810Y-93364500D01*
X130651250Y-93364500D01*
X130492500Y-93523250D01*
X130238500Y-93523250D01*
X130079750Y-93364500D01*
X130026212Y-93364500D01*
X130701693Y-92689019D01*
X130754041Y-92654041D01*
X130892620Y-92446643D01*
X130929000Y-92263750D01*
X130929000Y-92263746D01*
X130941282Y-92202001D01*
X130929000Y-92140256D01*
X130929000Y-91700104D01*
X131020779Y-91638779D01*
X131074086Y-91559000D01*
X131578953Y-91559000D01*
X131615221Y-91613279D01*
X131827431Y-91755073D01*
X132077750Y-91804865D01*
X132590250Y-91804865D01*
X132840569Y-91755073D01*
X133052779Y-91613279D01*
X133089047Y-91559000D01*
X133610953Y-91559000D01*
X133647221Y-91613279D01*
X133859431Y-91755073D01*
X134109750Y-91804865D01*
X134622250Y-91804865D01*
X134872569Y-91755073D01*
X135084779Y-91613279D01*
X135114619Y-91568620D01*
X135128000Y-91571282D01*
X135189746Y-91559000D01*
X135189750Y-91559000D01*
X135372643Y-91522620D01*
X135580041Y-91384041D01*
X135615020Y-91331691D01*
X136971212Y-89975500D01*
X137420953Y-89975500D01*
X137457221Y-90029779D01*
G36*
X143553221Y-91604779D02*
X143765431Y-91746573D01*
X144015750Y-91796365D01*
X144528250Y-91796365D01*
X144778569Y-91746573D01*
X144990779Y-91604779D01*
X145077160Y-91475500D01*
X148463000Y-91475500D01*
X148463000Y-100032000D01*
X145596364Y-100032000D01*
X145541999Y-100021186D01*
X145326620Y-100064028D01*
X145144030Y-100186030D01*
X145132691Y-100203000D01*
X142528365Y-100203000D01*
X142528365Y-99649000D01*
X142503241Y-99522690D01*
X145308000Y-99522690D01*
X145308000Y-99663250D01*
X145466750Y-99822000D01*
X146591000Y-99822000D01*
X146591000Y-99172750D01*
X146845000Y-99172750D01*
X146845000Y-99822000D01*
X147969250Y-99822000D01*
X148128000Y-99663250D01*
X148128000Y-99522690D01*
X148031327Y-99289301D01*
X147852698Y-99110673D01*
X147619309Y-99014000D01*
X147003750Y-99014000D01*
X146845000Y-99172750D01*
X146591000Y-99172750D01*
X146432250Y-99014000D01*
X145816691Y-99014000D01*
X145583302Y-99110673D01*
X145404673Y-99289301D01*
X145308000Y-99522690D01*
X142503241Y-99522690D01*
X142495225Y-99482393D01*
X142400850Y-99341150D01*
X142259607Y-99246775D01*
X142093000Y-99213635D01*
X140760000Y-99213635D01*
X140760000Y-97820717D01*
X140926779Y-97709279D01*
X141013160Y-97580000D01*
X141423635Y-97580000D01*
X141478000Y-97590814D01*
X141532365Y-97580000D01*
X141693380Y-97547972D01*
X141875970Y-97425970D01*
X141906768Y-97379877D01*
X142525879Y-96760767D01*
X142571970Y-96729970D01*
X142693972Y-96547380D01*
X142726000Y-96386365D01*
X142736814Y-96332000D01*
X142726000Y-96277635D01*
X142726000Y-91771130D01*
X142740607Y-91768225D01*
X142881850Y-91673850D01*
X142976225Y-91532607D01*
X142987584Y-91475500D01*
X143466840Y-91475500D01*
X143553221Y-91604779D01*
X143553221Y-91604779D01*
G37*
X143553221Y-91604779D02*
X143765431Y-91746573D01*
X144015750Y-91796365D01*
X144528250Y-91796365D01*
X144778569Y-91746573D01*
X144990779Y-91604779D01*
X145077160Y-91475500D01*
X148463000Y-91475500D01*
X148463000Y-100032000D01*
X145596364Y-100032000D01*
X145541999Y-100021186D01*
X145326620Y-100064028D01*
X145144030Y-100186030D01*
X145132691Y-100203000D01*
X142528365Y-100203000D01*
X142528365Y-99649000D01*
X142503241Y-99522690D01*
X145308000Y-99522690D01*
X145308000Y-99663250D01*
X145466750Y-99822000D01*
X146591000Y-99822000D01*
X146591000Y-99172750D01*
X146845000Y-99172750D01*
X146845000Y-99822000D01*
X147969250Y-99822000D01*
X148128000Y-99663250D01*
X148128000Y-99522690D01*
X148031327Y-99289301D01*
X147852698Y-99110673D01*
X147619309Y-99014000D01*
X147003750Y-99014000D01*
X146845000Y-99172750D01*
X146591000Y-99172750D01*
X146432250Y-99014000D01*
X145816691Y-99014000D01*
X145583302Y-99110673D01*
X145404673Y-99289301D01*
X145308000Y-99522690D01*
X142503241Y-99522690D01*
X142495225Y-99482393D01*
X142400850Y-99341150D01*
X142259607Y-99246775D01*
X142093000Y-99213635D01*
X140760000Y-99213635D01*
X140760000Y-97820717D01*
X140926779Y-97709279D01*
X141013160Y-97580000D01*
X141423635Y-97580000D01*
X141478000Y-97590814D01*
X141532365Y-97580000D01*
X141693380Y-97547972D01*
X141875970Y-97425970D01*
X141906768Y-97379877D01*
X142525879Y-96760767D01*
X142571970Y-96729970D01*
X142693972Y-96547380D01*
X142726000Y-96386365D01*
X142736814Y-96332000D01*
X142726000Y-96277635D01*
X142726000Y-91771130D01*
X142740607Y-91768225D01*
X142881850Y-91673850D01*
X142976225Y-91532607D01*
X142987584Y-91475500D01*
X143466840Y-91475500D01*
X143553221Y-91604779D01*
G36*
X127560673Y-89903942D02*
X127464000Y-90137331D01*
X127464000Y-90590390D01*
X127622750Y-90749140D01*
X128397000Y-90749140D01*
X128397000Y-90729140D01*
X128651000Y-90729140D01*
X128651000Y-90749140D01*
X128671000Y-90749140D01*
X128671000Y-91003140D01*
X128651000Y-91003140D01*
X128651000Y-91964890D01*
X128809750Y-92123640D01*
X129075310Y-92123640D01*
X129308699Y-92026967D01*
X129487327Y-91848338D01*
X129577609Y-91630379D01*
X129583221Y-91638779D01*
X129675001Y-91700104D01*
X129675001Y-91942287D01*
X128060809Y-93556480D01*
X128008459Y-93591459D01*
X127999503Y-93604862D01*
X127953931Y-93613927D01*
X127741721Y-93755721D01*
X127705453Y-93810000D01*
X127247047Y-93810000D01*
X127210779Y-93755721D01*
X127124000Y-93697737D01*
X127124000Y-91891836D01*
X127162717Y-91884135D01*
X127303960Y-91789760D01*
X127398335Y-91648517D01*
X127431475Y-91481910D01*
X127431475Y-91161890D01*
X127464000Y-91161890D01*
X127464000Y-91614949D01*
X127560673Y-91848338D01*
X127739301Y-92026967D01*
X127972690Y-92123640D01*
X128238250Y-92123640D01*
X128397000Y-91964890D01*
X128397000Y-91003140D01*
X127622750Y-91003140D01*
X127464000Y-91161890D01*
X127431475Y-91161890D01*
X127431475Y-90382090D01*
X127398335Y-90215483D01*
X127310241Y-90083640D01*
X127398335Y-89951797D01*
X127431059Y-89787280D01*
X127677334Y-89787280D01*
X127560673Y-89903942D01*
X127560673Y-89903942D01*
G37*
X127560673Y-89903942D02*
X127464000Y-90137331D01*
X127464000Y-90590390D01*
X127622750Y-90749140D01*
X128397000Y-90749140D01*
X128397000Y-90729140D01*
X128651000Y-90729140D01*
X128651000Y-90749140D01*
X128671000Y-90749140D01*
X128671000Y-91003140D01*
X128651000Y-91003140D01*
X128651000Y-91964890D01*
X128809750Y-92123640D01*
X129075310Y-92123640D01*
X129308699Y-92026967D01*
X129487327Y-91848338D01*
X129577609Y-91630379D01*
X129583221Y-91638779D01*
X129675001Y-91700104D01*
X129675001Y-91942287D01*
X128060809Y-93556480D01*
X128008459Y-93591459D01*
X127999503Y-93604862D01*
X127953931Y-93613927D01*
X127741721Y-93755721D01*
X127705453Y-93810000D01*
X127247047Y-93810000D01*
X127210779Y-93755721D01*
X127124000Y-93697737D01*
X127124000Y-91891836D01*
X127162717Y-91884135D01*
X127303960Y-91789760D01*
X127398335Y-91648517D01*
X127431475Y-91481910D01*
X127431475Y-91161890D01*
X127464000Y-91161890D01*
X127464000Y-91614949D01*
X127560673Y-91848338D01*
X127739301Y-92026967D01*
X127972690Y-92123640D01*
X128238250Y-92123640D01*
X128397000Y-91964890D01*
X128397000Y-91003140D01*
X127622750Y-91003140D01*
X127464000Y-91161890D01*
X127431475Y-91161890D01*
X127431475Y-90382090D01*
X127398335Y-90215483D01*
X127310241Y-90083640D01*
X127398335Y-89951797D01*
X127431059Y-89787280D01*
X127677334Y-89787280D01*
X127560673Y-89903942D01*
G04 #@! TD*
M02*
