G04 #@! TF.GenerationSoftware,KiCad,Pcbnew,(5.0.1)-3*
G04 #@! TF.CreationDate,2019-12-14T18:20:53-05:00*
G04 #@! TF.ProjectId,ml-ph-board,6D6C2D70682D626F6172642E6B696361,rev?*
G04 #@! TF.SameCoordinates,Original*
G04 #@! TF.FileFunction,Copper,L2,Bot,Signal*
G04 #@! TF.FilePolarity,Positive*
%FSLAX46Y46*%
G04 Gerber Fmt 4.6, Leading zero omitted, Abs format (unit mm)*
G04 Created by KiCad (PCBNEW (5.0.1)-3) date 12/14/2019 6:20:53 PM*
%MOMM*%
%LPD*%
G01*
G04 APERTURE LIST*
G04 #@! TA.AperFunction,ComponentPad*
%ADD10C,3.215640*%
G04 #@! TD*
G04 #@! TA.AperFunction,ComponentPad*
%ADD11O,2.613660X1.305560*%
G04 #@! TD*
G04 #@! TA.AperFunction,Conductor*
%ADD12C,0.100000*%
G04 #@! TD*
G04 #@! TA.AperFunction,ComponentPad*
%ADD13C,1.700000*%
G04 #@! TD*
G04 #@! TA.AperFunction,ComponentPad*
%ADD14O,1.950000X1.700000*%
G04 #@! TD*
G04 #@! TA.AperFunction,ComponentPad*
%ADD15C,1.879600*%
G04 #@! TD*
G04 #@! TA.AperFunction,ComponentPad*
%ADD16C,1.524000*%
G04 #@! TD*
G04 #@! TA.AperFunction,ViaPad*
%ADD17C,0.800000*%
G04 #@! TD*
G04 #@! TA.AperFunction,ViaPad*
%ADD18C,1.000000*%
G04 #@! TD*
G04 #@! TA.AperFunction,Conductor*
%ADD19C,0.250000*%
G04 #@! TD*
G04 #@! TA.AperFunction,Conductor*
%ADD20C,0.400000*%
G04 #@! TD*
G04 #@! TA.AperFunction,Conductor*
%ADD21C,0.254000*%
G04 #@! TD*
G04 APERTURE END LIST*
D10*
G04 #@! TO.P,J3,3*
G04 #@! TO.N,N/C*
X157480000Y-96774000D03*
G04 #@! TO.P,J3,4*
X157480000Y-106934000D03*
D11*
G04 #@! TO.P,J3,GND*
G04 #@! TO.N,Net-(C6-Pad1)*
X152400000Y-99314000D03*
G04 #@! TO.P,J3,S*
G04 #@! TO.N,Net-(J3-PadS)*
X152400000Y-101854000D03*
G04 #@! TD*
D12*
G04 #@! TO.N,+5V*
G04 #@! TO.C,J1*
G36*
X107683504Y-104815204D02*
X107707773Y-104818804D01*
X107731571Y-104824765D01*
X107754671Y-104833030D01*
X107776849Y-104843520D01*
X107797893Y-104856133D01*
X107817598Y-104870747D01*
X107835777Y-104887223D01*
X107852253Y-104905402D01*
X107866867Y-104925107D01*
X107879480Y-104946151D01*
X107889970Y-104968329D01*
X107898235Y-104991429D01*
X107904196Y-105015227D01*
X107907796Y-105039496D01*
X107909000Y-105064000D01*
X107909000Y-106264000D01*
X107907796Y-106288504D01*
X107904196Y-106312773D01*
X107898235Y-106336571D01*
X107889970Y-106359671D01*
X107879480Y-106381849D01*
X107866867Y-106402893D01*
X107852253Y-106422598D01*
X107835777Y-106440777D01*
X107817598Y-106457253D01*
X107797893Y-106471867D01*
X107776849Y-106484480D01*
X107754671Y-106494970D01*
X107731571Y-106503235D01*
X107707773Y-106509196D01*
X107683504Y-106512796D01*
X107659000Y-106514000D01*
X106209000Y-106514000D01*
X106184496Y-106512796D01*
X106160227Y-106509196D01*
X106136429Y-106503235D01*
X106113329Y-106494970D01*
X106091151Y-106484480D01*
X106070107Y-106471867D01*
X106050402Y-106457253D01*
X106032223Y-106440777D01*
X106015747Y-106422598D01*
X106001133Y-106402893D01*
X105988520Y-106381849D01*
X105978030Y-106359671D01*
X105969765Y-106336571D01*
X105963804Y-106312773D01*
X105960204Y-106288504D01*
X105959000Y-106264000D01*
X105959000Y-105064000D01*
X105960204Y-105039496D01*
X105963804Y-105015227D01*
X105969765Y-104991429D01*
X105978030Y-104968329D01*
X105988520Y-104946151D01*
X106001133Y-104925107D01*
X106015747Y-104905402D01*
X106032223Y-104887223D01*
X106050402Y-104870747D01*
X106070107Y-104856133D01*
X106091151Y-104843520D01*
X106113329Y-104833030D01*
X106136429Y-104824765D01*
X106160227Y-104818804D01*
X106184496Y-104815204D01*
X106209000Y-104814000D01*
X107659000Y-104814000D01*
X107683504Y-104815204D01*
X107683504Y-104815204D01*
G37*
D13*
G04 #@! TD*
G04 #@! TO.P,J1,1*
G04 #@! TO.N,+5V*
X106934000Y-105664000D03*
D14*
G04 #@! TO.P,J1,2*
G04 #@! TO.N,/SCL*
X106934000Y-103164000D03*
G04 #@! TO.P,J1,3*
G04 #@! TO.N,/SDA*
X106934000Y-100664000D03*
G04 #@! TO.P,J1,4*
G04 #@! TO.N,GND*
X106934000Y-98164000D03*
G04 #@! TD*
D15*
G04 #@! TO.P,J2,4*
G04 #@! TO.N,/NRST*
X128778000Y-116078000D03*
G04 #@! TO.P,J2,3*
G04 #@! TO.N,+5VD*
X126238000Y-115824000D03*
G04 #@! TO.P,J2,2*
G04 #@! TO.N,GNDD*
X123698000Y-116078000D03*
G04 #@! TO.P,J2,1*
G04 #@! TO.N,/SWIM*
X121158000Y-115824000D03*
G04 #@! TD*
D16*
G04 #@! TO.P,U2,1*
G04 #@! TO.N,GND*
X113538000Y-92202000D03*
G04 #@! TO.P,U2,2*
G04 #@! TO.N,+5V*
X116078000Y-92202000D03*
G04 #@! TO.P,U2,3*
G04 #@! TO.N,GNDD*
X118618000Y-92202000D03*
G04 #@! TO.P,U2,4*
G04 #@! TO.N,+5VD*
X121158000Y-92202000D03*
G04 #@! TD*
D17*
G04 #@! TO.N,*
X156718000Y-102616000D03*
G04 #@! TO.N,GND*
X115570000Y-105410000D03*
X114046000Y-105410000D03*
D18*
G04 #@! TO.N,+5V*
X109728000Y-99568000D03*
D17*
G04 #@! TO.N,+5VD*
X123698000Y-103632000D03*
X123444000Y-99060000D03*
X137668000Y-104394000D03*
X136144000Y-98298000D03*
G04 #@! TO.N,GNDD*
X120904000Y-105156000D03*
X122428000Y-105156000D03*
X137668000Y-107950000D03*
X137668000Y-109220000D03*
X136144000Y-92710000D03*
X137668000Y-92710000D03*
X139192000Y-92710000D03*
X147320000Y-87630000D03*
X147320000Y-89662000D03*
X145542000Y-87630000D03*
X140208000Y-116078000D03*
X132080000Y-116078000D03*
X143764000Y-94488000D03*
X145034000Y-94488000D03*
X146304000Y-94488000D03*
G04 #@! TO.N,/SWIM*
X125222000Y-103632000D03*
G04 #@! TD*
D19*
G04 #@! TO.N,*
X155702000Y-102616000D02*
X156718000Y-102616000D01*
X155702000Y-101346000D02*
X155702000Y-102616000D01*
X154940000Y-100584000D02*
X155702000Y-101346000D01*
X146304000Y-100584000D02*
X154940000Y-100584000D01*
X145796000Y-101092000D02*
X146304000Y-100584000D01*
X155702000Y-102870000D02*
X155194000Y-103378000D01*
X155702000Y-102616000D02*
X155702000Y-102870000D01*
X145796000Y-101346000D02*
X145796000Y-101092000D01*
X155194000Y-103378000D02*
X150876000Y-103378000D01*
X150876000Y-103378000D02*
X149352000Y-101854000D01*
X149352000Y-101854000D02*
X146304000Y-101854000D01*
X146304000Y-101854000D02*
X145796000Y-101346000D01*
D20*
G04 #@! TO.N,+5V*
X109728000Y-99568000D02*
X109728000Y-104902000D01*
X108966000Y-105664000D02*
X109728000Y-104902000D01*
X106934000Y-105664000D02*
X108966000Y-105664000D01*
G04 #@! TO.N,+5VD*
X123698000Y-99314000D02*
X123444000Y-99060000D01*
X123698000Y-103632000D02*
X123698000Y-99314000D01*
X137668000Y-104394000D02*
X137668000Y-99822000D01*
X137668000Y-99822000D02*
X136144000Y-98298000D01*
D19*
G04 #@! TO.N,/SWIM*
X121158000Y-107696000D02*
X121158000Y-115824000D01*
X125222000Y-103632000D02*
X121158000Y-107696000D01*
G04 #@! TD*
D21*
G04 #@! TO.N,GND*
G36*
X116713000Y-90952923D02*
X116355881Y-90805000D01*
X115800119Y-90805000D01*
X115286663Y-91017680D01*
X114893680Y-91410663D01*
X114814572Y-91601647D01*
X114760397Y-91470857D01*
X114518213Y-91401392D01*
X113717605Y-92202000D01*
X114518213Y-93002608D01*
X114760397Y-92933143D01*
X114810535Y-92792607D01*
X114893680Y-92993337D01*
X115286663Y-93386320D01*
X115800119Y-93599000D01*
X116355881Y-93599000D01*
X116713000Y-93451077D01*
X116713000Y-117400000D01*
X107984729Y-117400000D01*
X107912068Y-117392876D01*
X104626493Y-114326339D01*
X104596000Y-114036217D01*
X104596000Y-113555431D01*
X105765000Y-113555431D01*
X105765000Y-114444569D01*
X106105259Y-115266026D01*
X106733974Y-115894741D01*
X107555431Y-116235000D01*
X108444569Y-116235000D01*
X109266026Y-115894741D01*
X109894741Y-115266026D01*
X110235000Y-114444569D01*
X110235000Y-113555431D01*
X109894741Y-112733974D01*
X109266026Y-112105259D01*
X108444569Y-111765000D01*
X107555431Y-111765000D01*
X106733974Y-112105259D01*
X106105259Y-112733974D01*
X105765000Y-113555431D01*
X104596000Y-113555431D01*
X104596000Y-100664000D01*
X105294908Y-100664000D01*
X105410161Y-101243418D01*
X105738375Y-101734625D01*
X106006829Y-101914000D01*
X105738375Y-102093375D01*
X105410161Y-102584582D01*
X105294908Y-103164000D01*
X105410161Y-103743418D01*
X105738375Y-104234625D01*
X105802156Y-104277242D01*
X105574414Y-104429414D01*
X105379874Y-104720565D01*
X105311560Y-105064000D01*
X105311560Y-106264000D01*
X105379874Y-106607435D01*
X105574414Y-106898586D01*
X105865565Y-107093126D01*
X106209000Y-107161440D01*
X107659000Y-107161440D01*
X108002435Y-107093126D01*
X108293586Y-106898586D01*
X108488126Y-106607435D01*
X108509695Y-106499000D01*
X108883767Y-106499000D01*
X108966000Y-106515357D01*
X109048233Y-106499000D01*
X109048237Y-106499000D01*
X109291801Y-106450552D01*
X109568001Y-106266001D01*
X109614587Y-106196280D01*
X110260282Y-105550586D01*
X110330001Y-105504001D01*
X110514552Y-105227801D01*
X110563000Y-104984237D01*
X110579358Y-104902000D01*
X110563000Y-104819763D01*
X110563000Y-100338133D01*
X110690207Y-100210926D01*
X110863000Y-99793766D01*
X110863000Y-99342234D01*
X110690207Y-98925074D01*
X110370926Y-98605793D01*
X109953766Y-98433000D01*
X109502234Y-98433000D01*
X109085074Y-98605793D01*
X108765793Y-98925074D01*
X108593000Y-99342234D01*
X108593000Y-99793766D01*
X108765793Y-100210926D01*
X108893000Y-100338133D01*
X108893001Y-104556131D01*
X108620133Y-104829000D01*
X108509695Y-104829000D01*
X108488126Y-104720565D01*
X108293586Y-104429414D01*
X108065844Y-104277242D01*
X108129625Y-104234625D01*
X108457839Y-103743418D01*
X108573092Y-103164000D01*
X108457839Y-102584582D01*
X108129625Y-102093375D01*
X107861171Y-101914000D01*
X108129625Y-101734625D01*
X108457839Y-101243418D01*
X108573092Y-100664000D01*
X108457839Y-100084582D01*
X108129625Y-99593375D01*
X107856313Y-99410754D01*
X108261497Y-99035193D01*
X108500476Y-98520890D01*
X108379155Y-98291000D01*
X107061000Y-98291000D01*
X107061000Y-98311000D01*
X106807000Y-98311000D01*
X106807000Y-98291000D01*
X105488845Y-98291000D01*
X105367524Y-98520890D01*
X105606503Y-99035193D01*
X106011687Y-99410754D01*
X105738375Y-99593375D01*
X105410161Y-100084582D01*
X105294908Y-100664000D01*
X104596000Y-100664000D01*
X104596000Y-97807110D01*
X105367524Y-97807110D01*
X105488845Y-98037000D01*
X106807000Y-98037000D01*
X106807000Y-96837835D01*
X107061000Y-96837835D01*
X107061000Y-98037000D01*
X108379155Y-98037000D01*
X108500476Y-97807110D01*
X108261497Y-97292807D01*
X107836571Y-96898947D01*
X107293267Y-96697680D01*
X107061000Y-96837835D01*
X106807000Y-96837835D01*
X106574733Y-96697680D01*
X106031429Y-96898947D01*
X105606503Y-97292807D01*
X105367524Y-97807110D01*
X104596000Y-97807110D01*
X104596000Y-93182213D01*
X112737392Y-93182213D01*
X112806857Y-93424397D01*
X113330302Y-93611144D01*
X113885368Y-93583362D01*
X114269143Y-93424397D01*
X114338608Y-93182213D01*
X113538000Y-92381605D01*
X112737392Y-93182213D01*
X104596000Y-93182213D01*
X104596000Y-89950720D01*
X104602209Y-89887397D01*
X104934175Y-89555431D01*
X105765000Y-89555431D01*
X105765000Y-90444569D01*
X106105259Y-91266026D01*
X106733974Y-91894741D01*
X107555431Y-92235000D01*
X108444569Y-92235000D01*
X109025664Y-91994302D01*
X112128856Y-91994302D01*
X112156638Y-92549368D01*
X112315603Y-92933143D01*
X112557787Y-93002608D01*
X113358395Y-92202000D01*
X112557787Y-91401392D01*
X112315603Y-91470857D01*
X112128856Y-91994302D01*
X109025664Y-91994302D01*
X109266026Y-91894741D01*
X109894741Y-91266026D01*
X109913065Y-91221787D01*
X112737392Y-91221787D01*
X113538000Y-92022395D01*
X114338608Y-91221787D01*
X114269143Y-90979603D01*
X113745698Y-90792856D01*
X113190632Y-90820638D01*
X112806857Y-90979603D01*
X112737392Y-91221787D01*
X109913065Y-91221787D01*
X110235000Y-90444569D01*
X110235000Y-89555431D01*
X109894741Y-88733974D01*
X109266026Y-88105259D01*
X108444569Y-87765000D01*
X107555431Y-87765000D01*
X106733974Y-88105259D01*
X106105259Y-88733974D01*
X105765000Y-89555431D01*
X104934175Y-89555431D01*
X107923827Y-86565779D01*
X107959783Y-86562000D01*
X116713000Y-86562000D01*
X116713000Y-90952923D01*
X116713000Y-90952923D01*
G37*
X116713000Y-90952923D02*
X116355881Y-90805000D01*
X115800119Y-90805000D01*
X115286663Y-91017680D01*
X114893680Y-91410663D01*
X114814572Y-91601647D01*
X114760397Y-91470857D01*
X114518213Y-91401392D01*
X113717605Y-92202000D01*
X114518213Y-93002608D01*
X114760397Y-92933143D01*
X114810535Y-92792607D01*
X114893680Y-92993337D01*
X115286663Y-93386320D01*
X115800119Y-93599000D01*
X116355881Y-93599000D01*
X116713000Y-93451077D01*
X116713000Y-117400000D01*
X107984729Y-117400000D01*
X107912068Y-117392876D01*
X104626493Y-114326339D01*
X104596000Y-114036217D01*
X104596000Y-113555431D01*
X105765000Y-113555431D01*
X105765000Y-114444569D01*
X106105259Y-115266026D01*
X106733974Y-115894741D01*
X107555431Y-116235000D01*
X108444569Y-116235000D01*
X109266026Y-115894741D01*
X109894741Y-115266026D01*
X110235000Y-114444569D01*
X110235000Y-113555431D01*
X109894741Y-112733974D01*
X109266026Y-112105259D01*
X108444569Y-111765000D01*
X107555431Y-111765000D01*
X106733974Y-112105259D01*
X106105259Y-112733974D01*
X105765000Y-113555431D01*
X104596000Y-113555431D01*
X104596000Y-100664000D01*
X105294908Y-100664000D01*
X105410161Y-101243418D01*
X105738375Y-101734625D01*
X106006829Y-101914000D01*
X105738375Y-102093375D01*
X105410161Y-102584582D01*
X105294908Y-103164000D01*
X105410161Y-103743418D01*
X105738375Y-104234625D01*
X105802156Y-104277242D01*
X105574414Y-104429414D01*
X105379874Y-104720565D01*
X105311560Y-105064000D01*
X105311560Y-106264000D01*
X105379874Y-106607435D01*
X105574414Y-106898586D01*
X105865565Y-107093126D01*
X106209000Y-107161440D01*
X107659000Y-107161440D01*
X108002435Y-107093126D01*
X108293586Y-106898586D01*
X108488126Y-106607435D01*
X108509695Y-106499000D01*
X108883767Y-106499000D01*
X108966000Y-106515357D01*
X109048233Y-106499000D01*
X109048237Y-106499000D01*
X109291801Y-106450552D01*
X109568001Y-106266001D01*
X109614587Y-106196280D01*
X110260282Y-105550586D01*
X110330001Y-105504001D01*
X110514552Y-105227801D01*
X110563000Y-104984237D01*
X110579358Y-104902000D01*
X110563000Y-104819763D01*
X110563000Y-100338133D01*
X110690207Y-100210926D01*
X110863000Y-99793766D01*
X110863000Y-99342234D01*
X110690207Y-98925074D01*
X110370926Y-98605793D01*
X109953766Y-98433000D01*
X109502234Y-98433000D01*
X109085074Y-98605793D01*
X108765793Y-98925074D01*
X108593000Y-99342234D01*
X108593000Y-99793766D01*
X108765793Y-100210926D01*
X108893000Y-100338133D01*
X108893001Y-104556131D01*
X108620133Y-104829000D01*
X108509695Y-104829000D01*
X108488126Y-104720565D01*
X108293586Y-104429414D01*
X108065844Y-104277242D01*
X108129625Y-104234625D01*
X108457839Y-103743418D01*
X108573092Y-103164000D01*
X108457839Y-102584582D01*
X108129625Y-102093375D01*
X107861171Y-101914000D01*
X108129625Y-101734625D01*
X108457839Y-101243418D01*
X108573092Y-100664000D01*
X108457839Y-100084582D01*
X108129625Y-99593375D01*
X107856313Y-99410754D01*
X108261497Y-99035193D01*
X108500476Y-98520890D01*
X108379155Y-98291000D01*
X107061000Y-98291000D01*
X107061000Y-98311000D01*
X106807000Y-98311000D01*
X106807000Y-98291000D01*
X105488845Y-98291000D01*
X105367524Y-98520890D01*
X105606503Y-99035193D01*
X106011687Y-99410754D01*
X105738375Y-99593375D01*
X105410161Y-100084582D01*
X105294908Y-100664000D01*
X104596000Y-100664000D01*
X104596000Y-97807110D01*
X105367524Y-97807110D01*
X105488845Y-98037000D01*
X106807000Y-98037000D01*
X106807000Y-96837835D01*
X107061000Y-96837835D01*
X107061000Y-98037000D01*
X108379155Y-98037000D01*
X108500476Y-97807110D01*
X108261497Y-97292807D01*
X107836571Y-96898947D01*
X107293267Y-96697680D01*
X107061000Y-96837835D01*
X106807000Y-96837835D01*
X106574733Y-96697680D01*
X106031429Y-96898947D01*
X105606503Y-97292807D01*
X105367524Y-97807110D01*
X104596000Y-97807110D01*
X104596000Y-93182213D01*
X112737392Y-93182213D01*
X112806857Y-93424397D01*
X113330302Y-93611144D01*
X113885368Y-93583362D01*
X114269143Y-93424397D01*
X114338608Y-93182213D01*
X113538000Y-92381605D01*
X112737392Y-93182213D01*
X104596000Y-93182213D01*
X104596000Y-89950720D01*
X104602209Y-89887397D01*
X104934175Y-89555431D01*
X105765000Y-89555431D01*
X105765000Y-90444569D01*
X106105259Y-91266026D01*
X106733974Y-91894741D01*
X107555431Y-92235000D01*
X108444569Y-92235000D01*
X109025664Y-91994302D01*
X112128856Y-91994302D01*
X112156638Y-92549368D01*
X112315603Y-92933143D01*
X112557787Y-93002608D01*
X113358395Y-92202000D01*
X112557787Y-91401392D01*
X112315603Y-91470857D01*
X112128856Y-91994302D01*
X109025664Y-91994302D01*
X109266026Y-91894741D01*
X109894741Y-91266026D01*
X109913065Y-91221787D01*
X112737392Y-91221787D01*
X113538000Y-92022395D01*
X114338608Y-91221787D01*
X114269143Y-90979603D01*
X113745698Y-90792856D01*
X113190632Y-90820638D01*
X112806857Y-90979603D01*
X112737392Y-91221787D01*
X109913065Y-91221787D01*
X110235000Y-90444569D01*
X110235000Y-89555431D01*
X109894741Y-88733974D01*
X109266026Y-88105259D01*
X108444569Y-87765000D01*
X107555431Y-87765000D01*
X106733974Y-88105259D01*
X106105259Y-88733974D01*
X105765000Y-89555431D01*
X104934175Y-89555431D01*
X107923827Y-86565779D01*
X107959783Y-86562000D01*
X116713000Y-86562000D01*
X116713000Y-90952923D01*
G04 #@! TO.N,GNDD*
G36*
X148463000Y-99824000D02*
X146378846Y-99824000D01*
X146303999Y-99809112D01*
X146229152Y-99824000D01*
X146229148Y-99824000D01*
X146007463Y-99868096D01*
X146007461Y-99868097D01*
X146007462Y-99868097D01*
X145819526Y-99993671D01*
X145819524Y-99993673D01*
X145756071Y-100036071D01*
X145713672Y-100099525D01*
X145311528Y-100501670D01*
X145248071Y-100544071D01*
X145080096Y-100795463D01*
X145036000Y-101017148D01*
X145036000Y-101017153D01*
X145021112Y-101092000D01*
X145036000Y-101166847D01*
X145036000Y-101271153D01*
X145021112Y-101346000D01*
X145036000Y-101420847D01*
X145036000Y-101420851D01*
X145080096Y-101642536D01*
X145248071Y-101893929D01*
X145311529Y-101936330D01*
X145713672Y-102338475D01*
X145756071Y-102401929D01*
X145819524Y-102444327D01*
X145819526Y-102444329D01*
X145944902Y-102528102D01*
X146007463Y-102569904D01*
X146229148Y-102614000D01*
X146229152Y-102614000D01*
X146303999Y-102628888D01*
X146378846Y-102614000D01*
X148463000Y-102614000D01*
X148463000Y-117400000D01*
X129683103Y-117400000D01*
X130113051Y-116970052D01*
X130352800Y-116391247D01*
X130352800Y-115764753D01*
X130113051Y-115185948D01*
X129670052Y-114742949D01*
X129091247Y-114503200D01*
X128464753Y-114503200D01*
X127885948Y-114742949D01*
X127609340Y-115019557D01*
X127573051Y-114931948D01*
X127130052Y-114488949D01*
X126551247Y-114249200D01*
X125924753Y-114249200D01*
X125345948Y-114488949D01*
X124902949Y-114931948D01*
X124812405Y-115150541D01*
X124806968Y-115148637D01*
X123877605Y-116078000D01*
X124806968Y-117007363D01*
X125067580Y-116916077D01*
X125077105Y-116890208D01*
X125345948Y-117159051D01*
X125924753Y-117398800D01*
X126551247Y-117398800D01*
X127130052Y-117159051D01*
X127406660Y-116882443D01*
X127442949Y-116970052D01*
X127872897Y-117400000D01*
X124552743Y-117400000D01*
X124627363Y-117186968D01*
X123698000Y-116257605D01*
X122768637Y-117186968D01*
X122843257Y-117400000D01*
X119507000Y-117400000D01*
X119507000Y-115510753D01*
X119583200Y-115510753D01*
X119583200Y-116137247D01*
X119822949Y-116716052D01*
X120265948Y-117159051D01*
X120844753Y-117398800D01*
X121471247Y-117398800D01*
X122050052Y-117159051D01*
X122318053Y-116891050D01*
X122328420Y-116916077D01*
X122589032Y-117007363D01*
X123518395Y-116078000D01*
X122589032Y-115148637D01*
X122583595Y-115150541D01*
X122508412Y-114969032D01*
X122768637Y-114969032D01*
X123698000Y-115898395D01*
X124627363Y-114969032D01*
X124536077Y-114708420D01*
X123948167Y-114491955D01*
X123322172Y-114516951D01*
X122859923Y-114708420D01*
X122768637Y-114969032D01*
X122508412Y-114969032D01*
X122493051Y-114931948D01*
X122050052Y-114488949D01*
X121918000Y-114434251D01*
X121918000Y-108010801D01*
X125261802Y-104667000D01*
X125427874Y-104667000D01*
X125808280Y-104509431D01*
X126099431Y-104218280D01*
X126257000Y-103837874D01*
X126257000Y-103426126D01*
X126099431Y-103045720D01*
X125808280Y-102754569D01*
X125427874Y-102597000D01*
X125016126Y-102597000D01*
X124635720Y-102754569D01*
X124533000Y-102857289D01*
X124533000Y-99396232D01*
X124549357Y-99313999D01*
X124533000Y-99231766D01*
X124533000Y-99231763D01*
X124484552Y-98988199D01*
X124479000Y-98979890D01*
X124479000Y-98854126D01*
X124321431Y-98473720D01*
X124030280Y-98182569D01*
X123811931Y-98092126D01*
X135109000Y-98092126D01*
X135109000Y-98503874D01*
X135266569Y-98884280D01*
X135557720Y-99175431D01*
X135938126Y-99333000D01*
X135998132Y-99333000D01*
X136833001Y-100167870D01*
X136833000Y-103765289D01*
X136790569Y-103807720D01*
X136633000Y-104188126D01*
X136633000Y-104599874D01*
X136790569Y-104980280D01*
X137081720Y-105271431D01*
X137462126Y-105429000D01*
X137873874Y-105429000D01*
X138254280Y-105271431D01*
X138545431Y-104980280D01*
X138703000Y-104599874D01*
X138703000Y-104188126D01*
X138545431Y-103807720D01*
X138503000Y-103765289D01*
X138503000Y-99904232D01*
X138519357Y-99821999D01*
X138503000Y-99739766D01*
X138503000Y-99739763D01*
X138454552Y-99496199D01*
X138270001Y-99219999D01*
X138200285Y-99173416D01*
X137179000Y-98152132D01*
X137179000Y-98092126D01*
X137021431Y-97711720D01*
X136730280Y-97420569D01*
X136349874Y-97263000D01*
X135938126Y-97263000D01*
X135557720Y-97420569D01*
X135266569Y-97711720D01*
X135109000Y-98092126D01*
X123811931Y-98092126D01*
X123649874Y-98025000D01*
X123238126Y-98025000D01*
X122857720Y-98182569D01*
X122566569Y-98473720D01*
X122409000Y-98854126D01*
X122409000Y-99265874D01*
X122566569Y-99646280D01*
X122857720Y-99937431D01*
X122863001Y-99939618D01*
X122863000Y-103003289D01*
X122820569Y-103045720D01*
X122663000Y-103426126D01*
X122663000Y-103837874D01*
X122820569Y-104218280D01*
X123111720Y-104509431D01*
X123223476Y-104555722D01*
X120673530Y-107105669D01*
X120610071Y-107148071D01*
X120442096Y-107399464D01*
X120398000Y-107621149D01*
X120398000Y-107621153D01*
X120383112Y-107696000D01*
X120398000Y-107770847D01*
X120398001Y-114434251D01*
X120265948Y-114488949D01*
X119822949Y-114931948D01*
X119583200Y-115510753D01*
X119507000Y-115510753D01*
X119507000Y-95504000D01*
X119503976Y-95476450D01*
X119073350Y-93538634D01*
X119349143Y-93424397D01*
X119418608Y-93182213D01*
X118999000Y-92762605D01*
X118999000Y-92403395D01*
X119598213Y-93002608D01*
X119840397Y-92933143D01*
X119890535Y-92792607D01*
X119973680Y-92993337D01*
X120366663Y-93386320D01*
X120880119Y-93599000D01*
X121435881Y-93599000D01*
X121949337Y-93386320D01*
X122342320Y-92993337D01*
X122555000Y-92479881D01*
X122555000Y-91924119D01*
X122342320Y-91410663D01*
X121949337Y-91017680D01*
X121435881Y-90805000D01*
X120880119Y-90805000D01*
X120366663Y-91017680D01*
X119973680Y-91410663D01*
X119894572Y-91601647D01*
X119840397Y-91470857D01*
X119598213Y-91401392D01*
X118999000Y-92000605D01*
X118999000Y-91641395D01*
X119418608Y-91221787D01*
X119349143Y-90979603D01*
X119078635Y-90883095D01*
X119503208Y-89184802D01*
X119507000Y-89154000D01*
X119507000Y-86562000D01*
X148463000Y-86562000D01*
X148463000Y-99824000D01*
X148463000Y-99824000D01*
G37*
X148463000Y-99824000D02*
X146378846Y-99824000D01*
X146303999Y-99809112D01*
X146229152Y-99824000D01*
X146229148Y-99824000D01*
X146007463Y-99868096D01*
X146007461Y-99868097D01*
X146007462Y-99868097D01*
X145819526Y-99993671D01*
X145819524Y-99993673D01*
X145756071Y-100036071D01*
X145713672Y-100099525D01*
X145311528Y-100501670D01*
X145248071Y-100544071D01*
X145080096Y-100795463D01*
X145036000Y-101017148D01*
X145036000Y-101017153D01*
X145021112Y-101092000D01*
X145036000Y-101166847D01*
X145036000Y-101271153D01*
X145021112Y-101346000D01*
X145036000Y-101420847D01*
X145036000Y-101420851D01*
X145080096Y-101642536D01*
X145248071Y-101893929D01*
X145311529Y-101936330D01*
X145713672Y-102338475D01*
X145756071Y-102401929D01*
X145819524Y-102444327D01*
X145819526Y-102444329D01*
X145944902Y-102528102D01*
X146007463Y-102569904D01*
X146229148Y-102614000D01*
X146229152Y-102614000D01*
X146303999Y-102628888D01*
X146378846Y-102614000D01*
X148463000Y-102614000D01*
X148463000Y-117400000D01*
X129683103Y-117400000D01*
X130113051Y-116970052D01*
X130352800Y-116391247D01*
X130352800Y-115764753D01*
X130113051Y-115185948D01*
X129670052Y-114742949D01*
X129091247Y-114503200D01*
X128464753Y-114503200D01*
X127885948Y-114742949D01*
X127609340Y-115019557D01*
X127573051Y-114931948D01*
X127130052Y-114488949D01*
X126551247Y-114249200D01*
X125924753Y-114249200D01*
X125345948Y-114488949D01*
X124902949Y-114931948D01*
X124812405Y-115150541D01*
X124806968Y-115148637D01*
X123877605Y-116078000D01*
X124806968Y-117007363D01*
X125067580Y-116916077D01*
X125077105Y-116890208D01*
X125345948Y-117159051D01*
X125924753Y-117398800D01*
X126551247Y-117398800D01*
X127130052Y-117159051D01*
X127406660Y-116882443D01*
X127442949Y-116970052D01*
X127872897Y-117400000D01*
X124552743Y-117400000D01*
X124627363Y-117186968D01*
X123698000Y-116257605D01*
X122768637Y-117186968D01*
X122843257Y-117400000D01*
X119507000Y-117400000D01*
X119507000Y-115510753D01*
X119583200Y-115510753D01*
X119583200Y-116137247D01*
X119822949Y-116716052D01*
X120265948Y-117159051D01*
X120844753Y-117398800D01*
X121471247Y-117398800D01*
X122050052Y-117159051D01*
X122318053Y-116891050D01*
X122328420Y-116916077D01*
X122589032Y-117007363D01*
X123518395Y-116078000D01*
X122589032Y-115148637D01*
X122583595Y-115150541D01*
X122508412Y-114969032D01*
X122768637Y-114969032D01*
X123698000Y-115898395D01*
X124627363Y-114969032D01*
X124536077Y-114708420D01*
X123948167Y-114491955D01*
X123322172Y-114516951D01*
X122859923Y-114708420D01*
X122768637Y-114969032D01*
X122508412Y-114969032D01*
X122493051Y-114931948D01*
X122050052Y-114488949D01*
X121918000Y-114434251D01*
X121918000Y-108010801D01*
X125261802Y-104667000D01*
X125427874Y-104667000D01*
X125808280Y-104509431D01*
X126099431Y-104218280D01*
X126257000Y-103837874D01*
X126257000Y-103426126D01*
X126099431Y-103045720D01*
X125808280Y-102754569D01*
X125427874Y-102597000D01*
X125016126Y-102597000D01*
X124635720Y-102754569D01*
X124533000Y-102857289D01*
X124533000Y-99396232D01*
X124549357Y-99313999D01*
X124533000Y-99231766D01*
X124533000Y-99231763D01*
X124484552Y-98988199D01*
X124479000Y-98979890D01*
X124479000Y-98854126D01*
X124321431Y-98473720D01*
X124030280Y-98182569D01*
X123811931Y-98092126D01*
X135109000Y-98092126D01*
X135109000Y-98503874D01*
X135266569Y-98884280D01*
X135557720Y-99175431D01*
X135938126Y-99333000D01*
X135998132Y-99333000D01*
X136833001Y-100167870D01*
X136833000Y-103765289D01*
X136790569Y-103807720D01*
X136633000Y-104188126D01*
X136633000Y-104599874D01*
X136790569Y-104980280D01*
X137081720Y-105271431D01*
X137462126Y-105429000D01*
X137873874Y-105429000D01*
X138254280Y-105271431D01*
X138545431Y-104980280D01*
X138703000Y-104599874D01*
X138703000Y-104188126D01*
X138545431Y-103807720D01*
X138503000Y-103765289D01*
X138503000Y-99904232D01*
X138519357Y-99821999D01*
X138503000Y-99739766D01*
X138503000Y-99739763D01*
X138454552Y-99496199D01*
X138270001Y-99219999D01*
X138200285Y-99173416D01*
X137179000Y-98152132D01*
X137179000Y-98092126D01*
X137021431Y-97711720D01*
X136730280Y-97420569D01*
X136349874Y-97263000D01*
X135938126Y-97263000D01*
X135557720Y-97420569D01*
X135266569Y-97711720D01*
X135109000Y-98092126D01*
X123811931Y-98092126D01*
X123649874Y-98025000D01*
X123238126Y-98025000D01*
X122857720Y-98182569D01*
X122566569Y-98473720D01*
X122409000Y-98854126D01*
X122409000Y-99265874D01*
X122566569Y-99646280D01*
X122857720Y-99937431D01*
X122863001Y-99939618D01*
X122863000Y-103003289D01*
X122820569Y-103045720D01*
X122663000Y-103426126D01*
X122663000Y-103837874D01*
X122820569Y-104218280D01*
X123111720Y-104509431D01*
X123223476Y-104555722D01*
X120673530Y-107105669D01*
X120610071Y-107148071D01*
X120442096Y-107399464D01*
X120398000Y-107621149D01*
X120398000Y-107621153D01*
X120383112Y-107696000D01*
X120398000Y-107770847D01*
X120398001Y-114434251D01*
X120265948Y-114488949D01*
X119822949Y-114931948D01*
X119583200Y-115510753D01*
X119507000Y-115510753D01*
X119507000Y-95504000D01*
X119503976Y-95476450D01*
X119073350Y-93538634D01*
X119349143Y-93424397D01*
X119418608Y-93182213D01*
X118999000Y-92762605D01*
X118999000Y-92403395D01*
X119598213Y-93002608D01*
X119840397Y-92933143D01*
X119890535Y-92792607D01*
X119973680Y-92993337D01*
X120366663Y-93386320D01*
X120880119Y-93599000D01*
X121435881Y-93599000D01*
X121949337Y-93386320D01*
X122342320Y-92993337D01*
X122555000Y-92479881D01*
X122555000Y-91924119D01*
X122342320Y-91410663D01*
X121949337Y-91017680D01*
X121435881Y-90805000D01*
X120880119Y-90805000D01*
X120366663Y-91017680D01*
X119973680Y-91410663D01*
X119894572Y-91601647D01*
X119840397Y-91470857D01*
X119598213Y-91401392D01*
X118999000Y-92000605D01*
X118999000Y-91641395D01*
X119418608Y-91221787D01*
X119349143Y-90979603D01*
X119078635Y-90883095D01*
X119503208Y-89184802D01*
X119507000Y-89154000D01*
X119507000Y-86562000D01*
X148463000Y-86562000D01*
X148463000Y-99824000D01*
G04 #@! TD*
M02*
