G04 #@! TF.GenerationSoftware,KiCad,Pcbnew,(5.0.1)-3*
G04 #@! TF.CreationDate,2020-01-05T22:10:57-05:00*
G04 #@! TF.ProjectId,ml-ph-board,6D6C2D70682D626F6172642E6B696361,rev?*
G04 #@! TF.SameCoordinates,Original*
G04 #@! TF.FileFunction,Soldermask,Top*
G04 #@! TF.FilePolarity,Negative*
%FSLAX46Y46*%
G04 Gerber Fmt 4.6, Leading zero omitted, Abs format (unit mm)*
G04 Created by KiCad (PCBNEW (5.0.1)-3) date 1/5/2020 10:10:57 PM*
%MOMM*%
%LPD*%
G01*
G04 APERTURE LIST*
%ADD10C,0.150000*%
%ADD11C,0.100000*%
G04 APERTURE END LIST*
D10*
G36*
X144780000Y-100584000D02*
X156972000Y-100584000D01*
X157226000Y-102616000D01*
X157226000Y-103886000D01*
X150368000Y-103886000D01*
X149352000Y-101854000D01*
X144780000Y-101854000D01*
X144780000Y-100584000D01*
G37*
X144780000Y-100584000D02*
X156972000Y-100584000D01*
X157226000Y-102616000D01*
X157226000Y-103886000D01*
X150368000Y-103886000D01*
X149352000Y-101854000D01*
X144780000Y-101854000D01*
X144780000Y-100584000D01*
D11*
G36*
X129081765Y-115076620D02*
X129271289Y-115155123D01*
X129441855Y-115269092D01*
X129586908Y-115414145D01*
X129700877Y-115584711D01*
X129779380Y-115774235D01*
X129819400Y-115975430D01*
X129819400Y-116180570D01*
X129779380Y-116381765D01*
X129700877Y-116571289D01*
X129586908Y-116741855D01*
X129441855Y-116886908D01*
X129271289Y-117000877D01*
X129081765Y-117079380D01*
X128880570Y-117119400D01*
X128675430Y-117119400D01*
X128474235Y-117079380D01*
X128284711Y-117000877D01*
X128114145Y-116886908D01*
X127969092Y-116741855D01*
X127855123Y-116571289D01*
X127776620Y-116381765D01*
X127736600Y-116180570D01*
X127736600Y-115975430D01*
X127776620Y-115774235D01*
X127855123Y-115584711D01*
X127969092Y-115414145D01*
X128114145Y-115269092D01*
X128284711Y-115155123D01*
X128474235Y-115076620D01*
X128675430Y-115036600D01*
X128880570Y-115036600D01*
X129081765Y-115076620D01*
X129081765Y-115076620D01*
G37*
G36*
X124001765Y-115076620D02*
X124191289Y-115155123D01*
X124361855Y-115269092D01*
X124506908Y-115414145D01*
X124620877Y-115584711D01*
X124699380Y-115774235D01*
X124739400Y-115975430D01*
X124739400Y-116180570D01*
X124699380Y-116381765D01*
X124620877Y-116571289D01*
X124506908Y-116741855D01*
X124361855Y-116886908D01*
X124191289Y-117000877D01*
X124001765Y-117079380D01*
X123800570Y-117119400D01*
X123595430Y-117119400D01*
X123394235Y-117079380D01*
X123204711Y-117000877D01*
X123034145Y-116886908D01*
X122889092Y-116741855D01*
X122775123Y-116571289D01*
X122696620Y-116381765D01*
X122656600Y-116180570D01*
X122656600Y-115975430D01*
X122696620Y-115774235D01*
X122775123Y-115584711D01*
X122889092Y-115414145D01*
X123034145Y-115269092D01*
X123204711Y-115155123D01*
X123394235Y-115076620D01*
X123595430Y-115036600D01*
X123800570Y-115036600D01*
X124001765Y-115076620D01*
X124001765Y-115076620D01*
G37*
G36*
X126541765Y-114822620D02*
X126731289Y-114901123D01*
X126901855Y-115015092D01*
X127046908Y-115160145D01*
X127160877Y-115330711D01*
X127239380Y-115520235D01*
X127279400Y-115721430D01*
X127279400Y-115926570D01*
X127239380Y-116127765D01*
X127160877Y-116317289D01*
X127046908Y-116487855D01*
X126901855Y-116632908D01*
X126731289Y-116746877D01*
X126541765Y-116825380D01*
X126340570Y-116865400D01*
X126135430Y-116865400D01*
X125934235Y-116825380D01*
X125744711Y-116746877D01*
X125574145Y-116632908D01*
X125429092Y-116487855D01*
X125315123Y-116317289D01*
X125236620Y-116127765D01*
X125196600Y-115926570D01*
X125196600Y-115721430D01*
X125236620Y-115520235D01*
X125315123Y-115330711D01*
X125429092Y-115160145D01*
X125574145Y-115015092D01*
X125744711Y-114901123D01*
X125934235Y-114822620D01*
X126135430Y-114782600D01*
X126340570Y-114782600D01*
X126541765Y-114822620D01*
X126541765Y-114822620D01*
G37*
G36*
X121461765Y-114822620D02*
X121651289Y-114901123D01*
X121821855Y-115015092D01*
X121966908Y-115160145D01*
X122080877Y-115330711D01*
X122159380Y-115520235D01*
X122199400Y-115721430D01*
X122199400Y-115926570D01*
X122159380Y-116127765D01*
X122080877Y-116317289D01*
X121966908Y-116487855D01*
X121821855Y-116632908D01*
X121651289Y-116746877D01*
X121461765Y-116825380D01*
X121260570Y-116865400D01*
X121055430Y-116865400D01*
X120854235Y-116825380D01*
X120664711Y-116746877D01*
X120494145Y-116632908D01*
X120349092Y-116487855D01*
X120235123Y-116317289D01*
X120156620Y-116127765D01*
X120116600Y-115926570D01*
X120116600Y-115721430D01*
X120156620Y-115520235D01*
X120235123Y-115330711D01*
X120349092Y-115160145D01*
X120494145Y-115015092D01*
X120664711Y-114901123D01*
X120854235Y-114822620D01*
X121055430Y-114782600D01*
X121260570Y-114782600D01*
X121461765Y-114822620D01*
X121461765Y-114822620D01*
G37*
G36*
X135379999Y-114077737D02*
X135389611Y-114080653D01*
X135398469Y-114085388D01*
X135406237Y-114091763D01*
X135412612Y-114099531D01*
X135417347Y-114108389D01*
X135420263Y-114118001D01*
X135421852Y-114134140D01*
X135421852Y-115121860D01*
X135420263Y-115137999D01*
X135417347Y-115147611D01*
X135412612Y-115156469D01*
X135412610Y-115156471D01*
X135406237Y-115164237D01*
X135398427Y-115170640D01*
X135398378Y-115170673D01*
X135388850Y-115178484D01*
X135388875Y-115178514D01*
X135375026Y-115189857D01*
X135359462Y-115208783D01*
X135347889Y-115230382D01*
X135340752Y-115253824D01*
X135338326Y-115278208D01*
X135340704Y-115302597D01*
X135347793Y-115326053D01*
X135359323Y-115347676D01*
X135374850Y-115366633D01*
X135389234Y-115377324D01*
X135389007Y-115377600D01*
X135398511Y-115385416D01*
X135398516Y-115385419D01*
X135406275Y-115391801D01*
X135406279Y-115391805D01*
X135412640Y-115399572D01*
X135417368Y-115408440D01*
X135420282Y-115418082D01*
X135421852Y-115434112D01*
X135421852Y-116571860D01*
X135420263Y-116587999D01*
X135417347Y-116597611D01*
X135412612Y-116606469D01*
X135406237Y-116614237D01*
X135398469Y-116620612D01*
X135389611Y-116625347D01*
X135379999Y-116628263D01*
X135363860Y-116629852D01*
X133876140Y-116629852D01*
X133860001Y-116628263D01*
X133850389Y-116625347D01*
X133841531Y-116620612D01*
X133833763Y-116614237D01*
X133827388Y-116606469D01*
X133822653Y-116597611D01*
X133819737Y-116587999D01*
X133818148Y-116571860D01*
X133818148Y-115434140D01*
X133819737Y-115418001D01*
X133822653Y-115408389D01*
X133827388Y-115399531D01*
X133833763Y-115391763D01*
X133846736Y-115381116D01*
X133855959Y-115374954D01*
X133873287Y-115357627D01*
X133886901Y-115337253D01*
X133896279Y-115314614D01*
X133901061Y-115290581D01*
X133901061Y-115266077D01*
X133896282Y-115242043D01*
X133886905Y-115219404D01*
X133873292Y-115199029D01*
X133855965Y-115181701D01*
X133846673Y-115174817D01*
X133833805Y-115164279D01*
X133833801Y-115164275D01*
X133827419Y-115156516D01*
X133822674Y-115147661D01*
X133819748Y-115138050D01*
X133818753Y-115128000D01*
X133818753Y-115127934D01*
X133818148Y-115121825D01*
X133818148Y-114134140D01*
X133819737Y-114118001D01*
X133822653Y-114108389D01*
X133827388Y-114099531D01*
X133833763Y-114091763D01*
X133841531Y-114085388D01*
X133850389Y-114080653D01*
X133860001Y-114077737D01*
X133876140Y-114076148D01*
X135363860Y-114076148D01*
X135379999Y-114077737D01*
X135379999Y-114077737D01*
G37*
G36*
X138173999Y-114077737D02*
X138183611Y-114080653D01*
X138192469Y-114085388D01*
X138200237Y-114091763D01*
X138206612Y-114099531D01*
X138211347Y-114108389D01*
X138214263Y-114118001D01*
X138215852Y-114134140D01*
X138215852Y-115121860D01*
X138214263Y-115137999D01*
X138211347Y-115147611D01*
X138206612Y-115156469D01*
X138206610Y-115156471D01*
X138200237Y-115164237D01*
X138192427Y-115170640D01*
X138192378Y-115170673D01*
X138182850Y-115178484D01*
X138182875Y-115178514D01*
X138169026Y-115189857D01*
X138153462Y-115208783D01*
X138141889Y-115230382D01*
X138134752Y-115253824D01*
X138132326Y-115278208D01*
X138134704Y-115302597D01*
X138141793Y-115326053D01*
X138153323Y-115347676D01*
X138168850Y-115366633D01*
X138183234Y-115377324D01*
X138183007Y-115377600D01*
X138192511Y-115385416D01*
X138192516Y-115385419D01*
X138200275Y-115391801D01*
X138200279Y-115391805D01*
X138206640Y-115399572D01*
X138211368Y-115408440D01*
X138214282Y-115418082D01*
X138215852Y-115434112D01*
X138215852Y-116571860D01*
X138214263Y-116587999D01*
X138211347Y-116597611D01*
X138206612Y-116606469D01*
X138200237Y-116614237D01*
X138192469Y-116620612D01*
X138183611Y-116625347D01*
X138173999Y-116628263D01*
X138157860Y-116629852D01*
X136670140Y-116629852D01*
X136654001Y-116628263D01*
X136644389Y-116625347D01*
X136635531Y-116620612D01*
X136627763Y-116614237D01*
X136621388Y-116606469D01*
X136616653Y-116597611D01*
X136613737Y-116587999D01*
X136612148Y-116571860D01*
X136612148Y-115434140D01*
X136613737Y-115418001D01*
X136616653Y-115408389D01*
X136621388Y-115399531D01*
X136627763Y-115391763D01*
X136640736Y-115381116D01*
X136649959Y-115374954D01*
X136667287Y-115357627D01*
X136680901Y-115337253D01*
X136690279Y-115314614D01*
X136695061Y-115290581D01*
X136695061Y-115266077D01*
X136690282Y-115242043D01*
X136680905Y-115219404D01*
X136667292Y-115199029D01*
X136649965Y-115181701D01*
X136640673Y-115174817D01*
X136627805Y-115164279D01*
X136627801Y-115164275D01*
X136621419Y-115156516D01*
X136616674Y-115147661D01*
X136613748Y-115138050D01*
X136612753Y-115128000D01*
X136612753Y-115127934D01*
X136612148Y-115121825D01*
X136612148Y-114134140D01*
X136613737Y-114118001D01*
X136616653Y-114108389D01*
X136621388Y-114099531D01*
X136627763Y-114091763D01*
X136635531Y-114085388D01*
X136644389Y-114080653D01*
X136654001Y-114077737D01*
X136670140Y-114076148D01*
X138157860Y-114076148D01*
X138173999Y-114077737D01*
X138173999Y-114077737D01*
G37*
G36*
X108375256Y-112391298D02*
X108481579Y-112412447D01*
X108782042Y-112536903D01*
X109048852Y-112715180D01*
X109052454Y-112717587D01*
X109282413Y-112947546D01*
X109282415Y-112947549D01*
X109463097Y-113217958D01*
X109587553Y-113518421D01*
X109651000Y-113837391D01*
X109651000Y-114162609D01*
X109587553Y-114481579D01*
X109463097Y-114782042D01*
X109383529Y-114901123D01*
X109282413Y-115052454D01*
X109052454Y-115282413D01*
X109052451Y-115282415D01*
X108782042Y-115463097D01*
X108481579Y-115587553D01*
X108375256Y-115608702D01*
X108162611Y-115651000D01*
X107837389Y-115651000D01*
X107624744Y-115608702D01*
X107518421Y-115587553D01*
X107217958Y-115463097D01*
X106947549Y-115282415D01*
X106947546Y-115282413D01*
X106717587Y-115052454D01*
X106616471Y-114901123D01*
X106536903Y-114782042D01*
X106412447Y-114481579D01*
X106349000Y-114162609D01*
X106349000Y-113837391D01*
X106412447Y-113518421D01*
X106536903Y-113217958D01*
X106717585Y-112947549D01*
X106717587Y-112947546D01*
X106947546Y-112717587D01*
X106951148Y-112715180D01*
X107217958Y-112536903D01*
X107518421Y-112412447D01*
X107624744Y-112391298D01*
X107837389Y-112349000D01*
X108162611Y-112349000D01*
X108375256Y-112391298D01*
X108375256Y-112391298D01*
G37*
G36*
X159633256Y-112391298D02*
X159739579Y-112412447D01*
X160040042Y-112536903D01*
X160306852Y-112715180D01*
X160310454Y-112717587D01*
X160540413Y-112947546D01*
X160540415Y-112947549D01*
X160721097Y-113217958D01*
X160845553Y-113518421D01*
X160909000Y-113837391D01*
X160909000Y-114162609D01*
X160845553Y-114481579D01*
X160721097Y-114782042D01*
X160641529Y-114901123D01*
X160540413Y-115052454D01*
X160310454Y-115282413D01*
X160310451Y-115282415D01*
X160040042Y-115463097D01*
X159739579Y-115587553D01*
X159633256Y-115608702D01*
X159420611Y-115651000D01*
X159095389Y-115651000D01*
X158882744Y-115608702D01*
X158776421Y-115587553D01*
X158475958Y-115463097D01*
X158205549Y-115282415D01*
X158205546Y-115282413D01*
X157975587Y-115052454D01*
X157874471Y-114901123D01*
X157794903Y-114782042D01*
X157670447Y-114481579D01*
X157607000Y-114162609D01*
X157607000Y-113837391D01*
X157670447Y-113518421D01*
X157794903Y-113217958D01*
X157975585Y-112947549D01*
X157975587Y-112947546D01*
X158205546Y-112717587D01*
X158209148Y-112715180D01*
X158475958Y-112536903D01*
X158776421Y-112412447D01*
X158882744Y-112391298D01*
X159095389Y-112349000D01*
X159420611Y-112349000D01*
X159633256Y-112391298D01*
X159633256Y-112391298D01*
G37*
G36*
X127600710Y-109424370D02*
X126399290Y-109424370D01*
X126399290Y-108121350D01*
X127600710Y-108121350D01*
X127600710Y-109424370D01*
X127600710Y-109424370D01*
G37*
G36*
X129511883Y-108097465D02*
X129544696Y-108107418D01*
X129574933Y-108123580D01*
X129601436Y-108145330D01*
X129623186Y-108171833D01*
X129639348Y-108202070D01*
X129649301Y-108234883D01*
X129653266Y-108275140D01*
X129653266Y-109238860D01*
X129649301Y-109279117D01*
X129639348Y-109311930D01*
X129623186Y-109342167D01*
X129601436Y-109368670D01*
X129574933Y-109390420D01*
X129544696Y-109406582D01*
X129511883Y-109416535D01*
X129471626Y-109420500D01*
X128882906Y-109420500D01*
X128842649Y-109416535D01*
X128809836Y-109406582D01*
X128779599Y-109390420D01*
X128753096Y-109368670D01*
X128731346Y-109342167D01*
X128715184Y-109311930D01*
X128705231Y-109279117D01*
X128701266Y-109238860D01*
X128701266Y-108275140D01*
X128705231Y-108234883D01*
X128715184Y-108202070D01*
X128731346Y-108171833D01*
X128753096Y-108145330D01*
X128779599Y-108123580D01*
X128809836Y-108107418D01*
X128842649Y-108097465D01*
X128882906Y-108093500D01*
X129471626Y-108093500D01*
X129511883Y-108097465D01*
X129511883Y-108097465D01*
G37*
G36*
X131765223Y-108227585D02*
X131799201Y-108237893D01*
X131830519Y-108254633D01*
X131857971Y-108277161D01*
X131880499Y-108304613D01*
X131897239Y-108335931D01*
X131907547Y-108369909D01*
X131911632Y-108411390D01*
X131911632Y-109012610D01*
X131907547Y-109054091D01*
X131897239Y-109088069D01*
X131880499Y-109119387D01*
X131857971Y-109146839D01*
X131830519Y-109169367D01*
X131799201Y-109186107D01*
X131765223Y-109196415D01*
X131723742Y-109200500D01*
X131047522Y-109200500D01*
X131006041Y-109196415D01*
X130972063Y-109186107D01*
X130940745Y-109169367D01*
X130913293Y-109146839D01*
X130890765Y-109119387D01*
X130874025Y-109088069D01*
X130863717Y-109054091D01*
X130859632Y-109012610D01*
X130859632Y-108411390D01*
X130863717Y-108369909D01*
X130874025Y-108335931D01*
X130890765Y-108304613D01*
X130913293Y-108277161D01*
X130940745Y-108254633D01*
X130972063Y-108237893D01*
X131006041Y-108227585D01*
X131047522Y-108223500D01*
X131723742Y-108223500D01*
X131765223Y-108227585D01*
X131765223Y-108227585D01*
G37*
G36*
X133983591Y-108227585D02*
X134017569Y-108237893D01*
X134048887Y-108254633D01*
X134076339Y-108277161D01*
X134098867Y-108304613D01*
X134115607Y-108335931D01*
X134125915Y-108369909D01*
X134130000Y-108411390D01*
X134130000Y-109012610D01*
X134125915Y-109054091D01*
X134115607Y-109088069D01*
X134098867Y-109119387D01*
X134076339Y-109146839D01*
X134048887Y-109169367D01*
X134017569Y-109186107D01*
X133983591Y-109196415D01*
X133942110Y-109200500D01*
X133265890Y-109200500D01*
X133224409Y-109196415D01*
X133190431Y-109186107D01*
X133159113Y-109169367D01*
X133131661Y-109146839D01*
X133109133Y-109119387D01*
X133092393Y-109088069D01*
X133082085Y-109054091D01*
X133078000Y-109012610D01*
X133078000Y-108411390D01*
X133082085Y-108369909D01*
X133092393Y-108335931D01*
X133109133Y-108304613D01*
X133131661Y-108277161D01*
X133159113Y-108254633D01*
X133190431Y-108237893D01*
X133224409Y-108227585D01*
X133265890Y-108223500D01*
X133942110Y-108223500D01*
X133983591Y-108227585D01*
X133983591Y-108227585D01*
G37*
G36*
X144143591Y-108024585D02*
X144177569Y-108034893D01*
X144208887Y-108051633D01*
X144236339Y-108074161D01*
X144258867Y-108101613D01*
X144275607Y-108132931D01*
X144285915Y-108166909D01*
X144290000Y-108208390D01*
X144290000Y-108809610D01*
X144285915Y-108851091D01*
X144275607Y-108885069D01*
X144258867Y-108916387D01*
X144236339Y-108943839D01*
X144208887Y-108966367D01*
X144177569Y-108983107D01*
X144143591Y-108993415D01*
X144102110Y-108997500D01*
X143425890Y-108997500D01*
X143384409Y-108993415D01*
X143350431Y-108983107D01*
X143319113Y-108966367D01*
X143291661Y-108943839D01*
X143269133Y-108916387D01*
X143252393Y-108885069D01*
X143242085Y-108851091D01*
X143238000Y-108809610D01*
X143238000Y-108208390D01*
X143242085Y-108166909D01*
X143252393Y-108132931D01*
X143269133Y-108101613D01*
X143291661Y-108074161D01*
X143319113Y-108051633D01*
X143350431Y-108034893D01*
X143384409Y-108024585D01*
X143425890Y-108020500D01*
X144102110Y-108020500D01*
X144143591Y-108024585D01*
X144143591Y-108024585D01*
G37*
G36*
X146175591Y-108024585D02*
X146209569Y-108034893D01*
X146240887Y-108051633D01*
X146268339Y-108074161D01*
X146290867Y-108101613D01*
X146307607Y-108132931D01*
X146317915Y-108166909D01*
X146322000Y-108208390D01*
X146322000Y-108809610D01*
X146317915Y-108851091D01*
X146307607Y-108885069D01*
X146290867Y-108916387D01*
X146268339Y-108943839D01*
X146240887Y-108966367D01*
X146209569Y-108983107D01*
X146175591Y-108993415D01*
X146134110Y-108997500D01*
X145457890Y-108997500D01*
X145416409Y-108993415D01*
X145382431Y-108983107D01*
X145351113Y-108966367D01*
X145323661Y-108943839D01*
X145301133Y-108916387D01*
X145284393Y-108885069D01*
X145274085Y-108851091D01*
X145270000Y-108809610D01*
X145270000Y-108208390D01*
X145274085Y-108166909D01*
X145284393Y-108132931D01*
X145301133Y-108101613D01*
X145323661Y-108074161D01*
X145351113Y-108051633D01*
X145382431Y-108034893D01*
X145416409Y-108024585D01*
X145457890Y-108020500D01*
X146134110Y-108020500D01*
X146175591Y-108024585D01*
X146175591Y-108024585D01*
G37*
G36*
X142111591Y-107999085D02*
X142145569Y-108009393D01*
X142176887Y-108026133D01*
X142204339Y-108048661D01*
X142226867Y-108076113D01*
X142243607Y-108107431D01*
X142253915Y-108141409D01*
X142258000Y-108182890D01*
X142258000Y-108784110D01*
X142253915Y-108825591D01*
X142243607Y-108859569D01*
X142226867Y-108890887D01*
X142204339Y-108918339D01*
X142176887Y-108940867D01*
X142145569Y-108957607D01*
X142111591Y-108967915D01*
X142070110Y-108972000D01*
X141393890Y-108972000D01*
X141352409Y-108967915D01*
X141318431Y-108957607D01*
X141287113Y-108940867D01*
X141259661Y-108918339D01*
X141237133Y-108890887D01*
X141220393Y-108859569D01*
X141210085Y-108825591D01*
X141206000Y-108784110D01*
X141206000Y-108182890D01*
X141210085Y-108141409D01*
X141220393Y-108107431D01*
X141237133Y-108076113D01*
X141259661Y-108048661D01*
X141287113Y-108026133D01*
X141318431Y-108009393D01*
X141352409Y-107999085D01*
X141393890Y-107995000D01*
X142070110Y-107995000D01*
X142111591Y-107999085D01*
X142111591Y-107999085D01*
G37*
G36*
X157978619Y-105290272D02*
X158289713Y-105419131D01*
X158569695Y-105606209D01*
X158807791Y-105844305D01*
X158994869Y-106124287D01*
X159123728Y-106435381D01*
X159189420Y-106765635D01*
X159189420Y-107102365D01*
X159123728Y-107432619D01*
X158994869Y-107743713D01*
X158807791Y-108023695D01*
X158569695Y-108261791D01*
X158289713Y-108448869D01*
X157978619Y-108577728D01*
X157648365Y-108643420D01*
X157311635Y-108643420D01*
X156981381Y-108577728D01*
X156670287Y-108448869D01*
X156390305Y-108261791D01*
X156152209Y-108023695D01*
X155965131Y-107743713D01*
X155836272Y-107432619D01*
X155770580Y-107102365D01*
X155770580Y-106765635D01*
X155836272Y-106435381D01*
X155965131Y-106124287D01*
X156152209Y-105844305D01*
X156390305Y-105606209D01*
X156670287Y-105419131D01*
X156981381Y-105290272D01*
X157311635Y-105224580D01*
X157648365Y-105224580D01*
X157978619Y-105290272D01*
X157978619Y-105290272D01*
G37*
G36*
X129511883Y-106472465D02*
X129544696Y-106482418D01*
X129574933Y-106498580D01*
X129601436Y-106520330D01*
X129623186Y-106546833D01*
X129639348Y-106577070D01*
X129649301Y-106609883D01*
X129653266Y-106650140D01*
X129653266Y-107613860D01*
X129649301Y-107654117D01*
X129639348Y-107686930D01*
X129623186Y-107717167D01*
X129601436Y-107743670D01*
X129574933Y-107765420D01*
X129544696Y-107781582D01*
X129511883Y-107791535D01*
X129471626Y-107795500D01*
X128882906Y-107795500D01*
X128842649Y-107791535D01*
X128809836Y-107781582D01*
X128779599Y-107765420D01*
X128753096Y-107743670D01*
X128731346Y-107717167D01*
X128715184Y-107686930D01*
X128705231Y-107654117D01*
X128701266Y-107613860D01*
X128701266Y-106650140D01*
X128705231Y-106609883D01*
X128715184Y-106577070D01*
X128731346Y-106546833D01*
X128753096Y-106520330D01*
X128779599Y-106498580D01*
X128809836Y-106482418D01*
X128842649Y-106472465D01*
X128882906Y-106468500D01*
X129471626Y-106468500D01*
X129511883Y-106472465D01*
X129511883Y-106472465D01*
G37*
G36*
X127600710Y-107727650D02*
X126399290Y-107727650D01*
X126399290Y-106424630D01*
X127600710Y-106424630D01*
X127600710Y-107727650D01*
X127600710Y-107727650D01*
G37*
G36*
X133983591Y-106652585D02*
X134017569Y-106662893D01*
X134048887Y-106679633D01*
X134076339Y-106702161D01*
X134098867Y-106729613D01*
X134115607Y-106760931D01*
X134125915Y-106794909D01*
X134130000Y-106836390D01*
X134130000Y-107437610D01*
X134125915Y-107479091D01*
X134115607Y-107513069D01*
X134098867Y-107544387D01*
X134076339Y-107571839D01*
X134048887Y-107594367D01*
X134017569Y-107611107D01*
X133983591Y-107621415D01*
X133942110Y-107625500D01*
X133265890Y-107625500D01*
X133224409Y-107621415D01*
X133190431Y-107611107D01*
X133159113Y-107594367D01*
X133131661Y-107571839D01*
X133109133Y-107544387D01*
X133092393Y-107513069D01*
X133082085Y-107479091D01*
X133078000Y-107437610D01*
X133078000Y-106836390D01*
X133082085Y-106794909D01*
X133092393Y-106760931D01*
X133109133Y-106729613D01*
X133131661Y-106702161D01*
X133159113Y-106679633D01*
X133190431Y-106662893D01*
X133224409Y-106652585D01*
X133265890Y-106648500D01*
X133942110Y-106648500D01*
X133983591Y-106652585D01*
X133983591Y-106652585D01*
G37*
G36*
X131765223Y-106652585D02*
X131799201Y-106662893D01*
X131830519Y-106679633D01*
X131857971Y-106702161D01*
X131880499Y-106729613D01*
X131897239Y-106760931D01*
X131907547Y-106794909D01*
X131911632Y-106836390D01*
X131911632Y-107437610D01*
X131907547Y-107479091D01*
X131897239Y-107513069D01*
X131880499Y-107544387D01*
X131857971Y-107571839D01*
X131830519Y-107594367D01*
X131799201Y-107611107D01*
X131765223Y-107621415D01*
X131723742Y-107625500D01*
X131047522Y-107625500D01*
X131006041Y-107621415D01*
X130972063Y-107611107D01*
X130940745Y-107594367D01*
X130913293Y-107571839D01*
X130890765Y-107544387D01*
X130874025Y-107513069D01*
X130863717Y-107479091D01*
X130859632Y-107437610D01*
X130859632Y-106836390D01*
X130863717Y-106794909D01*
X130874025Y-106760931D01*
X130890765Y-106729613D01*
X130913293Y-106702161D01*
X130940745Y-106679633D01*
X130972063Y-106662893D01*
X131006041Y-106652585D01*
X131047522Y-106648500D01*
X131723742Y-106648500D01*
X131765223Y-106652585D01*
X131765223Y-106652585D01*
G37*
G36*
X146175591Y-106449585D02*
X146209569Y-106459893D01*
X146240887Y-106476633D01*
X146268339Y-106499161D01*
X146290867Y-106526613D01*
X146307607Y-106557931D01*
X146317915Y-106591909D01*
X146322000Y-106633390D01*
X146322000Y-107234610D01*
X146317915Y-107276091D01*
X146307607Y-107310069D01*
X146290867Y-107341387D01*
X146268339Y-107368839D01*
X146240887Y-107391367D01*
X146209569Y-107408107D01*
X146175591Y-107418415D01*
X146134110Y-107422500D01*
X145457890Y-107422500D01*
X145416409Y-107418415D01*
X145382431Y-107408107D01*
X145351113Y-107391367D01*
X145323661Y-107368839D01*
X145301133Y-107341387D01*
X145284393Y-107310069D01*
X145274085Y-107276091D01*
X145270000Y-107234610D01*
X145270000Y-106633390D01*
X145274085Y-106591909D01*
X145284393Y-106557931D01*
X145301133Y-106526613D01*
X145323661Y-106499161D01*
X145351113Y-106476633D01*
X145382431Y-106459893D01*
X145416409Y-106449585D01*
X145457890Y-106445500D01*
X146134110Y-106445500D01*
X146175591Y-106449585D01*
X146175591Y-106449585D01*
G37*
G36*
X144143591Y-106449585D02*
X144177569Y-106459893D01*
X144208887Y-106476633D01*
X144236339Y-106499161D01*
X144258867Y-106526613D01*
X144275607Y-106557931D01*
X144285915Y-106591909D01*
X144290000Y-106633390D01*
X144290000Y-107234610D01*
X144285915Y-107276091D01*
X144275607Y-107310069D01*
X144258867Y-107341387D01*
X144236339Y-107368839D01*
X144208887Y-107391367D01*
X144177569Y-107408107D01*
X144143591Y-107418415D01*
X144102110Y-107422500D01*
X143425890Y-107422500D01*
X143384409Y-107418415D01*
X143350431Y-107408107D01*
X143319113Y-107391367D01*
X143291661Y-107368839D01*
X143269133Y-107341387D01*
X143252393Y-107310069D01*
X143242085Y-107276091D01*
X143238000Y-107234610D01*
X143238000Y-106633390D01*
X143242085Y-106591909D01*
X143252393Y-106557931D01*
X143269133Y-106526613D01*
X143291661Y-106499161D01*
X143319113Y-106476633D01*
X143350431Y-106459893D01*
X143384409Y-106449585D01*
X143425890Y-106445500D01*
X144102110Y-106445500D01*
X144143591Y-106449585D01*
X144143591Y-106449585D01*
G37*
G36*
X142111591Y-106424085D02*
X142145569Y-106434393D01*
X142176887Y-106451133D01*
X142204339Y-106473661D01*
X142226867Y-106501113D01*
X142243607Y-106532431D01*
X142253915Y-106566409D01*
X142258000Y-106607890D01*
X142258000Y-107209110D01*
X142253915Y-107250591D01*
X142243607Y-107284569D01*
X142226867Y-107315887D01*
X142204339Y-107343339D01*
X142176887Y-107365867D01*
X142145569Y-107382607D01*
X142111591Y-107392915D01*
X142070110Y-107397000D01*
X141393890Y-107397000D01*
X141352409Y-107392915D01*
X141318431Y-107382607D01*
X141287113Y-107365867D01*
X141259661Y-107343339D01*
X141237133Y-107315887D01*
X141220393Y-107284569D01*
X141210085Y-107250591D01*
X141206000Y-107209110D01*
X141206000Y-106607890D01*
X141210085Y-106566409D01*
X141220393Y-106532431D01*
X141237133Y-106501113D01*
X141259661Y-106473661D01*
X141287113Y-106451133D01*
X141318431Y-106434393D01*
X141352409Y-106424085D01*
X141393890Y-106420000D01*
X142070110Y-106420000D01*
X142111591Y-106424085D01*
X142111591Y-106424085D01*
G37*
G36*
X107817600Y-104766989D02*
X107850649Y-104777014D01*
X107881106Y-104793294D01*
X107907799Y-104815201D01*
X107929706Y-104841894D01*
X107945986Y-104872351D01*
X107956011Y-104905400D01*
X107960000Y-104945904D01*
X107960000Y-106382096D01*
X107956011Y-106422600D01*
X107945986Y-106455649D01*
X107929706Y-106486106D01*
X107907799Y-106512799D01*
X107881106Y-106534706D01*
X107850649Y-106550986D01*
X107817600Y-106561011D01*
X107777096Y-106565000D01*
X106090904Y-106565000D01*
X106050400Y-106561011D01*
X106017351Y-106550986D01*
X105986894Y-106534706D01*
X105960201Y-106512799D01*
X105938294Y-106486106D01*
X105922014Y-106455649D01*
X105911989Y-106422600D01*
X105908000Y-106382096D01*
X105908000Y-104945904D01*
X105911989Y-104905400D01*
X105922014Y-104872351D01*
X105938294Y-104841894D01*
X105960201Y-104815201D01*
X105986894Y-104793294D01*
X106017351Y-104777014D01*
X106050400Y-104766989D01*
X106090904Y-104763000D01*
X107777096Y-104763000D01*
X107817600Y-104766989D01*
X107817600Y-104766989D01*
G37*
G36*
X134028000Y-105055000D02*
X132476000Y-105055000D01*
X132476000Y-98653000D01*
X134028000Y-98653000D01*
X134028000Y-105055000D01*
X134028000Y-105055000D01*
G37*
G36*
X128128000Y-105055000D02*
X126576000Y-105055000D01*
X126576000Y-98653000D01*
X128128000Y-98653000D01*
X128128000Y-105055000D01*
X128128000Y-105055000D01*
G37*
G36*
X136460591Y-103364085D02*
X136494569Y-103374393D01*
X136525887Y-103391133D01*
X136553339Y-103413661D01*
X136575867Y-103441113D01*
X136592607Y-103472431D01*
X136602915Y-103506409D01*
X136607000Y-103547890D01*
X136607000Y-104224110D01*
X136602915Y-104265591D01*
X136592607Y-104299569D01*
X136575867Y-104330887D01*
X136553339Y-104358339D01*
X136525887Y-104380867D01*
X136494569Y-104397607D01*
X136460591Y-104407915D01*
X136419110Y-104412000D01*
X135817890Y-104412000D01*
X135776409Y-104407915D01*
X135742431Y-104397607D01*
X135711113Y-104380867D01*
X135683661Y-104358339D01*
X135661133Y-104330887D01*
X135644393Y-104299569D01*
X135634085Y-104265591D01*
X135630000Y-104224110D01*
X135630000Y-103547890D01*
X135634085Y-103506409D01*
X135644393Y-103472431D01*
X135661133Y-103441113D01*
X135683661Y-103413661D01*
X135711113Y-103391133D01*
X135742431Y-103374393D01*
X135776409Y-103364085D01*
X135817890Y-103360000D01*
X136419110Y-103360000D01*
X136460591Y-103364085D01*
X136460591Y-103364085D01*
G37*
G36*
X138035591Y-103364085D02*
X138069569Y-103374393D01*
X138100887Y-103391133D01*
X138128339Y-103413661D01*
X138150867Y-103441113D01*
X138167607Y-103472431D01*
X138177915Y-103506409D01*
X138182000Y-103547890D01*
X138182000Y-104224110D01*
X138177915Y-104265591D01*
X138167607Y-104299569D01*
X138150867Y-104330887D01*
X138128339Y-104358339D01*
X138100887Y-104380867D01*
X138069569Y-104397607D01*
X138035591Y-104407915D01*
X137994110Y-104412000D01*
X137392890Y-104412000D01*
X137351409Y-104407915D01*
X137317431Y-104397607D01*
X137286113Y-104380867D01*
X137258661Y-104358339D01*
X137236133Y-104330887D01*
X137219393Y-104299569D01*
X137209085Y-104265591D01*
X137205000Y-104224110D01*
X137205000Y-103547890D01*
X137209085Y-103506409D01*
X137219393Y-103472431D01*
X137236133Y-103441113D01*
X137258661Y-103413661D01*
X137286113Y-103391133D01*
X137317431Y-103374393D01*
X137351409Y-103364085D01*
X137392890Y-103360000D01*
X137994110Y-103360000D01*
X138035591Y-103364085D01*
X138035591Y-103364085D01*
G37*
G36*
X147544000Y-104110000D02*
X145892000Y-104110000D01*
X145892000Y-103408000D01*
X147544000Y-103408000D01*
X147544000Y-104110000D01*
X147544000Y-104110000D01*
G37*
G36*
X142144000Y-104110000D02*
X140492000Y-104110000D01*
X140492000Y-103408000D01*
X142144000Y-103408000D01*
X142144000Y-104110000D01*
X142144000Y-104110000D01*
G37*
G36*
X107169443Y-102269519D02*
X107235627Y-102276037D01*
X107348853Y-102310384D01*
X107405467Y-102327557D01*
X107522303Y-102390008D01*
X107561991Y-102411222D01*
X107597729Y-102440552D01*
X107699186Y-102523814D01*
X107768586Y-102608380D01*
X107811778Y-102661009D01*
X107811779Y-102661011D01*
X107895443Y-102817533D01*
X107895443Y-102817534D01*
X107946963Y-102987373D01*
X107964359Y-103164000D01*
X107946963Y-103340627D01*
X107924808Y-103413661D01*
X107895443Y-103510467D01*
X107845314Y-103604250D01*
X107811778Y-103666991D01*
X107782448Y-103702729D01*
X107699186Y-103804186D01*
X107597729Y-103887448D01*
X107561991Y-103916778D01*
X107561989Y-103916779D01*
X107405467Y-104000443D01*
X107348853Y-104017616D01*
X107235627Y-104051963D01*
X107169442Y-104058482D01*
X107103260Y-104065000D01*
X106764740Y-104065000D01*
X106698557Y-104058481D01*
X106632373Y-104051963D01*
X106519147Y-104017616D01*
X106462533Y-104000443D01*
X106306011Y-103916779D01*
X106306009Y-103916778D01*
X106270271Y-103887448D01*
X106168814Y-103804186D01*
X106085552Y-103702729D01*
X106056222Y-103666991D01*
X106022686Y-103604250D01*
X105972557Y-103510467D01*
X105943192Y-103413661D01*
X105921037Y-103340627D01*
X105903641Y-103164000D01*
X105921037Y-102987373D01*
X105972557Y-102817534D01*
X105972557Y-102817533D01*
X106056221Y-102661011D01*
X106056222Y-102661009D01*
X106099414Y-102608380D01*
X106168814Y-102523814D01*
X106270271Y-102440552D01*
X106306009Y-102411222D01*
X106345697Y-102390008D01*
X106462533Y-102327557D01*
X106519147Y-102310384D01*
X106632373Y-102276037D01*
X106698557Y-102269519D01*
X106764740Y-102263000D01*
X107103260Y-102263000D01*
X107169443Y-102269519D01*
X107169443Y-102269519D01*
G37*
G36*
X121636000Y-103856000D02*
X119984000Y-103856000D01*
X119984000Y-103154000D01*
X121636000Y-103154000D01*
X121636000Y-103856000D01*
X121636000Y-103856000D01*
G37*
G36*
X116236000Y-103856000D02*
X114584000Y-103856000D01*
X114584000Y-103154000D01*
X116236000Y-103154000D01*
X116236000Y-103856000D01*
X116236000Y-103856000D01*
G37*
G36*
X138010091Y-101840085D02*
X138044069Y-101850393D01*
X138075387Y-101867133D01*
X138102839Y-101889661D01*
X138125367Y-101917113D01*
X138142107Y-101948431D01*
X138152415Y-101982409D01*
X138156500Y-102023890D01*
X138156500Y-102700110D01*
X138152415Y-102741591D01*
X138142107Y-102775569D01*
X138125367Y-102806887D01*
X138102839Y-102834339D01*
X138075387Y-102856867D01*
X138044069Y-102873607D01*
X138010091Y-102883915D01*
X137968610Y-102888000D01*
X137367390Y-102888000D01*
X137325909Y-102883915D01*
X137291931Y-102873607D01*
X137260613Y-102856867D01*
X137233161Y-102834339D01*
X137210633Y-102806887D01*
X137193893Y-102775569D01*
X137183585Y-102741591D01*
X137179500Y-102700110D01*
X137179500Y-102023890D01*
X137183585Y-101982409D01*
X137193893Y-101948431D01*
X137210633Y-101917113D01*
X137233161Y-101889661D01*
X137260613Y-101867133D01*
X137291931Y-101850393D01*
X137325909Y-101840085D01*
X137367390Y-101836000D01*
X137968610Y-101836000D01*
X138010091Y-101840085D01*
X138010091Y-101840085D01*
G37*
G36*
X136435091Y-101840085D02*
X136469069Y-101850393D01*
X136500387Y-101867133D01*
X136527839Y-101889661D01*
X136550367Y-101917113D01*
X136567107Y-101948431D01*
X136577415Y-101982409D01*
X136581500Y-102023890D01*
X136581500Y-102700110D01*
X136577415Y-102741591D01*
X136567107Y-102775569D01*
X136550367Y-102806887D01*
X136527839Y-102834339D01*
X136500387Y-102856867D01*
X136469069Y-102873607D01*
X136435091Y-102883915D01*
X136393610Y-102888000D01*
X135792390Y-102888000D01*
X135750909Y-102883915D01*
X135716931Y-102873607D01*
X135685613Y-102856867D01*
X135658161Y-102834339D01*
X135635633Y-102806887D01*
X135618893Y-102775569D01*
X135608585Y-102741591D01*
X135604500Y-102700110D01*
X135604500Y-102023890D01*
X135608585Y-101982409D01*
X135618893Y-101948431D01*
X135635633Y-101917113D01*
X135658161Y-101889661D01*
X135685613Y-101867133D01*
X135716931Y-101850393D01*
X135750909Y-101840085D01*
X135792390Y-101836000D01*
X136393610Y-101836000D01*
X136435091Y-101840085D01*
X136435091Y-101840085D01*
G37*
G36*
X142144000Y-102840000D02*
X140492000Y-102840000D01*
X140492000Y-102138000D01*
X142144000Y-102138000D01*
X142144000Y-102840000D01*
X142144000Y-102840000D01*
G37*
G36*
X147544000Y-102840000D02*
X145892000Y-102840000D01*
X145892000Y-102138000D01*
X147544000Y-102138000D01*
X147544000Y-102840000D01*
X147544000Y-102840000D01*
G37*
G36*
X153201934Y-101110535D02*
X153344136Y-101153672D01*
X153475189Y-101223721D01*
X153590058Y-101317992D01*
X153684329Y-101432861D01*
X153754378Y-101563914D01*
X153797515Y-101706116D01*
X153812080Y-101854000D01*
X153797515Y-102001884D01*
X153754378Y-102144086D01*
X153684329Y-102275139D01*
X153590058Y-102390008D01*
X153475189Y-102484279D01*
X153344136Y-102554328D01*
X153201934Y-102597465D01*
X153091110Y-102608380D01*
X151708890Y-102608380D01*
X151598066Y-102597465D01*
X151455864Y-102554328D01*
X151324811Y-102484279D01*
X151209942Y-102390008D01*
X151115671Y-102275139D01*
X151045622Y-102144086D01*
X151002485Y-102001884D01*
X150987920Y-101854000D01*
X151002485Y-101706116D01*
X151045622Y-101563914D01*
X151115671Y-101432861D01*
X151209942Y-101317992D01*
X151324811Y-101223721D01*
X151455864Y-101153672D01*
X151598066Y-101110535D01*
X151708890Y-101099620D01*
X153091110Y-101099620D01*
X153201934Y-101110535D01*
X153201934Y-101110535D01*
G37*
G36*
X121636000Y-102586000D02*
X119984000Y-102586000D01*
X119984000Y-101884000D01*
X121636000Y-101884000D01*
X121636000Y-102586000D01*
X121636000Y-102586000D01*
G37*
G36*
X116236000Y-102586000D02*
X114584000Y-102586000D01*
X114584000Y-101884000D01*
X116236000Y-101884000D01*
X116236000Y-102586000D01*
X116236000Y-102586000D01*
G37*
G36*
X147544000Y-101570000D02*
X145892000Y-101570000D01*
X145892000Y-100868000D01*
X147544000Y-100868000D01*
X147544000Y-101570000D01*
X147544000Y-101570000D01*
G37*
G36*
X142144000Y-101570000D02*
X140492000Y-101570000D01*
X140492000Y-100868000D01*
X142144000Y-100868000D01*
X142144000Y-101570000D01*
X142144000Y-101570000D01*
G37*
G36*
X107169442Y-99769518D02*
X107235627Y-99776037D01*
X107348853Y-99810384D01*
X107405467Y-99827557D01*
X107447469Y-99850008D01*
X107561991Y-99911222D01*
X107597729Y-99940552D01*
X107699186Y-100023814D01*
X107782448Y-100125271D01*
X107811778Y-100161009D01*
X107811779Y-100161011D01*
X107895443Y-100317533D01*
X107906251Y-100353164D01*
X107946963Y-100487373D01*
X107964359Y-100664000D01*
X107946963Y-100840627D01*
X107912616Y-100953853D01*
X107895443Y-101010467D01*
X107847789Y-101099620D01*
X107811778Y-101166991D01*
X107804294Y-101176110D01*
X107699186Y-101304186D01*
X107626301Y-101364000D01*
X107561991Y-101416778D01*
X107561989Y-101416779D01*
X107405467Y-101500443D01*
X107348853Y-101517616D01*
X107235627Y-101551963D01*
X107169442Y-101558482D01*
X107103260Y-101565000D01*
X106764740Y-101565000D01*
X106698557Y-101558481D01*
X106632373Y-101551963D01*
X106519147Y-101517616D01*
X106462533Y-101500443D01*
X106306011Y-101416779D01*
X106306009Y-101416778D01*
X106241699Y-101364000D01*
X106168814Y-101304186D01*
X106063706Y-101176110D01*
X106056222Y-101166991D01*
X106020211Y-101099620D01*
X105972557Y-101010467D01*
X105955384Y-100953853D01*
X105921037Y-100840627D01*
X105903641Y-100664000D01*
X105921037Y-100487373D01*
X105961749Y-100353164D01*
X105972557Y-100317533D01*
X106056221Y-100161011D01*
X106056222Y-100161009D01*
X106085552Y-100125271D01*
X106168814Y-100023814D01*
X106270271Y-99940552D01*
X106306009Y-99911222D01*
X106420531Y-99850008D01*
X106462533Y-99827557D01*
X106519147Y-99810384D01*
X106632373Y-99776037D01*
X106698558Y-99769518D01*
X106764740Y-99763000D01*
X107103260Y-99763000D01*
X107169442Y-99769518D01*
X107169442Y-99769518D01*
G37*
G36*
X138035591Y-100316085D02*
X138069569Y-100326393D01*
X138100887Y-100343133D01*
X138128339Y-100365661D01*
X138150867Y-100393113D01*
X138167607Y-100424431D01*
X138177915Y-100458409D01*
X138182000Y-100499890D01*
X138182000Y-101176110D01*
X138177915Y-101217591D01*
X138167607Y-101251569D01*
X138150867Y-101282887D01*
X138128339Y-101310339D01*
X138100887Y-101332867D01*
X138069569Y-101349607D01*
X138035591Y-101359915D01*
X137994110Y-101364000D01*
X137392890Y-101364000D01*
X137351409Y-101359915D01*
X137317431Y-101349607D01*
X137286113Y-101332867D01*
X137258661Y-101310339D01*
X137236133Y-101282887D01*
X137219393Y-101251569D01*
X137209085Y-101217591D01*
X137205000Y-101176110D01*
X137205000Y-100499890D01*
X137209085Y-100458409D01*
X137219393Y-100424431D01*
X137236133Y-100393113D01*
X137258661Y-100365661D01*
X137286113Y-100343133D01*
X137317431Y-100326393D01*
X137351409Y-100316085D01*
X137392890Y-100312000D01*
X137994110Y-100312000D01*
X138035591Y-100316085D01*
X138035591Y-100316085D01*
G37*
G36*
X136460591Y-100316085D02*
X136494569Y-100326393D01*
X136525887Y-100343133D01*
X136553339Y-100365661D01*
X136575867Y-100393113D01*
X136592607Y-100424431D01*
X136602915Y-100458409D01*
X136607000Y-100499890D01*
X136607000Y-101176110D01*
X136602915Y-101217591D01*
X136592607Y-101251569D01*
X136575867Y-101282887D01*
X136553339Y-101310339D01*
X136525887Y-101332867D01*
X136494569Y-101349607D01*
X136460591Y-101359915D01*
X136419110Y-101364000D01*
X135817890Y-101364000D01*
X135776409Y-101359915D01*
X135742431Y-101349607D01*
X135711113Y-101332867D01*
X135683661Y-101310339D01*
X135661133Y-101282887D01*
X135644393Y-101251569D01*
X135634085Y-101217591D01*
X135630000Y-101176110D01*
X135630000Y-100499890D01*
X135634085Y-100458409D01*
X135644393Y-100424431D01*
X135661133Y-100393113D01*
X135683661Y-100365661D01*
X135711113Y-100343133D01*
X135742431Y-100326393D01*
X135776409Y-100316085D01*
X135817890Y-100312000D01*
X136419110Y-100312000D01*
X136460591Y-100316085D01*
X136460591Y-100316085D01*
G37*
G36*
X116236000Y-101316000D02*
X114584000Y-101316000D01*
X114584000Y-100614000D01*
X116236000Y-100614000D01*
X116236000Y-101316000D01*
X116236000Y-101316000D01*
G37*
G36*
X121636000Y-101316000D02*
X119984000Y-101316000D01*
X119984000Y-100614000D01*
X121636000Y-100614000D01*
X121636000Y-101316000D01*
X121636000Y-101316000D01*
G37*
G36*
X147544000Y-100300000D02*
X145892000Y-100300000D01*
X145892000Y-99598000D01*
X147544000Y-99598000D01*
X147544000Y-100300000D01*
X147544000Y-100300000D01*
G37*
G36*
X142144000Y-100300000D02*
X140492000Y-100300000D01*
X140492000Y-99598000D01*
X142144000Y-99598000D01*
X142144000Y-100300000D01*
X142144000Y-100300000D01*
G37*
G36*
X153201934Y-98570535D02*
X153344136Y-98613672D01*
X153475189Y-98683721D01*
X153590058Y-98777992D01*
X153684329Y-98892861D01*
X153754378Y-99023914D01*
X153797515Y-99166116D01*
X153812080Y-99314000D01*
X153797515Y-99461884D01*
X153754378Y-99604086D01*
X153684329Y-99735139D01*
X153590058Y-99850008D01*
X153475189Y-99944279D01*
X153344136Y-100014328D01*
X153201934Y-100057465D01*
X153091110Y-100068380D01*
X151708890Y-100068380D01*
X151598066Y-100057465D01*
X151455864Y-100014328D01*
X151324811Y-99944279D01*
X151209942Y-99850008D01*
X151115671Y-99735139D01*
X151045622Y-99604086D01*
X151002485Y-99461884D01*
X150987920Y-99314000D01*
X151002485Y-99166116D01*
X151045622Y-99023914D01*
X151115671Y-98892861D01*
X151209942Y-98777992D01*
X151324811Y-98683721D01*
X151455864Y-98613672D01*
X151598066Y-98570535D01*
X151708890Y-98559620D01*
X153091110Y-98559620D01*
X153201934Y-98570535D01*
X153201934Y-98570535D01*
G37*
G36*
X116236000Y-100046000D02*
X114584000Y-100046000D01*
X114584000Y-99344000D01*
X116236000Y-99344000D01*
X116236000Y-100046000D01*
X116236000Y-100046000D01*
G37*
G36*
X121636000Y-100046000D02*
X119984000Y-100046000D01*
X119984000Y-99344000D01*
X121636000Y-99344000D01*
X121636000Y-100046000D01*
X121636000Y-100046000D01*
G37*
G36*
X107169443Y-97269519D02*
X107235627Y-97276037D01*
X107346764Y-97309750D01*
X107405467Y-97327557D01*
X107485041Y-97370091D01*
X107561991Y-97411222D01*
X107591436Y-97435387D01*
X107699186Y-97523814D01*
X107782448Y-97625271D01*
X107811778Y-97661009D01*
X107811779Y-97661011D01*
X107895443Y-97817533D01*
X107895443Y-97817534D01*
X107946963Y-97987373D01*
X107964359Y-98164000D01*
X107946963Y-98340627D01*
X107923575Y-98417728D01*
X107895443Y-98510467D01*
X107863335Y-98570536D01*
X107811778Y-98666991D01*
X107798048Y-98683721D01*
X107699186Y-98804186D01*
X107597729Y-98887448D01*
X107561991Y-98916778D01*
X107561989Y-98916779D01*
X107405467Y-99000443D01*
X107348853Y-99017616D01*
X107235627Y-99051963D01*
X107169442Y-99058482D01*
X107103260Y-99065000D01*
X106764740Y-99065000D01*
X106698558Y-99058482D01*
X106632373Y-99051963D01*
X106519147Y-99017616D01*
X106462533Y-99000443D01*
X106306011Y-98916779D01*
X106306009Y-98916778D01*
X106270271Y-98887448D01*
X106168814Y-98804186D01*
X106069952Y-98683721D01*
X106056222Y-98666991D01*
X106004665Y-98570536D01*
X105972557Y-98510467D01*
X105944425Y-98417728D01*
X105921037Y-98340627D01*
X105903641Y-98164000D01*
X105921037Y-97987373D01*
X105972557Y-97817534D01*
X105972557Y-97817533D01*
X106056221Y-97661011D01*
X106056222Y-97661009D01*
X106085552Y-97625271D01*
X106168814Y-97523814D01*
X106276564Y-97435387D01*
X106306009Y-97411222D01*
X106382959Y-97370091D01*
X106462533Y-97327557D01*
X106521236Y-97309750D01*
X106632373Y-97276037D01*
X106698558Y-97269518D01*
X106764740Y-97263000D01*
X107103260Y-97263000D01*
X107169443Y-97269519D01*
X107169443Y-97269519D01*
G37*
G36*
X157978619Y-95130272D02*
X158289713Y-95259131D01*
X158569695Y-95446209D01*
X158807791Y-95684305D01*
X158994869Y-95964287D01*
X159123728Y-96275381D01*
X159189420Y-96605635D01*
X159189420Y-96942365D01*
X159123728Y-97272619D01*
X158994869Y-97583713D01*
X158807791Y-97863695D01*
X158569695Y-98101791D01*
X158289713Y-98288869D01*
X157978619Y-98417728D01*
X157648365Y-98483420D01*
X157311635Y-98483420D01*
X156981381Y-98417728D01*
X156670287Y-98288869D01*
X156390305Y-98101791D01*
X156152209Y-97863695D01*
X155965131Y-97583713D01*
X155836272Y-97272619D01*
X155770580Y-96942365D01*
X155770580Y-96605635D01*
X155836272Y-96275381D01*
X155965131Y-95964287D01*
X156152209Y-95684305D01*
X156390305Y-95446209D01*
X156670287Y-95259131D01*
X156981381Y-95130272D01*
X157311635Y-95064580D01*
X157648365Y-95064580D01*
X157978619Y-95130272D01*
X157978619Y-95130272D01*
G37*
G36*
X115658091Y-96506085D02*
X115692069Y-96516393D01*
X115723387Y-96533133D01*
X115750839Y-96555661D01*
X115773367Y-96583113D01*
X115790107Y-96614431D01*
X115800415Y-96648409D01*
X115804500Y-96689890D01*
X115804500Y-97366110D01*
X115800415Y-97407591D01*
X115790107Y-97441569D01*
X115773367Y-97472887D01*
X115750839Y-97500339D01*
X115723387Y-97522867D01*
X115692069Y-97539607D01*
X115658091Y-97549915D01*
X115616610Y-97554000D01*
X115015390Y-97554000D01*
X114973909Y-97549915D01*
X114939931Y-97539607D01*
X114908613Y-97522867D01*
X114881161Y-97500339D01*
X114858633Y-97472887D01*
X114841893Y-97441569D01*
X114831585Y-97407591D01*
X114827500Y-97366110D01*
X114827500Y-96689890D01*
X114831585Y-96648409D01*
X114841893Y-96614431D01*
X114858633Y-96583113D01*
X114881161Y-96555661D01*
X114908613Y-96533133D01*
X114939931Y-96516393D01*
X114973909Y-96506085D01*
X115015390Y-96502000D01*
X115616610Y-96502000D01*
X115658091Y-96506085D01*
X115658091Y-96506085D01*
G37*
G36*
X114083091Y-96506085D02*
X114117069Y-96516393D01*
X114148387Y-96533133D01*
X114175839Y-96555661D01*
X114198367Y-96583113D01*
X114215107Y-96614431D01*
X114225415Y-96648409D01*
X114229500Y-96689890D01*
X114229500Y-97366110D01*
X114225415Y-97407591D01*
X114215107Y-97441569D01*
X114198367Y-97472887D01*
X114175839Y-97500339D01*
X114148387Y-97522867D01*
X114117069Y-97539607D01*
X114083091Y-97549915D01*
X114041610Y-97554000D01*
X113440390Y-97554000D01*
X113398909Y-97549915D01*
X113364931Y-97539607D01*
X113333613Y-97522867D01*
X113306161Y-97500339D01*
X113283633Y-97472887D01*
X113266893Y-97441569D01*
X113256585Y-97407591D01*
X113252500Y-97366110D01*
X113252500Y-96689890D01*
X113256585Y-96648409D01*
X113266893Y-96614431D01*
X113283633Y-96583113D01*
X113306161Y-96555661D01*
X113333613Y-96533133D01*
X113364931Y-96516393D01*
X113398909Y-96506085D01*
X113440390Y-96502000D01*
X114041610Y-96502000D01*
X114083091Y-96506085D01*
X114083091Y-96506085D01*
G37*
G36*
X140587591Y-96543585D02*
X140621569Y-96553893D01*
X140652887Y-96570633D01*
X140680339Y-96593161D01*
X140702867Y-96620613D01*
X140719607Y-96651931D01*
X140729915Y-96685909D01*
X140734000Y-96727390D01*
X140734000Y-97328610D01*
X140729915Y-97370091D01*
X140719607Y-97404069D01*
X140702867Y-97435387D01*
X140680339Y-97462839D01*
X140652887Y-97485367D01*
X140621569Y-97502107D01*
X140587591Y-97512415D01*
X140546110Y-97516500D01*
X139869890Y-97516500D01*
X139828409Y-97512415D01*
X139794431Y-97502107D01*
X139763113Y-97485367D01*
X139735661Y-97462839D01*
X139713133Y-97435387D01*
X139696393Y-97404069D01*
X139686085Y-97370091D01*
X139682000Y-97328610D01*
X139682000Y-96727390D01*
X139686085Y-96685909D01*
X139696393Y-96651931D01*
X139713133Y-96620613D01*
X139735661Y-96593161D01*
X139763113Y-96570633D01*
X139794431Y-96553893D01*
X139828409Y-96543585D01*
X139869890Y-96539500D01*
X140546110Y-96539500D01*
X140587591Y-96543585D01*
X140587591Y-96543585D01*
G37*
G36*
X128840091Y-95527585D02*
X128874069Y-95537893D01*
X128905387Y-95554633D01*
X128932839Y-95577161D01*
X128955367Y-95604613D01*
X128972107Y-95635931D01*
X128982415Y-95669909D01*
X128986500Y-95711390D01*
X128986500Y-96312610D01*
X128982415Y-96354091D01*
X128972107Y-96388069D01*
X128955367Y-96419387D01*
X128932839Y-96446839D01*
X128905387Y-96469367D01*
X128874069Y-96486107D01*
X128840091Y-96496415D01*
X128798610Y-96500500D01*
X128122390Y-96500500D01*
X128080909Y-96496415D01*
X128046931Y-96486107D01*
X128015613Y-96469367D01*
X127988161Y-96446839D01*
X127965633Y-96419387D01*
X127948893Y-96388069D01*
X127938585Y-96354091D01*
X127934500Y-96312610D01*
X127934500Y-95711390D01*
X127938585Y-95669909D01*
X127948893Y-95635931D01*
X127965633Y-95604613D01*
X127988161Y-95577161D01*
X128015613Y-95554633D01*
X128046931Y-95537893D01*
X128080909Y-95527585D01*
X128122390Y-95523500D01*
X128798610Y-95523500D01*
X128840091Y-95527585D01*
X128840091Y-95527585D01*
G37*
G36*
X132713591Y-95527585D02*
X132747569Y-95537893D01*
X132778887Y-95554633D01*
X132806339Y-95577161D01*
X132828867Y-95604613D01*
X132845607Y-95635931D01*
X132855915Y-95669909D01*
X132860000Y-95711390D01*
X132860000Y-96312610D01*
X132855915Y-96354091D01*
X132845607Y-96388069D01*
X132828867Y-96419387D01*
X132806339Y-96446839D01*
X132778887Y-96469367D01*
X132747569Y-96486107D01*
X132713591Y-96496415D01*
X132672110Y-96500500D01*
X131995890Y-96500500D01*
X131954409Y-96496415D01*
X131920431Y-96486107D01*
X131889113Y-96469367D01*
X131861661Y-96446839D01*
X131839133Y-96419387D01*
X131822393Y-96388069D01*
X131812085Y-96354091D01*
X131808000Y-96312610D01*
X131808000Y-95711390D01*
X131812085Y-95669909D01*
X131822393Y-95635931D01*
X131839133Y-95604613D01*
X131861661Y-95577161D01*
X131889113Y-95554633D01*
X131920431Y-95537893D01*
X131954409Y-95527585D01*
X131995890Y-95523500D01*
X132672110Y-95523500D01*
X132713591Y-95527585D01*
X132713591Y-95527585D01*
G37*
G36*
X126871591Y-95527585D02*
X126905569Y-95537893D01*
X126936887Y-95554633D01*
X126964339Y-95577161D01*
X126986867Y-95604613D01*
X127003607Y-95635931D01*
X127013915Y-95669909D01*
X127018000Y-95711390D01*
X127018000Y-96312610D01*
X127013915Y-96354091D01*
X127003607Y-96388069D01*
X126986867Y-96419387D01*
X126964339Y-96446839D01*
X126936887Y-96469367D01*
X126905569Y-96486107D01*
X126871591Y-96496415D01*
X126830110Y-96500500D01*
X126153890Y-96500500D01*
X126112409Y-96496415D01*
X126078431Y-96486107D01*
X126047113Y-96469367D01*
X126019661Y-96446839D01*
X125997133Y-96419387D01*
X125980393Y-96388069D01*
X125970085Y-96354091D01*
X125966000Y-96312610D01*
X125966000Y-95711390D01*
X125970085Y-95669909D01*
X125980393Y-95635931D01*
X125997133Y-95604613D01*
X126019661Y-95577161D01*
X126047113Y-95554633D01*
X126078431Y-95537893D01*
X126112409Y-95527585D01*
X126153890Y-95523500D01*
X126830110Y-95523500D01*
X126871591Y-95527585D01*
X126871591Y-95527585D01*
G37*
G36*
X130745091Y-95527585D02*
X130779069Y-95537893D01*
X130810387Y-95554633D01*
X130837839Y-95577161D01*
X130860367Y-95604613D01*
X130877107Y-95635931D01*
X130887415Y-95669909D01*
X130891500Y-95711390D01*
X130891500Y-96312610D01*
X130887415Y-96354091D01*
X130877107Y-96388069D01*
X130860367Y-96419387D01*
X130837839Y-96446839D01*
X130810387Y-96469367D01*
X130779069Y-96486107D01*
X130745091Y-96496415D01*
X130703610Y-96500500D01*
X130027390Y-96500500D01*
X129985909Y-96496415D01*
X129951931Y-96486107D01*
X129920613Y-96469367D01*
X129893161Y-96446839D01*
X129870633Y-96419387D01*
X129853893Y-96388069D01*
X129843585Y-96354091D01*
X129839500Y-96312610D01*
X129839500Y-95711390D01*
X129843585Y-95669909D01*
X129853893Y-95635931D01*
X129870633Y-95604613D01*
X129893161Y-95577161D01*
X129920613Y-95554633D01*
X129951931Y-95537893D01*
X129985909Y-95527585D01*
X130027390Y-95523500D01*
X130703610Y-95523500D01*
X130745091Y-95527585D01*
X130745091Y-95527585D01*
G37*
G36*
X134745591Y-95527585D02*
X134779569Y-95537893D01*
X134810887Y-95554633D01*
X134838339Y-95577161D01*
X134860867Y-95604613D01*
X134877607Y-95635931D01*
X134887915Y-95669909D01*
X134892000Y-95711390D01*
X134892000Y-96312610D01*
X134887915Y-96354091D01*
X134877607Y-96388069D01*
X134860867Y-96419387D01*
X134838339Y-96446839D01*
X134810887Y-96469367D01*
X134779569Y-96486107D01*
X134745591Y-96496415D01*
X134704110Y-96500500D01*
X134027890Y-96500500D01*
X133986409Y-96496415D01*
X133952431Y-96486107D01*
X133921113Y-96469367D01*
X133893661Y-96446839D01*
X133871133Y-96419387D01*
X133854393Y-96388069D01*
X133844085Y-96354091D01*
X133840000Y-96312610D01*
X133840000Y-95711390D01*
X133844085Y-95669909D01*
X133854393Y-95635931D01*
X133871133Y-95604613D01*
X133893661Y-95577161D01*
X133921113Y-95554633D01*
X133952431Y-95537893D01*
X133986409Y-95527585D01*
X134027890Y-95523500D01*
X134704110Y-95523500D01*
X134745591Y-95527585D01*
X134745591Y-95527585D01*
G37*
G36*
X140587591Y-94968585D02*
X140621569Y-94978893D01*
X140652887Y-94995633D01*
X140680339Y-95018161D01*
X140702867Y-95045613D01*
X140719607Y-95076931D01*
X140729915Y-95110909D01*
X140734000Y-95152390D01*
X140734000Y-95753610D01*
X140729915Y-95795091D01*
X140719607Y-95829069D01*
X140702867Y-95860387D01*
X140680339Y-95887839D01*
X140652887Y-95910367D01*
X140621569Y-95927107D01*
X140587591Y-95937415D01*
X140546110Y-95941500D01*
X139869890Y-95941500D01*
X139828409Y-95937415D01*
X139794431Y-95927107D01*
X139763113Y-95910367D01*
X139735661Y-95887839D01*
X139713133Y-95860387D01*
X139696393Y-95829069D01*
X139686085Y-95795091D01*
X139682000Y-95753610D01*
X139682000Y-95152390D01*
X139686085Y-95110909D01*
X139696393Y-95076931D01*
X139713133Y-95045613D01*
X139735661Y-95018161D01*
X139763113Y-94995633D01*
X139794431Y-94978893D01*
X139828409Y-94968585D01*
X139869890Y-94964500D01*
X140546110Y-94964500D01*
X140587591Y-94968585D01*
X140587591Y-94968585D01*
G37*
G36*
X115658091Y-94728085D02*
X115692069Y-94738393D01*
X115723387Y-94755133D01*
X115750839Y-94777661D01*
X115773367Y-94805113D01*
X115790107Y-94836431D01*
X115800415Y-94870409D01*
X115804500Y-94911890D01*
X115804500Y-95588110D01*
X115800415Y-95629591D01*
X115790107Y-95663569D01*
X115773367Y-95694887D01*
X115750839Y-95722339D01*
X115723387Y-95744867D01*
X115692069Y-95761607D01*
X115658091Y-95771915D01*
X115616610Y-95776000D01*
X115015390Y-95776000D01*
X114973909Y-95771915D01*
X114939931Y-95761607D01*
X114908613Y-95744867D01*
X114881161Y-95722339D01*
X114858633Y-95694887D01*
X114841893Y-95663569D01*
X114831585Y-95629591D01*
X114827500Y-95588110D01*
X114827500Y-94911890D01*
X114831585Y-94870409D01*
X114841893Y-94836431D01*
X114858633Y-94805113D01*
X114881161Y-94777661D01*
X114908613Y-94755133D01*
X114939931Y-94738393D01*
X114973909Y-94728085D01*
X115015390Y-94724000D01*
X115616610Y-94724000D01*
X115658091Y-94728085D01*
X115658091Y-94728085D01*
G37*
G36*
X114083091Y-94728085D02*
X114117069Y-94738393D01*
X114148387Y-94755133D01*
X114175839Y-94777661D01*
X114198367Y-94805113D01*
X114215107Y-94836431D01*
X114225415Y-94870409D01*
X114229500Y-94911890D01*
X114229500Y-95588110D01*
X114225415Y-95629591D01*
X114215107Y-95663569D01*
X114198367Y-95694887D01*
X114175839Y-95722339D01*
X114148387Y-95744867D01*
X114117069Y-95761607D01*
X114083091Y-95771915D01*
X114041610Y-95776000D01*
X113440390Y-95776000D01*
X113398909Y-95771915D01*
X113364931Y-95761607D01*
X113333613Y-95744867D01*
X113306161Y-95722339D01*
X113283633Y-95694887D01*
X113266893Y-95663569D01*
X113256585Y-95629591D01*
X113252500Y-95588110D01*
X113252500Y-94911890D01*
X113256585Y-94870409D01*
X113266893Y-94836431D01*
X113283633Y-94805113D01*
X113306161Y-94777661D01*
X113333613Y-94755133D01*
X113364931Y-94738393D01*
X113398909Y-94728085D01*
X113440390Y-94724000D01*
X114041610Y-94724000D01*
X114083091Y-94728085D01*
X114083091Y-94728085D01*
G37*
G36*
X132713591Y-93952585D02*
X132747569Y-93962893D01*
X132778887Y-93979633D01*
X132806339Y-94002161D01*
X132828867Y-94029613D01*
X132845607Y-94060931D01*
X132855915Y-94094909D01*
X132860000Y-94136390D01*
X132860000Y-94737610D01*
X132855915Y-94779091D01*
X132845607Y-94813069D01*
X132828867Y-94844387D01*
X132806339Y-94871839D01*
X132778887Y-94894367D01*
X132747569Y-94911107D01*
X132713591Y-94921415D01*
X132672110Y-94925500D01*
X131995890Y-94925500D01*
X131954409Y-94921415D01*
X131920431Y-94911107D01*
X131889113Y-94894367D01*
X131861661Y-94871839D01*
X131839133Y-94844387D01*
X131822393Y-94813069D01*
X131812085Y-94779091D01*
X131808000Y-94737610D01*
X131808000Y-94136390D01*
X131812085Y-94094909D01*
X131822393Y-94060931D01*
X131839133Y-94029613D01*
X131861661Y-94002161D01*
X131889113Y-93979633D01*
X131920431Y-93962893D01*
X131954409Y-93952585D01*
X131995890Y-93948500D01*
X132672110Y-93948500D01*
X132713591Y-93952585D01*
X132713591Y-93952585D01*
G37*
G36*
X134745591Y-93952585D02*
X134779569Y-93962893D01*
X134810887Y-93979633D01*
X134838339Y-94002161D01*
X134860867Y-94029613D01*
X134877607Y-94060931D01*
X134887915Y-94094909D01*
X134892000Y-94136390D01*
X134892000Y-94737610D01*
X134887915Y-94779091D01*
X134877607Y-94813069D01*
X134860867Y-94844387D01*
X134838339Y-94871839D01*
X134810887Y-94894367D01*
X134779569Y-94911107D01*
X134745591Y-94921415D01*
X134704110Y-94925500D01*
X134027890Y-94925500D01*
X133986409Y-94921415D01*
X133952431Y-94911107D01*
X133921113Y-94894367D01*
X133893661Y-94871839D01*
X133871133Y-94844387D01*
X133854393Y-94813069D01*
X133844085Y-94779091D01*
X133840000Y-94737610D01*
X133840000Y-94136390D01*
X133844085Y-94094909D01*
X133854393Y-94060931D01*
X133871133Y-94029613D01*
X133893661Y-94002161D01*
X133921113Y-93979633D01*
X133952431Y-93962893D01*
X133986409Y-93952585D01*
X134027890Y-93948500D01*
X134704110Y-93948500D01*
X134745591Y-93952585D01*
X134745591Y-93952585D01*
G37*
G36*
X130745091Y-93952585D02*
X130779069Y-93962893D01*
X130810387Y-93979633D01*
X130837839Y-94002161D01*
X130860367Y-94029613D01*
X130877107Y-94060931D01*
X130887415Y-94094909D01*
X130891500Y-94136390D01*
X130891500Y-94737610D01*
X130887415Y-94779091D01*
X130877107Y-94813069D01*
X130860367Y-94844387D01*
X130837839Y-94871839D01*
X130810387Y-94894367D01*
X130779069Y-94911107D01*
X130745091Y-94921415D01*
X130703610Y-94925500D01*
X130027390Y-94925500D01*
X129985909Y-94921415D01*
X129951931Y-94911107D01*
X129920613Y-94894367D01*
X129893161Y-94871839D01*
X129870633Y-94844387D01*
X129853893Y-94813069D01*
X129843585Y-94779091D01*
X129839500Y-94737610D01*
X129839500Y-94136390D01*
X129843585Y-94094909D01*
X129853893Y-94060931D01*
X129870633Y-94029613D01*
X129893161Y-94002161D01*
X129920613Y-93979633D01*
X129951931Y-93962893D01*
X129985909Y-93952585D01*
X130027390Y-93948500D01*
X130703610Y-93948500D01*
X130745091Y-93952585D01*
X130745091Y-93952585D01*
G37*
G36*
X128840091Y-93952585D02*
X128874069Y-93962893D01*
X128905387Y-93979633D01*
X128932839Y-94002161D01*
X128955367Y-94029613D01*
X128972107Y-94060931D01*
X128982415Y-94094909D01*
X128986500Y-94136390D01*
X128986500Y-94737610D01*
X128982415Y-94779091D01*
X128972107Y-94813069D01*
X128955367Y-94844387D01*
X128932839Y-94871839D01*
X128905387Y-94894367D01*
X128874069Y-94911107D01*
X128840091Y-94921415D01*
X128798610Y-94925500D01*
X128122390Y-94925500D01*
X128080909Y-94921415D01*
X128046931Y-94911107D01*
X128015613Y-94894367D01*
X127988161Y-94871839D01*
X127965633Y-94844387D01*
X127948893Y-94813069D01*
X127938585Y-94779091D01*
X127934500Y-94737610D01*
X127934500Y-94136390D01*
X127938585Y-94094909D01*
X127948893Y-94060931D01*
X127965633Y-94029613D01*
X127988161Y-94002161D01*
X128015613Y-93979633D01*
X128046931Y-93962893D01*
X128080909Y-93952585D01*
X128122390Y-93948500D01*
X128798610Y-93948500D01*
X128840091Y-93952585D01*
X128840091Y-93952585D01*
G37*
G36*
X126871591Y-93952585D02*
X126905569Y-93962893D01*
X126936887Y-93979633D01*
X126964339Y-94002161D01*
X126986867Y-94029613D01*
X127003607Y-94060931D01*
X127013915Y-94094909D01*
X127018000Y-94136390D01*
X127018000Y-94737610D01*
X127013915Y-94779091D01*
X127003607Y-94813069D01*
X126986867Y-94844387D01*
X126964339Y-94871839D01*
X126936887Y-94894367D01*
X126905569Y-94911107D01*
X126871591Y-94921415D01*
X126830110Y-94925500D01*
X126153890Y-94925500D01*
X126112409Y-94921415D01*
X126078431Y-94911107D01*
X126047113Y-94894367D01*
X126019661Y-94871839D01*
X125997133Y-94844387D01*
X125980393Y-94813069D01*
X125970085Y-94779091D01*
X125966000Y-94737610D01*
X125966000Y-94136390D01*
X125970085Y-94094909D01*
X125980393Y-94060931D01*
X125997133Y-94029613D01*
X126019661Y-94002161D01*
X126047113Y-93979633D01*
X126078431Y-93962893D01*
X126112409Y-93952585D01*
X126153890Y-93948500D01*
X126830110Y-93948500D01*
X126871591Y-93952585D01*
X126871591Y-93952585D01*
G37*
G36*
X121395142Y-91420242D02*
X121543102Y-91481530D01*
X121676258Y-91570502D01*
X121789498Y-91683742D01*
X121878470Y-91816898D01*
X121939758Y-91964858D01*
X121971000Y-92121925D01*
X121971000Y-92282075D01*
X121939758Y-92439142D01*
X121878470Y-92587102D01*
X121789498Y-92720258D01*
X121676258Y-92833498D01*
X121543102Y-92922470D01*
X121395142Y-92983758D01*
X121238075Y-93015000D01*
X121077925Y-93015000D01*
X120920858Y-92983758D01*
X120772898Y-92922470D01*
X120639742Y-92833498D01*
X120526502Y-92720258D01*
X120437530Y-92587102D01*
X120376242Y-92439142D01*
X120345000Y-92282075D01*
X120345000Y-92121925D01*
X120376242Y-91964858D01*
X120437530Y-91816898D01*
X120526502Y-91683742D01*
X120639742Y-91570502D01*
X120772898Y-91481530D01*
X120920858Y-91420242D01*
X121077925Y-91389000D01*
X121238075Y-91389000D01*
X121395142Y-91420242D01*
X121395142Y-91420242D01*
G37*
G36*
X113775142Y-91420242D02*
X113923102Y-91481530D01*
X114056258Y-91570502D01*
X114169498Y-91683742D01*
X114258470Y-91816898D01*
X114319758Y-91964858D01*
X114351000Y-92121925D01*
X114351000Y-92282075D01*
X114319758Y-92439142D01*
X114258470Y-92587102D01*
X114169498Y-92720258D01*
X114056258Y-92833498D01*
X113923102Y-92922470D01*
X113775142Y-92983758D01*
X113618075Y-93015000D01*
X113457925Y-93015000D01*
X113300858Y-92983758D01*
X113152898Y-92922470D01*
X113019742Y-92833498D01*
X112906502Y-92720258D01*
X112817530Y-92587102D01*
X112756242Y-92439142D01*
X112725000Y-92282075D01*
X112725000Y-92121925D01*
X112756242Y-91964858D01*
X112817530Y-91816898D01*
X112906502Y-91683742D01*
X113019742Y-91570502D01*
X113152898Y-91481530D01*
X113300858Y-91420242D01*
X113457925Y-91389000D01*
X113618075Y-91389000D01*
X113775142Y-91420242D01*
X113775142Y-91420242D01*
G37*
G36*
X118855142Y-91420242D02*
X119003102Y-91481530D01*
X119136258Y-91570502D01*
X119249498Y-91683742D01*
X119338470Y-91816898D01*
X119399758Y-91964858D01*
X119431000Y-92121925D01*
X119431000Y-92282075D01*
X119399758Y-92439142D01*
X119338470Y-92587102D01*
X119249498Y-92720258D01*
X119136258Y-92833498D01*
X119003102Y-92922470D01*
X118855142Y-92983758D01*
X118698075Y-93015000D01*
X118537925Y-93015000D01*
X118380858Y-92983758D01*
X118232898Y-92922470D01*
X118099742Y-92833498D01*
X117986502Y-92720258D01*
X117897530Y-92587102D01*
X117836242Y-92439142D01*
X117805000Y-92282075D01*
X117805000Y-92121925D01*
X117836242Y-91964858D01*
X117897530Y-91816898D01*
X117986502Y-91683742D01*
X118099742Y-91570502D01*
X118232898Y-91481530D01*
X118380858Y-91420242D01*
X118537925Y-91389000D01*
X118698075Y-91389000D01*
X118855142Y-91420242D01*
X118855142Y-91420242D01*
G37*
G36*
X116315142Y-91420242D02*
X116463102Y-91481530D01*
X116596258Y-91570502D01*
X116709498Y-91683742D01*
X116798470Y-91816898D01*
X116859758Y-91964858D01*
X116891000Y-92121925D01*
X116891000Y-92282075D01*
X116859758Y-92439142D01*
X116798470Y-92587102D01*
X116709498Y-92720258D01*
X116596258Y-92833498D01*
X116463102Y-92922470D01*
X116315142Y-92983758D01*
X116158075Y-93015000D01*
X115997925Y-93015000D01*
X115840858Y-92983758D01*
X115692898Y-92922470D01*
X115559742Y-92833498D01*
X115446502Y-92720258D01*
X115357530Y-92587102D01*
X115296242Y-92439142D01*
X115265000Y-92282075D01*
X115265000Y-92121925D01*
X115296242Y-91964858D01*
X115357530Y-91816898D01*
X115446502Y-91683742D01*
X115559742Y-91570502D01*
X115692898Y-91481530D01*
X115840858Y-91420242D01*
X115997925Y-91389000D01*
X116158075Y-91389000D01*
X116315142Y-91420242D01*
X116315142Y-91420242D01*
G37*
G36*
X108375256Y-88391298D02*
X108481579Y-88412447D01*
X108782042Y-88536903D01*
X108885089Y-88605757D01*
X109052454Y-88717587D01*
X109282413Y-88947546D01*
X109282415Y-88947549D01*
X109409838Y-89138250D01*
X109463098Y-89217960D01*
X109587553Y-89518422D01*
X109651000Y-89837389D01*
X109651000Y-90162611D01*
X109619452Y-90321210D01*
X109587553Y-90481579D01*
X109521892Y-90640099D01*
X109463098Y-90782040D01*
X109282413Y-91052454D01*
X109052454Y-91282413D01*
X109052451Y-91282415D01*
X108782042Y-91463097D01*
X108782041Y-91463098D01*
X108782040Y-91463098D01*
X108737543Y-91481529D01*
X108481579Y-91587553D01*
X108375256Y-91608702D01*
X108162611Y-91651000D01*
X107837389Y-91651000D01*
X107624744Y-91608702D01*
X107518421Y-91587553D01*
X107262457Y-91481529D01*
X107217960Y-91463098D01*
X107217959Y-91463098D01*
X107217958Y-91463097D01*
X106947549Y-91282415D01*
X106947546Y-91282413D01*
X106717587Y-91052454D01*
X106536902Y-90782040D01*
X106478108Y-90640099D01*
X106412447Y-90481579D01*
X106380548Y-90321210D01*
X106349000Y-90162611D01*
X106349000Y-89837389D01*
X106412447Y-89518422D01*
X106536902Y-89217960D01*
X106590163Y-89138250D01*
X106717585Y-88947549D01*
X106717587Y-88947546D01*
X106947546Y-88717587D01*
X107114911Y-88605757D01*
X107217958Y-88536903D01*
X107518421Y-88412447D01*
X107624744Y-88391298D01*
X107837389Y-88349000D01*
X108162611Y-88349000D01*
X108375256Y-88391298D01*
X108375256Y-88391298D01*
G37*
G36*
X159633256Y-88391298D02*
X159739579Y-88412447D01*
X160040042Y-88536903D01*
X160143089Y-88605757D01*
X160310454Y-88717587D01*
X160540413Y-88947546D01*
X160540415Y-88947549D01*
X160667838Y-89138250D01*
X160721098Y-89217960D01*
X160845553Y-89518422D01*
X160909000Y-89837389D01*
X160909000Y-90162611D01*
X160877452Y-90321210D01*
X160845553Y-90481579D01*
X160779892Y-90640099D01*
X160721098Y-90782040D01*
X160540413Y-91052454D01*
X160310454Y-91282413D01*
X160310451Y-91282415D01*
X160040042Y-91463097D01*
X160040041Y-91463098D01*
X160040040Y-91463098D01*
X159995543Y-91481529D01*
X159739579Y-91587553D01*
X159633256Y-91608702D01*
X159420611Y-91651000D01*
X159095389Y-91651000D01*
X158882744Y-91608702D01*
X158776421Y-91587553D01*
X158520457Y-91481529D01*
X158475960Y-91463098D01*
X158475959Y-91463098D01*
X158475958Y-91463097D01*
X158205549Y-91282415D01*
X158205546Y-91282413D01*
X157975587Y-91052454D01*
X157794902Y-90782040D01*
X157736108Y-90640099D01*
X157670447Y-90481579D01*
X157638548Y-90321210D01*
X157607000Y-90162611D01*
X157607000Y-89837389D01*
X157670447Y-89518422D01*
X157794902Y-89217960D01*
X157848163Y-89138250D01*
X157975585Y-88947549D01*
X157975587Y-88947546D01*
X158205546Y-88717587D01*
X158372911Y-88605757D01*
X158475958Y-88536903D01*
X158776421Y-88412447D01*
X158882744Y-88391298D01*
X159095389Y-88349000D01*
X159420611Y-88349000D01*
X159633256Y-88391298D01*
X159633256Y-88391298D01*
G37*
G36*
X127097710Y-91583510D02*
X125896290Y-91583510D01*
X125896290Y-90280490D01*
X127097710Y-90280490D01*
X127097710Y-91583510D01*
X127097710Y-91583510D01*
G37*
G36*
X128858617Y-90216605D02*
X128891430Y-90226558D01*
X128921667Y-90242720D01*
X128948170Y-90264470D01*
X128969920Y-90290973D01*
X128986082Y-90321210D01*
X128996035Y-90354023D01*
X129000000Y-90394280D01*
X129000000Y-91358000D01*
X128996035Y-91398257D01*
X128986082Y-91431070D01*
X128969920Y-91461307D01*
X128948170Y-91487810D01*
X128921667Y-91509560D01*
X128891430Y-91525722D01*
X128858617Y-91535675D01*
X128818360Y-91539640D01*
X128229640Y-91539640D01*
X128189383Y-91535675D01*
X128156570Y-91525722D01*
X128126333Y-91509560D01*
X128099830Y-91487810D01*
X128078080Y-91461307D01*
X128061918Y-91431070D01*
X128051965Y-91398257D01*
X128048000Y-91358000D01*
X128048000Y-90394280D01*
X128051965Y-90354023D01*
X128061918Y-90321210D01*
X128078080Y-90290973D01*
X128099830Y-90264470D01*
X128126333Y-90242720D01*
X128156570Y-90226558D01*
X128189383Y-90216605D01*
X128229640Y-90212640D01*
X128818360Y-90212640D01*
X128858617Y-90216605D01*
X128858617Y-90216605D01*
G37*
G36*
X130681591Y-90473085D02*
X130715569Y-90483393D01*
X130746887Y-90500133D01*
X130774339Y-90522661D01*
X130796867Y-90550113D01*
X130813607Y-90581431D01*
X130823915Y-90615409D01*
X130828000Y-90656890D01*
X130828000Y-91258110D01*
X130823915Y-91299591D01*
X130813607Y-91333569D01*
X130796867Y-91364887D01*
X130774339Y-91392339D01*
X130746887Y-91414867D01*
X130715569Y-91431607D01*
X130681591Y-91441915D01*
X130640110Y-91446000D01*
X129963890Y-91446000D01*
X129922409Y-91441915D01*
X129888431Y-91431607D01*
X129857113Y-91414867D01*
X129829661Y-91392339D01*
X129807133Y-91364887D01*
X129790393Y-91333569D01*
X129780085Y-91299591D01*
X129776000Y-91258110D01*
X129776000Y-90656890D01*
X129780085Y-90615409D01*
X129790393Y-90581431D01*
X129807133Y-90550113D01*
X129829661Y-90522661D01*
X129857113Y-90500133D01*
X129888431Y-90483393D01*
X129922409Y-90473085D01*
X129963890Y-90469000D01*
X130640110Y-90469000D01*
X130681591Y-90473085D01*
X130681591Y-90473085D01*
G37*
G36*
X132713591Y-90447585D02*
X132747569Y-90457893D01*
X132778887Y-90474633D01*
X132806339Y-90497161D01*
X132828867Y-90524613D01*
X132845607Y-90555931D01*
X132855915Y-90589909D01*
X132860000Y-90631390D01*
X132860000Y-91232610D01*
X132855915Y-91274091D01*
X132845607Y-91308069D01*
X132828867Y-91339387D01*
X132806339Y-91366839D01*
X132778887Y-91389367D01*
X132747569Y-91406107D01*
X132713591Y-91416415D01*
X132672110Y-91420500D01*
X131995890Y-91420500D01*
X131954409Y-91416415D01*
X131920431Y-91406107D01*
X131889113Y-91389367D01*
X131861661Y-91366839D01*
X131839133Y-91339387D01*
X131822393Y-91308069D01*
X131812085Y-91274091D01*
X131808000Y-91232610D01*
X131808000Y-90631390D01*
X131812085Y-90589909D01*
X131822393Y-90555931D01*
X131839133Y-90524613D01*
X131861661Y-90497161D01*
X131889113Y-90474633D01*
X131920431Y-90457893D01*
X131954409Y-90447585D01*
X131995890Y-90443500D01*
X132672110Y-90443500D01*
X132713591Y-90447585D01*
X132713591Y-90447585D01*
G37*
G36*
X134745591Y-90447585D02*
X134779569Y-90457893D01*
X134810887Y-90474633D01*
X134838339Y-90497161D01*
X134860867Y-90524613D01*
X134877607Y-90555931D01*
X134887915Y-90589909D01*
X134892000Y-90631390D01*
X134892000Y-91232610D01*
X134887915Y-91274091D01*
X134877607Y-91308069D01*
X134860867Y-91339387D01*
X134838339Y-91366839D01*
X134810887Y-91389367D01*
X134779569Y-91406107D01*
X134745591Y-91416415D01*
X134704110Y-91420500D01*
X134027890Y-91420500D01*
X133986409Y-91416415D01*
X133952431Y-91406107D01*
X133921113Y-91389367D01*
X133893661Y-91366839D01*
X133871133Y-91339387D01*
X133854393Y-91308069D01*
X133844085Y-91274091D01*
X133840000Y-91232610D01*
X133840000Y-90631390D01*
X133844085Y-90589909D01*
X133854393Y-90555931D01*
X133871133Y-90524613D01*
X133893661Y-90497161D01*
X133921113Y-90474633D01*
X133952431Y-90457893D01*
X133986409Y-90447585D01*
X134027890Y-90443500D01*
X134704110Y-90443500D01*
X134745591Y-90447585D01*
X134745591Y-90447585D01*
G37*
G36*
X140725000Y-91417000D02*
X139823000Y-91417000D01*
X139823000Y-90415000D01*
X140725000Y-90415000D01*
X140725000Y-91417000D01*
X140725000Y-91417000D01*
G37*
G36*
X142625000Y-91417000D02*
X141723000Y-91417000D01*
X141723000Y-90415000D01*
X142625000Y-90415000D01*
X142625000Y-91417000D01*
X142625000Y-91417000D01*
G37*
G36*
X144651591Y-90439085D02*
X144685569Y-90449393D01*
X144716887Y-90466133D01*
X144744339Y-90488661D01*
X144766867Y-90516113D01*
X144783607Y-90547431D01*
X144793915Y-90581409D01*
X144798000Y-90622890D01*
X144798000Y-91224110D01*
X144793915Y-91265591D01*
X144783607Y-91299569D01*
X144766867Y-91330887D01*
X144744339Y-91358339D01*
X144716887Y-91380867D01*
X144685569Y-91397607D01*
X144651591Y-91407915D01*
X144610110Y-91412000D01*
X143933890Y-91412000D01*
X143892409Y-91407915D01*
X143858431Y-91397607D01*
X143827113Y-91380867D01*
X143799661Y-91358339D01*
X143777133Y-91330887D01*
X143760393Y-91299569D01*
X143750085Y-91265591D01*
X143746000Y-91224110D01*
X143746000Y-90622890D01*
X143750085Y-90581409D01*
X143760393Y-90547431D01*
X143777133Y-90516113D01*
X143799661Y-90488661D01*
X143827113Y-90466133D01*
X143858431Y-90449393D01*
X143892409Y-90439085D01*
X143933890Y-90435000D01*
X144610110Y-90435000D01*
X144651591Y-90439085D01*
X144651591Y-90439085D01*
G37*
G36*
X138555591Y-90439085D02*
X138589569Y-90449393D01*
X138620887Y-90466133D01*
X138648339Y-90488661D01*
X138670867Y-90516113D01*
X138687607Y-90547431D01*
X138697915Y-90581409D01*
X138702000Y-90622890D01*
X138702000Y-91224110D01*
X138697915Y-91265591D01*
X138687607Y-91299569D01*
X138670867Y-91330887D01*
X138648339Y-91358339D01*
X138620887Y-91380867D01*
X138589569Y-91397607D01*
X138555591Y-91407915D01*
X138514110Y-91412000D01*
X137837890Y-91412000D01*
X137796409Y-91407915D01*
X137762431Y-91397607D01*
X137731113Y-91380867D01*
X137703661Y-91358339D01*
X137681133Y-91330887D01*
X137664393Y-91299569D01*
X137654085Y-91265591D01*
X137650000Y-91224110D01*
X137650000Y-90622890D01*
X137654085Y-90581409D01*
X137664393Y-90547431D01*
X137681133Y-90516113D01*
X137703661Y-90488661D01*
X137731113Y-90466133D01*
X137762431Y-90449393D01*
X137796409Y-90439085D01*
X137837890Y-90435000D01*
X138514110Y-90435000D01*
X138555591Y-90439085D01*
X138555591Y-90439085D01*
G37*
G36*
X124839591Y-90386725D02*
X124873569Y-90397033D01*
X124904887Y-90413773D01*
X124932339Y-90436301D01*
X124954867Y-90463753D01*
X124971607Y-90495071D01*
X124981915Y-90529049D01*
X124986000Y-90570530D01*
X124986000Y-91171750D01*
X124981915Y-91213231D01*
X124971607Y-91247209D01*
X124954867Y-91278527D01*
X124932339Y-91305979D01*
X124904887Y-91328507D01*
X124873569Y-91345247D01*
X124839591Y-91355555D01*
X124798110Y-91359640D01*
X124121890Y-91359640D01*
X124080409Y-91355555D01*
X124046431Y-91345247D01*
X124015113Y-91328507D01*
X123987661Y-91305979D01*
X123965133Y-91278527D01*
X123948393Y-91247209D01*
X123938085Y-91213231D01*
X123934000Y-91171750D01*
X123934000Y-90570530D01*
X123938085Y-90529049D01*
X123948393Y-90495071D01*
X123965133Y-90463753D01*
X123987661Y-90436301D01*
X124015113Y-90413773D01*
X124046431Y-90397033D01*
X124080409Y-90386725D01*
X124121890Y-90382640D01*
X124798110Y-90382640D01*
X124839591Y-90386725D01*
X124839591Y-90386725D01*
G37*
G36*
X128858617Y-88591605D02*
X128891430Y-88601558D01*
X128921667Y-88617720D01*
X128948170Y-88639470D01*
X128969920Y-88665973D01*
X128986082Y-88696210D01*
X128996035Y-88729023D01*
X129000000Y-88769280D01*
X129000000Y-89733000D01*
X128996035Y-89773257D01*
X128986082Y-89806070D01*
X128969920Y-89836307D01*
X128948170Y-89862810D01*
X128921667Y-89884560D01*
X128891430Y-89900722D01*
X128858617Y-89910675D01*
X128818360Y-89914640D01*
X128229640Y-89914640D01*
X128189383Y-89910675D01*
X128156570Y-89900722D01*
X128126333Y-89884560D01*
X128099830Y-89862810D01*
X128078080Y-89836307D01*
X128061918Y-89806070D01*
X128051965Y-89773257D01*
X128048000Y-89733000D01*
X128048000Y-88769280D01*
X128051965Y-88729023D01*
X128061918Y-88696210D01*
X128078080Y-88665973D01*
X128099830Y-88639470D01*
X128126333Y-88617720D01*
X128156570Y-88601558D01*
X128189383Y-88591605D01*
X128229640Y-88587640D01*
X128818360Y-88587640D01*
X128858617Y-88591605D01*
X128858617Y-88591605D01*
G37*
G36*
X127097710Y-89886790D02*
X125896290Y-89886790D01*
X125896290Y-88583770D01*
X127097710Y-88583770D01*
X127097710Y-89886790D01*
X127097710Y-89886790D01*
G37*
G36*
X130681591Y-88898085D02*
X130715569Y-88908393D01*
X130746887Y-88925133D01*
X130774339Y-88947661D01*
X130796867Y-88975113D01*
X130813607Y-89006431D01*
X130823915Y-89040409D01*
X130828000Y-89081890D01*
X130828000Y-89683110D01*
X130823915Y-89724591D01*
X130813607Y-89758569D01*
X130796867Y-89789887D01*
X130774339Y-89817339D01*
X130746887Y-89839867D01*
X130715569Y-89856607D01*
X130681591Y-89866915D01*
X130640110Y-89871000D01*
X129963890Y-89871000D01*
X129922409Y-89866915D01*
X129888431Y-89856607D01*
X129857113Y-89839867D01*
X129829661Y-89817339D01*
X129807133Y-89789887D01*
X129790393Y-89758569D01*
X129780085Y-89724591D01*
X129776000Y-89683110D01*
X129776000Y-89081890D01*
X129780085Y-89040409D01*
X129790393Y-89006431D01*
X129807133Y-88975113D01*
X129829661Y-88947661D01*
X129857113Y-88925133D01*
X129888431Y-88908393D01*
X129922409Y-88898085D01*
X129963890Y-88894000D01*
X130640110Y-88894000D01*
X130681591Y-88898085D01*
X130681591Y-88898085D01*
G37*
G36*
X132713591Y-88872585D02*
X132747569Y-88882893D01*
X132778887Y-88899633D01*
X132806339Y-88922161D01*
X132828867Y-88949613D01*
X132845607Y-88980931D01*
X132855915Y-89014909D01*
X132860000Y-89056390D01*
X132860000Y-89657610D01*
X132855915Y-89699091D01*
X132845607Y-89733069D01*
X132828867Y-89764387D01*
X132806339Y-89791839D01*
X132778887Y-89814367D01*
X132747569Y-89831107D01*
X132713591Y-89841415D01*
X132672110Y-89845500D01*
X131995890Y-89845500D01*
X131954409Y-89841415D01*
X131920431Y-89831107D01*
X131889113Y-89814367D01*
X131861661Y-89791839D01*
X131839133Y-89764387D01*
X131822393Y-89733069D01*
X131812085Y-89699091D01*
X131808000Y-89657610D01*
X131808000Y-89056390D01*
X131812085Y-89014909D01*
X131822393Y-88980931D01*
X131839133Y-88949613D01*
X131861661Y-88922161D01*
X131889113Y-88899633D01*
X131920431Y-88882893D01*
X131954409Y-88872585D01*
X131995890Y-88868500D01*
X132672110Y-88868500D01*
X132713591Y-88872585D01*
X132713591Y-88872585D01*
G37*
G36*
X134745591Y-88872585D02*
X134779569Y-88882893D01*
X134810887Y-88899633D01*
X134838339Y-88922161D01*
X134860867Y-88949613D01*
X134877607Y-88980931D01*
X134887915Y-89014909D01*
X134892000Y-89056390D01*
X134892000Y-89657610D01*
X134887915Y-89699091D01*
X134877607Y-89733069D01*
X134860867Y-89764387D01*
X134838339Y-89791839D01*
X134810887Y-89814367D01*
X134779569Y-89831107D01*
X134745591Y-89841415D01*
X134704110Y-89845500D01*
X134027890Y-89845500D01*
X133986409Y-89841415D01*
X133952431Y-89831107D01*
X133921113Y-89814367D01*
X133893661Y-89791839D01*
X133871133Y-89764387D01*
X133854393Y-89733069D01*
X133844085Y-89699091D01*
X133840000Y-89657610D01*
X133840000Y-89056390D01*
X133844085Y-89014909D01*
X133854393Y-88980931D01*
X133871133Y-88949613D01*
X133893661Y-88922161D01*
X133921113Y-88899633D01*
X133952431Y-88882893D01*
X133986409Y-88872585D01*
X134027890Y-88868500D01*
X134704110Y-88868500D01*
X134745591Y-88872585D01*
X134745591Y-88872585D01*
G37*
G36*
X144651591Y-88864085D02*
X144685569Y-88874393D01*
X144716887Y-88891133D01*
X144744339Y-88913661D01*
X144766867Y-88941113D01*
X144783607Y-88972431D01*
X144793915Y-89006409D01*
X144798000Y-89047890D01*
X144798000Y-89649110D01*
X144793915Y-89690591D01*
X144783607Y-89724569D01*
X144766867Y-89755887D01*
X144744339Y-89783339D01*
X144716887Y-89805867D01*
X144685569Y-89822607D01*
X144651591Y-89832915D01*
X144610110Y-89837000D01*
X143933890Y-89837000D01*
X143892409Y-89832915D01*
X143858431Y-89822607D01*
X143827113Y-89805867D01*
X143799661Y-89783339D01*
X143777133Y-89755887D01*
X143760393Y-89724569D01*
X143750085Y-89690591D01*
X143746000Y-89649110D01*
X143746000Y-89047890D01*
X143750085Y-89006409D01*
X143760393Y-88972431D01*
X143777133Y-88941113D01*
X143799661Y-88913661D01*
X143827113Y-88891133D01*
X143858431Y-88874393D01*
X143892409Y-88864085D01*
X143933890Y-88860000D01*
X144610110Y-88860000D01*
X144651591Y-88864085D01*
X144651591Y-88864085D01*
G37*
G36*
X138555591Y-88864085D02*
X138589569Y-88874393D01*
X138620887Y-88891133D01*
X138648339Y-88913661D01*
X138670867Y-88941113D01*
X138687607Y-88972431D01*
X138697915Y-89006409D01*
X138702000Y-89047890D01*
X138702000Y-89649110D01*
X138697915Y-89690591D01*
X138687607Y-89724569D01*
X138670867Y-89755887D01*
X138648339Y-89783339D01*
X138620887Y-89805867D01*
X138589569Y-89822607D01*
X138555591Y-89832915D01*
X138514110Y-89837000D01*
X137837890Y-89837000D01*
X137796409Y-89832915D01*
X137762431Y-89822607D01*
X137731113Y-89805867D01*
X137703661Y-89783339D01*
X137681133Y-89755887D01*
X137664393Y-89724569D01*
X137654085Y-89690591D01*
X137650000Y-89649110D01*
X137650000Y-89047890D01*
X137654085Y-89006409D01*
X137664393Y-88972431D01*
X137681133Y-88941113D01*
X137703661Y-88913661D01*
X137731113Y-88891133D01*
X137762431Y-88874393D01*
X137796409Y-88864085D01*
X137837890Y-88860000D01*
X138514110Y-88860000D01*
X138555591Y-88864085D01*
X138555591Y-88864085D01*
G37*
G36*
X124839591Y-88811725D02*
X124873569Y-88822033D01*
X124904887Y-88838773D01*
X124932339Y-88861301D01*
X124954867Y-88888753D01*
X124971607Y-88920071D01*
X124981915Y-88954049D01*
X124986000Y-88995530D01*
X124986000Y-89596750D01*
X124981915Y-89638231D01*
X124971607Y-89672209D01*
X124954867Y-89703527D01*
X124932339Y-89730979D01*
X124904887Y-89753507D01*
X124873569Y-89770247D01*
X124839591Y-89780555D01*
X124798110Y-89784640D01*
X124121890Y-89784640D01*
X124080409Y-89780555D01*
X124046431Y-89770247D01*
X124015113Y-89753507D01*
X123987661Y-89730979D01*
X123965133Y-89703527D01*
X123948393Y-89672209D01*
X123938085Y-89638231D01*
X123934000Y-89596750D01*
X123934000Y-88995530D01*
X123938085Y-88954049D01*
X123948393Y-88920071D01*
X123965133Y-88888753D01*
X123987661Y-88861301D01*
X124015113Y-88838773D01*
X124046431Y-88822033D01*
X124080409Y-88811725D01*
X124121890Y-88807640D01*
X124798110Y-88807640D01*
X124839591Y-88811725D01*
X124839591Y-88811725D01*
G37*
G36*
X141675000Y-89417000D02*
X140773000Y-89417000D01*
X140773000Y-88415000D01*
X141675000Y-88415000D01*
X141675000Y-89417000D01*
X141675000Y-89417000D01*
G37*
M02*
