M48
;DRILL file {KiCad (5.0.1)-3} date 12/29/2019 1:00:23 PM
;FORMAT={-:-/ absolute / inch / decimal}
FMAT,2
INCH,TZ
T1C0.0157
T2C0.0300
T3C0.0314
T4C0.0374
T5C0.0400
T6C0.0866
%
G90
G05
M72
T1
X4.32Y-3.92
X4.49Y-4.15
X4.55Y-4.15
X4.77Y-4.29
X4.85Y-4.14
X4.86Y-3.9
X4.93Y-4.08
X4.93Y-4.21
X5.05Y-4.35
X5.2Y-4.57
X5.3Y-3.97
X5.36Y-3.65
X5.42Y-3.65
X5.42Y-4.25
X5.42Y-4.3
X5.47Y-4.16
X5.48Y-3.65
X5.52Y-4.57
X5.66Y-3.72
X5.71Y-3.72
X5.73Y-3.45
X5.76Y-3.72
X5.8Y-3.45
X5.8Y-3.53
X6.17Y-4.04
T2
X4.47Y-3.63
X4.57Y-3.63
X4.67Y-3.63
X4.77Y-3.63
T3
X6.Y-3.91
X6.Y-4.01
T4
X4.21Y-3.8647
X4.21Y-3.9631
X4.21Y-4.0616
X4.21Y-4.16
T5
X4.77Y-4.56
X4.87Y-4.57
X4.97Y-4.56
X5.07Y-4.57
T6
X6.2Y-3.81
X6.2Y-4.21
T0
M30
